<svg xmlns="http://www.w3.org/2000/svg" xmlns:xlink="http://www.w3.org/1999/xlink" width="311.915" height="488.077" viewBox="0 0 311.915 488.077">
  <defs>
    <style>
      .cls-1 {
        fill: #e1f2fb;
      }

      .cls-2 {
        clip-path: url(#clip-path);
      }

      .cls-3 {
        fill: #1f86ce;
      }

      .cls-4 {
        fill: #2b2b2b;
      }

      .cls-5 {
        fill: #fff;
      }

      .cls-6 {
        fill: #1a1311;
      }
    </style>
    <clipPath id="clip-path">
      <circle id="Ellipse_225" data-name="Ellipse 225" class="cls-1" cx="155.707" cy="155.707" r="155.707"/>
    </clipPath>
  </defs>
  <g id="Group_8790" data-name="Group 8790" transform="translate(-5556 -5704)">
    <path id="Path_30693" data-name="Path 30693" class="cls-1" d="M155.707,0A155.707,155.707,0,1,1,0,155.707,155.707,155.707,0,0,1,155.707,0Z" transform="translate(5867.415 5704) rotate(90)"/>
    <path id="Path_30692" data-name="Path 30692" class="cls-1" d="M155.707,0A155.707,155.707,0,1,1,0,155.707,155.707,155.707,0,0,1,155.707,0Z" transform="translate(5867.915 5879.602) rotate(90)"/>
    <g id="Mask_Group_166" data-name="Mask Group 166" class="cls-2" transform="translate(5867.415 5880.663) rotate(90)">
      <circle id="Ellipse_224" data-name="Ellipse 224" class="cls-3" cx="155.707" cy="155.707" r="155.707" transform="translate(-175.602)"/>
    </g>
    <path id="Path_30698" data-name="Path 30698" class="cls-4" d="M-43.771-8.658c-.884.026-1.9.052-3.146.1-2.093.078-2.093.078-2.47.078-.195,0-.286,0-.52-.013l.039.949c.871-.143,3.5-.273,6.11-.325v.676c0,.156.013.286.013.338,0,.481,0,.533.013.715a2,2,0,0,0-1.508-.585,2.163,2.163,0,0,0-2.3,2.145,2.015,2.015,0,0,0,2.132,2.054,2.032,2.032,0,0,0,1.638-.7,1.821,1.821,0,0,0,.351-.637,3.367,3.367,0,0,1-1.456,2.743,6.663,6.663,0,0,1-2.106.975,2.854,2.854,0,0,1,.572.819A8.269,8.269,0,0,0-44.356-.377,4.184,4.184,0,0,0-42.614-3.77,3.725,3.725,0,0,0-42.926-5.3V-7.878c1.053-.026,1.2-.026,1.391-.026a23.105,23.105,0,0,1,2.483.065v-.923c-.429.052-1.43.078-3.887.091v-.143a10.762,10.762,0,0,1,.065-1.625h-.975a4.381,4.381,0,0,1,.052.754Zm-.039,3.8a1.457,1.457,0,0,1-1.521,1.534A1.256,1.256,0,0,1-46.67-4.615,1.376,1.376,0,0,1-45.227-5.98a1.663,1.663,0,0,1,.871.208A.941.941,0,0,1-43.81-4.862Zm9.737-5.265a5.38,5.38,0,0,1-.143.819,21.952,21.952,0,0,0-.676,5.343A20.8,20.8,0,0,0-34.528-.1c.052.312.065.364.078.481l.923-.1a1.334,1.334,0,0,1-.026-.26,11.258,11.258,0,0,1,1.118-3.679l-.637-.3a2.667,2.667,0,0,1-.1.26,11.727,11.727,0,0,0-.767,2.275H-34l-.013-.624c-.039-.585-.052-1.352-.052-1.82a18.585,18.585,0,0,1,1-6.1Zm6.058,2.743c-.533.026-.884.039-1.391.039a9.062,9.062,0,0,1-2.34-.208l-.026.91h.052a.6.6,0,0,1,.13.013,2.256,2.256,0,0,1,.234.013,3.381,3.381,0,0,1,.4.026c.442.026.923.039,1.469.039s.923-.013,1.482-.039c.039,1.963.091,3.133.13,3.393a3.9,3.9,0,0,0-1.443-.247c-1.456,0-2.47.767-2.47,1.872s.949,1.82,2.457,1.82A2.228,2.228,0,0,0-27.144-.845a2.309,2.309,0,0,0,.156-.9,1.742,1.742,0,0,0-.026-.325.77.77,0,0,1,.078.052l.078.052a.77.77,0,0,0,.078.052A6.765,6.765,0,0,1-24.934-.559l.416-.923a1.722,1.722,0,0,1-.325-.208,10.04,10.04,0,0,0-2.184-1.287c-.091-1.56-.13-2.548-.13-3.679.611-.078,1.079-.143,1.365-.208.481-.091.754-.156.832-.169.013,0,.052-.013.078-.013l-.039-.858a10.6,10.6,0,0,1-2.249.455v-.637a16.214,16.214,0,0,1,.078-2.041h-.975a2.609,2.609,0,0,1,.039.533v1.482Zm.156,4.979a2.4,2.4,0,0,1,.026.377A1.445,1.445,0,0,1-28.08-1a1.816,1.816,0,0,1-1.326.468c-.91,0-1.521-.416-1.521-1.04,0-.676.65-1.092,1.677-1.092A3.559,3.559,0,0,1-27.859-2.4Zm1.209-8.333a10.5,10.5,0,0,1,.975,2.145l.689-.247a9.726,9.726,0,0,0-.988-2.106Zm1.534-.39a10.672,10.672,0,0,1,.988,2.106l.663-.26a9.885,9.885,0,0,0-.988-2.093Zm5.85,1.495a13.059,13.059,0,0,1,.936,2.47c-.208.065-.338.091-.663.208a14.267,14.267,0,0,1-1.911.611l.338.923a12.39,12.39,0,0,1,1.781-.715,5.619,5.619,0,0,0,.7-.234A46.23,46.23,0,0,1-16.445.65l1.053-.234a4.126,4.126,0,0,1-.169-.559c-.546-2.444-1.014-4.277-1.677-6.487A15.328,15.328,0,0,1-13-7.553c1.313,0,2.08.585,2.08,1.573a1.576,1.576,0,0,1-.624,1.326,2.633,2.633,0,0,1-1.56.507,4.418,4.418,0,0,1-2.184-.6A5.789,5.789,0,0,1-15.21-4a1.869,1.869,0,0,1-.013.234,5.505,5.505,0,0,0,2.2.481A2.779,2.779,0,0,0-9.971-5.967c0-1.456-1.118-2.392-2.86-2.392a6.547,6.547,0,0,0-.975.078c-.013-.156-.013-.4-.013-.416a12.266,12.266,0,0,1,.065-1.755h-.975a18.018,18.018,0,0,1,.052,2.3,23.055,23.055,0,0,0-2.8.728c-.182-.585-.312-.949-.572-1.716a5.225,5.225,0,0,1-.247-.793ZM.767-10.478A20.667,20.667,0,0,1-3.042-6.916a10.045,10.045,0,0,0-1.105.884,1.259,1.259,0,0,0-.377.871c0,.442.208.728.936,1.3C-1.69-2.379-1.17-1.95-.3-1.144A12.272,12.272,0,0,1,1.378.637L2.2-.169a3.31,3.31,0,0,1-.364-.325,38.33,38.33,0,0,0-4.16-3.549c-1.053-.819-1.157-.91-1.157-1.144,0-.182.091-.286.572-.65A37.869,37.869,0,0,0,.078-8.294c1.352-1.3,1.456-1.391,1.6-1.508ZM18.135-5.317a8.989,8.989,0,0,1,1.313.078v-.923a8.4,8.4,0,0,1-1.313.078H12.753l.689-1.456c.117-.26.117-.26.208-.442l-.936-.208a8.371,8.371,0,0,1-.871,2.106H9.529a7.044,7.044,0,0,1-1.313-.078v.923a9.241,9.241,0,0,1,1.313-.078h1.9A16.656,16.656,0,0,1,9.737-2.86a26.684,26.684,0,0,1,3.536,1.079,8.1,8.1,0,0,1-1.43.806A14.745,14.745,0,0,1,8.19.078,2.889,2.889,0,0,1,8.671.9,14.879,14.879,0,0,0,10.452.442a15.67,15.67,0,0,0,2.379-.988,7.1,7.1,0,0,0,1.313-.9A26.532,26.532,0,0,1,18.538.819l.624-.741a36.29,36.29,0,0,0-4.407-2.093,7.948,7.948,0,0,0,1.911-3.3Zm-2.366,0A6.277,6.277,0,0,1,14.9-3.471a6.607,6.607,0,0,1-.962,1.144,27.354,27.354,0,0,0-2.9-.923A19.869,19.869,0,0,0,12.35-5.317ZM13.221-9.373H9.75a11.62,11.62,0,0,1-1.391-.065,7.881,7.881,0,0,1,.065.988v.741a6.813,6.813,0,0,1-.065.91H9.23v-1.82h9.087V-6.8h.871a5.083,5.083,0,0,1-.065-.91V-8.45a5.725,5.725,0,0,1,.065-.988,11.845,11.845,0,0,1-1.4.065H14.066V-9.7a6.228,6.228,0,0,1,.078-1.079h-1A6.664,6.664,0,0,1,13.221-9.7ZM27.807-5.408v1.976H25.636A7.435,7.435,0,0,1,24.427-3.5v.884a7.632,7.632,0,0,1,1.209-.065h2.171V-.351H24.115a10.721,10.721,0,0,1-1.456-.078V.52A9.864,9.864,0,0,1,24.1.429h8.489A9.618,9.618,0,0,1,34.008.52V-.429a10.562,10.562,0,0,1-1.43.078H28.652V-2.678H31.07a7.453,7.453,0,0,1,1.2.065V-3.5a7.355,7.355,0,0,1-1.2.065H28.652V-5.408h2.106a7.552,7.552,0,0,1,1.2.065v-.884a7.2,7.2,0,0,1-1.17.065H25.792a7.3,7.3,0,0,1-1.17-.065v.884a7.733,7.733,0,0,1,1.209-.065Zm-.065-5.226a10.168,10.168,0,0,1-2.2,2.509,14.145,14.145,0,0,1-3.263,1.989,2.55,2.55,0,0,1,.572.78A16.2,16.2,0,0,0,26.2-7.566a10.674,10.674,0,0,0,2.08-2.34,11.371,11.371,0,0,0,2.379,2.5,18.434,18.434,0,0,0,3.3,2.093,3.485,3.485,0,0,1,.559-.858A13.374,13.374,0,0,1,31.3-7.995a10.136,10.136,0,0,1-2.535-2.639ZM39.065-3.055a1.947,1.947,0,0,0-1.95,1.95,1.947,1.947,0,0,0,1.95,1.95,1.947,1.947,0,0,0,1.95-1.95A1.947,1.947,0,0,0,39.065-3.055Zm0,.741a1.215,1.215,0,0,1,1.209,1.209A1.215,1.215,0,0,1,39.065.1a1.215,1.215,0,0,1-1.209-1.209A1.215,1.215,0,0,1,39.065-2.314Zm-102,14.865v2.912a7.3,7.3,0,0,1-1.807.585l.234.884A5.035,5.035,0,0,1-64,16.711c.455-.182.676-.273,1.066-.429v3.471c0,.3-.1.377-.468.377a9.805,9.805,0,0,1-1.17-.091,2.657,2.657,0,0,1,.182.819c.455.013.637.026.845.026,1.144,0,1.43-.182,1.43-.923v-4.03c.6-.273.806-.377,1.391-.676v-.793a14,14,0,0,1-1.391.663V12.551h.429a5.7,5.7,0,0,1,.871.052v-.845a4.009,4.009,0,0,1-.884.065h-.416V10.562a7.335,7.335,0,0,1,.091-1.3h-1a7.8,7.8,0,0,1,.091,1.313v1.248h-.741a5.81,5.81,0,0,1-.975-.078V12.6a7.278,7.278,0,0,1,.962-.052Zm5.252-.988v1.716h-1.9A8.939,8.939,0,0,1-60.9,13.2v.871a12.157,12.157,0,0,1,1.326-.065h3.861v1.5H-59.4a7.718,7.718,0,0,1-1.326-.078v.884A9.7,9.7,0,0,1-59.4,16.23h3.679v3.5c0,.3-.13.377-.572.377a7.14,7.14,0,0,1-1.508-.169,3.149,3.149,0,0,1,.221.884c.572.039.962.065,1.339.065,1,0,1.326-.234,1.326-.962V16.23h.39a8.588,8.588,0,0,1,1.261.078v-.884a7.012,7.012,0,0,1-1.261.078h-.39v-1.5h.312a9.186,9.186,0,0,1,1.326.078V13.2a8.819,8.819,0,0,1-1.326.078h-2.275V11.563h1.911a8.86,8.86,0,0,1,1.235.065v-.871a7.744,7.744,0,0,1-1.235.078h-1.911v-.52a6.278,6.278,0,0,1,.078-1.04h-.962a6.626,6.626,0,0,1,.078,1.04v.52h-1.495a7.565,7.565,0,0,1-1.222-.078v.871a8.894,8.894,0,0,1,1.222-.065Zm-2.249,5.681a10.6,10.6,0,0,1,1.833,2.08l.663-.546A14.976,14.976,0,0,0-59.267,16.8Zm9.7-1.547a5.36,5.36,0,0,1,.845-.1c.247-.013.52-.039,1.131-.1v4.238a9.638,9.638,0,0,1-.078,1.287h.91a8.975,8.975,0,0,1-.078-1.287V15.411c.429-.052.546-.065.975-.143.078.26.1.351.182.676l.611-.273a11.336,11.336,0,0,0-.91-2.353l-.559.247a6.615,6.615,0,0,1,.468,1.079c-.429.065-.676.078-1.82.169a32,32,0,0,0,1.82-2.652c.507-.858.507-.858.65-1.066l-.741-.442a10.312,10.312,0,0,1-1.235,2.314c-.325-.4-.377-.468-.767-.9a14.834,14.834,0,0,0,1.222-2.145,3.176,3.176,0,0,1,.247-.416l-.793-.377a9.38,9.38,0,0,1-1.131,2.457l-.637-.637-.429.611a14.127,14.127,0,0,1,1.859,2.054c-.364.533-.364.533-.9,1.248-.169.013-.429.013-.52.013a2.749,2.749,0,0,1-.455-.026Zm7.41-4.511v1.365H-44.2a8.6,8.6,0,0,1-1.287-.078v.845A8.849,8.849,0,0,1-44.2,13.24h3.757a8.414,8.414,0,0,1,1.274.078v-.845a8.725,8.725,0,0,1-1.287.078h-1.612V11.186H-40.1a8.555,8.555,0,0,1,1.3.078v-.845a8.867,8.867,0,0,1-1.313.078h-1.95v-.273a6.228,6.228,0,0,1,.078-1.079h-.91a6.277,6.277,0,0,1,.078,1.066V10.5h-1.612a8.939,8.939,0,0,1-1.326-.078v.845a7.469,7.469,0,0,1,1.313-.078Zm-6.812,5.083a10.461,10.461,0,0,1-.689,3.536l.7.364a13.813,13.813,0,0,0,.7-3.757Zm2.652.117a12.4,12.4,0,0,1,.546,2.717l.676-.234a20.112,20.112,0,0,0-.611-2.691Zm2.132.156v-1.6h5.2v1.6h.819a5.763,5.763,0,0,1-.039-.78v-.741a7.694,7.694,0,0,1,.039-.845,9.281,9.281,0,0,1-1.365.065h-4.212c-.637,0-.975-.013-1.235-.039a4.729,4.729,0,0,1,.052.858v.65a5.959,5.959,0,0,1-.052.832Zm2.912-.858a6.184,6.184,0,0,1,.078,1.092v3.016c0,.7.26.845,1.508.845.949,0,1.248-.1,1.482-.533a4.925,4.925,0,0,0,.377-1.859,1.824,1.824,0,0,1-.78-.325,5,5,0,0,1-.234,1.7c-.1.221-.286.273-.845.273-.611,0-.741-.052-.741-.312V16.776a6.184,6.184,0,0,1,.078-1.092Zm-1.872,0a2.967,2.967,0,0,1,.052.585,4.655,4.655,0,0,1-.6,2.392,3.583,3.583,0,0,1-2.106,1.521,1.89,1.89,0,0,1,.572.689,4.307,4.307,0,0,0,2.106-1.638,5.356,5.356,0,0,0,.806-2.743,5.434,5.434,0,0,1,.078-.806Zm15.236-2.9v2.7h-1.5a8.11,8.11,0,0,1-1.261-.078V16.3A9.312,9.312,0,0,1-30,16.217h1.43v3.419h-2.314a10.352,10.352,0,0,1-1.417-.078v.923a9.383,9.383,0,0,1,1.417-.091h5.343a9.383,9.383,0,0,1,1.417.091v-.923a10.352,10.352,0,0,1-1.417.078h-2.21V16.217H-26a9.186,9.186,0,0,1,1.326.078v-.884a8.628,8.628,0,0,1-1.313.078h-1.768v-2.7h2.028a11.679,11.679,0,0,1,1.326.078v-.9a7.887,7.887,0,0,1-1.339.078h-2.015v-1.56a8.111,8.111,0,0,1,.091-1.313h-1a8.444,8.444,0,0,1,.091,1.313v1.56h-1.677c.091-.351.156-.585.221-.91a5,5,0,0,1,.208-.858l-.9-.182a6.074,6.074,0,0,1-.117,1.014,9,9,0,0,1-1.547,3.7,5.075,5.075,0,0,1,.728.4,9.772,9.772,0,0,0,1.17-2.431Zm-6.669,2.574a14.329,14.329,0,0,0,.65-3.562l-.689-.117a11.3,11.3,0,0,1-.637,3.406Zm2.015,5.655a9.512,9.512,0,0,1-.091-1.443V10.458a8.219,8.219,0,0,1,.091-1.313h-1.014a8.559,8.559,0,0,1,.091,1.313v9.061a10.739,10.739,0,0,1-.091,1.5Zm1.443-7.644a10.373,10.373,0,0,0-.6-1.989l-.6.234a6.7,6.7,0,0,1,.546,2Zm17.147-1.989a3.741,3.741,0,0,1,1.508.325,3.427,3.427,0,0,1,2.067,3.263,3.924,3.924,0,0,1-2.3,3.64,7.793,7.793,0,0,1-2.171.611,2.066,2.066,0,0,1,.455.871,10.057,10.057,0,0,0,1.976-.6,4.734,4.734,0,0,0,2.977-4.485,4.352,4.352,0,0,0-1.261-3.172,5.033,5.033,0,0,0-3.575-1.287,5.43,5.43,0,0,0-4.2,1.729,5.408,5.408,0,0,0-1.365,3.588c0,1.82.923,3.172,2.158,3.172.936,0,1.7-.78,2.457-2.5A19.487,19.487,0,0,0-14.638,11.381Zm-.936.013a17.856,17.856,0,0,1-1.183,4.81c-.559,1.274-1.079,1.885-1.625,1.885-.7,0-1.248-.962-1.248-2.21a4.5,4.5,0,0,1,2.119-3.874A4.106,4.106,0,0,1-15.574,11.394Zm14.261-1.157H-5.148a9.114,9.114,0,0,1-1.313-.078v.858a9.658,9.658,0,0,1,1.287-.065H3.575a9.658,9.658,0,0,1,1.287.065v-.858a9.1,9.1,0,0,1-1.287.078H-.481v-.26A4.52,4.52,0,0,1-.4,9.106h-.988a4.76,4.76,0,0,1,.078.884ZM-4.3,13.448a9.53,9.53,0,0,1-.039,1.014,10.759,10.759,0,0,1,1.17-.052h4.8a10.072,10.072,0,0,1,1.2.052,6.577,6.577,0,0,1-.039-1.014v-.7c0-.442.013-.624.039-1a8.857,8.857,0,0,1-1.105.052H-3.107a10.376,10.376,0,0,1-1.235-.052c.026.273.039.572.039.988Zm.793-.975h5.5v1.274h-5.5Zm-2.522,7.241a9.369,9.369,0,0,1-.078,1.313h.962A8.082,8.082,0,0,1-5.226,19.7V15.957h8.9v3.809c0,.26-.065.3-.533.3a9.973,9.973,0,0,1-1.469-.117,2.612,2.612,0,0,1,.169.806c.832.039.91.039,1.209.039.689,0,.91-.039,1.118-.182s.3-.364.3-.806V16.36a10.576,10.576,0,0,1,.052-1.144,10.04,10.04,0,0,1-1.261.052H-4.8a11.971,11.971,0,0,1-1.287-.052,10.915,10.915,0,0,1,.052,1.17Zm7.826-2.067a7.657,7.657,0,0,1,.039-.884c-.338.026-.65.039-1.144.039h-3.12c-.481,0-.754-.013-1.053-.039a9.329,9.329,0,0,1,.039.949v1.3a7.562,7.562,0,0,1-.065,1.079h.845v-.715h3.3c.455,0,.858.013,1.2.039a7.961,7.961,0,0,1-.039-.923Zm-4.472-.195H1.04v1.274H-2.678ZM9.048,10.783a7.033,7.033,0,0,1,.039.767c.065,3.2.247,4.862.7,6.1s1.118,1.976,1.846,1.976c.923,0,1.521-.871,2.158-3.146a4.156,4.156,0,0,1-.767-.741,9.353,9.353,0,0,1-.676,2.223c-.195.429-.416.65-.65.65-.494,0-1.027-.9-1.313-2.223a22.262,22.262,0,0,1-.338-4.043A9.423,9.423,0,0,1,10.14,10.8Zm6.578,1.1a11.481,11.481,0,0,1,2.7,6.409l.923-.377a12.448,12.448,0,0,0-.975-3.471,11.284,11.284,0,0,0-1.859-2.964Zm14,1.742v1.625H27.794a8.479,8.479,0,0,1-1.118-.065v.871A8.479,8.479,0,0,1,27.794,16h1.833v3.7c0,.221-.13.3-.494.3a9.64,9.64,0,0,1-1.326-.117,2.493,2.493,0,0,1,.26.858c.39.039.845.052,1.144.052.923,0,1.235-.247,1.235-1V16h2.431a8.21,8.21,0,0,1,1.235.078v-.9a8.091,8.091,0,0,1-1.235.078H30.446V13.63H31.8a7.563,7.563,0,0,1,.988.052v-.819a6.951,6.951,0,0,1-.988.052H28.535a7,7,0,0,1-1.014-.052A10.465,10.465,0,0,0,30.1,10.016a11.425,11.425,0,0,0,4.03,3.679,6.641,6.641,0,0,1,.494-.78,9.237,9.237,0,0,1-4.095-3.64h-.91A8.507,8.507,0,0,1,25.922,12.9a2.15,2.15,0,0,1,.52.7,10.407,10.407,0,0,0,1.079-.741v.819a7.9,7.9,0,0,1,1-.052Zm-6.539,5.9a10.468,10.468,0,0,1-.078,1.391h.936c-.039-.4-.065-.871-.065-1.378V10.328h2.028a15.692,15.692,0,0,1-1.482,3.042,4,4,0,0,1,1.183,3.016c0,.585-.182.793-.676.793a5.827,5.827,0,0,1-.767-.052,2.315,2.315,0,0,1,.156.78c.286.013.3.013.442.013a3.128,3.128,0,0,0,.923-.117c.468-.156.689-.624.689-1.456a5.047,5.047,0,0,0-.26-1.612,4.386,4.386,0,0,0-.832-1.43A21.113,21.113,0,0,0,26.7,10.432c.052-.1.078-.182.1-.221A1.107,1.107,0,0,0,26.9,10l-.455-.442a4.152,4.152,0,0,1-.832.052H23.894a6.915,6.915,0,0,1-.845-.039c.026.26.039.624.039.988Zm8.476-2.613a10.187,10.187,0,0,0,2.223,3.315,3.63,3.63,0,0,1,.624-.689,7.226,7.226,0,0,1-2.158-2.938Zm-3.939-.338a6.841,6.841,0,0,1-.9,1.807,5.912,5.912,0,0,1-1.209,1.235,2.635,2.635,0,0,1,.611.6,7.738,7.738,0,0,0,2.223-3.328Zm12.948-6.422H38.506a8.867,8.867,0,0,1-1.313-.078v.871a8.989,8.989,0,0,1,1.313-.078h2.067v.208a3.649,3.649,0,0,1-.065.741h.91a4.1,4.1,0,0,1-.052-.754v-.2H44.33v.208a4.224,4.224,0,0,1-.052.741h.91a3.7,3.7,0,0,1-.065-.754v-.2h2.21a9.312,9.312,0,0,1,1.326.078v-.871a9.185,9.185,0,0,1-1.326.078h-2.21V9.886a4.224,4.224,0,0,1,.052-.741h-.9a4.419,4.419,0,0,1,.052.741v.273H41.366V9.886a4.224,4.224,0,0,1,.052-.741h-.9a4.32,4.32,0,0,1,.052.741Zm2.574,4.173a15.193,15.193,0,0,0,2.639-.468l-.559-.624a15.426,15.426,0,0,1-4.927.637h-.468a1.976,1.976,0,0,1,.286.65c1.053-.026,1.508-.052,2.314-.13v.988H40.469a6.558,6.558,0,0,1-1.157-.065v.78a6.758,6.758,0,0,1,1.144-.065h1.677a7.744,7.744,0,0,1-2.99,2.184,1.849,1.849,0,0,1,.507.624,7.776,7.776,0,0,0,2.834-2.379c-.039.416-.052.767-.052,1.17v.585a5.136,5.136,0,0,1-.065.975h.845a4.893,4.893,0,0,1-.065-.975v-.585c0-.351-.013-.754-.052-1.17a9.311,9.311,0,0,0,3.055,2.353,2.641,2.641,0,0,1,.468-.7,7.6,7.6,0,0,1-3.146-2.08h1.872a6.947,6.947,0,0,1,1.144.065v-.78a6.726,6.726,0,0,1-1.17.065H43.147ZM38.792,21v-.754H47.06V21h.884a10.673,10.673,0,0,1-.078-1.547V13.721a13.323,13.323,0,0,1,.078-1.573,12.3,12.3,0,0,1-1.534.065H39.429a11.942,11.942,0,0,1-1.521-.065,14.29,14.29,0,0,1,.078,1.573v5.707A11.613,11.613,0,0,1,37.908,21Zm0-8.073H47.06v6.6H38.792Zm16.679-1.677a18.19,18.19,0,0,1-2.782-.143l-.013.9a2.305,2.305,0,0,1,.286-.013h.208c.481.013,1.7.039,1.911.039a1.44,1.44,0,0,0,.247-.026l-.117.195A12.936,12.936,0,0,1,52.3,15.918l.728.728a4.3,4.3,0,0,1,1-1.079,4.884,4.884,0,0,1,2.9-1.378c.611,0,.923.312,1.027,1.027a10.092,10.092,0,0,0-1.937,1.04,2.688,2.688,0,0,0-1.326,2.054c0,1.339,1.131,2,3.458,2a20.168,20.168,0,0,0,3.159-.26,5.116,5.116,0,0,1,.52-.065l-.117-1a10.892,10.892,0,0,1-3.471.507c-1.833,0-2.639-.377-2.639-1.235,0-.78.676-1.391,2.444-2.223a3.416,3.416,0,0,1,.013.39A18.7,18.7,0,0,1,57.98,18.3l.884-.013a2.826,2.826,0,0,1-.026-.468c0-.117,0-.3.013-.585.013-.26.013-.546.013-.715,0-.325,0-.455-.026-.793a21.584,21.584,0,0,1,3.471-1.144l-.416-.91a2.86,2.86,0,0,1-.884.377c-.572.208-1.313.481-2.262.858a1.578,1.578,0,0,0-1.716-1.443,3.46,3.46,0,0,0-1.963.637c-.13.091-.13.091-.6.455a.1.1,0,0,1-.026-.039V14.5a.013.013,0,0,0,.013-.013c.013-.013.078-.065.169-.13.052-.039.312-.338.442-.494a9.586,9.586,0,0,0,1.17-1.846,41.975,41.975,0,0,0,4.29-.338,4.052,4.052,0,0,1,.52-.065l-.078-.884a18.3,18.3,0,0,1-4.1.494,2.213,2.213,0,0,0-.273.013c.065-.117.234-.468.4-.884a2.761,2.761,0,0,1,.338-.7L56.3,9.47a5.517,5.517,0,0,1-.624,1.781ZM-49.426,35.71c.143-.026.39-.052.572-.065,1.1-.065,1.1-.065,1.573-.1v4.121a9.043,9.043,0,0,1-.078,1.3h.923a7.484,7.484,0,0,1-.078-1.3v-4.2c.611-.065.611-.065,1.131-.143.091.234.13.351.247.663l.637-.351a15.7,15.7,0,0,0-1.2-2.314l-.572.312a6.6,6.6,0,0,1,.6,1.053c-.611.091-1.2.143-2.015.195.663-.845,1.677-2.275,2.171-3.068.351-.559.351-.559.52-.793l-.767-.416A12.491,12.491,0,0,1-47.1,32.928c-.468-.572-.468-.572-.819-.949a15.732,15.732,0,0,0,1.027-1.6,5.137,5.137,0,0,1,.481-.806l-.793-.351a7.954,7.954,0,0,1-1.2,2.236c-.195-.195-.26-.273-.533-.546l-.481.611a16,16,0,0,1,1.885,2.041c-.377.546-.377.546-1,1.352h-.325c-.364,0-.52-.013-.689-.026Zm9.035,1.755h.936c.39.013.637.013.754.013a2.3,2.3,0,0,1,.455.052v-.858a6.794,6.794,0,0,1-1.2.078h-.949V34.917h.936a6.882,6.882,0,0,1,1.2.065v-.858a6.9,6.9,0,0,1-1.2.078h-.936V32.447h1.17a8.028,8.028,0,0,1,1.287.065v-.871a8.024,8.024,0,0,1-1.287.078H-40.4a14.73,14.73,0,0,0,.819-1.729l.143-.338-.793-.247a9.261,9.261,0,0,1-.936,2.314h-1.872c.234-.429.481-.949.858-1.807.091-.195.117-.273.182-.4l-.832-.26a7.2,7.2,0,0,1-.494,1.469,9.8,9.8,0,0,1-1.833,2.847,2.3,2.3,0,0,1,.533.533,9.163,9.163,0,0,0,.689-.949c-.026.689-.039,1.053-.039,1.5V39.61a8.584,8.584,0,0,1-.078,1.326h.845V40.1H-39.1a10.635,10.635,0,0,1,1.274.065V39.3a5.754,5.754,0,0,1-1.274.078h-1.287ZM-43.212,34.2V32.447h2.067V34.2Zm0,.715h2.067V36.75h-2.067Zm0,2.548h2.067v1.911h-2.067Zm-5.5-1.144a10.756,10.756,0,0,1-.806,3.549l.689.351a14.085,14.085,0,0,0,.845-3.757Zm2.743.143a14.127,14.127,0,0,1,.546,3.055l.715-.195a20.163,20.163,0,0,0-.624-3.055Zm12.935-3.913v2.912a7.3,7.3,0,0,1-1.807.585l.234.884a5.036,5.036,0,0,1,.507-.221c.455-.182.676-.273,1.066-.429v3.471c0,.3-.1.377-.468.377a9.806,9.806,0,0,1-1.17-.091,2.657,2.657,0,0,1,.182.819c.455.013.637.026.845.026,1.144,0,1.43-.182,1.43-.923v-4.03c.6-.273.806-.377,1.391-.676v-.793a14,14,0,0,1-1.391.663V32.551h.429a5.7,5.7,0,0,1,.871.052v-.845a4.009,4.009,0,0,1-.884.065h-.416V30.562a7.335,7.335,0,0,1,.091-1.3h-1a7.8,7.8,0,0,1,.091,1.313v1.248h-.741a5.81,5.81,0,0,1-.975-.078V32.6a7.278,7.278,0,0,1,.962-.052Zm5.252-.988v1.716h-1.9a8.94,8.94,0,0,1-1.326-.078v.871a12.157,12.157,0,0,1,1.326-.065h3.861V35.5H-29.5a7.718,7.718,0,0,1-1.326-.078v.884A9.7,9.7,0,0,1-29.5,36.23h3.679v3.5c0,.3-.13.377-.572.377a7.14,7.14,0,0,1-1.508-.169,3.149,3.149,0,0,1,.221.884c.572.039.962.065,1.339.065,1,0,1.326-.234,1.326-.962V36.23h.39a8.588,8.588,0,0,1,1.261.078v-.884a7.012,7.012,0,0,1-1.261.078h-.39V34.007h.312a9.186,9.186,0,0,1,1.326.078V33.2a8.819,8.819,0,0,1-1.326.078h-2.275V31.563h1.911a8.86,8.86,0,0,1,1.235.065v-.871a7.744,7.744,0,0,1-1.235.078h-1.911v-.52a6.278,6.278,0,0,1,.078-1.04h-.962a6.626,6.626,0,0,1,.078,1.04v.52h-1.5a7.565,7.565,0,0,1-1.222-.078v.871a8.894,8.894,0,0,1,1.222-.065Zm-2.249,5.681a10.6,10.6,0,0,1,1.833,2.08l.663-.546A14.976,14.976,0,0,0-29.367,36.8Zm16.159-5.9c-.884.026-1.9.052-3.146.1-2.093.078-2.093.078-2.47.078-.195,0-.286,0-.52-.013l.039.949c.871-.143,3.5-.273,6.11-.325v.676c0,.156.013.286.013.338,0,.481,0,.533.013.715a2,2,0,0,0-1.508-.585,2.163,2.163,0,0,0-2.3,2.145,2.015,2.015,0,0,0,2.132,2.054,2.032,2.032,0,0,0,1.638-.7,1.821,1.821,0,0,0,.351-.637,3.367,3.367,0,0,1-1.456,2.743,6.663,6.663,0,0,1-2.106.975,2.854,2.854,0,0,1,.572.819,8.269,8.269,0,0,0,2.054-1.053,4.184,4.184,0,0,0,1.742-3.393,3.725,3.725,0,0,0-.312-1.534V32.122c1.053-.026,1.2-.026,1.391-.026a23.106,23.106,0,0,1,2.483.065v-.923c-.429.052-1.43.078-3.887.091v-.143a10.762,10.762,0,0,1,.065-1.625h-.975a4.381,4.381,0,0,1,.052.754Zm-.039,3.8a1.457,1.457,0,0,1-1.521,1.534,1.256,1.256,0,0,1-1.339-1.287,1.376,1.376,0,0,1,1.443-1.365,1.663,1.663,0,0,1,.871.208A.941.941,0,0,1-13.91,35.138ZM-3.367,31.29a6.4,6.4,0,0,1,.7-.065c1.976-.065,3.536-.156,3.952-.234a.5.5,0,0,1,.117-.013L1.43,31l-.052.052-.052.052-.182.182c-.9.884-2.951,2.691-4.342,3.8a14.483,14.483,0,0,1-1.82,1.326l.585.832A8.343,8.343,0,0,1,1.04,35.021c1.755,0,2.8.741,2.8,1.989,0,1.105-.715,1.9-2.08,2.275a3.721,3.721,0,0,0-.6-1.248A2.618,2.618,0,0,0-.988,36.971a1.689,1.689,0,0,0-1.885,1.521c0,1.2,1.053,1.872,2.886,1.872,2.886,0,4.771-1.339,4.771-3.367,0-1.664-1.391-2.73-3.562-2.73a6.587,6.587,0,0,0-3.185.806l-.026-.039a33.357,33.357,0,0,0,4.277-3.692,2.4,2.4,0,0,1,.663-.546L2.4,30.081a1.329,1.329,0,0,1-.624.143c-1.17.091-2.9.169-3.978.169a6,6,0,0,1-1.222-.078ZM.9,39.519a4.681,4.681,0,0,1-.949.091,3.322,3.322,0,0,1-1.456-.3.887.887,0,0,1-.52-.793c0-.494.4-.806,1.053-.806C-.039,37.712.611,38.336.9,39.519Zm12.7.923a8.034,8.034,0,0,1,1.04-.143c1.105-.13,3.341-.494,4.368-.715.221-.052.221-.052.364-.078.156.416.221.624.429,1.287l.767-.364a33.429,33.429,0,0,0-2.184-5.018l-.728.286a29.642,29.642,0,0,1,1.43,3.094,38.1,38.1,0,0,1-3.77.611,44.689,44.689,0,0,0,1.612-5.59c.065-.3.13-.533.208-.793l-.988-.208a27.865,27.865,0,0,1-1.69,6.682,6.719,6.719,0,0,1-.7.039c-.091,0-.182,0-.338-.013Zm-3.185-7.956v2.86a8.382,8.382,0,0,1-1.742.533l.26.884a13.714,13.714,0,0,1,1.482-.624v3.6c0,.286-.1.364-.481.364a6.92,6.92,0,0,1-1.066-.091,2.307,2.307,0,0,1,.169.819c.26.013.7.026.884.026.975,0,1.313-.247,1.313-.923V35.8c.494-.208.494-.208,1.287-.559v-.793c-.585.273-.78.364-1.287.572V32.486h.533a5,5,0,0,1,.819.052v-.832a3.573,3.573,0,0,1-.832.065h-.52V30.51a8.438,8.438,0,0,1,.078-1.3h-.975a7.3,7.3,0,0,1,.078,1.313v1.248H9.75a6.2,6.2,0,0,1-.988-.078v.858a6.683,6.683,0,0,1,.975-.065Zm6.552-1.235V30.38a5.072,5.072,0,0,1,.078-1.014h-.975a5.254,5.254,0,0,1,.078,1.014v.871H14.274a7.963,7.963,0,0,1-1.2-.065,13.7,13.7,0,0,1,.052,1.482c0,4.082-.351,5.928-1.456,7.644a2.827,2.827,0,0,1,.715.546c1.183-2,1.534-3.991,1.56-8.866h5.3a8.207,8.207,0,0,1,1.183.065v-.884a7.481,7.481,0,0,1-1.183.078Zm18.187.221a6.3,6.3,0,0,1-1.235.078h-2.6c.182-.611.286-1.014.429-1.612.117-.507.13-.546.182-.728l-.9-.169a10.567,10.567,0,0,1-.637,2.925,7.452,7.452,0,0,1-1.4,2.522,2.6,2.6,0,0,1,.546.689,7.525,7.525,0,0,0,.78-1.261,11.32,11.32,0,0,0,1.352,3.666A8.327,8.327,0,0,1,28.9,40.221a2.1,2.1,0,0,1,.6.689,9.485,9.485,0,0,0,2.652-2.587,9.526,9.526,0,0,0,2.678,2.561,3.447,3.447,0,0,1,.481-.845,8.593,8.593,0,0,1-2.7-2.457,10.912,10.912,0,0,0,1.144-3,13.052,13.052,0,0,0,.338-2.288,5.394,5.394,0,0,1,1.066.078Zm-1.872.819a14.232,14.232,0,0,1-.351,2.236,9.846,9.846,0,0,1-.819,2.288,10.958,10.958,0,0,1-1.287-3.874c.143-.364.156-.416.247-.65ZM28.08,30.5v-.273a5.364,5.364,0,0,1,.065-1.066h-.9a6.585,6.585,0,0,1,.052,1.066V30.5H25.662v-.273a6.078,6.078,0,0,1,.052-1.066h-.9a5.78,5.78,0,0,1,.065,1.066V30.5h-.247a5.937,5.937,0,0,1-1.079-.065v.832a6.025,6.025,0,0,1,1.079-.065h.247v1.508h-.494a6.835,6.835,0,0,1-1.118-.078v.858a7.422,7.422,0,0,1,1.118-.078H28.3a6.534,6.534,0,0,1,1.1.065v-.832a5.923,5.923,0,0,1-1.092.065H28.08V31.2h.156a6.114,6.114,0,0,1,1.079.065v-.832a5.851,5.851,0,0,1-1.079.065Zm-2.418.7H27.3v1.508H25.662Zm-.793,7.254h3.055v1.313c0,.221-.078.273-.4.273a5.611,5.611,0,0,1-1.092-.1,3,3,0,0,1,.182.767c.351.026.676.039.91.039.936,0,1.2-.182,1.2-.871V35.5c0-.637.013-.962.039-1.248a10.03,10.03,0,0,1-1.17.065H25.233a11.06,11.06,0,0,1-1.2-.065c.026.3.039.572.039,1.183v4.082A10.379,10.379,0,0,1,24,40.962h.936a10.04,10.04,0,0,1-.065-1.456Zm0-.676V36.711h3.055v1.066Zm0-1.742V35.008h3.055v1.027Zm18.824-4.121c.065-1.131.065-1.131.065-1.742a8.95,8.95,0,0,1,.065-1.053H42.8a7.344,7.344,0,0,1,.078,1.261c0,.533-.013.949-.052,1.534H40.235a11.24,11.24,0,0,1-1.612-.078v.949a11.531,11.531,0,0,1,1.6-.078H42.77c-.3,2.782-1.027,4.459-2.535,5.824a8.019,8.019,0,0,1-2.184,1.4,2.079,2.079,0,0,1,.689.728A8.874,8.874,0,0,0,42.354,37.3a11.444,11.444,0,0,0,1.287-4.589h4.017a48.361,48.361,0,0,1-.286,5.057c-.195,1.573-.364,1.9-1.053,1.9a11.713,11.713,0,0,1-2.47-.325,4.087,4.087,0,0,1,.221.975,16.162,16.162,0,0,0,2.314.208c1.04,0,1.43-.351,1.664-1.482a40.306,40.306,0,0,0,.455-5.486c.026-1.235.026-1.235.065-1.7a10.523,10.523,0,0,1-1.521.065Z" transform="translate(5711.5 5820)"/>
    <path id="Path_30694" data-name="Path 30694" class="cls-5" d="M-35.58-14.32h-5.36a16.87,16.87,0,0,1-2.02-.1,9.328,9.328,0,0,1,.08,1.38v1.06a10,10,0,0,1-.1,1.58h1.34v-2.78h4.12a4.537,4.537,0,0,1-1.06,3.02c-1,1.14-2.26,1.78-4.7,2.36a4.186,4.186,0,0,1,.82,1.14c2.62-.92,3.86-1.62,4.82-2.7a5.871,5.871,0,0,0,1.36-3.82h2.48V-9c0,1.02.44,1.2,3.12,1.2,3.4,0,3.72-.2,3.9-2.42a4.164,4.164,0,0,1-1.2-.44c-.08,1.72-.1,1.74-2.68,1.74A9.115,9.115,0,0,1-32.24-9c-.26-.06-.34-.16-.34-.46v-3.72h4.76v2.08h1.34a7.685,7.685,0,0,1-.1-1.4v-.54a8.989,8.989,0,0,1,.08-1.38,16.87,16.87,0,0,1-2.02.1H-34.3v-.96a6.052,6.052,0,0,1,.14-1.44h-1.56a6.4,6.4,0,0,1,.14,1.44Zm.04,9.78V-.62H-41.2a15.968,15.968,0,0,1-2.22-.12V.68A14.812,14.812,0,0,1-41.2.54h12.96a14.519,14.519,0,0,1,2.16.14V-.74a15.211,15.211,0,0,1-2.16.12h-6V-4.54h4.34a14.414,14.414,0,0,1,2.02.12V-5.8a14.745,14.745,0,0,1-2.08.12h-9.72A9.68,9.68,0,0,1-41.6-5.8v1.38a10.367,10.367,0,0,1,1.98-.12Zm16.32-5.22h3.66c.8,0,1.48.02,2.02.06-.04-.5-.06-1.06-.06-1.86v-2.48c0-.74.02-1.34.06-1.9a17.549,17.549,0,0,1-2.04.08h-2.86a18.513,18.513,0,0,1-2.1-.08c.06.64.08,1.22.08,2.2V-.82a14.949,14.949,0,0,1-.12,2.24h1.48a14.409,14.409,0,0,1-.12-2.24Zm0-5.12h4.48v1.6h-4.48Zm0,2.54h4.48v1.62h-4.48Zm14.86-1.4a18.924,18.924,0,0,1,.1-2.2,18.513,18.513,0,0,1-2.1.08h-3.3a17.33,17.33,0,0,1-2.04-.08c.04.6.06,1.2.06,1.9v2.48c0,.74-.02,1.34-.06,1.86.54-.04,1.18-.06,2.02-.06h4.1V-.6c0,.48-.16.58-.98.58a21.75,21.75,0,0,1-2.2-.2A4.59,4.59,0,0,1-8.4,1.06c.5.04,1.58.08,2,.08,1.62,0,2.04-.34,2.04-1.66Zm-6.14-1.14h4.92v1.6H-10.5Zm0,2.54h4.92v1.62H-10.5ZM-8.72-6.3c0-.8.02-1.32.06-1.88a17.717,17.717,0,0,1-1.98.08H-14.3a17.948,17.948,0,0,1-1.98-.08c.04.58.06,1.16.06,1.88v4.44a12.336,12.336,0,0,1-.1,1.88h1.24v-1.4h4.38c.82,0,1.48.02,2.04.06-.04-.52-.06-1.06-.06-1.82Zm-6.36-.8h5.22v1.78h-5.22Zm0,2.78h5.22v1.94h-5.22ZM11.98-9.8v2.5H9.16a13.045,13.045,0,0,1-1.72-.1v1.34a13.045,13.045,0,0,1,1.72-.1h2.82v5.7c0,.34-.2.46-.76.46A14.831,14.831,0,0,1,9.18-.18a3.835,3.835,0,0,1,.4,1.32c.6.06,1.3.08,1.76.08,1.42,0,1.9-.38,1.9-1.54V-6.16h3.74a12.631,12.631,0,0,1,1.9.12V-7.42a12.447,12.447,0,0,1-1.9.12H13.24V-9.8h2.08a11.635,11.635,0,0,1,1.52.08v-1.26a10.7,10.7,0,0,1-1.52.08H10.3a10.774,10.774,0,0,1-1.56-.08,16.1,16.1,0,0,0,3.96-4.38A17.577,17.577,0,0,0,18.9-9.7a10.216,10.216,0,0,1,.76-1.2,14.21,14.21,0,0,1-6.3-5.6h-1.4a13.088,13.088,0,0,1-5.68,5.58,3.308,3.308,0,0,1,.8,1.08,16.011,16.011,0,0,0,1.66-1.14v1.26a12.16,12.16,0,0,1,1.54-.08ZM1.92-.72A16.105,16.105,0,0,1,1.8,1.42H3.24C3.18.8,3.14.08,3.14-.7V-14.88H6.26A24.142,24.142,0,0,1,3.98-10.2,6.155,6.155,0,0,1,5.8-5.56c0,.9-.28,1.22-1.04,1.22a8.965,8.965,0,0,1-1.18-.08,3.562,3.562,0,0,1,.24,1.2c.44.02.46.02.68.02a4.812,4.812,0,0,0,1.42-.18c.72-.24,1.06-.96,1.06-2.24a7.765,7.765,0,0,0-.4-2.48A6.748,6.748,0,0,0,5.3-10.3a32.481,32.481,0,0,0,2.18-4.42c.08-.16.12-.28.16-.34a1.7,1.7,0,0,0,.14-.32l-.7-.68a6.388,6.388,0,0,1-1.28.08H3.16a10.638,10.638,0,0,1-1.3-.06c.04.4.06.96.06,1.52ZM14.96-4.74A15.672,15.672,0,0,0,18.38.36,5.584,5.584,0,0,1,19.34-.7a11.117,11.117,0,0,1-3.32-4.52ZM8.9-5.26A10.525,10.525,0,0,1,7.52-2.48,9.1,9.1,0,0,1,5.66-.58,4.054,4.054,0,0,1,6.6.34a11.9,11.9,0,0,0,3.42-5.12Zm19.92-9.88H25.64a13.641,13.641,0,0,1-2.02-.12v1.34a13.83,13.83,0,0,1,2.02-.12h3.18v.32a5.613,5.613,0,0,1-.1,1.14h1.4a6.309,6.309,0,0,1-.08-1.16v-.3H34.6v.32a6.5,6.5,0,0,1-.08,1.14h1.4a5.684,5.684,0,0,1-.1-1.16v-.3h3.4a14.326,14.326,0,0,1,2.04.12v-1.34a14.132,14.132,0,0,1-2.04.12h-3.4v-.42a6.5,6.5,0,0,1,.08-1.14H34.52a6.8,6.8,0,0,1,.08,1.14v.42H30.04v-.42a6.5,6.5,0,0,1,.08-1.14H28.74a6.647,6.647,0,0,1,.08,1.14Zm3.96,6.42a23.373,23.373,0,0,0,4.06-.72l-.86-.96a23.732,23.732,0,0,1-7.58.98h-.72a3.04,3.04,0,0,1,.44,1c1.62-.04,2.32-.08,3.56-.2V-7.1H28.66a10.09,10.09,0,0,1-1.78-.1V-6a10.4,10.4,0,0,1,1.76-.1h2.58a11.913,11.913,0,0,1-4.6,3.36,2.844,2.844,0,0,1,.78.96,11.963,11.963,0,0,0,4.36-3.66c-.06.64-.08,1.18-.08,1.8v.9a7.9,7.9,0,0,1-.1,1.5h1.3a7.528,7.528,0,0,1-.1-1.5v-.9c0-.54-.02-1.16-.08-1.8a14.324,14.324,0,0,0,4.7,3.62,4.062,4.062,0,0,1,.72-1.08,11.7,11.7,0,0,1-4.84-3.2h2.88a10.688,10.688,0,0,1,1.76.1V-7.2a10.348,10.348,0,0,1-1.8.1H32.78ZM26.08,1.54V.38H38.8V1.54h1.36a16.419,16.419,0,0,1-.12-2.38V-9.66a20.5,20.5,0,0,1,.12-2.42,18.916,18.916,0,0,1-2.36.1H27.06a18.372,18.372,0,0,1-2.34-.1,21.985,21.985,0,0,1,.12,2.42V-.88a17.867,17.867,0,0,1-.12,2.42Zm0-12.42H38.8V-.72H26.08ZM-38.04,13.84a21.032,21.032,0,0,1,4.92,2.64l.82-1.34a29.573,29.573,0,0,0-4.96-2.52Zm-1.58,4.78a22.206,22.206,0,0,1,5.1,2.74l.78-1.34a30.509,30.509,0,0,0-5.08-2.62Zm.68,9.58a4.694,4.694,0,0,1,.78-.22c.4-.08.76-.16,1.08-.22a22.845,22.845,0,0,0,5.06-1.72,15.677,15.677,0,0,0,7.7-8.62,6.03,6.03,0,0,1-1.24-1.06,14.893,14.893,0,0,1-2.4,4.48,13.173,13.173,0,0,1-6,4.46,17.3,17.3,0,0,1-5.38,1.24Zm35.86-1.28a49.738,49.738,0,0,0-6.66-6,24.185,24.185,0,0,0,3.3-5.6,3.733,3.733,0,0,1,.56-.98l-.84-.86A3.729,3.729,0,0,1-8,13.64l-7.14.08h-.52a9.4,9.4,0,0,1-1.58-.1l.04,1.62a13.457,13.457,0,0,1,2.06-.16l6.68-.1a3.4,3.4,0,0,0,.48-.02.424.424,0,0,1-.06.14c-.04.1-.06.12-.1.24a21.677,21.677,0,0,1-7.14,9.02,16.1,16.1,0,0,1-4.06,2.3,4.451,4.451,0,0,1,.98,1.32,25.755,25.755,0,0,0,3.92-2.4A21.71,21.71,0,0,0-10.62,22a37.2,37.2,0,0,1,6.4,6.18Zm20.24-7.6a18.257,18.257,0,0,1,2.3.1V17.94a14.409,14.409,0,0,1-2.32.12H5.44a14.409,14.409,0,0,1-2.32-.12v1.48a18.257,18.257,0,0,1,2.3-.1h5.42a11.446,11.446,0,0,1-.8,4.14c-.82,1.82-2.44,3.1-5.06,3.94a3.5,3.5,0,0,1,.94,1.3,11.761,11.761,0,0,0,3.52-1.98,7.87,7.87,0,0,0,2.7-5.28,18.653,18.653,0,0,0,.22-2.12ZM5.14,14.5a16.086,16.086,0,0,1,2.28-.1h7.82a16.086,16.086,0,0,1,2.28.1V12.98a11.053,11.053,0,0,1-2.3.14H7.44a11.053,11.053,0,0,1-2.3-.14ZM30.9,12.1a37.95,37.95,0,0,1-1.58,5.76,76.276,76.276,0,0,1-3.02,7.92c-.46.04-1.56.1-1.7.1-.1,0-.1,0-.56-.02l.2,1.66a13.908,13.908,0,0,1,1.7-.22,123.545,123.545,0,0,0,12.3-1.66,27.146,27.146,0,0,1,1.18,2.7l1.4-.76a51.806,51.806,0,0,0-4.98-9.04l-1.24.68a38.905,38.905,0,0,1,3.08,5.18c-2.36.46-7.06,1.08-9.72,1.26a108.357,108.357,0,0,0,4.16-11.7,7.907,7.907,0,0,1,.54-1.44Z" transform="translate(5711.5 5942)"/>
    <g id="Group_8715" data-name="Group 8715" transform="translate(5665.299 5768.677)">
      <path id="Path_29463" data-name="Path 29463" class="cls-6" d="M2525.463,1198.885h-12.715a2.956,2.956,0,0,1-2.955-2.955v-12.717a2.955,2.955,0,0,1,2.955-2.955h12.715a2.956,2.956,0,0,1,2.958,2.955v12.717A2.956,2.956,0,0,1,2525.463,1198.885Zm-7.634-3.106h.992l-2.8-12.415h-1.1l-2.767,12.415h.958l.692-3.193h3.334Zm-3.831-4.06,1.47-6.848,1.472,6.848Zm12.06-.853h-.956v2.112c0,1.455-.515,2.057-1.9,2.057s-1.9-.6-1.9-2.057v-6.812c0-1.454.514-2.057,1.9-2.057s1.9.6,1.9,2.057v1.809h.956v-2.127c0-1.7-.956-2.624-2.836-2.624h-.037c-1.879,0-2.838.922-2.838,2.624v7.449c0,1.791.959,2.624,2.838,2.624h.037c1.88,0,2.836-.851,2.836-2.624Z" transform="translate(-2435.957 -1180.258)"/>
      <path id="Path_29464" data-name="Path 29464" class="cls-6" d="M2492.034,1182.287a1.553,1.553,0,0,1,.482-1.14,1.578,1.578,0,0,1,1.153-.48,1.594,1.594,0,0,1,1.164.484,1.559,1.559,0,0,1,.478,1.154,1.6,1.6,0,0,1-.484,1.164,1.56,1.56,0,0,1-1.154.478,1.642,1.642,0,0,1-1.639-1.66Z" transform="translate(-2454.021 -1179.842)"/>
      <g id="Group_4937" data-name="Group 4937" transform="translate(0 0.504)">
        <path id="Path_29465" data-name="Path 29465" class="cls-6" d="M2483.906,1182.761a7.671,7.671,0,0,0-2.937-1.718,13.2,13.2,0,0,0-4.114-.526l-3.625-.008-.044,17.274,3.58.008a13.411,13.411,0,0,0,4.063-.47,8.405,8.405,0,0,0,5.737-8.141A8.267,8.267,0,0,0,2483.906,1182.761ZM2482,1193.742a5.878,5.878,0,0,1-2.105,1.237,9.84,9.84,0,0,1-2.921.363l-1.176,0,.032-12.373,1.174,0a7.208,7.208,0,0,1,5.043,1.591,6.005,6.005,0,0,1,1.89,4.613A5.91,5.91,0,0,1,2482,1193.742Z" transform="translate(-2473.187 -1180.508)"/>
        <path id="Path_29466" data-name="Path 29466" class="cls-6" d="M2488.79,1190.713a6.385,6.385,0,0,1-1.382,1.652,2.562,2.562,0,0,1-1.555.444,2.655,2.655,0,0,1-1.979-.789,3.307,3.307,0,0,1-.868-2.138l7.808.02.014-.593a6.026,6.026,0,0,0-1.377-4.222,5.452,5.452,0,0,0-7.628.026,6.043,6.043,0,0,0-1.445,4.179,5.892,5.892,0,0,0,1.467,4.189,5.14,5.14,0,0,0,3.913,1.575,6.516,6.516,0,0,0,1.578-.176,4.7,4.7,0,0,0,1.355-.561,5.478,5.478,0,0,0,1.177-.982,8.489,8.489,0,0,0,1.045-1.434Zm-5.251-3.728a2.593,2.593,0,0,1,.567-.631,2.5,2.5,0,0,1,.734-.4,2.618,2.618,0,0,1,.861-.139,2.412,2.412,0,0,1,2.535,2.021l-5.056-.012A2.958,2.958,0,0,1,2483.539,1186.985Z" transform="translate(-2465.872 -1177.421)"/>
        <path id="Path_29467" data-name="Path 29467" class="cls-6" d="M2488.626,1183.708l2.8,6.127,2.823-6.113,2.83.007-5.689,11.632-5.587-11.661Z" transform="translate(-2460.352 -1177.261)"/>
        <rect id="Rectangle_2461" data-name="Rectangle 2461" class="cls-6" width="10.897" height="2.517" transform="matrix(0.003, -1, 1, 0.003, 38.354, 17.368)"/>
        <path id="Path_29468" data-name="Path 29468" class="cls-6" d="M2494.723,1183.866l2.517.006,0,.974a4.817,4.817,0,0,1,1.232-.993,2.819,2.819,0,0,1,1.3-.276,4.074,4.074,0,0,1,2.08.653l-1.158,2.3a2.418,2.418,0,0,0-1.4-.518q-2.057,0-2.065,3.106l-.014,5.65-2.517-.006Z" transform="translate(-2451.312 -1177.386)"/>
        <path id="Path_29469" data-name="Path 29469" class="cls-6" d="M2501.456,1183.739l-.013,6.253q-.01,2.708,2.127,2.713t2.144-2.7l.016-6.253,2.518.006-.016,6.309a6.984,6.984,0,0,1-.331,2.259,3.8,3.8,0,0,1-1.088,1.531,5.29,5.29,0,0,1-6.478-.017,3.871,3.871,0,0,1-1.1-1.537,6.194,6.194,0,0,1-.306-2.259l.016-6.311Z" transform="translate(-2447.01 -1177.23)"/>
        <path id="Path_29470" data-name="Path 29470" class="cls-6" d="M2511.264,1185.766l-2.083,1.1c-.326-.674-.732-1.009-1.217-1.01a.831.831,0,0,0-.592.228.765.765,0,0,0-.249.587q0,.626,1.45,1.244a8.648,8.648,0,0,1,2.692,1.6,2.711,2.711,0,0,1,.689,1.959,3.423,3.423,0,0,1-1.17,2.636,4.171,4.171,0,0,1-6.606-1.682l2.15-.991a4.576,4.576,0,0,0,.68,1,1.549,1.549,0,0,0,1.1.428q1.273.006,1.277-1.16,0-.671-.981-1.254c-.254-.127-.506-.252-.76-.371s-.51-.244-.77-.372a4.689,4.689,0,0,1-1.541-1.079,2.646,2.646,0,0,1-.567-1.757,3.105,3.105,0,0,1,.98-2.348,3.412,3.412,0,0,1,2.418-.922A3.3,3.3,0,0,1,2511.264,1185.766Z" transform="translate(-2441.667 -1177.364)"/>
      </g>
    </g>
    <path id="Path_30700" data-name="Path 30700" class="cls-4" d="M-44.484-7.876h-2.948a9.279,9.279,0,0,1-1.111-.055,5.131,5.131,0,0,1,.044.759v.583a5.5,5.5,0,0,1-.055.869h.737V-7.249h2.266a2.5,2.5,0,0,1-.583,1.661,4.449,4.449,0,0,1-2.585,1.3,2.3,2.3,0,0,1,.451.627,5.786,5.786,0,0,0,2.651-1.485,3.229,3.229,0,0,0,.748-2.1h1.364v2.3c0,.561.242.66,1.716.66,1.87,0,2.046-.11,2.145-1.331a2.29,2.29,0,0,1-.66-.242c-.044.946-.055.957-1.474.957a5.013,5.013,0,0,1-.869-.044c-.143-.033-.187-.088-.187-.253V-7.249h2.618v1.144h.737a4.226,4.226,0,0,1-.055-.77v-.3a4.943,4.943,0,0,1,.044-.759,9.279,9.279,0,0,1-1.111.055H-43.78V-8.4A3.329,3.329,0,0,1-43.7-9.2h-.858a3.518,3.518,0,0,1,.077.792Zm.022,5.379V-.341h-3.113A8.782,8.782,0,0,1-48.8-.407V.374A8.146,8.146,0,0,1-47.575.3h7.128a7.985,7.985,0,0,1,1.188.077V-.407a8.366,8.366,0,0,1-1.188.066h-3.3V-2.5h2.387a7.928,7.928,0,0,1,1.111.066V-3.19a8.11,8.11,0,0,1-1.144.066h-5.346A5.324,5.324,0,0,1-47.8-3.19v.759A5.7,5.7,0,0,1-46.706-2.5Zm9.416-2.871h2.013c.44,0,.814.011,1.111.033-.022-.275-.033-.583-.033-1.023V-7.722c0-.407.011-.737.033-1.045a9.652,9.652,0,0,1-1.122.044h-1.573a10.182,10.182,0,0,1-1.155-.044c.033.352.044.671.044,1.21V-.451A8.222,8.222,0,0,1-35.794.781h.814a7.925,7.925,0,0,1-.066-1.232Zm0-2.816h2.464v.88h-2.464Zm0,1.4h2.464V-5.9h-2.464Zm8.173-.77a10.408,10.408,0,0,1,.055-1.21,10.182,10.182,0,0,1-1.155.044h-1.815a9.531,9.531,0,0,1-1.122-.044c.022.33.033.66.033,1.045v1.364c0,.407-.011.737-.033,1.023.3-.022.649-.033,1.111-.033h2.255V-.33c0,.264-.088.319-.539.319a11.962,11.962,0,0,1-1.21-.11,2.525,2.525,0,0,1,.2.7c.275.022.869.044,1.1.044.891,0,1.122-.187,1.122-.913Zm-3.377-.627h2.706v.88H-30.25Zm0,1.4h2.706V-5.9H-30.25Zm.979,3.322c0-.44.011-.726.033-1.034a9.745,9.745,0,0,1-1.089.044H-32.34A9.871,9.871,0,0,1-33.429-4.5c.022.319.033.638.033,1.034v2.442A6.785,6.785,0,0,1-33.451.011h.682v-.77h2.409c.451,0,.814.011,1.122.033-.022-.286-.033-.583-.033-1Zm-3.5-.44H-29.9v.979h-2.871Zm0,1.529H-29.9v1.067h-2.871ZM-17.446-5.39v1.375H-19a7.175,7.175,0,0,1-.946-.055v.737A7.175,7.175,0,0,1-19-3.388h1.551V-.253c0,.187-.11.253-.418.253a8.157,8.157,0,0,1-1.122-.1,2.109,2.109,0,0,1,.22.726c.33.033.715.044.968.044.781,0,1.045-.209,1.045-.847V-3.388H-14.7a6.947,6.947,0,0,1,1.045.066v-.759a6.846,6.846,0,0,1-1.045.066h-2.057V-5.39h1.144a6.4,6.4,0,0,1,.836.044v-.693A5.882,5.882,0,0,1-15.609-6H-18.37a5.925,5.925,0,0,1-.858-.044A8.855,8.855,0,0,0-17.05-8.448a9.667,9.667,0,0,0,3.41,3.113A5.619,5.619,0,0,1-13.222-6a7.816,7.816,0,0,1-3.465-3.08h-.77a7.2,7.2,0,0,1-3.124,3.069,1.819,1.819,0,0,1,.44.594,8.806,8.806,0,0,0,.913-.627v.693a6.688,6.688,0,0,1,.847-.044ZM-22.979-.4A8.858,8.858,0,0,1-23.045.781h.792c-.033-.341-.055-.737-.055-1.166v-7.8h1.716A13.278,13.278,0,0,1-21.846-5.61a3.385,3.385,0,0,1,1,2.552c0,.5-.154.671-.572.671a4.931,4.931,0,0,1-.649-.044,1.959,1.959,0,0,1,.132.66c.242.011.253.011.374.011a2.646,2.646,0,0,0,.781-.1c.4-.132.583-.528.583-1.232a4.271,4.271,0,0,0-.22-1.364,3.712,3.712,0,0,0-.7-1.21,17.865,17.865,0,0,0,1.2-2.431c.044-.088.066-.154.088-.187a.936.936,0,0,0,.077-.176l-.385-.374a3.513,3.513,0,0,1-.7.044H-22.3a5.851,5.851,0,0,1-.715-.033c.022.22.033.528.033.836Zm7.172-2.211A8.62,8.62,0,0,0-13.926.2,3.071,3.071,0,0,1-13.4-.385a6.114,6.114,0,0,1-1.826-2.486Zm-3.333-.286A5.789,5.789,0,0,1-19.9-1.364,5,5,0,0,1-20.922-.319,2.23,2.23,0,0,1-20.4.187a6.548,6.548,0,0,0,1.881-2.816Zm11.4-5.434H-9.493A7.5,7.5,0,0,1-10.6-8.393v.737a7.606,7.606,0,0,1,1.111-.066h1.749v.176a3.087,3.087,0,0,1-.055.627h.77a3.47,3.47,0,0,1-.044-.638v-.165h2.508v.176a3.574,3.574,0,0,1-.044.627h.77a3.126,3.126,0,0,1-.055-.638v-.165h1.87A7.879,7.879,0,0,1-.9-7.656v-.737a7.772,7.772,0,0,1-1.122.066h-1.87v-.231a3.574,3.574,0,0,1,.044-.627h-.759a3.74,3.74,0,0,1,.044.627v.231H-7.073v-.231a3.574,3.574,0,0,1,.044-.627h-.759a3.656,3.656,0,0,1,.044.627ZM-5.566-4.8a12.855,12.855,0,0,0,2.233-.4l-.473-.528a13.053,13.053,0,0,1-4.169.539h-.4a1.672,1.672,0,0,1,.242.55c.891-.022,1.276-.044,1.958-.11V-3.9H-7.832a5.549,5.549,0,0,1-.979-.055v.66a5.718,5.718,0,0,1,.968-.055h1.419a6.552,6.552,0,0,1-2.53,1.848,1.564,1.564,0,0,1,.429.528,6.58,6.58,0,0,0,2.4-2.013c-.033.352-.044.649-.044.99v.495a4.346,4.346,0,0,1-.055.825h.715a4.14,4.14,0,0,1-.055-.825V-2c0-.3-.011-.638-.044-.99A7.878,7.878,0,0,0-3.025-1a2.234,2.234,0,0,1,.4-.594,6.434,6.434,0,0,1-2.662-1.76h1.584a5.879,5.879,0,0,1,.968.055v-.66a5.691,5.691,0,0,1-.99.055H-5.566ZM-9.251.847V.209h7V.847h.748A9.031,9.031,0,0,1-1.573-.462V-5.313a11.273,11.273,0,0,1,.066-1.331,10.4,10.4,0,0,1-1.3.055H-8.712A10.1,10.1,0,0,1-10-6.644a12.092,12.092,0,0,1,.066,1.331V-.484A9.827,9.827,0,0,1-10,.847Zm0-6.831h7V-.4h-7ZM10.175-4.8a8.645,8.645,0,0,1,1.265.055v-.814a7.222,7.222,0,0,1-1.276.066H3.729a7.3,7.3,0,0,1-1.276-.066v.814A8.645,8.645,0,0,1,3.718-4.8H6.7C6.611-2.288,5.753-1.111,3.476-.352a1.923,1.923,0,0,1,.517.715C6.479-.605,7.4-1.947,7.535-4.8ZM3.564-7.447A7.664,7.664,0,0,1,4.818-7.5H8.162q1.04.016,1.254.033v-.792a9.935,9.935,0,0,1-1.265.055H4.829a5.712,5.712,0,0,1-1.265-.077Zm5.9-1.5a8.382,8.382,0,0,1,1.067,1.782l.561-.308A8.56,8.56,0,0,0,10.01-9.207Zm1.353-.407A8.614,8.614,0,0,1,11.88-7.579l.561-.308a9.156,9.156,0,0,0-1.078-1.738ZM16.8-8a1.215,1.215,0,0,1,.011.176,8.725,8.725,0,0,1-.11,1.034A12.739,12.739,0,0,1,15.565-2.97a7.071,7.071,0,0,1-1.6,2.178,2.408,2.408,0,0,1,.7.572c1.551-1.617,2.442-3.729,2.9-6.864a3.994,3.994,0,0,1,.143-.748Zm3.157.165a4.782,4.782,0,0,1,.143.726A13.216,13.216,0,0,0,23.089-.2a2.379,2.379,0,0,1,.682-.616,9.708,9.708,0,0,1-2.5-4.543A13.293,13.293,0,0,1,20.768-8Zm1.43-.473a8.3,8.3,0,0,1,1.089,1.771l.561-.319a8.15,8.15,0,0,0-1.1-1.727Zm1.265-.561a8.621,8.621,0,0,1,1.089,1.749l.55-.3a8.431,8.431,0,0,0-1.1-1.738Zm11.759.132a9.233,9.233,0,0,1-2.1,2.079A15.489,15.489,0,0,1,26.6-3.806a2.547,2.547,0,0,1,.429.737,17.2,17.2,0,0,0,4.246-1.925v4.18A5.733,5.733,0,0,1,31.207.33h.957a7.308,7.308,0,0,1-.055-1.166V-5.522a19.373,19.373,0,0,0,2.574-2.211,2.49,2.49,0,0,1,.484-.462ZM48.466-.594a27.356,27.356,0,0,0-3.663-3.3,13.3,13.3,0,0,0,1.815-3.08,2.053,2.053,0,0,1,.308-.539l-.462-.473a2.051,2.051,0,0,1-.7.088l-3.927.044h-.286a5.17,5.17,0,0,1-.869-.055l.022.891a7.4,7.4,0,0,1,1.133-.088l3.674-.055a1.869,1.869,0,0,0,.264-.011.233.233,0,0,1-.033.077c-.022.055-.033.066-.055.132A11.922,11.922,0,0,1,41.756-2,8.855,8.855,0,0,1,39.523-.737a2.448,2.448,0,0,1,.539.726,14.165,14.165,0,0,0,2.156-1.32,11.941,11.941,0,0,0,2.1-1.969A20.459,20.459,0,0,1,47.839.1Z" transform="translate(5711.5 5737)"/>
    <path id="Path_30699" data-name="Path 30699" class="cls-4" d="M-44.794,1.067h2.838A7.014,7.014,0,0,1-43.122-.979a9.42,9.42,0,0,1-.484-3.2,9.42,9.42,0,0,1,.484-3.2,7.014,7.014,0,0,1,1.166-2.046h-2.838ZM-31.473-4.8a8.645,8.645,0,0,1,1.265.055v-.814a7.222,7.222,0,0,1-1.276.066h-6.435a7.3,7.3,0,0,1-1.276-.066v.814A8.645,8.645,0,0,1-37.93-4.8h2.981c-.088,2.508-.946,3.685-3.223,4.444a1.923,1.923,0,0,1,.517.715c2.486-.968,3.41-2.31,3.542-5.159Zm-6.611-2.651A7.664,7.664,0,0,1-36.83-7.5h3.344q1.04.016,1.254.033v-.792a9.935,9.935,0,0,1-1.265.055h-3.322a5.712,5.712,0,0,1-1.265-.077Zm5.9-1.5a8.382,8.382,0,0,1,1.067,1.782l.561-.308a8.56,8.56,0,0,0-1.078-1.738Zm1.353-.407a8.614,8.614,0,0,1,1.067,1.771l.561-.308a9.156,9.156,0,0,0-1.078-1.738Zm8.844,2.332V-8.14a3.74,3.74,0,0,1,.055-.693h-.924a3.386,3.386,0,0,1,.055.7v1.111h-2.332a8.4,8.4,0,0,1-1.012-.044,7.661,7.661,0,0,1,.044.891v1.485l-.011.451c-.011.176-.011.187-.033.374h.9a6.029,6.029,0,0,1-.033-.814v-1.65h6.006a7.1,7.1,0,0,1-1.188,3.509,6.616,6.616,0,0,1-3.8,2.365A2.253,2.253,0,0,1-23.751.3C-20.66-.737-19-2.6-18.537-5.544l.1-.616.011-.121a1.02,1.02,0,0,1,.11-.352l-.44-.44a2.557,2.557,0,0,1-.836.055Zm2-1.9a8.05,8.05,0,0,1,1.133,1.738l.55-.33a8.589,8.589,0,0,0-1.133-1.694Zm1.408-.352a8.24,8.24,0,0,1,1.122,1.727l.55-.308A8.914,8.914,0,0,0-18.042-9.57Zm10.395,2.5a3.583,3.583,0,0,1-.616.715,12.1,12.1,0,0,1-3.146,2.288A10.855,10.855,0,0,1-14.5-2.8a2.031,2.031,0,0,1,.385.66,12.817,12.817,0,0,0,3.377-1.518V-.4a6.317,6.317,0,0,1-.044.957h.858a5.879,5.879,0,0,1-.055-.968V-4.125A18.385,18.385,0,0,0-7.768-6.061,1.4,1.4,0,0,1-7.5-6.314Zm6.732-1.606A4.893,4.893,0,0,1-1.41-7.6a15.007,15.007,0,0,1-.5,4.719A5.442,5.442,0,0,1-3.764-.352,2.032,2.032,0,0,1-3.1.242,6.724,6.724,0,0,0-1.2-2.475c.418-1.111.506-1.925.594-4.906a5.48,5.48,0,0,1,.066-.946Zm2.739-.077a4.414,4.414,0,0,1,.044.979L1.263-1.045A1.854,1.854,0,0,1,1.186-.3l.44.506A1.832,1.832,0,0,1,1.879.088c.154-.055.154-.055.352-.132A7.251,7.251,0,0,0,3.8-.847,6.25,6.25,0,0,0,6.015-3.674,3.076,3.076,0,0,1,5.4-4.312a5.44,5.44,0,0,1-1.3,2.2A5.084,5.084,0,0,1,2.055-.836L2.121-7.48a4.265,4.265,0,0,1,.066-.968ZM17.378-.594a27.356,27.356,0,0,0-3.663-3.3,13.3,13.3,0,0,0,1.815-3.08,2.053,2.053,0,0,1,.308-.539l-.462-.473a2.051,2.051,0,0,1-.7.088l-3.927.044h-.286a5.17,5.17,0,0,1-.869-.055l.022.891a7.4,7.4,0,0,1,1.133-.088l3.674-.055a1.869,1.869,0,0,0,.264-.011.233.233,0,0,1-.033.077c-.022.055-.033.066-.055.132A11.922,11.922,0,0,1,10.668-2,8.855,8.855,0,0,1,8.435-.737a2.448,2.448,0,0,1,.539.726,14.165,14.165,0,0,0,2.156-1.32,11.941,11.941,0,0,0,2.1-1.969A20.459,20.459,0,0,1,16.751.1ZM28.45-3.233l-1.2-3.486L25.979-3.233ZM26.693-7.89H27.9L30.765,0H29.594l-.8-2.363H25.673L24.819,0h-1.1ZM36.381-8.1a3.233,3.233,0,0,1,2.326.79,2.788,2.788,0,0,1,.918,1.794H38.584a2.169,2.169,0,0,0-.706-1.208,2.239,2.239,0,0,0-1.485-.446,2.381,2.381,0,0,0-1.883.819,3.734,3.734,0,0,0-.717,2.511A3.647,3.647,0,0,0,34.44-1.6a2.261,2.261,0,0,0,1.931.862,2.04,2.04,0,0,0,1.8-.908A3.452,3.452,0,0,0,38.659-2.9H39.7a3.56,3.56,0,0,1-.924,2.089A3.287,3.287,0,0,1,36.242.2a3.346,3.346,0,0,1-2.31-.833,4.338,4.338,0,0,1-1.23-3.4,4.343,4.343,0,0,1,.924-2.863A3.374,3.374,0,0,1,36.381-8.1Zm8.412,9.172V-9.427H41.956a7.014,7.014,0,0,1,1.166,2.046,9.333,9.333,0,0,1,.484,3.2,9.333,9.333,0,0,1-.484,3.2,7.014,7.014,0,0,1-1.166,2.046Z" transform="translate(5711.5 5754)"/>
    <path id="Path_30695" data-name="Path 30695" class="cls-4" d="M-44.484-7.876h-2.948a9.279,9.279,0,0,1-1.111-.055,5.131,5.131,0,0,1,.044.759v.583a5.5,5.5,0,0,1-.055.869h.737V-7.249h2.266a2.5,2.5,0,0,1-.583,1.661,4.449,4.449,0,0,1-2.585,1.3,2.3,2.3,0,0,1,.451.627,5.786,5.786,0,0,0,2.651-1.485,3.229,3.229,0,0,0,.748-2.1h1.364v2.3c0,.561.242.66,1.716.66,1.87,0,2.046-.11,2.145-1.331a2.29,2.29,0,0,1-.66-.242c-.044.946-.055.957-1.474.957a5.013,5.013,0,0,1-.869-.044c-.143-.033-.187-.088-.187-.253V-7.249h2.618v1.144h.737a4.226,4.226,0,0,1-.055-.77v-.3a4.943,4.943,0,0,1,.044-.759,9.279,9.279,0,0,1-1.111.055H-43.78V-8.4A3.329,3.329,0,0,1-43.7-9.2h-.858a3.518,3.518,0,0,1,.077.792Zm.022,5.379V-.341h-3.113A8.782,8.782,0,0,1-48.8-.407V.374A8.146,8.146,0,0,1-47.575.3h7.128a7.985,7.985,0,0,1,1.188.077V-.407a8.366,8.366,0,0,1-1.188.066h-3.3V-2.5h2.387a7.928,7.928,0,0,1,1.111.066V-3.19a8.11,8.11,0,0,1-1.144.066h-5.346A5.324,5.324,0,0,1-47.8-3.19v.759A5.7,5.7,0,0,1-46.706-2.5Zm9.416-2.871h2.013c.44,0,.814.011,1.111.033-.022-.275-.033-.583-.033-1.023V-7.722c0-.407.011-.737.033-1.045a9.652,9.652,0,0,1-1.122.044h-1.573a10.182,10.182,0,0,1-1.155-.044c.033.352.044.671.044,1.21V-.451A8.222,8.222,0,0,1-35.794.781h.814a7.925,7.925,0,0,1-.066-1.232Zm0-2.816h2.464v.88h-2.464Zm0,1.4h2.464V-5.9h-2.464Zm8.173-.77a10.408,10.408,0,0,1,.055-1.21,10.182,10.182,0,0,1-1.155.044h-1.815a9.531,9.531,0,0,1-1.122-.044c.022.33.033.66.033,1.045v1.364c0,.407-.011.737-.033,1.023.3-.022.649-.033,1.111-.033h2.255V-.33c0,.264-.088.319-.539.319a11.962,11.962,0,0,1-1.21-.11,2.525,2.525,0,0,1,.2.7c.275.022.869.044,1.1.044.891,0,1.122-.187,1.122-.913Zm-3.377-.627h2.706v.88H-30.25Zm0,1.4h2.706V-5.9H-30.25Zm.979,3.322c0-.44.011-.726.033-1.034a9.745,9.745,0,0,1-1.089.044H-32.34A9.871,9.871,0,0,1-33.429-4.5c.022.319.033.638.033,1.034v2.442A6.785,6.785,0,0,1-33.451.011h.682v-.77h2.409c.451,0,.814.011,1.122.033-.022-.286-.033-.583-.033-1Zm-3.5-.44H-29.9v.979h-2.871Zm0,1.529H-29.9v1.067h-2.871ZM-17.446-5.39v1.375H-19a7.175,7.175,0,0,1-.946-.055v.737A7.175,7.175,0,0,1-19-3.388h1.551V-.253c0,.187-.11.253-.418.253a8.157,8.157,0,0,1-1.122-.1,2.109,2.109,0,0,1,.22.726c.33.033.715.044.968.044.781,0,1.045-.209,1.045-.847V-3.388H-14.7a6.947,6.947,0,0,1,1.045.066v-.759a6.846,6.846,0,0,1-1.045.066h-2.057V-5.39h1.144a6.4,6.4,0,0,1,.836.044v-.693A5.882,5.882,0,0,1-15.609-6H-18.37a5.925,5.925,0,0,1-.858-.044A8.855,8.855,0,0,0-17.05-8.448a9.667,9.667,0,0,0,3.41,3.113A5.619,5.619,0,0,1-13.222-6a7.816,7.816,0,0,1-3.465-3.08h-.77a7.2,7.2,0,0,1-3.124,3.069,1.819,1.819,0,0,1,.44.594,8.806,8.806,0,0,0,.913-.627v.693a6.688,6.688,0,0,1,.847-.044ZM-22.979-.4A8.858,8.858,0,0,1-23.045.781h.792c-.033-.341-.055-.737-.055-1.166v-7.8h1.716A13.278,13.278,0,0,1-21.846-5.61a3.385,3.385,0,0,1,1,2.552c0,.5-.154.671-.572.671a4.931,4.931,0,0,1-.649-.044,1.959,1.959,0,0,1,.132.66c.242.011.253.011.374.011a2.646,2.646,0,0,0,.781-.1c.4-.132.583-.528.583-1.232a4.271,4.271,0,0,0-.22-1.364,3.712,3.712,0,0,0-.7-1.21,17.865,17.865,0,0,0,1.2-2.431c.044-.088.066-.154.088-.187a.936.936,0,0,0,.077-.176l-.385-.374a3.513,3.513,0,0,1-.7.044H-22.3a5.851,5.851,0,0,1-.715-.033c.022.22.033.528.033.836Zm7.172-2.211A8.62,8.62,0,0,0-13.926.2,3.071,3.071,0,0,1-13.4-.385a6.114,6.114,0,0,1-1.826-2.486Zm-3.333-.286A5.789,5.789,0,0,1-19.9-1.364,5,5,0,0,1-20.922-.319,2.23,2.23,0,0,1-20.4.187a6.548,6.548,0,0,0,1.881-2.816Zm11.4-5.434H-9.493A7.5,7.5,0,0,1-10.6-8.393v.737a7.606,7.606,0,0,1,1.111-.066h1.749v.176a3.087,3.087,0,0,1-.055.627h.77a3.47,3.47,0,0,1-.044-.638v-.165h2.508v.176a3.574,3.574,0,0,1-.044.627h.77a3.126,3.126,0,0,1-.055-.638v-.165h1.87A7.879,7.879,0,0,1-.9-7.656v-.737a7.772,7.772,0,0,1-1.122.066h-1.87v-.231a3.574,3.574,0,0,1,.044-.627h-.759a3.74,3.74,0,0,1,.044.627v.231H-7.073v-.231a3.574,3.574,0,0,1,.044-.627h-.759a3.656,3.656,0,0,1,.044.627ZM-5.566-4.8a12.855,12.855,0,0,0,2.233-.4l-.473-.528a13.053,13.053,0,0,1-4.169.539h-.4a1.672,1.672,0,0,1,.242.55c.891-.022,1.276-.044,1.958-.11V-3.9H-7.832a5.549,5.549,0,0,1-.979-.055v.66a5.718,5.718,0,0,1,.968-.055h1.419a6.552,6.552,0,0,1-2.53,1.848,1.564,1.564,0,0,1,.429.528,6.58,6.58,0,0,0,2.4-2.013c-.033.352-.044.649-.044.99v.495a4.346,4.346,0,0,1-.055.825h.715a4.14,4.14,0,0,1-.055-.825V-2c0-.3-.011-.638-.044-.99A7.878,7.878,0,0,0-3.025-1a2.234,2.234,0,0,1,.4-.594,6.434,6.434,0,0,1-2.662-1.76h1.584a5.879,5.879,0,0,1,.968.055v-.66a5.691,5.691,0,0,1-.99.055H-5.566ZM-9.251.847V.209h7V.847h.748A9.031,9.031,0,0,1-1.573-.462V-5.313a11.273,11.273,0,0,1,.066-1.331,10.4,10.4,0,0,1-1.3.055H-8.712A10.1,10.1,0,0,1-10-6.644a12.092,12.092,0,0,1,.066,1.331V-.484A9.827,9.827,0,0,1-10,.847Zm0-6.831h7V-.4h-7ZM10.175-4.8a8.645,8.645,0,0,1,1.265.055v-.814a7.222,7.222,0,0,1-1.276.066H3.729a7.3,7.3,0,0,1-1.276-.066v.814A8.645,8.645,0,0,1,3.718-4.8H6.7C6.611-2.288,5.753-1.111,3.476-.352a1.923,1.923,0,0,1,.517.715C6.479-.605,7.4-1.947,7.535-4.8ZM3.564-7.447A7.664,7.664,0,0,1,4.818-7.5H8.162q1.04.016,1.254.033v-.792a9.935,9.935,0,0,1-1.265.055H4.829a5.712,5.712,0,0,1-1.265-.077Zm5.9-1.5a8.382,8.382,0,0,1,1.067,1.782l.561-.308A8.56,8.56,0,0,0,10.01-9.207Zm1.353-.407A8.614,8.614,0,0,1,11.88-7.579l.561-.308a9.156,9.156,0,0,0-1.078-1.738ZM16.8-8a1.215,1.215,0,0,1,.011.176,8.725,8.725,0,0,1-.11,1.034A12.739,12.739,0,0,1,15.565-2.97a7.071,7.071,0,0,1-1.6,2.178,2.408,2.408,0,0,1,.7.572c1.551-1.617,2.442-3.729,2.9-6.864a3.994,3.994,0,0,1,.143-.748Zm3.157.165a4.782,4.782,0,0,1,.143.726A13.216,13.216,0,0,0,23.089-.2a2.379,2.379,0,0,1,.682-.616,9.708,9.708,0,0,1-2.5-4.543A13.293,13.293,0,0,1,20.768-8Zm1.43-.473a8.3,8.3,0,0,1,1.089,1.771l.561-.319a8.15,8.15,0,0,0-1.1-1.727Zm1.265-.561a8.621,8.621,0,0,1,1.089,1.749l.55-.3a8.431,8.431,0,0,0-1.1-1.738Zm11.759.132a9.233,9.233,0,0,1-2.1,2.079A15.489,15.489,0,0,1,26.6-3.806a2.547,2.547,0,0,1,.429.737,17.2,17.2,0,0,0,4.246-1.925v4.18A5.733,5.733,0,0,1,31.207.33h.957a7.308,7.308,0,0,1-.055-1.166V-5.522a19.373,19.373,0,0,0,2.574-2.211,2.49,2.49,0,0,1,.484-.462ZM48.466-.594a27.356,27.356,0,0,0-3.663-3.3,13.3,13.3,0,0,0,1.815-3.08,2.053,2.053,0,0,1,.308-.539l-.462-.473a2.051,2.051,0,0,1-.7.088l-3.927.044h-.286a5.17,5.17,0,0,1-.869-.055l.022.891a7.4,7.4,0,0,1,1.133-.088l3.674-.055a1.869,1.869,0,0,0,.264-.011.233.233,0,0,1-.033.077c-.022.055-.033.066-.055.132A11.922,11.922,0,0,1,41.756-2,8.855,8.855,0,0,1,39.523-.737a2.448,2.448,0,0,1,.539.726,14.165,14.165,0,0,0,2.156-1.32,11.941,11.941,0,0,0,2.1-1.969A20.459,20.459,0,0,1,47.839.1Z" transform="translate(5711.5 6048)"/>
    <path id="Path_30696" data-name="Path 30696" class="cls-4" d="M-44.794,1.067h2.838A7.014,7.014,0,0,1-43.122-.979a9.42,9.42,0,0,1-.484-3.2,9.42,9.42,0,0,1,.484-3.2,7.014,7.014,0,0,1,1.166-2.046h-2.838ZM-31.473-4.8a8.645,8.645,0,0,1,1.265.055v-.814a7.222,7.222,0,0,1-1.276.066h-6.435a7.3,7.3,0,0,1-1.276-.066v.814A8.645,8.645,0,0,1-37.93-4.8h2.981c-.088,2.508-.946,3.685-3.223,4.444a1.923,1.923,0,0,1,.517.715c2.486-.968,3.41-2.31,3.542-5.159Zm-6.611-2.651A7.664,7.664,0,0,1-36.83-7.5h3.344q1.04.016,1.254.033v-.792a9.935,9.935,0,0,1-1.265.055h-3.322a5.712,5.712,0,0,1-1.265-.077Zm5.9-1.5a8.382,8.382,0,0,1,1.067,1.782l.561-.308a8.56,8.56,0,0,0-1.078-1.738Zm1.353-.407a8.614,8.614,0,0,1,1.067,1.771l.561-.308a9.156,9.156,0,0,0-1.078-1.738Zm8.844,2.332V-8.14a3.74,3.74,0,0,1,.055-.693h-.924a3.386,3.386,0,0,1,.055.7v1.111h-2.332a8.4,8.4,0,0,1-1.012-.044,7.661,7.661,0,0,1,.044.891v1.485l-.011.451c-.011.176-.011.187-.033.374h.9a6.029,6.029,0,0,1-.033-.814v-1.65h6.006a7.1,7.1,0,0,1-1.188,3.509,6.616,6.616,0,0,1-3.8,2.365A2.253,2.253,0,0,1-23.751.3C-20.66-.737-19-2.6-18.537-5.544l.1-.616.011-.121a1.02,1.02,0,0,1,.11-.352l-.44-.44a2.557,2.557,0,0,1-.836.055Zm2-1.9a8.05,8.05,0,0,1,1.133,1.738l.55-.33a8.589,8.589,0,0,0-1.133-1.694Zm1.408-.352a8.24,8.24,0,0,1,1.122,1.727l.55-.308A8.914,8.914,0,0,0-18.042-9.57Zm10.395,2.5a3.583,3.583,0,0,1-.616.715,12.1,12.1,0,0,1-3.146,2.288A10.855,10.855,0,0,1-14.5-2.8a2.031,2.031,0,0,1,.385.66,12.817,12.817,0,0,0,3.377-1.518V-.4a6.317,6.317,0,0,1-.044.957h.858a5.879,5.879,0,0,1-.055-.968V-4.125A18.385,18.385,0,0,0-7.768-6.061,1.4,1.4,0,0,1-7.5-6.314Zm6.732-1.606A4.893,4.893,0,0,1-1.41-7.6a15.007,15.007,0,0,1-.5,4.719A5.442,5.442,0,0,1-3.764-.352,2.032,2.032,0,0,1-3.1.242,6.724,6.724,0,0,0-1.2-2.475c.418-1.111.506-1.925.594-4.906a5.48,5.48,0,0,1,.066-.946Zm2.739-.077a4.414,4.414,0,0,1,.044.979L1.263-1.045A1.854,1.854,0,0,1,1.186-.3l.44.506A1.832,1.832,0,0,1,1.879.088c.154-.055.154-.055.352-.132A7.251,7.251,0,0,0,3.8-.847,6.25,6.25,0,0,0,6.015-3.674,3.076,3.076,0,0,1,5.4-4.312a5.44,5.44,0,0,1-1.3,2.2A5.084,5.084,0,0,1,2.055-.836L2.121-7.48a4.265,4.265,0,0,1,.066-.968ZM17.378-.594a27.356,27.356,0,0,0-3.663-3.3,13.3,13.3,0,0,0,1.815-3.08,2.053,2.053,0,0,1,.308-.539l-.462-.473a2.051,2.051,0,0,1-.7.088l-3.927.044h-.286a5.17,5.17,0,0,1-.869-.055l.022.891a7.4,7.4,0,0,1,1.133-.088l3.674-.055a1.869,1.869,0,0,0,.264-.011.233.233,0,0,1-.033.077c-.022.055-.033.066-.055.132A11.922,11.922,0,0,1,10.668-2,8.855,8.855,0,0,1,8.435-.737a2.448,2.448,0,0,1,.539.726,14.165,14.165,0,0,0,2.156-1.32,11.941,11.941,0,0,0,2.1-1.969A20.459,20.459,0,0,1,16.751.1ZM28.45-3.233l-1.2-3.486L25.979-3.233ZM26.693-7.89H27.9L30.765,0H29.594l-.8-2.363H25.673L24.819,0h-1.1ZM36.381-8.1a3.233,3.233,0,0,1,2.326.79,2.788,2.788,0,0,1,.918,1.794H38.584a2.169,2.169,0,0,0-.706-1.208,2.239,2.239,0,0,0-1.485-.446,2.381,2.381,0,0,0-1.883.819,3.734,3.734,0,0,0-.717,2.511A3.647,3.647,0,0,0,34.44-1.6a2.261,2.261,0,0,0,1.931.862,2.04,2.04,0,0,0,1.8-.908A3.452,3.452,0,0,0,38.659-2.9H39.7a3.56,3.56,0,0,1-.924,2.089A3.287,3.287,0,0,1,36.242.2a3.346,3.346,0,0,1-2.31-.833,4.338,4.338,0,0,1-1.23-3.4,4.343,4.343,0,0,1,.924-2.863A3.374,3.374,0,0,1,36.381-8.1Zm8.412,9.172V-9.427H41.956a7.014,7.014,0,0,1,1.166,2.046,9.333,9.333,0,0,1,.484,3.2,9.333,9.333,0,0,1-.484,3.2,7.014,7.014,0,0,1-1.166,2.046Z" transform="translate(5711.5 6065)"/>
    <g id="Group_8716" data-name="Group 8716" transform="translate(5669.844 6079.264)">
      <path id="Path_29471" data-name="Path 29471" class="cls-6" d="M2508.016,1466.136a1.987,1.987,0,0,1,.932.571l2.158-3.743a2.4,2.4,0,0,1-.948-.54Z" transform="translate(-2438.793 -1454.73)"/>
      <path id="Path_29472" data-name="Path 29472" class="cls-6" d="M2515.32,1458.552a9.868,9.868,0,1,0,9.868,9.868A9.869,9.869,0,0,0,2515.32,1458.552Zm6.424,9.731a1.639,1.639,0,0,1-.406-.055l-1.292,2.208a2.009,2.009,0,1,1-2.776,0l-2.152-3.677a2.386,2.386,0,0,1-.444.107l-2.695,4.67a2.037,2.037,0,0,1,.036.346,2.008,2.008,0,1,1-2.544-1.926l2.63-4.563a2.4,2.4,0,0,1,2.231-3.313,2.411,2.411,0,0,1,2.411,2.411,2.386,2.386,0,0,1-.819,1.794l2.157,3.683a1.839,1.839,0,0,1,1.157,0l1.293-2.212a1.669,1.669,0,1,1,1.213.527Z" transform="translate(-2441.325 -1458.552)"/>
      <rect id="Rectangle_2462" data-name="Rectangle 2462" class="cls-6" width="2.48" height="16.968" transform="translate(16.841 1.351)"/>
      <path id="Path_29473" data-name="Path 29473" class="cls-6" d="M2489.647,1462.19a5.722,5.722,0,1,0,5.746,5.722A5.673,5.673,0,0,0,2489.647,1462.19Zm0,9.156a3.435,3.435,0,1,1,3.367-3.435A3.4,3.4,0,0,1,2489.647,1471.346Z" transform="translate(-2462.604 -1454.96)"/>
      <path id="Path_29474" data-name="Path 29474" class="cls-6" d="M2494.422,1462.494a4.686,4.686,0,0,0-1.214.978l0-.96-2.48-.005-.028,10.736,2.481.006.014-5.567q.008-3.065,2.037-3.059a2.371,2.371,0,0,1,1.376.511l1.14-2.267a4.014,4.014,0,0,0-2.047-.646A2.8,2.8,0,0,0,2494.422,1462.494Z" transform="translate(-2455.891 -1454.93)"/>
      <path id="Path_29475" data-name="Path 29475" class="cls-6" d="M2501.623,1468.553q-.006,2.668-2.113,2.663t-2.1-2.673l.016-6.163-2.48-.006-.016,6.217a6.178,6.178,0,0,0,.3,2.228,3.811,3.811,0,0,0,1.089,1.512,5.211,5.211,0,0,0,6.382.016,3.724,3.724,0,0,0,1.074-1.507,6.912,6.912,0,0,0,.325-2.226l.016-6.217-2.48-.008Z" transform="translate(-2451.715 -1454.778)"/>
      <path id="Path_29476" data-name="Path 29476" class="cls-6" d="M2504.517,1466.5c-.955-.408-1.431-.815-1.431-1.229a.759.759,0,0,1,.244-.577.82.82,0,0,1,.584-.224c.479,0,.878.332,1.2.994l2.052-1.085a3.244,3.244,0,0,0-3.058-2.135,3.363,3.363,0,0,0-2.385.908,3.064,3.064,0,0,0-.964,2.312,2.607,2.607,0,0,0,.558,1.733,4.641,4.641,0,0,0,1.519,1.062c.256.125.508.248.759.365s.5.241.748.366c.646.385.97.8.968,1.238q0,1.145-1.26,1.143a1.538,1.538,0,0,1-1.08-.421,4.721,4.721,0,0,1-.67-.984l-2.118.976a4.11,4.11,0,0,0,6.511,1.659,3.382,3.382,0,0,0,1.153-2.6,2.686,2.686,0,0,0-.678-1.93A8.545,8.545,0,0,0,2504.517,1466.5Z" transform="translate(-2446.527 -1454.907)"/>
      <path id="Path_29477" data-name="Path 29477" class="cls-6" d="M2487.544,1459.232h-3.188l-8.611,9.1v-9.1h-2.557v17.021h2.557v-4.932l3.02-3.1,6.1,8.035h3.1l-7.46-9.759Z" transform="translate(-2473.187 -1457.881)"/>
    </g>
    <path id="Path_30697" data-name="Path 30697" class="cls-4" d="M-49.894-7.865H-51A7.376,7.376,0,0,1-52.26-7.93v.793A6.483,6.483,0,0,1-51.116-7.2h1.222v1.183h-.923a6.79,6.79,0,0,1-.962-.052v.741a6.83,6.83,0,0,1,.949-.052h.936v1.04h-.988a6.142,6.142,0,0,1-1.131-.065v.78a6.407,6.407,0,0,1,1.131-.065h.988v1.105h-1.482a8.474,8.474,0,0,1-1.209-.065v.806a7.258,7.258,0,0,1,1.2-.065h1.495v.26a6.387,6.387,0,0,1-.065.949h.858a5.883,5.883,0,0,1-.065-.962v-.247h1.95a11.56,11.56,0,0,1,1.274.052v-.793a11.132,11.132,0,0,1-1.274.065h-1.95V-3.692h1.482a12.171,12.171,0,0,1,1.222.065v-.78a7.435,7.435,0,0,1-1.209.065h-1.495v-1.04h1.508c.39,0,.715.013.988.026a6.958,6.958,0,0,1-.026-.793V-7.2h.13a5.612,5.612,0,0,1,.871.065V-7.93a4.171,4.171,0,0,1-.871.065h-.13V-8.8a7.254,7.254,0,0,1,.026-.871,8.236,8.236,0,0,1-.975.039h-1.521V-9.75a6.6,6.6,0,0,1,.052-.949h-.845a6.521,6.521,0,0,1,.065.949v.117h-.819A5.038,5.038,0,0,1-51.7-9.7v.78a7.189,7.189,0,0,1,.988-.052h.819Zm.728,0V-8.97h1.729v1.105Zm0,.663h1.729v1.183h-1.729Zm-5.967,2.73A10.673,10.673,0,0,0-53.924-1.9,6.427,6.427,0,0,1-55.458.273,2.031,2.031,0,0,1-54.9.9,8.96,8.96,0,0,0-53.43-1.261,4.543,4.543,0,0,0-51.376.065a11.381,11.381,0,0,0,3.783.481c.507,0,.871-.013,1.729-.052a2.177,2.177,0,0,1,.247-.845,24.1,24.1,0,0,1-2.444.143c-2.6,0-4-.494-5.07-1.768A16.945,16.945,0,0,0-52.3-5.6c.052-.351.052-.351.091-.676a7.6,7.6,0,0,1-1.2.052h-.546A17.973,17.973,0,0,0-52.4-9.087a3.063,3.063,0,0,1,.169-.351l-.377-.4A4.219,4.219,0,0,1-53.3-9.8h-.663a6.089,6.089,0,0,1-.767-.039v.793A3.983,3.983,0,0,1-54-9.113h.819a16.882,16.882,0,0,1-2.028,3.562c.351-.026.546-.026.936-.026h1.261a15.067,15.067,0,0,1-.6,2.873,5.762,5.762,0,0,1-.767-2.08Zm-1.326,3.8a13.043,13.043,0,0,1-.078,1.6h.9c-.039-.429-.052-.845-.052-1.612V-7.683a20.754,20.754,0,0,0,.845-2.353,4.388,4.388,0,0,1,.208-.624l-.832-.234a10.788,10.788,0,0,1-.546,2,13.02,13.02,0,0,1-2.015,3.783,1.529,1.529,0,0,1,.143.2,1.205,1.205,0,0,1,.26.377,1.138,1.138,0,0,0,.091.156A10.444,10.444,0,0,0-56.42-6.305c-.026.624-.039,1.222-.039,1.976ZM-36.972-6.37h-4.186c.013-.793.026-1.326.026-2.678h8.476a9.209,9.209,0,0,1,1.235.065v-.845a8.285,8.285,0,0,1-1.352.078h-3.64v-.312a3.685,3.685,0,0,1,.065-.858h-.962a3.733,3.733,0,0,1,.078.845v.325h-3.3a10.377,10.377,0,0,1-1.456-.065,13.122,13.122,0,0,1,.052,1.469,35.323,35.323,0,0,1-.442,6.318A7.863,7.863,0,0,1-43.2.286,2.834,2.834,0,0,1-42.51.9c.858-1.742,1.2-3.393,1.326-6.591h4.212v1.04h-2.392a5.419,5.419,0,0,1-1.014-.065v.793a5.726,5.726,0,0,1,1.04-.065h2.366v1.7A19.468,19.468,0,0,1-40.183-.962a6.727,6.727,0,0,1-1.066.286l.4.819c.156-.065.286-.13.494-.208a26.942,26.942,0,0,0,3.38-1.482V-.234c0,.273-.078.312-.533.312a6.683,6.683,0,0,1-1.378-.156A2.9,2.9,0,0,1-38.7.806c.481.039.858.052,1.2.052,1.014,0,1.274-.195,1.274-.975V-2.158c0-.247-.026-.949-.065-1.313a8.36,8.36,0,0,0,1.638,2.288A10.167,10.167,0,0,0-31.876.741a4.1,4.1,0,0,1,.585-.715,9.359,9.359,0,0,1-2.86-1.755,14.272,14.272,0,0,0,2.158-1.729l-.689-.494a7.63,7.63,0,0,1-1.976,1.729,7.467,7.467,0,0,1-1.261-1.768h2.3c.312,0,.312,0,.949.026a7.648,7.648,0,0,1-.026-.91v-.819h.377a6.3,6.3,0,0,1,1.027.065v-.806a4.78,4.78,0,0,1-1.014.065h-.39v-.78a5.963,5.963,0,0,1,.039-.9,9.083,9.083,0,0,1-1.118.052h-2.444a3.6,3.6,0,0,1,.052-.754h-.871a4.46,4.46,0,0,1,.065.754h-2.262a5.32,5.32,0,0,1-1.027-.065v.793a6.016,6.016,0,0,1,1.027-.065h2.262Zm3.523.676v1.04h-2.769v-1.04Zm0-.676h-2.769v-.962h2.769Zm-6.825,3.107a7.654,7.654,0,0,1,1.807,1.391l.533-.507a9.342,9.342,0,0,0-1.781-1.352Zm18.018-1.664a7.452,7.452,0,0,0,.871,1.95,8.792,8.792,0,0,0,.871,1.17A10.44,10.44,0,0,1-23.868.221a1.993,1.993,0,0,1,.533.663,11.2,11.2,0,0,0,3.341-2.145A10.739,10.739,0,0,0-17,.832a3.023,3.023,0,0,1,.455-.806,9.226,9.226,0,0,1-2.912-1.833,10.606,10.606,0,0,0,1.82-2.873c.156-.351.156-.351.247-.559l-.39-.442a5.793,5.793,0,0,1-1.144.065h-1.1v-2.5H-17.8a5.449,5.449,0,0,1-.728,1.456,2.412,2.412,0,0,1,.728.325,12.437,12.437,0,0,0,.624-1.261c.286-.767.325-.858.351-.91l-.468-.4a6.8,6.8,0,0,1-1.3.065h-1.443v-.689a5.3,5.3,0,0,1,.078-1.183h-.923a5.519,5.519,0,0,1,.078,1.17v.7h-1.521a11.079,11.079,0,0,1-1.287-.052,10.2,10.2,0,0,1,.078,1.56,20,20,0,0,1-.494,4.979A6.66,6.66,0,0,1-25.454.442a2.406,2.406,0,0,1,.676.494,9.91,9.91,0,0,0,1.937-5.863Zm-.533-.689c.026-.637.039-1.027.039-1.469V-8.112h1.95v2.5Zm4.381.689A8.091,8.091,0,0,1-19.981-2.34,6.782,6.782,0,0,1-21.5-4.927Zm-7.579.481a7.842,7.842,0,0,0,1.5,1.547,2.9,2.9,0,0,1,.416-.65,5.316,5.316,0,0,1-.91-.728,6.93,6.93,0,0,0,.819-1.118c.039-.065.1-.156.169-.273l-.559-.4A6.007,6.007,0,0,1-25.4-4.693a5.294,5.294,0,0,1-.533-.689A14,14,0,0,0-24.5-7.839c.117-.26.117-.273.182-.39l-.364-.429a7.122,7.122,0,0,1-.91.039h-.364v-1.2a6.538,6.538,0,0,1,.065-1.053h-.91A7.582,7.582,0,0,1-26.754-9.8v1.183h-.507a6.178,6.178,0,0,1-1.04-.065v.858a5.79,5.79,0,0,1,1-.065h1.976A10.12,10.12,0,0,1-28.7-3.5a3.021,3.021,0,0,1,.4.754,15.731,15.731,0,0,0,1.56-1.586V-.364A12.5,12.5,0,0,1-26.806.988h.9a9.114,9.114,0,0,1-.078-1.313ZM-7.735-7.774a4.922,4.922,0,0,1,.078-.884h-.936a4.305,4.305,0,0,1,.065.884h-2.483a5.766,5.766,0,0,1-1.079-.065v.806A6.2,6.2,0,0,1-11.011-7.1h2.483v.975h-2.99A5.681,5.681,0,0,1-12.6-6.188v.78a6.2,6.2,0,0,1,1.079-.065h2.99v1.04h-3.835A7.744,7.744,0,0,1-13.6-4.511v.845a7.858,7.858,0,0,1,1.235-.078H-3.7a7.744,7.744,0,0,1,1.235.078v-.845A7.744,7.744,0,0,1-3.7-4.433h-4.03v-1.04h3.25a6.043,6.043,0,0,1,1.066.065v-.78a5.364,5.364,0,0,1-1.066.065h-3.25V-7.1h2.743a6.043,6.043,0,0,1,1.066.065v-.806a5.364,5.364,0,0,1-1.066.065Zm-.793-1.9h-3.588a12.821,12.821,0,0,1-1.313-.052,5.92,5.92,0,0,1,.052.871v.715a6.213,6.213,0,0,1-.052.923h.858V-8.97h9.139v1.755h.845a6.026,6.026,0,0,1-.052-.91v-.728a5.381,5.381,0,0,1,.052-.871,12.714,12.714,0,0,1-1.3.052h-3.8v-.338a3.3,3.3,0,0,1,.091-.819H-8.619a3.44,3.44,0,0,1,.091.819Zm-2.8,10h6.63V.988h.9A8.128,8.128,0,0,1-3.874-.143v-1.7a6.016,6.016,0,0,1,.065-1.027,6.071,6.071,0,0,1-.936.052h-6.539a6.1,6.1,0,0,1-.923-.052,6.4,6.4,0,0,1,.065,1.027v1.69A8.906,8.906,0,0,1-12.22.988h.9Zm0-2.431h6.63V-.377h-6.63ZM7.2-8.619a3.741,3.741,0,0,1,1.508.325,3.427,3.427,0,0,1,2.067,3.263,3.924,3.924,0,0,1-2.3,3.64A7.793,7.793,0,0,1,6.305-.78,2.066,2.066,0,0,1,6.76.091a10.057,10.057,0,0,0,1.976-.6,4.734,4.734,0,0,0,2.977-4.485,4.352,4.352,0,0,0-1.261-3.172A5.033,5.033,0,0,0,6.877-9.451a5.43,5.43,0,0,0-4.2,1.729A5.408,5.408,0,0,0,1.313-4.134c0,1.82.923,3.172,2.158,3.172.936,0,1.7-.78,2.457-2.5A19.487,19.487,0,0,0,7.2-8.619Zm-.936.013A17.856,17.856,0,0,1,5.083-3.8C4.524-2.522,4-1.911,3.458-1.911c-.7,0-1.248-.962-1.248-2.21A4.5,4.5,0,0,1,4.329-7.995,4.106,4.106,0,0,1,6.266-8.606Zm14.352-2.2A7.634,7.634,0,0,1,20.7-9.49v5.083c0,.234-.117.286-.6.286A8.37,8.37,0,0,1,18.616-4.3a2.666,2.666,0,0,1,.195.91c.507.039,1,.065,1.365.065,1.131,0,1.4-.195,1.4-.988V-9.49a8.628,8.628,0,0,1,.078-1.313Zm2.9,2.2c.091.156.117.195.286.507a10.966,10.966,0,0,0,1.118,1.9,11.635,11.635,0,0,0,1.612,1.755,4.018,4.018,0,0,1,.637-.741,8.267,8.267,0,0,1-2.054-2.236A6.248,6.248,0,0,1,24.375-9Zm-5.746-.325A7.384,7.384,0,0,1,17.3-7.462a8.963,8.963,0,0,1-2.119,3.146,2.772,2.772,0,0,1,.754.637,11.729,11.729,0,0,0,2.431-4.16c.143-.39.221-.559.3-.754Zm6.617,3.666a8.7,8.7,0,0,1-3.562,3.8A13.388,13.388,0,0,1,15.886.169a2.506,2.506,0,0,1,.52.871A14.7,14.7,0,0,0,21.437-.793a10.979,10.979,0,0,0,3.237-3.146c.3-.429.3-.429.351-.507.117-.156.117-.156.182-.234Zm9.022-5.278A13.375,13.375,0,0,1,32.968-8.1c-.247,0-.676.013-.936.013a8.215,8.215,0,0,1-1.547-.1l-.013.9h.169c.039,0,.143,0,.286.013.2,0,.637.013.858.013.195,0,.637-.013.962-.026A19.465,19.465,0,0,1,31.4-3.939a11.477,11.477,0,0,1-1.248,2.028l.884.52c.065-.1.143-.26.26-.442.494-.858.611-1.079.923-1.7a24.22,24.22,0,0,0,1.443-3.8A15.694,15.694,0,0,0,35.789-7.6c.312-.052.312-.052.455-.078l-.039-.9a10.818,10.818,0,0,1-2.327.429c.182-.663.26-.975.351-1.417a4.072,4.072,0,0,1,.208-.832Zm7.657,3.588a17.917,17.917,0,0,0-3.432-1.716l-.481.728A14.1,14.1,0,0,1,40.6-6.175ZM41.093-1.2a1.316,1.316,0,0,1-.234-.208,9.338,9.338,0,0,0-2.548-1.573,15.507,15.507,0,0,1-.143-1.976,3.99,3.99,0,0,1,.169-1.209l-.884-.091a5.264,5.264,0,0,0-.13,1.261c0,.325.026.936.091,1.781A4.29,4.29,0,0,0,36.1-3.406a3.8,3.8,0,0,0-1.534.286,1.844,1.844,0,0,0-1.209,1.651c0,1.157.975,1.885,2.535,1.885,1.586,0,2.47-.741,2.47-2.08a2.7,2.7,0,0,0-.026-.416A7.436,7.436,0,0,1,40.612-.312ZM37.479-2.379s.026.4.026.559C37.505-.845,37-.4,35.88-.4c-1.027,0-1.651-.4-1.651-1.066,0-.715.7-1.17,1.807-1.17A3.858,3.858,0,0,1,37.479-2.379Zm7.969-6.838a7.034,7.034,0,0,1,.039.767c.065,3.2.247,4.862.7,6.1S47.307-.377,48.035-.377c.923,0,1.521-.871,2.158-3.146a4.155,4.155,0,0,1-.767-.741,9.353,9.353,0,0,1-.676,2.223c-.195.429-.416.65-.65.65-.494,0-1.027-.9-1.313-2.223a22.262,22.262,0,0,1-.338-4.043A9.423,9.423,0,0,1,46.54-9.2Zm6.578,1.1A11.481,11.481,0,0,1,54.73-1.7l.923-.377a12.448,12.448,0,0,0-.975-3.471,11.284,11.284,0,0,0-1.859-2.964ZM-34.892,14.046h-1.677a8.653,8.653,0,0,1-1.131-.052,6.909,6.909,0,0,1,.052.962v1.456a7.9,7.9,0,0,1-.052,1.04,9.639,9.639,0,0,1,1.157-.052h1.651v2.067c-1.2.117-2.587.208-3.12.208-.117,0-.195,0-.351-.013l.169.9a4.253,4.253,0,0,1,.455-.065,56.1,56.1,0,0,0,6.006-.819,11.067,11.067,0,0,1,.689,1.261l.7-.364A19.942,19.942,0,0,0-32.253,17.7l-.624.338c.377.468.481.611.767,1.027-.715.13-1.131.2-2.015.312V17.4h1.872a9.32,9.32,0,0,1,1.092.052,7.393,7.393,0,0,1-.052-1v-1.6a5.309,5.309,0,0,1,.052-.858,7.476,7.476,0,0,1-1.014.052h-1.95v-1.43c.6-.052,1.352-.117,2.249-.221.26.364.338.481.65.949l.663-.507a23.032,23.032,0,0,0-2.5-2.938l-.611.377a17.7,17.7,0,0,1,1.313,1.482c-1.209.13-2.457.221-3.7.26a19.154,19.154,0,0,0,1.443-2.509l-.9-.234a12,12,0,0,1-1.391,2.769c-.455.013-.455.013-.572.013-.195,0-.39-.013-.6-.026l.13.845a9.3,9.3,0,0,1,1.352-.1c.845-.039,1.157-.065,1.7-.1Zm0,.689v1.976h-2.015V14.735Zm.767,0h2.158v1.976h-2.158Zm-6.89.806c.091-.52.234-1.677.273-2.132h1.378c.364,0,.65.013.923.039-.026-.273-.039-.637-.039-1.027V10.7c0-.351.013-.624.039-.91q-.39.039-.858.039h-1.469a6.662,6.662,0,0,1-1.209-.078v.858a9.8,9.8,0,0,1,1.2-.052h1.521v2.119h-1a8.921,8.921,0,0,1-1.248-.052,18.3,18.3,0,0,1-.429,3.653c.234-.013.507-.026.884-.026h1.729a12.07,12.07,0,0,1-.39,3.276c-.1.312-.273.4-.7.4a11.485,11.485,0,0,1-1.456-.13,3.129,3.129,0,0,1,.156.858c.507.039.949.065,1.365.065.637,0,.962-.13,1.2-.494.351-.52.572-1.963.637-4.121.013-.286.013-.39.039-.611a9.2,9.2,0,0,1-.975.039Zm19.188-3.627c.065-1.131.065-1.131.065-1.742A8.95,8.95,0,0,1-21.7,9.119h-1.027a7.344,7.344,0,0,1,.078,1.261c0,.533-.013.949-.052,1.534h-2.587a11.241,11.241,0,0,1-1.612-.078v.949a11.531,11.531,0,0,1,1.6-.078h2.548c-.3,2.782-1.027,4.459-2.535,5.824a8.018,8.018,0,0,1-2.184,1.4,2.079,2.079,0,0,1,.689.728A8.873,8.873,0,0,0-23.166,17.3a11.444,11.444,0,0,0,1.287-4.589h4.017a48.359,48.359,0,0,1-.286,5.057c-.195,1.573-.364,1.9-1.053,1.9a11.712,11.712,0,0,1-2.47-.325,4.087,4.087,0,0,1,.221.975,16.162,16.162,0,0,0,2.314.208c1.04,0,1.43-.351,1.664-1.482a40.307,40.307,0,0,0,.455-5.486c.026-1.235.026-1.235.065-1.7a10.523,10.523,0,0,1-1.521.065ZM-9.49,9.457A13.375,13.375,0,0,1-9.932,11.9c-.247,0-.676.013-.936.013a8.215,8.215,0,0,1-1.547-.1l-.013.9h.169c.039,0,.143,0,.286.013.195,0,.637.013.858.013.195,0,.637-.013.962-.026a19.465,19.465,0,0,1-1.352,3.354,11.477,11.477,0,0,1-1.248,2.028l.884.52c.065-.1.143-.26.26-.442.494-.858.611-1.079.923-1.7a24.22,24.22,0,0,0,1.443-3.8A15.694,15.694,0,0,0-7.111,12.4c.312-.052.312-.052.455-.078l-.039-.9a10.818,10.818,0,0,1-2.327.429c.182-.663.26-.975.351-1.417A4.072,4.072,0,0,1-8.463,9.6Zm7.657,3.588a17.918,17.918,0,0,0-3.432-1.716l-.481.728A14.1,14.1,0,0,1-2.3,13.825Zm.026,5.759a1.316,1.316,0,0,1-.234-.208,9.338,9.338,0,0,0-2.548-1.573,15.508,15.508,0,0,1-.143-1.976,3.99,3.99,0,0,1,.169-1.209l-.884-.091a5.264,5.264,0,0,0-.13,1.261c0,.325.026.936.091,1.781A4.29,4.29,0,0,0-6.8,16.594a3.8,3.8,0,0,0-1.534.286,1.844,1.844,0,0,0-1.209,1.651c0,1.157.975,1.885,2.535,1.885,1.586,0,2.47-.741,2.47-2.08a2.7,2.7,0,0,0-.026-.416,7.436,7.436,0,0,1,2.275,1.768Zm-3.614-1.183s.026.4.026.559c0,.975-.507,1.417-1.625,1.417-1.027,0-1.651-.4-1.651-1.066,0-.715.7-1.17,1.807-1.17A3.858,3.858,0,0,1-5.421,17.621ZM8.567,13.63v1.625H6.734a8.479,8.479,0,0,1-1.118-.065v.871A8.479,8.479,0,0,1,6.734,16H8.567v3.7c0,.221-.13.3-.494.3a9.64,9.64,0,0,1-1.326-.117,2.493,2.493,0,0,1,.26.858c.39.039.845.052,1.144.052.923,0,1.235-.247,1.235-1V16h2.431a8.21,8.21,0,0,1,1.235.078v-.9a8.091,8.091,0,0,1-1.235.078H9.386V13.63h1.352a7.563,7.563,0,0,1,.988.052v-.819a6.951,6.951,0,0,1-.988.052H7.475a7,7,0,0,1-1.014-.052,10.465,10.465,0,0,0,2.574-2.847,11.425,11.425,0,0,0,4.03,3.679,6.641,6.641,0,0,1,.494-.78,9.237,9.237,0,0,1-4.095-3.64h-.91A8.507,8.507,0,0,1,4.862,12.9a2.15,2.15,0,0,1,.52.7,10.407,10.407,0,0,0,1.079-.741v.819a7.9,7.9,0,0,1,1-.052Zm-6.539,5.9a10.468,10.468,0,0,1-.078,1.391h.936c-.039-.4-.065-.871-.065-1.378V10.328H4.849A15.692,15.692,0,0,1,3.367,13.37,4,4,0,0,1,4.55,16.386c0,.585-.182.793-.676.793a5.827,5.827,0,0,1-.767-.052,2.315,2.315,0,0,1,.156.78c.286.013.3.013.442.013a3.128,3.128,0,0,0,.923-.117c.468-.156.689-.624.689-1.456a5.047,5.047,0,0,0-.26-1.612,4.386,4.386,0,0,0-.832-1.43,21.113,21.113,0,0,0,1.417-2.873c.052-.1.078-.182.1-.221A1.107,1.107,0,0,0,5.837,10l-.455-.442a4.152,4.152,0,0,1-.832.052H2.834a6.915,6.915,0,0,1-.845-.039c.026.26.039.624.039.988ZM10.5,16.919a10.187,10.187,0,0,0,2.223,3.315,3.629,3.629,0,0,1,.624-.689,7.226,7.226,0,0,1-2.158-2.938Zm-3.939-.338a6.841,6.841,0,0,1-.9,1.807,5.912,5.912,0,0,1-1.209,1.235,2.635,2.635,0,0,1,.611.6,7.738,7.738,0,0,0,2.223-3.328Zm12.948-6.422H17.446a8.867,8.867,0,0,1-1.313-.078v.871a8.989,8.989,0,0,1,1.313-.078h2.067v.208a3.649,3.649,0,0,1-.065.741h.91a4.1,4.1,0,0,1-.052-.754v-.2H23.27v.208a4.224,4.224,0,0,1-.052.741h.91a3.7,3.7,0,0,1-.065-.754v-.2h2.21a9.312,9.312,0,0,1,1.326.078v-.871a9.185,9.185,0,0,1-1.326.078h-2.21V9.886a4.224,4.224,0,0,1,.052-.741h-.9a4.42,4.42,0,0,1,.052.741v.273H20.306V9.886a4.224,4.224,0,0,1,.052-.741h-.9a4.321,4.321,0,0,1,.052.741Zm2.574,4.173a15.193,15.193,0,0,0,2.639-.468l-.559-.624a15.426,15.426,0,0,1-4.927.637h-.468a1.976,1.976,0,0,1,.286.65c1.053-.026,1.508-.052,2.314-.13v.988H19.409a6.558,6.558,0,0,1-1.157-.065v.78a6.758,6.758,0,0,1,1.144-.065h1.677a7.744,7.744,0,0,1-2.99,2.184,1.849,1.849,0,0,1,.507.624,7.776,7.776,0,0,0,2.834-2.379c-.039.416-.052.767-.052,1.17v.585a5.136,5.136,0,0,1-.065.975h.845a4.893,4.893,0,0,1-.065-.975v-.585c0-.351-.013-.754-.052-1.17a9.311,9.311,0,0,0,3.055,2.353,2.641,2.641,0,0,1,.468-.7,7.6,7.6,0,0,1-3.146-2.08h1.872a6.947,6.947,0,0,1,1.144.065v-.78a6.726,6.726,0,0,1-1.17.065H22.087ZM17.732,21v-.754H26V21h.884a10.672,10.672,0,0,1-.078-1.547V13.721a13.323,13.323,0,0,1,.078-1.573,12.3,12.3,0,0,1-1.534.065H18.369a11.942,11.942,0,0,1-1.521-.065,14.29,14.29,0,0,1,.078,1.573v5.707A11.614,11.614,0,0,1,16.848,21Zm0-8.073H26v6.6H17.732Zm18.681-1.014c.065-1.131.065-1.131.065-1.742a8.95,8.95,0,0,1,.065-1.053H35.516a7.344,7.344,0,0,1,.078,1.261c0,.533-.013.949-.052,1.534H32.955a11.241,11.241,0,0,1-1.612-.078v.949a11.531,11.531,0,0,1,1.6-.078H35.49c-.3,2.782-1.027,4.459-2.535,5.824a8.018,8.018,0,0,1-2.184,1.4,2.079,2.079,0,0,1,.689.728A8.874,8.874,0,0,0,35.074,17.3a11.444,11.444,0,0,0,1.287-4.589h4.017a48.361,48.361,0,0,1-.286,5.057c-.195,1.573-.364,1.9-1.053,1.9a11.712,11.712,0,0,1-2.47-.325,4.087,4.087,0,0,1,.221.975,16.162,16.162,0,0,0,2.314.208c1.04,0,1.43-.351,1.664-1.482a40.306,40.306,0,0,0,.455-5.486c.026-1.235.026-1.235.065-1.7a10.523,10.523,0,0,1-1.521.065Z" transform="translate(5711.5 6133)"/>
  </g>
</svg>
