<svg height="51" viewBox="0 0 741.243 51" width="741.243" xmlns="http://www.w3.org/2000/svg"><path d="m-320.04-.7a16.756 16.756 0 0 1 -.12 2.14h1.58a12.424 12.424 0 0 1 -.14-2.14v-13.82h13.28v13.98c0 .36-.18.44-.94.44a20.285 20.285 0 0 1 -3.08-.24 6.108 6.108 0 0 1 .3 1.3c.98.06 1.86.1 2.6.1 2.04 0 2.44-.24 2.44-1.44v-13.56a15.561 15.561 0 0 1 .08-1.82 15.071 15.071 0 0 1 -1.84.08h-12.34a15.749 15.749 0 0 1 -1.9-.08 15.632 15.632 0 0 1 .08 1.8zm2.68-10.42a8.81 8.81 0 0 1 1.6-.1h7.5a8.312 8.312 0 0 1 1.58.1v-1.34a8.146 8.146 0 0 1 -1.62.1h-7.44a8.146 8.146 0 0 1 -1.62-.1zm9.14 3.28a8.664 8.664 0 0 1 .06-1.2 14.352 14.352 0 0 1 -1.46.06h-5.04c-.52 0-.92-.02-1.34-.06a11.584 11.584 0 0 1 .06 1.22v4.8a15.925 15.925 0 0 1 -.08 1.84h1.3v-1.76h5.32a11.981 11.981 0 0 1 1.24.06 9.936 9.936 0 0 1 -.06-1.16zm-6.5-.04h5.26v3.84h-5.26zm19.66-7.58a6.307 6.307 0 0 1 .08 1.06c0 .34 0 .7-.02 1.3-.16 6.3-.18 6.8-.18 8.14 0 2.1.28 3.16 1.1 4.1a4.743 4.743 0 0 0 3.76 1.4 7.047 7.047 0 0 0 5.64-2.48 12.5 12.5 0 0 0 2.22-4.54 6.793 6.793 0 0 1 -1.44-.98 11.419 11.419 0 0 1 -.98 3.14 5.744 5.744 0 0 1 -5.36 3.48 3.775 3.775 0 0 1 -2.5-.78 3.148 3.148 0 0 1 -.94-2.4c-.02-.44-.04-.96-.04-1.2 0-.9.06-3.62.14-6.02a30.124 30.124 0 0 1 .26-4.2zm6.32.96a15.6 15.6 0 0 1 2.04 3.18l1.02-.6a16.054 16.054 0 0 0 -2.06-3.1zm2.22-1.14a14.983 14.983 0 0 1 2.04 3.14l1.02-.58a17.14 17.14 0 0 0 -2.08-3.1zm18.44 1.32h-5.36a16.87 16.87 0 0 1 -2.02-.1 9.328 9.328 0 0 1 .08 1.38v1.06a10 10 0 0 1 -.1 1.58h1.34v-2.78h4.12a4.537 4.537 0 0 1 -1.06 3.02c-1 1.14-2.26 1.78-4.7 2.36a4.185 4.185 0 0 1 .82 1.14c2.62-.92 3.86-1.62 4.82-2.7a5.871 5.871 0 0 0 1.36-3.82h2.48v4.18c0 1.02.44 1.2 3.12 1.2 3.4 0 3.72-.2 3.9-2.42a4.164 4.164 0 0 1 -1.2-.44c-.08 1.72-.1 1.74-2.68 1.74a9.115 9.115 0 0 1 -1.58-.08c-.26-.06-.34-.16-.34-.46v-3.72h4.76v2.08h1.34a7.683 7.683 0 0 1 -.1-1.4v-.54a8.989 8.989 0 0 1 .08-1.38 16.87 16.87 0 0 1 -2.02.1h-5.78v-.96a6.052 6.052 0 0 1 .14-1.44h-1.56a6.4 6.4 0 0 1 .14 1.44zm.04 9.78v3.92h-5.66a15.968 15.968 0 0 1 -2.22-.12v1.42a14.811 14.811 0 0 1 2.22-.14h12.96a14.519 14.519 0 0 1 2.16.14v-1.42a15.211 15.211 0 0 1 -2.16.12h-6v-3.92h4.34a14.415 14.415 0 0 1 2.02.12v-1.38a14.746 14.746 0 0 1 -2.08.12h-9.72a9.68 9.68 0 0 1 -1.92-.12v1.38a10.366 10.366 0 0 1 1.98-.12zm16.32-5.22h3.66c.8 0 1.48.02 2.02.06-.04-.5-.06-1.06-.06-1.86v-2.48c0-.74.02-1.34.06-1.9a17.549 17.549 0 0 1 -2.04.08h-2.86a18.513 18.513 0 0 1 -2.1-.08c.06.64.08 1.22.08 2.2v12.92a14.951 14.951 0 0 1 -.12 2.24h1.48a14.408 14.408 0 0 1 -.12-2.24zm0-5.12h4.48v1.6h-4.48zm0 2.54h4.48v1.62h-4.48zm14.86-1.4a18.924 18.924 0 0 1 .1-2.2 18.513 18.513 0 0 1 -2.1.08h-3.3a17.33 17.33 0 0 1 -2.04-.08c.04.6.06 1.2.06 1.9v2.48c0 .74-.02 1.34-.06 1.86.54-.04 1.18-.06 2.02-.06h4.1v9.16c0 .48-.16.58-.98.58a21.75 21.75 0 0 1 -2.2-.2 4.59 4.59 0 0 1 .36 1.28c.5.04 1.58.08 2 .08 1.62 0 2.04-.34 2.04-1.66zm-6.14-1.14h4.92v1.6h-4.92zm0 2.54h4.92v1.62h-4.92zm1.78 6.04c0-.8.02-1.32.06-1.88a17.718 17.718 0 0 1 -1.98.08h-3.66a17.948 17.948 0 0 1 -1.98-.08c.04.58.06 1.16.06 1.88v4.44a12.336 12.336 0 0 1 -.1 1.88h1.24v-1.4h4.38c.82 0 1.48.02 2.04.06-.04-.52-.06-1.06-.06-1.82zm-6.36-.8h5.22v1.78h-5.22zm0 2.78h5.22v1.94h-5.22zm18.96-11.28a11.138 11.138 0 0 1 -.28 1.6 33.086 33.086 0 0 0 -.9 7.92 28.665 28.665 0 0 0 .52 5.66c.06.38.08.48.12.8l1.44-.12v-.3a17.434 17.434 0 0 1 1.62-5.5l-.96-.46a18.582 18.582 0 0 0 -1.3 3.9c-.08-1.06-.12-2.24-.12-3.8a29.566 29.566 0 0 1 .6-6.26 28.419 28.419 0 0 1 .84-3.2zm4.12 3.78a26.639 26.639 0 0 0 3.2.2 33.763 33.763 0 0 0 4.3-.26q1.32-.18 1.38-.18l-.1-1.42a21.461 21.461 0 0 1 -5.36.54 13.584 13.584 0 0 1 -3.4-.3zm1.46 3.9a5.525 5.525 0 0 0 -1.74 3.72 2.827 2.827 0 0 0 .6 1.84c.86 1.04 2.3 1.52 4.58 1.52a20.634 20.634 0 0 0 4.1-.4c.4-.06.44-.08.7-.1l-.2-1.54a13.162 13.162 0 0 1 -4.6.7c-2.58 0-3.84-.72-3.84-2.2a4.646 4.646 0 0 1 1.5-2.94zm19.28-3.62a15.549 15.549 0 0 1 2.56 1.8 22.676 22.676 0 0 1 -7.18 3.3 3.669 3.669 0 0 1 .7 1.18 28.4 28.4 0 0 0 5.76-2.58 26.1 26.1 0 0 0 5.64-4.56 27.373 27.373 0 0 0 1.8-2.14l-.68-.76a14.54 14.54 0 0 1 -1.86.1h-3.8c.32-.36.4-.46.64-.74.44-.54.46-.54.64-.76l-1.44-.36a7.267 7.267 0 0 1 -1.4 1.82 18.126 18.126 0 0 1 -5.92 4.06 3.846 3.846 0 0 1 .78 1 21.214 21.214 0 0 0 5.72-3.98h5.42a18.964 18.964 0 0 1 -3.8 3.68 23.2 23.2 0 0 0 -2.64-1.8zm10.32 4.62a17.227 17.227 0 0 1 -3.84 3.72 24.47 24.47 0 0 0 -2.74-1.94l-1.02.74a12.707 12.707 0 0 1 2.68 1.9 23.214 23.214 0 0 1 -8.5 2.98 4.449 4.449 0 0 1 .72 1.26 28.283 28.283 0 0 0 8.12-3.02 18.415 18.415 0 0 0 5.86-5.26c.34-.44.34-.44.58-.74l-.72-.78a14.663 14.663 0 0 1 -1.88.1h-3.54c.44-.44.5-.5 1.36-1.48l-1.3-.5a9.537 9.537 0 0 1 -2.18 2.4 18.579 18.579 0 0 1 -6.28 3.36 3.65 3.65 0 0 1 .76 1.08 19.747 19.747 0 0 0 6.54-3.82zm18.12-9.2a31.8 31.8 0 0 1 -5.86 5.48 15.451 15.451 0 0 0 -1.7 1.36 1.936 1.936 0 0 0 -.58 1.34c0 .68.32 1.12 1.44 2 2.92 2.28 3.72 2.94 5.06 4.18a18.881 18.881 0 0 1 2.58 2.74l1.26-1.24a5.092 5.092 0 0 1 -.56-.5 58.968 58.968 0 0 0 -6.4-5.46c-1.62-1.26-1.78-1.4-1.78-1.76 0-.28.14-.44.88-1a58.26 58.26 0 0 0 4.6-3.78c2.08-2 2.24-2.14 2.46-2.32zm20.3 2.86a5.756 5.756 0 0 1 2.32.5 5.272 5.272 0 0 1 3.18 5.02 6.037 6.037 0 0 1 -3.54 5.6 11.988 11.988 0 0 1 -3.34.94 3.178 3.178 0 0 1 .7 1.34 15.472 15.472 0 0 0 3.04-.92 7.282 7.282 0 0 0 4.58-6.9 6.7 6.7 0 0 0 -1.94-4.88 7.742 7.742 0 0 0 -5.5-1.98 8.354 8.354 0 0 0 -6.46 2.66 8.32 8.32 0 0 0 -2.1 5.52c0 2.8 1.42 4.88 3.32 4.88 1.44 0 2.62-1.2 3.78-3.84a29.98 29.98 0 0 0 1.96-7.94zm-1.44.02a27.47 27.47 0 0 1 -1.82 7.4c-.86 1.96-1.66 2.9-2.5 2.9-1.08 0-1.92-1.48-1.92-3.4a6.916 6.916 0 0 1 3.26-5.96 6.316 6.316 0 0 1 2.98-.94zm21.94-3.14a13.653 13.653 0 0 1 .08 1.76c0 4.92-1.36 8.76-4.14 11.74a14.121 14.121 0 0 1 -4.08 3.02 3.815 3.815 0 0 1 1.08 1.18 17.008 17.008 0 0 0 3.68-2.92 13.452 13.452 0 0 0 2.86-4.1 16.942 16.942 0 0 0 1.38-4.46 17.256 17.256 0 0 0 2.6 6.36 18.316 18.316 0 0 0 5.3 5.12 4.551 4.551 0 0 1 1.04-1.26 14.729 14.729 0 0 1 -2.32-1.56 17.681 17.681 0 0 1 -2.96-3.16 17.506 17.506 0 0 1 -2.58-5.6 25.954 25.954 0 0 1 -.44-4.34 13.608 13.608 0 0 1 .1-1.78zm27.78.68a15.329 15.329 0 0 1 2.06 3.18l1-.6a15.183 15.183 0 0 0 -2.06-3.1zm-12.88 6.16a26.035 26.035 0 0 1 4.02-.72 29.514 29.514 0 0 1 -4.28 9.96l1.36.8a38.844 38.844 0 0 0 4.32-10.88 11.483 11.483 0 0 1 1.44-.1c1.86 0 2.46.68 2.46 2.8a15.482 15.482 0 0 1 -.84 5.56q-.39.96-1.14.96a7.476 7.476 0 0 1 -2.98-.92 3.691 3.691 0 0 1 .06.78 4.469 4.469 0 0 1 -.04.72 7.524 7.524 0 0 0 3.02.78 2.089 2.089 0 0 0 1.96-.94c.82-1.16 1.34-3.82 1.34-6.88 0-1.64-.28-2.56-.98-3.22a3.822 3.822 0 0 0 -2.88-.84 11.656 11.656 0 0 0 -1.18.06c.16-.86.34-1.78.42-2.28a12.294 12.294 0 0 1 .38-1.92l-1.6-.18v.26a24.7 24.7 0 0 1 -.6 4.24 41.027 41.027 0 0 1 -4.42.52zm15.16-7.22a14.485 14.485 0 0 1 2.04 3.14l1-.58a16.064 16.064 0 0 0 -2.06-3.1zm-3.36 4.56a16.889 16.889 0 0 1 4.08 7.18l1.28-.72a18.315 18.315 0 0 0 -4.18-7.08zm11.64-1.98a10.819 10.819 0 0 1 .06 1.18c.1 4.92.38 7.48 1.08 9.38.68 1.92 1.72 3.04 2.84 3.04 1.42 0 2.34-1.34 3.32-4.84a6.393 6.393 0 0 1 -1.18-1.14 14.389 14.389 0 0 1 -1.04 3.42c-.3.66-.64 1-1 1-.76 0-1.58-1.38-2.02-3.42a34.25 34.25 0 0 1 -.52-6.22 14.5 14.5 0 0 1 .14-2.38zm10.12 1.7a17.663 17.663 0 0 1 4.16 9.86l1.42-.58a19.15 19.15 0 0 0 -1.5-5.34 17.36 17.36 0 0 0 -2.86-4.56zm14.38-.92a9.853 9.853 0 0 1 1.08-.1c3.04-.1 5.44-.24 6.08-.36a.774.774 0 0 1 .18-.02l.04.04-.08.08-.08.08-.28.28c-1.38 1.36-4.54 4.14-6.68 5.84a22.281 22.281 0 0 1 -2.8 2.04l.9 1.28a12.835 12.835 0 0 1 8.42-3.42c2.7 0 4.3 1.14 4.3 3.06 0 1.7-1.1 2.92-3.2 3.5a5.725 5.725 0 0 0 -.92-1.92 4.028 4.028 0 0 0 -3.3-1.64c-1.66 0-2.9 1-2.9 2.34 0 1.84 1.62 2.88 4.44 2.88 4.44 0 7.34-2.06 7.34-5.18 0-2.56-2.14-4.2-5.48-4.2a10.134 10.134 0 0 0 -4.9 1.24l-.04-.06a51.32 51.32 0 0 0 6.58-5.68 3.691 3.691 0 0 1 1.02-.84l-.84-1.1a2.045 2.045 0 0 1 -.96.22c-1.8.14-4.46.26-6.12.26a9.236 9.236 0 0 1 -1.88-.12zm6.56 12.66a7.2 7.2 0 0 1 -1.46.14 5.11 5.11 0 0 1 -2.24-.46 1.365 1.365 0 0 1 -.8-1.22c0-.76.62-1.24 1.62-1.24 1.44 0 2.44.96 2.88 2.78zm28.5-3.88a1.14 1.14 0 0 1 .26.02 10.314 10.314 0 0 1 -.06-1.22v-1.34a10.929 10.929 0 0 1 .06-1.24c-.48.04-.9.06-1.66.06h-7.02c-.68 0-1.12-.02-1.6-.06a11.18 11.18 0 0 1 .06 1.24v1.32a10.684 10.684 0 0 1 -.06 1.24 15.19 15.19 0 0 1 1.56-.06h2.48a16.332 16.332 0 0 1 -1.98 1.88 16.167 16.167 0 0 1 -4.6 2.4 3.932 3.932 0 0 1 .86 1.06 20.97 20.97 0 0 0 3.2-1.8 12 12 0 0 0 2.76-2.5c-.04.52-.08 1.34-.08 1.9v1.46a11.622 11.622 0 0 1 -.12 1.94h1.4a11.189 11.189 0 0 1 -.12-1.92v-1.52c0-.7-.04-1.5-.08-1.96a8.828 8.828 0 0 0 2.22 2.46 14.524 14.524 0 0 0 3.92 2.24 5.119 5.119 0 0 1 .7-1.16 13.515 13.515 0 0 1 -3.74-1.7 21.866 21.866 0 0 0 2.06-1.52c.3-.24.3-.24.38-.3a1.18 1.18 0 0 1 .26-.18zm-1.22-.04c.42 0 .88.02 1.2.04a8.938 8.938 0 0 1 -2.5 2.08 11.3 11.3 0 0 1 -1.98-2.12zm-7.54-2.72h7.74v1.74h-7.74zm-5.52-7.08v4.72h-.62a6.742 6.742 0 0 1 -1.36-.1v1.28a6.987 6.987 0 0 1 1.36-.1h.62v5.2a10.58 10.58 0 0 1 -2.52.68l.4 1.42c.28-.12.64-.28 1.06-.44 2.02-.74 2.76-1.04 4.64-1.9v-1.24a25.448 25.448 0 0 1 -2.36 1.02v-4.74h.28a8.722 8.722 0 0 1 1.3.08v-1.26a6.242 6.242 0 0 1 -1.3.1h-.28v-4.72h.32a8.53 8.53 0 0 1 1.52.1v-1.32a7.807 7.807 0 0 1 -1.68.12h-1.98a7.591 7.591 0 0 1 -1.68-.12v1.32a8.81 8.81 0 0 1 1.6-.1zm3.78 1.3a10.432 10.432 0 0 1 -.06 1.36c.58-.04.94-.06 1.58-.06h8.36c.62 0 1.1.02 1.54.06a8.489 8.489 0 0 1 -.08-1.32v-1.72a8.656 8.656 0 0 1 .08-1.32 11.578 11.578 0 0 1 -1.6.08h-8.3a11.037 11.037 0 0 1 -1.6-.08 8.278 8.278 0 0 1 .08 1.34zm3.48.34h-2.34v-2.28h2.34zm3.26 0h-2.2v-2.28h2.2zm3.48 0h-2.42v-2.28h2.42zm-10.7 3.32a17.215 17.215 0 0 1 1.88-.1h8.78a17.014 17.014 0 0 1 1.84.1v-1.24a16.66 16.66 0 0 1 -1.88.1h-8.72a12.447 12.447 0 0 1 -1.9-.12zm25.86 5.9a3.4 3.4 0 0 1 -.96 2.34c-.82.84-1.98 1.3-4.22 1.66a3.25 3.25 0 0 1 .8 1.18 9.042 9.042 0 0 0 3.12-1.14 4.853 4.853 0 0 0 2.2-2.56 5.382 5.382 0 0 0 .28-1.48h2.04v3.46c0 .52.14.8.46.96a4.954 4.954 0 0 0 2.26.28c1.64 0 2.16-.08 2.56-.38.46-.34.64-1 .76-2.7a3.815 3.815 0 0 1 -1.18-.5 5.6 5.6 0 0 1 -.28 2.12c-.16.24-.52.32-1.6.32-1.54 0-1.76-.06-1.76-.44v-3.12h1.58a13.853 13.853 0 0 1 1.64.08 9.671 9.671 0 0 1 -.08-1.52v-3.06a10.189 10.189 0 0 1 .08-1.6 16.021 16.021 0 0 1 -1.88.08h-6.3a16.122 16.122 0 0 1 -1.92-.08 10.773 10.773 0 0 1 .08 1.56v3.22a8.162 8.162 0 0 1 -.08 1.4c.72-.06 1.12-.08 1.7-.08zm-1.18-4.98h7.62v1.42h-7.62zm0 2.42h7.62v1.58h-7.62zm-5.44-5.18h-.62a11.57 11.57 0 0 1 -1.78-.1v1.32a12.162 12.162 0 0 1 1.74-.1h.66v6.24a12.145 12.145 0 0 1 -2.58.86l.36 1.38c.24-.12.56-.26.82-.38 2.28-.92 3.34-1.4 4.92-2.2l-.1-1.22c-1 .52-1.36.68-2.2 1.06v-5.74h.26a11.764 11.764 0 0 1 1.6.08v-1.28a11.262 11.262 0 0 1 -1.58.08h-.28v-2.92a16.046 16.046 0 0 1 .12-2.2h-1.46a16.666 16.666 0 0 1 .12 2.2zm9.82-3.58v-.54a6.214 6.214 0 0 1 .1-1.32h-1.44a6.241 6.241 0 0 1 .1 1.3v.56h-2.84a13.466 13.466 0 0 1 -1.98-.1v1.2a15.56 15.56 0 0 1 1.82-.08h.18a10.292 10.292 0 0 1 .84 2.02h-1.28a12.5 12.5 0 0 1 -1.88-.1v1.24a17.073 17.073 0 0 1 1.9-.08h8.22a13.765 13.765 0 0 1 2 .1v-1.26a12.661 12.661 0 0 1 -1.98.1h-1.74a17.55 17.55 0 0 0 .98-2.02h.2a18.988 18.988 0 0 1 2.02.08v-1.2a13.9 13.9 0 0 1 -2.02.1zm-2.02 3.04a19.329 19.329 0 0 0 -.8-2.02h4.58a12.371 12.371 0 0 1 -.96 2.02zm15.14-3.72a11.136 11.136 0 0 1 -.28 1.6 33.086 33.086 0 0 0 -.9 7.92 28.665 28.665 0 0 0 .52 5.66c.06.38.08.48.12.8l1.44-.12v-.3a17.434 17.434 0 0 1 1.62-5.5l-.96-.46a18.581 18.581 0 0 0 -1.3 3.9c-.08-1.06-.12-2.24-.12-3.8a29.566 29.566 0 0 1 .6-6.26 28.419 28.419 0 0 1 .84-3.2zm4.12 3.78a26.639 26.639 0 0 0 3.2.2 33.763 33.763 0 0 0 4.3-.26q1.32-.18 1.38-.18l-.1-1.42a21.461 21.461 0 0 1 -5.36.54 13.584 13.584 0 0 1 -3.4-.3zm1.46 3.9a5.525 5.525 0 0 0 -1.74 3.72 2.827 2.827 0 0 0 .6 1.84c.86 1.04 2.3 1.52 4.58 1.52a20.634 20.634 0 0 0 4.1-.4c.4-.06.44-.08.7-.1l-.2-1.54a13.162 13.162 0 0 1 -4.6.7c-2.58 0-3.84-.72-3.84-2.2a4.646 4.646 0 0 1 1.5-2.94zm28.06 1.52v-9.18h3.94v-1.24h-5.3v10.42zm16.5-7.92h-5.36a16.87 16.87 0 0 1 -2.02-.1 9.328 9.328 0 0 1 .08 1.38v1.06a10 10 0 0 1 -.1 1.58h1.34v-2.78h4.12a4.537 4.537 0 0 1 -1.06 3.02c-1 1.14-2.26 1.78-4.7 2.36a4.186 4.186 0 0 1 .82 1.14c2.62-.92 3.86-1.62 4.82-2.7a5.871 5.871 0 0 0 1.36-3.82h2.48v4.18c0 1.02.44 1.2 3.12 1.2 3.4 0 3.72-.2 3.9-2.42a4.164 4.164 0 0 1 -1.2-.44c-.08 1.72-.1 1.74-2.68 1.74a9.115 9.115 0 0 1 -1.58-.08c-.26-.06-.34-.16-.34-.46v-3.72h4.76v2.08h1.34a7.685 7.685 0 0 1 -.1-1.4v-.54a8.988 8.988 0 0 1 .08-1.38 16.87 16.87 0 0 1 -2.02.1h-5.78v-.96a6.052 6.052 0 0 1 .14-1.44h-1.56a6.4 6.4 0 0 1 .14 1.44zm.04 9.78v3.92h-5.66a15.968 15.968 0 0 1 -2.22-.12v1.42a14.812 14.812 0 0 1 2.22-.14h12.96a14.519 14.519 0 0 1 2.16.14v-1.42a15.211 15.211 0 0 1 -2.16.12h-6v-3.92h4.34a14.414 14.414 0 0 1 2.02.12v-1.38a14.745 14.745 0 0 1 -2.08.12h-9.72a9.68 9.68 0 0 1 -1.92-.12v1.38a10.367 10.367 0 0 1 1.98-.12zm16.32-5.22h3.66c.8 0 1.48.02 2.02.06-.04-.5-.06-1.06-.06-1.86v-2.48c0-.74.02-1.34.06-1.9a17.549 17.549 0 0 1 -2.04.08h-2.86a18.512 18.512 0 0 1 -2.1-.08c.06.64.08 1.22.08 2.2v12.92a14.949 14.949 0 0 1 -.12 2.24h1.48a14.409 14.409 0 0 1 -.12-2.24zm0-5.12h4.48v1.6h-4.48zm0 2.54h4.48v1.62h-4.48zm14.86-1.4a18.924 18.924 0 0 1 .1-2.2 18.513 18.513 0 0 1 -2.1.08h-3.3a17.33 17.33 0 0 1 -2.04-.08c.04.6.06 1.2.06 1.9v2.48c0 .74-.02 1.34-.06 1.86.54-.04 1.18-.06 2.02-.06h4.1v9.16c0 .48-.16.58-.98.58a21.75 21.75 0 0 1 -2.2-.2 4.59 4.59 0 0 1 .36 1.28c.5.04 1.58.08 2 .08 1.62 0 2.04-.34 2.04-1.66zm-6.14-1.14h4.92v1.6h-4.92zm0 2.54h4.92v1.62h-4.92zm1.78 6.04c0-.8.02-1.32.06-1.88a17.717 17.717 0 0 1 -1.98.08h-3.66a17.947 17.947 0 0 1 -1.98-.08c.04.58.06 1.16.06 1.88v4.44a12.336 12.336 0 0 1 -.1 1.88h1.24v-1.4h4.38c.82 0 1.48.02 2.04.06-.04-.52-.06-1.06-.06-1.82zm-6.36-.8h5.22v1.78h-5.22zm0 2.78h5.22v1.94h-5.22zm27.06-5.48v2.5h-2.82a13.045 13.045 0 0 1 -1.72-.1v1.34a13.045 13.045 0 0 1 1.72-.1h2.82v5.7c0 .34-.2.46-.76.46a14.83 14.83 0 0 1 -2.04-.18 3.835 3.835 0 0 1 .4 1.32c.6.06 1.3.08 1.76.08 1.42 0 1.9-.38 1.9-1.54v-5.84h3.74a12.631 12.631 0 0 1 1.9.12v-1.38a12.447 12.447 0 0 1 -1.9.12h-3.74v-2.5h2.08a11.635 11.635 0 0 1 1.52.08v-1.26a10.694 10.694 0 0 1 -1.52.08h-5.02a10.774 10.774 0 0 1 -1.56-.08 16.1 16.1 0 0 0 3.96-4.38 17.577 17.577 0 0 0 6.2 5.66 10.215 10.215 0 0 1 .76-1.2 14.21 14.21 0 0 1 -6.3-5.6h-1.4a13.088 13.088 0 0 1 -5.68 5.58 3.308 3.308 0 0 1 .8 1.08 16.011 16.011 0 0 0 1.66-1.14v1.26a12.16 12.16 0 0 1 1.54-.08zm-10.06 9.08a16.106 16.106 0 0 1 -.12 2.14h1.44c-.06-.62-.1-1.34-.1-2.12v-14.18h3.12a24.142 24.142 0 0 1 -2.28 4.68 6.155 6.155 0 0 1 1.82 4.64c0 .9-.28 1.22-1.04 1.22a8.965 8.965 0 0 1 -1.18-.08 3.562 3.562 0 0 1 .24 1.2c.44.02.46.02.68.02a4.812 4.812 0 0 0 1.42-.18c.72-.24 1.06-.96 1.06-2.24a7.765 7.765 0 0 0 -.4-2.48 6.748 6.748 0 0 0 -1.28-2.2 32.481 32.481 0 0 0 2.18-4.42c.08-.16.12-.28.16-.34a1.7 1.7 0 0 0 .14-.32l-.7-.68a6.388 6.388 0 0 1 -1.28.08h-2.64a10.638 10.638 0 0 1 -1.3-.06c.04.4.06.96.06 1.52zm13.04-4.02a15.672 15.672 0 0 0 3.42 5.1 5.584 5.584 0 0 1 .96-1.06 11.117 11.117 0 0 1 -3.32-4.52zm-6.06-.52a10.525 10.525 0 0 1 -1.38 2.78 9.1 9.1 0 0 1 -1.86 1.9 4.054 4.054 0 0 1 .94.92 11.9 11.9 0 0 0 3.42-5.12zm19.92-9.88h-3.18a13.641 13.641 0 0 1 -2.02-.12v1.34a13.83 13.83 0 0 1 2.02-.12h3.18v.32a5.613 5.613 0 0 1 -.1 1.14h1.4a6.309 6.309 0 0 1 -.08-1.16v-.3h4.56v.32a6.5 6.5 0 0 1 -.08 1.14h1.4a5.684 5.684 0 0 1 -.1-1.16v-.3h3.4a14.326 14.326 0 0 1 2.04.12v-1.34a14.132 14.132 0 0 1 -2.04.12h-3.4v-.42a6.5 6.5 0 0 1 .08-1.14h-1.38a6.8 6.8 0 0 1 .08 1.14v.42h-4.56v-.42a6.5 6.5 0 0 1 .08-1.14h-1.38a6.646 6.646 0 0 1 .08 1.14zm3.96 6.42a23.373 23.373 0 0 0 4.06-.72l-.86-.96a23.732 23.732 0 0 1 -7.58.98h-.72a3.04 3.04 0 0 1 .44 1c1.62-.04 2.32-.08 3.56-.2v1.52h-3.02a10.09 10.09 0 0 1 -1.78-.1v1.2a10.4 10.4 0 0 1 1.76-.1h2.58a11.913 11.913 0 0 1 -4.6 3.36 2.844 2.844 0 0 1 .78.96 11.963 11.963 0 0 0 4.36-3.66c-.06.64-.08 1.18-.08 1.8v.9a7.9 7.9 0 0 1 -.1 1.5h1.3a7.529 7.529 0 0 1 -.1-1.5v-.9c0-.54-.02-1.16-.08-1.8a14.324 14.324 0 0 0 4.7 3.62 4.063 4.063 0 0 1 .72-1.08 11.7 11.7 0 0 1 -4.84-3.2h2.88a10.688 10.688 0 0 1 1.76.1v-1.2a10.348 10.348 0 0 1 -1.8.1h-3.34zm-6.7 10.26v-1.16h12.72v1.16h1.36a16.419 16.419 0 0 1 -.12-2.38v-8.82a20.5 20.5 0 0 1 .12-2.42 18.916 18.916 0 0 1 -2.36.1h-10.74a18.373 18.373 0 0 1 -2.34-.1 21.984 21.984 0 0 1 .12 2.42v8.78a17.867 17.867 0 0 1 -.12 2.42zm0-12.42h12.72v10.16h-12.72zm23.18-3.28a21.032 21.032 0 0 1 4.92 2.64l.82-1.34a29.573 29.573 0 0 0 -4.96-2.52zm-1.58 4.78a22.206 22.206 0 0 1 5.1 2.74l.78-1.34a30.508 30.508 0 0 0 -5.08-2.62zm.68 9.58a4.7 4.7 0 0 1 .78-.22c.4-.08.76-.16 1.08-.22a22.845 22.845 0 0 0 5.06-1.72 15.677 15.677 0 0 0 7.7-8.62 6.03 6.03 0 0 1 -1.24-1.06 14.892 14.892 0 0 1 -2.4 4.48 13.173 13.173 0 0 1 -6 4.46 17.3 17.3 0 0 1 -5.38 1.24zm35.86-1.28a49.739 49.739 0 0 0 -6.66-6 24.185 24.185 0 0 0 3.3-5.6 3.733 3.733 0 0 1 .56-.98l-.84-.86a3.729 3.729 0 0 1 -1.28.16l-7.14.08h-.52a9.4 9.4 0 0 1 -1.58-.1l.04 1.62a13.457 13.457 0 0 1 2.06-.16l6.68-.1a3.4 3.4 0 0 0 .48-.02.423.423 0 0 1 -.06.14c-.04.1-.06.12-.1.24a21.677 21.677 0 0 1 -7.14 9.02 16.1 16.1 0 0 1 -4.06 2.3 4.451 4.451 0 0 1 .98 1.32 25.755 25.755 0 0 0 3.92-2.4 21.71 21.71 0 0 0 3.82-3.58 37.2 37.2 0 0 1 6.4 6.18zm20.24-7.6a18.257 18.257 0 0 1 2.3.1v-1.48a14.409 14.409 0 0 1 -2.32.12h-11.7a14.409 14.409 0 0 1 -2.32-.12v1.48a18.256 18.256 0 0 1 2.3-.1h5.42a11.446 11.446 0 0 1 -.8 4.14c-.82 1.82-2.44 3.1-5.06 3.94a3.5 3.5 0 0 1 .94 1.3 11.761 11.761 0 0 0 3.52-1.98 7.87 7.87 0 0 0 2.7-5.28 18.655 18.655 0 0 0 .22-2.12zm-12.02-4.82a16.086 16.086 0 0 1 2.28-.1h7.82a16.086 16.086 0 0 1 2.28.1v-1.52a11.053 11.053 0 0 1 -2.3.14h-7.78a11.053 11.053 0 0 1 -2.3-.14zm25.76-2.4a37.949 37.949 0 0 1 -1.58 5.76 76.281 76.281 0 0 1 -3.02 7.92c-.46.04-1.56.1-1.7.1-.1 0-.1 0-.56-.02l.2 1.66a13.907 13.907 0 0 1 1.7-.22 123.546 123.546 0 0 0 12.3-1.66 27.15 27.15 0 0 1 1.18 2.7l1.4-.76a51.806 51.806 0 0 0 -4.98-9.04l-1.24.68a38.906 38.906 0 0 1 3.08 5.18c-2.36.46-7.06 1.08-9.72 1.26a108.356 108.356 0 0 0 4.16-11.7 7.908 7.908 0 0 1 .54-1.44zm18.88 7.1v9.18h-3.94v1.24h5.3v-10.42zm32.08-6.9a15.329 15.329 0 0 1 2.06 3.18l1-.6a15.182 15.182 0 0 0 -2.06-3.1zm-12.88 6.16a26.036 26.036 0 0 1 4.02-.72 29.514 29.514 0 0 1 -4.28 9.96l1.36.8a38.844 38.844 0 0 0 4.32-10.88 11.483 11.483 0 0 1 1.44-.1c1.86 0 2.46.68 2.46 2.8a15.482 15.482 0 0 1 -.84 5.56q-.39.96-1.14.96a7.476 7.476 0 0 1 -2.98-.92 3.69 3.69 0 0 1 .06.78 4.468 4.468 0 0 1 -.04.72 7.525 7.525 0 0 0 3.02.78 2.089 2.089 0 0 0 1.96-.94c.82-1.16 1.34-3.82 1.34-6.88 0-1.64-.28-2.56-.98-3.22a3.822 3.822 0 0 0 -2.88-.84 11.656 11.656 0 0 0 -1.18.06c.16-.86.34-1.78.42-2.28a12.3 12.3 0 0 1 .38-1.92l-1.6-.18v.26a24.7 24.7 0 0 1 -.6 4.24 41.027 41.027 0 0 1 -4.42.52zm15.16-7.22a14.486 14.486 0 0 1 2.04 3.14l1-.58a16.064 16.064 0 0 0 -2.06-3.1zm-3.36 4.56a16.889 16.889 0 0 1 4.08 7.18l1.28-.72a18.315 18.315 0 0 0 -4.18-7.08zm23.42-.04c0-.36.02-.4.02-.62.06-2.98.06-2.98.1-3.48.02-.06.02-.18.04-.3h-1.5a11.336 11.336 0 0 1 .12 2.04c0 .76-.02 1.52-.04 2.36h-.58a11.031 11.031 0 0 1 -1.92-.12v1.36a9.71 9.71 0 0 1 1.92-.1h.52a20.189 20.189 0 0 1 -1.56 7.28 10.874 10.874 0 0 1 -3.58 4.24 3.345 3.345 0 0 1 1 .98 12.251 12.251 0 0 0 2.22-2.24 14.635 14.635 0 0 0 2.72-6.44 29.382 29.382 0 0 0 .46-3.82h2.82a65.363 65.363 0 0 1 -.46 8.2c-.36 2.52-.5 2.82-1.3 2.82a11.054 11.054 0 0 1 -2.24-.28 3.89 3.89 0 0 1 .22 1.32 16.277 16.277 0 0 0 2.08.16c1.42 0 1.84-.36 2.2-1.96a56.692 56.692 0 0 0 .76-9.04 18.641 18.641 0 0 1 .12-2.44 11.6 11.6 0 0 1 -1.78.08zm-11.04 5.04a30.093 30.093 0 0 1 2.4 2.52 13.79 13.79 0 0 1 -2.18 2.84 13.858 13.858 0 0 1 -2.82 2.18 3.522 3.522 0 0 1 .92 1.02 16.3 16.3 0 0 0 4.88-5.06c.7.9 1.02 1.36 1.86 2.62l.92-.98c-1.04-1.4-1.44-1.92-2.14-2.78a26.076 26.076 0 0 0 1.38-3.42l-1.22-.56a11.218 11.218 0 0 1 -1.02 3.02c-.66-.74-1.04-1.12-2.12-2.16zm2.04-6.72h-2.2a9.772 9.772 0 0 1 -1.96-.12v1.38a10.276 10.276 0 0 1 1.94-.12h5.46a13.048 13.048 0 0 1 1.88.08v-1.32a11.769 11.769 0 0 1 -1.96.1h-1.94v-1.26a9.825 9.825 0 0 1 .12-1.64h-1.46a9.658 9.658 0 0 1 .12 1.64zm-1.6 1.84a9.87 9.87 0 0 1 -1.04 2.16 11.494 11.494 0 0 1 -1.84 2.12 5.351 5.351 0 0 1 1 .86 14.384 14.384 0 0 0 3.02-4.64zm3.5.52a19.458 19.458 0 0 0 2.84 4.14 3.545 3.545 0 0 1 .94-.86 14.064 14.064 0 0 1 -2.76-3.8zm24.22 3.42v1.82h-6.08a10.471 10.471 0 0 1 -1.98-.14v1.4a14 14 0 0 1 1.98-.12h5.2a12.745 12.745 0 0 1 -3.24 2.9 18.18 18.18 0 0 1 -4.16 2.02 4.749 4.749 0 0 1 .82 1.18 18.22 18.22 0 0 0 7.5-5.46c-.02.6-.04 1.14-.04 1.54v2.32a12.475 12.475 0 0 1 -.14 2.18h1.5a10.433 10.433 0 0 1 -.14-2.18v-2.34c0-.38-.02-.58-.06-1.58a15.019 15.019 0 0 0 3.06 2.88 20.353 20.353 0 0 0 4.98 2.52 5.071 5.071 0 0 1 .72-1.26 17.867 17.867 0 0 1 -5.06-2.24 14.008 14.008 0 0 1 -2.86-2.48h5.6a15.666 15.666 0 0 1 2.06.12v-1.4a12.025 12.025 0 0 1 -2.06.14h-6.38v-1.82h3.98a13.38 13.38 0 0 1 2.36.12 14.94 14.94 0 0 1 -.08-2.2v-3.44a14.94 14.94 0 0 1 .08-2.2 12.846 12.846 0 0 1 -2.34.12h-8.88a12.214 12.214 0 0 1 -2.28-.12 15.012 15.012 0 0 1 .1 2.18v3.46a14.819 14.819 0 0 1 -.1 2.2 13.645 13.645 0 0 1 2.38-.12zm0-6.5v2.16h-4.6v-2.16zm1.22 0h5v2.16h-5zm-1.22 3.22v2.2h-4.6v-2.2zm1.22 0h5v2.2h-5zm15.46-2.12h-.58a11.2 11.2 0 0 1 -1.2-.06 14.925 14.925 0 0 1 .08 1.9v10.14a17.856 17.856 0 0 1 -.1 2.44h1.34v-1.76h3.9v1.28h1.32a17.269 17.269 0 0 1 -.1-2.06v-10.18c0-.72.02-1.24.06-1.76-.08 0-.66.02-1.76.06h-1.3c.38-.88.64-1.62 1.02-2.76l-1.42-.26a14.1 14.1 0 0 1 -.86 3.02zm-.46 1.1h3.9v4.46h-3.9zm0 5.56h3.9v4.88h-3.9zm14.2-5.5c-.02 2.94-.04 4.32-.14 5.92a22.74 22.74 0 0 1 -.74 5.52c-.24.64-.52.82-1.26.82a14.993 14.993 0 0 1 -2.84-.34 3.7 3.7 0 0 1 .34 1.42c1.28.1 1.82.14 2.56.14a2.061 2.061 0 0 0 2.22-1.28c.72-1.6.98-4.28 1.16-12.2a7.9 7.9 0 0 1 .08-1.26 12.885 12.885 0 0 1 -1.76.08h-4.84c.3-.78.48-1.24.76-2.04a7.019 7.019 0 0 1 .28-.76l-1.38-.26a8.881 8.881 0 0 1 -.52 1.94 14.522 14.522 0 0 1 -2.94 5.04 4.083 4.083 0 0 1 .96.9 19.021 19.021 0 0 0 2.3-3.64zm-2.42 7.54a23.171 23.171 0 0 0 -3.16-4.98l-1.02.62a21.013 21.013 0 0 1 3.04 5.06z" fill="#2b2b2b" transform="translate(370.743 34)"/><g fill="none" stroke="#707070"><path d="m337.757 7263.874h-6v50h6" transform="translate(-331.257 -7263.374)"/><path d="m337.757 7263.874h-6v50h6" transform="matrix(-1 0 0 -1 1072.5 7314.374)"/></g></svg>