<svg xmlns="http://www.w3.org/2000/svg" width="313.243" height="51" viewBox="0 0 313.243 51">
  <defs>
    <style>
      .cls-1 {
        fill: #2b2b2b;
      }

      .cls-2 {
        fill: none;
        stroke: #707070;
      }
    </style>
  </defs>
  <g id="Group_8789" data-name="Group 8789" transform="translate(-5730.5 -5509.5)">
    <path id="Path_30691" data-name="Path 30691" class="cls-1" d="M-107.6-.455a10.889,10.889,0,0,1-.078,1.391h1.027a8.074,8.074,0,0,1-.091-1.391V-9.438h8.632V-.351c0,.234-.117.286-.611.286a13.186,13.186,0,0,1-2-.156,3.97,3.97,0,0,1,.195.845c.637.039,1.209.065,1.69.065,1.326,0,1.586-.156,1.586-.936V-9.061a10.113,10.113,0,0,1,.052-1.183,9.8,9.8,0,0,1-1.2.052h-8.021a10.237,10.237,0,0,1-1.235-.052,10.162,10.162,0,0,1,.052,1.17Zm1.742-6.773a5.726,5.726,0,0,1,1.04-.065h4.875a5.4,5.4,0,0,1,1.027.065V-8.1a5.3,5.3,0,0,1-1.053.065h-4.836a5.3,5.3,0,0,1-1.053-.065ZM-99.918-5.1a5.632,5.632,0,0,1,.039-.78,9.329,9.329,0,0,1-.949.039H-104.1c-.338,0-.6-.013-.871-.039a7.531,7.531,0,0,1,.039.793v3.12a10.357,10.357,0,0,1-.052,1.2h.845V-1.911h3.458a7.788,7.788,0,0,1,.806.039,6.459,6.459,0,0,1-.039-.754Zm-4.225-.026h3.419v2.5h-3.419Zm12.779-4.927a4.1,4.1,0,0,1,.052.689c0,.221,0,.455-.013.845-.1,4.095-.117,4.42-.117,5.291a3.621,3.621,0,0,0,.715,2.665,3.083,3.083,0,0,0,2.444.91,4.58,4.58,0,0,0,3.666-1.612,8.125,8.125,0,0,0,1.443-2.951,4.415,4.415,0,0,1-.936-.637,7.422,7.422,0,0,1-.637,2.041A3.733,3.733,0,0,1-88.231-.546a2.454,2.454,0,0,1-1.625-.507,2.046,2.046,0,0,1-.611-1.56c-.013-.286-.026-.624-.026-.78,0-.585.039-2.353.091-3.913a19.58,19.58,0,0,1,.169-2.73Zm4.108.624A10.137,10.137,0,0,1-85.93-7.358l.663-.39a10.435,10.435,0,0,0-1.339-2.015Zm1.443-.741a9.738,9.738,0,0,1,1.326,2.041l.663-.377a11.141,11.141,0,0,0-1.352-2.015Zm11.986.858h-3.484a10.966,10.966,0,0,1-1.313-.065,6.063,6.063,0,0,1,.052.9v.689a6.5,6.5,0,0,1-.065,1.027h.871V-8.567h2.678A2.949,2.949,0,0,1-75.777-6.6,5.258,5.258,0,0,1-78.832-5.07a2.721,2.721,0,0,1,.533.741,6.838,6.838,0,0,0,3.133-1.755,3.816,3.816,0,0,0,.884-2.483h1.612V-5.85c0,.663.286.78,2.028.78,2.21,0,2.418-.13,2.535-1.573a2.707,2.707,0,0,1-.78-.286c-.052,1.118-.065,1.131-1.742,1.131a5.925,5.925,0,0,1-1.027-.052c-.169-.039-.221-.1-.221-.3V-8.567h3.094v1.352h.871a5,5,0,0,1-.065-.91v-.351a5.842,5.842,0,0,1,.052-.9,10.966,10.966,0,0,1-1.313.065H-73v-.624a3.934,3.934,0,0,1,.091-.936h-1.014a4.157,4.157,0,0,1,.091.936Zm.026,6.357V-.4H-77.48a10.379,10.379,0,0,1-1.443-.078V.442A9.627,9.627,0,0,1-77.48.351h8.424a9.437,9.437,0,0,1,1.4.091V-.481a9.887,9.887,0,0,1-1.4.078h-3.9V-2.951h2.821a9.369,9.369,0,0,1,1.313.078v-.9a9.584,9.584,0,0,1-1.352.078h-6.318A6.292,6.292,0,0,1-77.74-3.77v.9a6.738,6.738,0,0,1,1.287-.078Zm10.608-3.393h2.379c.52,0,.962.013,1.313.039-.026-.325-.039-.689-.039-1.209V-9.126c0-.481.013-.871.039-1.235a11.406,11.406,0,0,1-1.326.052h-1.859a12.033,12.033,0,0,1-1.365-.052c.039.416.052.793.052,1.43v8.4A9.716,9.716,0,0,1-64.077.923h.962a9.365,9.365,0,0,1-.078-1.456Zm0-3.328h2.912v1.04h-2.912Zm0,1.651h2.912v1.053h-2.912Zm9.659-.91a12.3,12.3,0,0,1,.065-1.43,12.033,12.033,0,0,1-1.365.052h-2.145a11.264,11.264,0,0,1-1.326-.052c.026.39.039.78.039,1.235v1.612c0,.481-.013.871-.039,1.209.351-.026.767-.039,1.313-.039h2.665V-.39c0,.312-.1.377-.637.377a14.137,14.137,0,0,1-1.43-.13,2.983,2.983,0,0,1,.234.832c.325.026,1.027.052,1.3.052,1.053,0,1.326-.221,1.326-1.079Zm-3.991-.741h3.2v1.04h-3.2Zm0,1.651h3.2v1.053h-3.2Zm1.157,3.926c0-.52.013-.858.039-1.222a11.516,11.516,0,0,1-1.287.052H-60a11.666,11.666,0,0,1-1.287-.052c.026.377.039.754.039,1.222v2.886A8.018,8.018,0,0,1-61.308.013h.806V-.9h2.847c.533,0,.962.013,1.326.039-.026-.338-.039-.689-.039-1.183Zm-4.134-.52h3.393v1.157H-60.5Zm0,1.807h3.393v1.261H-60.5Zm12.324-7.332A7.239,7.239,0,0,1-48.36-9.1a21.506,21.506,0,0,0-.585,5.148,18.633,18.633,0,0,0,.338,3.679c.039.247.052.312.078.52l.936-.078v-.2A11.332,11.332,0,0,1-46.54-3.6l-.624-.3a12.078,12.078,0,0,0-.845,2.535c-.052-.689-.078-1.456-.078-2.47A19.218,19.218,0,0,1-47.7-7.9a18.473,18.473,0,0,1,.546-2.08ZM-45.5-7.683a17.315,17.315,0,0,0,2.08.13,21.946,21.946,0,0,0,2.8-.169q.858-.117.9-.117l-.065-.923a13.949,13.949,0,0,1-3.484.351,8.829,8.829,0,0,1-2.21-.195Zm.949,2.535A3.591,3.591,0,0,0-45.682-2.73a1.837,1.837,0,0,0,.39,1.2,3.613,3.613,0,0,0,2.977.988,13.412,13.412,0,0,0,2.665-.26c.26-.039.286-.052.455-.065l-.13-1a8.556,8.556,0,0,1-2.99.455c-1.677,0-2.5-.468-2.5-1.43a3.02,3.02,0,0,1,.975-1.911ZM-32.019-7.5a10.107,10.107,0,0,1,1.664,1.17,14.74,14.74,0,0,1-4.667,2.145,2.385,2.385,0,0,1,.455.767A18.461,18.461,0,0,0-30.823-5.1,16.965,16.965,0,0,0-27.157-8.06a17.791,17.791,0,0,0,1.17-1.391l-.442-.494a9.451,9.451,0,0,1-1.209.065h-2.47c.208-.234.26-.3.416-.481.286-.351.3-.351.416-.494l-.936-.234a4.724,4.724,0,0,1-.91,1.183A11.782,11.782,0,0,1-34.97-7.267a2.5,2.5,0,0,1,.507.65A13.789,13.789,0,0,0-30.745-9.2h3.523a12.327,12.327,0,0,1-2.47,2.392,15.082,15.082,0,0,0-1.716-1.17Zm6.708,3a11.2,11.2,0,0,1-2.5,2.418,15.905,15.905,0,0,0-1.781-1.261l-.663.481a8.259,8.259,0,0,1,1.742,1.235A15.089,15.089,0,0,1-34.034.312a2.892,2.892,0,0,1,.468.819A18.384,18.384,0,0,0-28.288-.832a11.97,11.97,0,0,0,3.809-3.419c.221-.286.221-.286.377-.481l-.468-.507a9.531,9.531,0,0,1-1.222.065h-2.3c.286-.286.325-.325.884-.962l-.845-.325A6.2,6.2,0,0,1-29.471-4.9a12.076,12.076,0,0,1-4.082,2.184,2.373,2.373,0,0,1,.494.7A12.836,12.836,0,0,0-28.808-4.5Zm11.778-5.98a20.667,20.667,0,0,1-3.809,3.562,10.045,10.045,0,0,0-1.1.884,1.259,1.259,0,0,0-.377.871c0,.442.208.728.936,1.3,1.9,1.482,2.418,1.911,3.289,2.717A12.272,12.272,0,0,1-12.922.637l.819-.806a3.31,3.31,0,0,1-.364-.325,38.33,38.33,0,0,0-4.16-3.549c-1.053-.819-1.157-.91-1.157-1.144,0-.182.091-.286.572-.65a37.869,37.869,0,0,0,2.99-2.457c1.352-1.3,1.456-1.391,1.6-1.508Zm13.2,1.859a3.741,3.741,0,0,1,1.508.325A3.427,3.427,0,0,1,3.237-5.031a3.924,3.924,0,0,1-2.3,3.64A7.793,7.793,0,0,1-1.235-.78,2.066,2.066,0,0,1-.78.091,10.057,10.057,0,0,0,1.2-.507,4.734,4.734,0,0,0,4.173-4.992,4.352,4.352,0,0,0,2.912-8.164,5.033,5.033,0,0,0-.663-9.451a5.43,5.43,0,0,0-4.2,1.729A5.408,5.408,0,0,0-6.227-4.134c0,1.82.923,3.172,2.158,3.172.936,0,1.7-.78,2.457-2.5A19.487,19.487,0,0,0-.338-8.619Zm-.936.013A17.856,17.856,0,0,1-2.457-3.8c-.559,1.274-1.079,1.885-1.625,1.885-.7,0-1.248-.962-1.248-2.21A4.5,4.5,0,0,1-3.211-7.995,4.106,4.106,0,0,1-1.274-8.606Zm14.261-2.041A8.876,8.876,0,0,1,13.039-9.5a10.647,10.647,0,0,1-2.691,7.631A9.179,9.179,0,0,1,7.7.091a2.48,2.48,0,0,1,.7.767,11.055,11.055,0,0,0,2.392-1.9A8.744,8.744,0,0,0,12.649-3.7a11.012,11.012,0,0,0,.9-2.9,11.216,11.216,0,0,0,1.69,4.134A11.905,11.905,0,0,0,18.681.858a2.958,2.958,0,0,1,.676-.819A9.574,9.574,0,0,1,17.849-.975a11.493,11.493,0,0,1-1.924-2.054,11.379,11.379,0,0,1-1.677-3.64,16.87,16.87,0,0,1-.286-2.821,8.845,8.845,0,0,1,.065-1.157Zm18.057.442a9.964,9.964,0,0,1,1.339,2.067l.65-.39a9.869,9.869,0,0,0-1.339-2.015Zm-8.372,4a16.923,16.923,0,0,1,2.613-.468A19.184,19.184,0,0,1,22.5-.195l.884.52A25.249,25.249,0,0,0,26.2-6.747a7.464,7.464,0,0,1,.936-.065c1.209,0,1.6.442,1.6,1.82a10.063,10.063,0,0,1-.546,3.614q-.254.624-.741.624a4.859,4.859,0,0,1-1.937-.6,2.4,2.4,0,0,1,.039.507,2.9,2.9,0,0,1-.026.468A4.891,4.891,0,0,0,27.482.13a1.358,1.358,0,0,0,1.274-.611,8.96,8.96,0,0,0,.871-4.472,2.624,2.624,0,0,0-.637-2.093,2.484,2.484,0,0,0-1.872-.546,7.576,7.576,0,0,0-.767.039c.1-.559.221-1.157.273-1.482a7.991,7.991,0,0,1,.247-1.248l-1.04-.117v.169a16.057,16.057,0,0,1-.39,2.756,26.668,26.668,0,0,1-2.873.338Zm9.854-4.693a9.415,9.415,0,0,1,1.326,2.041l.65-.377a10.441,10.441,0,0,0-1.339-2.015ZM30.342-7.93a10.978,10.978,0,0,1,2.652,4.667l.832-.468a11.9,11.9,0,0,0-2.717-4.6Zm7.566-1.287a7.034,7.034,0,0,1,.039.767c.065,3.2.247,4.862.7,6.1S39.767-.377,40.495-.377c.923,0,1.521-.871,2.158-3.146a4.155,4.155,0,0,1-.767-.741,9.353,9.353,0,0,1-.676,2.223c-.195.429-.416.65-.65.65-.494,0-1.027-.9-1.313-2.223a22.262,22.262,0,0,1-.338-4.043A9.423,9.423,0,0,1,39-9.2Zm6.578,1.1A11.481,11.481,0,0,1,47.19-1.7l.923-.377a12.448,12.448,0,0,0-.975-3.471,11.284,11.284,0,0,0-1.859-2.964Zm9.347-.6a6.4,6.4,0,0,1,.7-.065c1.976-.065,3.536-.156,3.952-.234a.5.5,0,0,1,.117-.013L58.63-9l-.052.052-.052.052-.182.182c-.9.884-2.951,2.691-4.342,3.8a14.483,14.483,0,0,1-1.82,1.326l.585.832A8.343,8.343,0,0,1,58.24-4.979c1.755,0,2.795.741,2.795,1.989,0,1.105-.715,1.9-2.08,2.275a3.721,3.721,0,0,0-.6-1.248,2.618,2.618,0,0,0-2.145-1.066,1.689,1.689,0,0,0-1.885,1.521c0,1.2,1.053,1.872,2.886,1.872C60.1.364,61.984-.975,61.984-3c0-1.664-1.391-2.73-3.562-2.73a6.587,6.587,0,0,0-3.185.806l-.026-.039a33.358,33.358,0,0,0,4.277-3.692,2.4,2.4,0,0,1,.663-.546L59.6-9.919a1.329,1.329,0,0,1-.624.143c-1.17.091-2.9.169-3.978.169a6,6,0,0,1-1.222-.078ZM58.1-.481a4.681,4.681,0,0,1-.949.091,3.322,3.322,0,0,1-1.456-.3.887.887,0,0,1-.52-.793c0-.494.4-.806,1.053-.806C57.161-2.288,57.811-1.664,58.1-.481ZM76.622-3a.741.741,0,0,1,.169.013,6.7,6.7,0,0,1-.039-.793v-.871a7.1,7.1,0,0,1,.039-.806c-.312.026-.585.039-1.079.039H71.149c-.442,0-.728-.013-1.04-.039a7.267,7.267,0,0,1,.039.806V-3.8a6.945,6.945,0,0,1-.039.806,9.873,9.873,0,0,1,1.014-.039h1.612a10.616,10.616,0,0,1-1.287,1.222,10.509,10.509,0,0,1-2.99,1.56,2.556,2.556,0,0,1,.559.689A13.631,13.631,0,0,0,71.1-.728a7.8,7.8,0,0,0,1.794-1.625c-.026.338-.052.871-.052,1.235v.949a7.554,7.554,0,0,1-.078,1.261h.91a7.273,7.273,0,0,1-.078-1.248v-.988c0-.455-.026-.975-.052-1.274a5.738,5.738,0,0,0,1.443,1.6A9.441,9.441,0,0,0,77.532.637a3.327,3.327,0,0,1,.455-.754,8.785,8.785,0,0,1-2.431-1.105,14.213,14.213,0,0,0,1.339-.988c.195-.156.195-.156.247-.195a.767.767,0,0,1,.169-.117Zm-.793-.026c.273,0,.572.013.78.026a5.81,5.81,0,0,1-1.625,1.352A7.348,7.348,0,0,1,73.7-3.029ZM70.928-4.8h5.031v1.131H70.928ZM67.34-9.4v3.068h-.4a4.382,4.382,0,0,1-.884-.065v.832a4.541,4.541,0,0,1,.884-.065h.4v3.38a6.877,6.877,0,0,1-1.638.442l.26.923c.182-.078.416-.182.689-.286,1.313-.481,1.794-.676,3.016-1.235v-.806a16.541,16.541,0,0,1-1.534.663V-5.629h.182a5.669,5.669,0,0,1,.845.052V-6.4a4.057,4.057,0,0,1-.845.065h-.182V-9.4h.208a5.545,5.545,0,0,1,.988.065v-.858a5.075,5.075,0,0,1-1.092.078H66.95a4.934,4.934,0,0,1-1.092-.078v.858A5.726,5.726,0,0,1,66.9-9.4Zm2.457.845a6.781,6.781,0,0,1-.039.884c.377-.026.611-.039,1.027-.039h5.434c.4,0,.715.013,1,.039a5.518,5.518,0,0,1-.052-.858V-9.646a5.626,5.626,0,0,1,.052-.858,7.526,7.526,0,0,1-1.04.052H70.785a7.174,7.174,0,0,1-1.04-.052,5.38,5.38,0,0,1,.052.871Zm2.262.221H70.538V-9.815h1.521Zm2.119,0h-1.43V-9.815h1.43Zm2.262,0H74.867V-9.815H76.44ZM69.485-6.175a11.19,11.19,0,0,1,1.222-.065h5.707a11.059,11.059,0,0,1,1.2.065v-.806a10.829,10.829,0,0,1-1.222.065H70.72a8.091,8.091,0,0,1-1.235-.078ZM86.294-2.34A2.21,2.21,0,0,1,85.67-.819,4.571,4.571,0,0,1,82.927.26a2.112,2.112,0,0,1,.52.767A5.877,5.877,0,0,0,85.475.286,3.154,3.154,0,0,0,86.9-1.378a3.5,3.5,0,0,0,.182-.962h1.326V-.091c0,.338.091.52.3.624a3.22,3.22,0,0,0,1.469.182c1.066,0,1.4-.052,1.664-.247.3-.221.416-.65.494-1.755a2.48,2.48,0,0,1-.767-.325A3.64,3.64,0,0,1,91.39-.234c-.1.156-.338.208-1.04.208-1,0-1.144-.039-1.144-.286V-2.34h1.027a9,9,0,0,1,1.066.052,6.286,6.286,0,0,1-.052-.988V-5.265a6.623,6.623,0,0,1,.052-1.04,10.414,10.414,0,0,1-1.222.052h-4.1a10.479,10.479,0,0,1-1.248-.052,7,7,0,0,1,.052,1.014V-3.2a5.305,5.305,0,0,1-.052.91c.468-.039.728-.052,1.1-.052Zm-.767-3.237H90.48v.923H85.527Zm0,1.573H90.48v1.027H85.527ZM81.991-7.371h-.4a7.52,7.52,0,0,1-1.157-.065v.858a7.905,7.905,0,0,1,1.131-.065h.429v4.056a7.894,7.894,0,0,1-1.677.559l.234.9c.156-.078.364-.169.533-.247,1.482-.6,2.171-.91,3.2-1.43L84.214-3.6c-.65.338-.884.442-1.43.689V-6.643h.169a7.647,7.647,0,0,1,1.04.052v-.832a7.321,7.321,0,0,1-1.027.052h-.182v-1.9a10.43,10.43,0,0,1,.078-1.43h-.949a10.834,10.834,0,0,1,.078,1.43ZM88.374-9.7v-.351a4.039,4.039,0,0,1,.065-.858H87.5a4.057,4.057,0,0,1,.065.845V-9.7H85.722a8.753,8.753,0,0,1-1.287-.065v.78a10.114,10.114,0,0,1,1.183-.052h.117a6.69,6.69,0,0,1,.546,1.313h-.832a8.123,8.123,0,0,1-1.222-.065v.806a11.1,11.1,0,0,1,1.235-.052H90.8a8.947,8.947,0,0,1,1.3.065v-.819a8.23,8.23,0,0,1-1.287.065H89.687a11.406,11.406,0,0,0,.637-1.313h.13a12.342,12.342,0,0,1,1.313.052v-.78a9.034,9.034,0,0,1-1.313.065ZM87.061-7.722a12.564,12.564,0,0,0-.52-1.313h2.977a8.041,8.041,0,0,1-.624,1.313ZM96.9-10.14A7.238,7.238,0,0,1,96.72-9.1a21.507,21.507,0,0,0-.585,5.148,18.632,18.632,0,0,0,.338,3.679c.039.247.052.312.078.52l.936-.078v-.2A11.332,11.332,0,0,1,98.54-3.6l-.624-.3a12.078,12.078,0,0,0-.845,2.535c-.052-.689-.078-1.456-.078-2.47a19.218,19.218,0,0,1,.39-4.069,18.471,18.471,0,0,1,.546-2.08ZM99.58-7.683a17.316,17.316,0,0,0,2.08.13,21.946,21.946,0,0,0,2.795-.169q.858-.117.9-.117l-.065-.923a13.949,13.949,0,0,1-3.484.351,8.829,8.829,0,0,1-2.21-.195Zm.949,2.535A3.591,3.591,0,0,0,99.4-2.73a1.838,1.838,0,0,0,.39,1.2,3.613,3.613,0,0,0,2.977.988,13.412,13.412,0,0,0,2.665-.26c.26-.039.286-.052.455-.065l-.13-1a8.556,8.556,0,0,1-2.99.455c-1.677,0-2.5-.468-2.5-1.43a3.02,3.02,0,0,1,.975-1.911ZM-90.6,17.84V11.873h2.561v-.806h-3.445V17.84Zm10.725-5.148h-3.484a10.966,10.966,0,0,1-1.313-.065,6.063,6.063,0,0,1,.052.9v.689a6.5,6.5,0,0,1-.065,1.027h.871V13.433h2.678a2.949,2.949,0,0,1-.689,1.963,5.258,5.258,0,0,1-3.055,1.534,2.721,2.721,0,0,1,.533.741,6.838,6.838,0,0,0,3.133-1.755,3.816,3.816,0,0,0,.884-2.483h1.612V16.15c0,.663.286.78,2.028.78,2.21,0,2.418-.13,2.535-1.573a2.707,2.707,0,0,1-.78-.286C-74.984,16.189-75,16.2-76.674,16.2A5.925,5.925,0,0,1-77.7,16.15c-.169-.039-.221-.1-.221-.3V13.433h3.094v1.352h.871a5,5,0,0,1-.065-.91v-.351a5.842,5.842,0,0,1,.052-.9,10.966,10.966,0,0,1-1.313.065H-79.04v-.624a3.934,3.934,0,0,1,.091-.936h-1.014a4.157,4.157,0,0,1,.091.936Zm.026,6.357V21.6h-3.679a10.379,10.379,0,0,1-1.443-.078v.923a9.628,9.628,0,0,1,1.443-.091H-75.1a9.437,9.437,0,0,1,1.4.091v-.923a9.887,9.887,0,0,1-1.4.078H-79V19.049h2.821a9.369,9.369,0,0,1,1.313.078v-.9a9.584,9.584,0,0,1-1.352.078h-6.318a6.292,6.292,0,0,1-1.248-.078v.9a6.738,6.738,0,0,1,1.287-.078Zm10.608-3.393h2.379c.52,0,.962.013,1.313.039-.026-.325-.039-.689-.039-1.209V12.874c0-.481.013-.871.039-1.235a11.407,11.407,0,0,1-1.326.052h-1.859a12.033,12.033,0,0,1-1.365-.052c.039.416.052.793.052,1.43v8.4a9.716,9.716,0,0,1-.078,1.456h.962a9.367,9.367,0,0,1-.078-1.456Zm0-3.328h2.912v1.04h-2.912Zm0,1.651h2.912v1.053h-2.912Zm9.659-.91a12.3,12.3,0,0,1,.065-1.43,12.033,12.033,0,0,1-1.365.052h-2.145a11.264,11.264,0,0,1-1.326-.052c.026.39.039.78.039,1.235v1.612c0,.481-.013.871-.039,1.209.351-.026.767-.039,1.313-.039h2.665V21.61c0,.312-.1.377-.637.377a14.137,14.137,0,0,1-1.43-.13,2.983,2.983,0,0,1,.234.832c.325.026,1.027.052,1.3.052,1.053,0,1.326-.221,1.326-1.079Zm-3.991-.741h3.2v1.04h-3.2Zm0,1.651h3.2v1.053h-3.2Zm1.157,3.926c0-.52.013-.858.039-1.222a11.517,11.517,0,0,1-1.287.052H-66.04a11.666,11.666,0,0,1-1.287-.052c.026.377.039.754.039,1.222v2.886a8.019,8.019,0,0,1-.065,1.222h.806V21.1H-63.7c.533,0,.962.013,1.326.039-.026-.338-.039-.689-.039-1.183Zm-4.134-.52h3.393v1.157h-3.393Zm0,1.807h3.393v1.261h-3.393Zm17.589-3.562v1.625h-1.833a8.479,8.479,0,0,1-1.118-.065v.871A8.479,8.479,0,0,1-50.791,18h1.833v3.7c0,.221-.13.3-.494.3a9.64,9.64,0,0,1-1.326-.117,2.493,2.493,0,0,1,.26.858c.39.039.845.052,1.144.052.923,0,1.235-.247,1.235-1V18h2.431a8.21,8.21,0,0,1,1.235.078v-.9a8.091,8.091,0,0,1-1.235.078h-2.431V15.63h1.352a7.563,7.563,0,0,1,.988.052v-.819a6.951,6.951,0,0,1-.988.052H-50.05a7,7,0,0,1-1.014-.052,10.465,10.465,0,0,0,2.574-2.847,11.425,11.425,0,0,0,4.03,3.679,6.641,6.641,0,0,1,.494-.78,9.237,9.237,0,0,1-4.1-3.64h-.91A8.507,8.507,0,0,1-52.663,14.9a2.15,2.15,0,0,1,.52.7,10.407,10.407,0,0,0,1.079-.741v.819a7.9,7.9,0,0,1,1-.052Zm-6.539,5.9a10.468,10.468,0,0,1-.078,1.391h.936c-.039-.4-.065-.871-.065-1.378V12.328h2.028a15.692,15.692,0,0,1-1.482,3.042,4,4,0,0,1,1.183,3.016c0,.585-.182.793-.676.793a5.827,5.827,0,0,1-.767-.052,2.315,2.315,0,0,1,.156.78c.286.013.3.013.442.013A3.128,3.128,0,0,0-52.9,19.8c.468-.156.689-.624.689-1.456a5.047,5.047,0,0,0-.26-1.612,4.386,4.386,0,0,0-.832-1.43,21.113,21.113,0,0,0,1.417-2.873c.052-.1.078-.182.1-.221A1.107,1.107,0,0,0-51.688,12l-.455-.442a4.152,4.152,0,0,1-.832.052h-1.716a6.915,6.915,0,0,1-.845-.039c.026.26.039.624.039.988Zm8.476-2.613A10.187,10.187,0,0,0-44.8,22.234a3.63,3.63,0,0,1,.624-.689,7.226,7.226,0,0,1-2.158-2.938Zm-3.939-.338a6.841,6.841,0,0,1-.9,1.807,5.912,5.912,0,0,1-1.209,1.235,2.635,2.635,0,0,1,.611.6,7.738,7.738,0,0,0,2.223-3.328Zm12.948-6.422h-2.067a8.867,8.867,0,0,1-1.313-.078v.871a8.989,8.989,0,0,1,1.313-.078h2.067v.208a3.649,3.649,0,0,1-.065.741h.91a4.1,4.1,0,0,1-.052-.754v-.2h2.964v.208a4.224,4.224,0,0,1-.052.741h.91a3.7,3.7,0,0,1-.065-.754v-.2h2.21a9.312,9.312,0,0,1,1.326.078v-.871a9.185,9.185,0,0,1-1.326.078h-2.21v-.273a4.224,4.224,0,0,1,.052-.741h-.9a4.419,4.419,0,0,1,.052.741v.273h-2.964v-.273a4.224,4.224,0,0,1,.052-.741h-.9a4.32,4.32,0,0,1,.052.741Zm2.574,4.173a15.193,15.193,0,0,0,2.639-.468l-.559-.624a15.426,15.426,0,0,1-4.927.637h-.468a1.976,1.976,0,0,1,.286.65c1.053-.026,1.508-.052,2.314-.13v.988h-1.963a6.558,6.558,0,0,1-1.157-.065v.78a6.758,6.758,0,0,1,1.144-.065h1.677a7.744,7.744,0,0,1-2.99,2.184,1.849,1.849,0,0,1,.507.624A7.776,7.776,0,0,0-36.1,18.464c-.039.416-.052.767-.052,1.17v.585a5.136,5.136,0,0,1-.065.975h.845a4.893,4.893,0,0,1-.065-.975v-.585c0-.351-.013-.754-.052-1.17a9.311,9.311,0,0,0,3.055,2.353,2.641,2.641,0,0,1,.468-.7,7.6,7.6,0,0,1-3.146-2.08h1.872A6.947,6.947,0,0,1-32.1,18.1v-.78a6.726,6.726,0,0,1-1.17.065h-2.171ZM-39.793,23v-.754h8.268V23h.884a10.672,10.672,0,0,1-.078-1.547V15.721a13.323,13.323,0,0,1,.078-1.573,12.3,12.3,0,0,1-1.534.065h-6.981a11.942,11.942,0,0,1-1.521-.065,14.29,14.29,0,0,1,.078,1.573v5.707A11.613,11.613,0,0,1-40.677,23Zm0-8.073h8.268v6.6h-8.268ZM-24.726,12.8a13.671,13.671,0,0,1,3.2,1.716l.533-.871A19.223,19.223,0,0,0-24.219,12ZM-25.753,15.9a14.434,14.434,0,0,1,3.315,1.781l.507-.871a19.831,19.831,0,0,0-3.3-1.7Zm.442,6.227a3.052,3.052,0,0,1,.507-.143c.26-.052.494-.1.7-.143a14.849,14.849,0,0,0,3.289-1.118,10.19,10.19,0,0,0,5-5.6,3.92,3.92,0,0,1-.806-.689,9.68,9.68,0,0,1-1.56,2.912,8.562,8.562,0,0,1-3.9,2.9,11.242,11.242,0,0,1-3.5.806ZM-2,21.3a32.33,32.33,0,0,0-4.329-3.9,15.72,15.72,0,0,0,2.145-3.64,2.426,2.426,0,0,1,.364-.637l-.546-.559a2.424,2.424,0,0,1-.832.1l-4.641.052h-.338a6.109,6.109,0,0,1-1.027-.065l.026,1.053a8.747,8.747,0,0,1,1.339-.1l4.342-.065a2.208,2.208,0,0,0,.312-.013.275.275,0,0,1-.039.091c-.026.065-.039.078-.065.156a14.09,14.09,0,0,1-4.641,5.863,10.465,10.465,0,0,1-2.639,1.495,2.893,2.893,0,0,1,.637.858,16.741,16.741,0,0,0,2.548-1.56A14.112,14.112,0,0,0-6.9,18.1a24.179,24.179,0,0,1,4.16,4.017Zm13.156-4.94a11.867,11.867,0,0,1,1.495.065v-.962a9.366,9.366,0,0,1-1.508.078h-7.6a9.366,9.366,0,0,1-1.508-.078v.962a11.867,11.867,0,0,1,1.495-.065H7.046a7.44,7.44,0,0,1-.52,2.691A4.932,4.932,0,0,1,3.237,21.61a2.273,2.273,0,0,1,.611.845,7.644,7.644,0,0,0,2.288-1.287,5.115,5.115,0,0,0,1.755-3.432,12.124,12.124,0,0,0,.143-1.378ZM3.341,13.225a10.456,10.456,0,0,1,1.482-.065H9.906a10.456,10.456,0,0,1,1.482.065v-.988a7.185,7.185,0,0,1-1.5.091H4.836a7.185,7.185,0,0,1-1.5-.091Zm16.744-1.56a24.668,24.668,0,0,1-1.027,3.744,49.579,49.579,0,0,1-1.963,5.148c-.3.026-1.014.065-1.1.065-.065,0-.065,0-.364-.013l.13,1.079a9.04,9.04,0,0,1,1.105-.143,80.3,80.3,0,0,0,7.995-1.079,17.646,17.646,0,0,1,.767,1.755l.91-.494A33.674,33.674,0,0,0,23.3,15.851l-.806.442a25.289,25.289,0,0,1,2,3.367c-1.534.3-4.589.7-6.318.819a70.432,70.432,0,0,0,2.7-7.605,5.14,5.14,0,0,1,.351-.936ZM32.357,16.28v5.967H29.8v.806h3.445V16.28ZM53.209,11.8a9.964,9.964,0,0,1,1.339,2.067l.65-.39a9.869,9.869,0,0,0-1.339-2.015Zm-8.372,4a16.923,16.923,0,0,1,2.613-.468,19.184,19.184,0,0,1-2.782,6.474l.884.52a25.249,25.249,0,0,0,2.808-7.072,7.464,7.464,0,0,1,.936-.065c1.209,0,1.6.442,1.6,1.82a10.063,10.063,0,0,1-.546,3.614q-.253.624-.741.624a4.859,4.859,0,0,1-1.937-.6,2.4,2.4,0,0,1,.039.507,2.9,2.9,0,0,1-.026.468,4.891,4.891,0,0,0,1.963.507,1.358,1.358,0,0,0,1.274-.611,8.96,8.96,0,0,0,.871-4.472,2.624,2.624,0,0,0-.637-2.093,2.484,2.484,0,0,0-1.872-.546,7.576,7.576,0,0,0-.767.039c.1-.559.221-1.157.273-1.482a7.992,7.992,0,0,1,.247-1.248L48,11.6v.169a16.057,16.057,0,0,1-.39,2.756,26.667,26.667,0,0,1-2.873.338Zm9.854-4.693a9.415,9.415,0,0,1,1.326,2.041l.65-.377a10.441,10.441,0,0,0-1.339-2.015ZM52.507,14.07a10.978,10.978,0,0,1,2.652,4.667l.832-.468a11.9,11.9,0,0,0-2.717-4.6Zm15.223-.026c0-.234.013-.26.013-.4.039-1.937.039-1.937.065-2.262.013-.039.013-.117.026-.2h-.975a7.369,7.369,0,0,1,.078,1.326c0,.494-.013.988-.026,1.534h-.377a7.17,7.17,0,0,1-1.248-.078v.884a6.311,6.311,0,0,1,1.248-.065h.338a13.123,13.123,0,0,1-1.014,4.732,7.068,7.068,0,0,1-2.327,2.756,2.174,2.174,0,0,1,.65.637,7.963,7.963,0,0,0,1.443-1.456,9.512,9.512,0,0,0,1.768-4.186,19.1,19.1,0,0,0,.3-2.483h1.833a42.487,42.487,0,0,1-.3,5.33c-.234,1.638-.325,1.833-.845,1.833a7.186,7.186,0,0,1-1.456-.182,2.528,2.528,0,0,1,.143.858,10.58,10.58,0,0,0,1.352.1c.923,0,1.2-.234,1.43-1.274a36.848,36.848,0,0,0,.494-5.876,12.115,12.115,0,0,1,.078-1.586,7.54,7.54,0,0,1-1.157.052ZM60.554,17.32a19.564,19.564,0,0,1,1.56,1.638,9.024,9.024,0,0,1-3.25,3.263,2.289,2.289,0,0,1,.6.663,10.6,10.6,0,0,0,3.172-3.289c.455.585.663.884,1.209,1.7l.6-.637c-.676-.91-.936-1.248-1.391-1.807a16.951,16.951,0,0,0,.9-2.223l-.793-.364a7.292,7.292,0,0,1-.663,1.963c-.429-.481-.676-.728-1.378-1.4Zm1.326-4.368H60.45a6.352,6.352,0,0,1-1.274-.078v.9a6.679,6.679,0,0,1,1.261-.078h3.549a8.481,8.481,0,0,1,1.222.052v-.858a7.65,7.65,0,0,1-1.274.065H62.673v-.819a6.386,6.386,0,0,1,.078-1.066H61.8a6.277,6.277,0,0,1,.078,1.066Zm-1.04,1.2a6.417,6.417,0,0,1-.676,1.4,7.471,7.471,0,0,1-1.2,1.378,3.478,3.478,0,0,1,.65.559,9.35,9.35,0,0,0,1.963-3.016Zm2.275.338a12.647,12.647,0,0,0,1.846,2.691,2.3,2.3,0,0,1,.611-.559,9.141,9.141,0,0,1-1.794-2.47Zm15.743,2.223v1.183H74.906a6.806,6.806,0,0,1-1.287-.091v.91a9.1,9.1,0,0,1,1.287-.078h3.38a8.285,8.285,0,0,1-2.106,1.885,11.817,11.817,0,0,1-2.7,1.313,3.087,3.087,0,0,1,.533.767,11.843,11.843,0,0,0,4.875-3.549c-.013.39-.026.741-.026,1v1.508a8.109,8.109,0,0,1-.091,1.417h.975a6.781,6.781,0,0,1-.091-1.417V20.037c0-.247-.013-.377-.039-1.027A9.763,9.763,0,0,0,81.6,20.882a13.229,13.229,0,0,0,3.237,1.638,3.3,3.3,0,0,1,.468-.819,11.613,11.613,0,0,1-3.289-1.456,9.1,9.1,0,0,1-1.859-1.612H83.8a10.183,10.183,0,0,1,1.339.078V17.8a7.816,7.816,0,0,1-1.339.091H79.651V16.709h2.587a8.7,8.7,0,0,1,1.534.078,9.709,9.709,0,0,1-.052-1.43V13.121a9.709,9.709,0,0,1,.052-1.43,8.35,8.35,0,0,1-1.521.078H76.479A7.939,7.939,0,0,1,75,11.691a9.758,9.758,0,0,1,.065,1.417v2.249A9.633,9.633,0,0,1,75,16.787a8.869,8.869,0,0,1,1.547-.078Zm0-4.225v1.4h-2.99v-1.4Zm.793,0H82.9v1.4h-3.25Zm-.793,2.093v1.43h-2.99v-1.43Zm.793,0H82.9v1.43h-3.25ZM89.7,13.2h-.377a7.279,7.279,0,0,1-.78-.039A9.7,9.7,0,0,1,88.6,14.4v6.591a11.605,11.605,0,0,1-.065,1.586H89.4V21.428h2.535v.832h.858a11.224,11.224,0,0,1-.065-1.339V14.3c0-.468.013-.806.039-1.144-.052,0-.429.013-1.144.039h-.845c.247-.572.416-1.053.663-1.794l-.923-.169A9.165,9.165,0,0,1,89.96,13.2Zm-.3.715h2.535v2.9H89.4Zm0,3.614h2.535V20.7H89.4Zm9.23-3.575c-.013,1.911-.026,2.808-.091,3.848a14.781,14.781,0,0,1-.481,3.588c-.156.416-.338.533-.819.533a9.745,9.745,0,0,1-1.846-.221,2.408,2.408,0,0,1,.221.923c.832.065,1.183.091,1.664.091a1.34,1.34,0,0,0,1.443-.832c.468-1.04.637-2.782.754-7.93a5.134,5.134,0,0,1,.052-.819,8.375,8.375,0,0,1-1.144.052H95.238c.195-.507.312-.806.494-1.326a4.56,4.56,0,0,1,.182-.494l-.9-.169a5.774,5.774,0,0,1-.338,1.261,9.439,9.439,0,0,1-1.911,3.276,2.654,2.654,0,0,1,.624.585,12.363,12.363,0,0,0,1.495-2.366Zm-1.573,4.9A15.062,15.062,0,0,0,95,15.617l-.663.4a13.658,13.658,0,0,1,1.976,3.289Z" transform="translate(5887.243 5528.5)"/>
    <path id="Path_30657" data-name="Path 30657" class="cls-2" d="M337.757,7263.874h-6v50h6" transform="translate(5399.243 -1753.874)"/>
    <path id="Path_30658" data-name="Path 30658" class="cls-2" d="M337.757,7263.874h-6v50h6" transform="translate(6375 12823.874) rotate(180)"/>
  </g>
</svg>
