<svg xmlns="http://www.w3.org/2000/svg" width="741.243" height="51" viewBox="0 0 741.243 51"><g transform="translate(-330.257 -8313)"><path d="M337.757,7263.874h-6v50h6" transform="translate(-1 1049.626)" fill="none" stroke="#707070" stroke-width="1"/><path d="M337.757,7263.874h-6v50h6" transform="translate(1402.757 15627.374) rotate(180)" fill="none" stroke="#707070" stroke-width="1"/><path d="M-94.456-8.027v1.641h-10.186V-8.027Zm0,4.189v1.67h-10.186v-1.67ZM-59.84-14.32H-65.2a16.87,16.87,0,0,1-2.02-.1,9.327,9.327,0,0,1,.08,1.38v1.06a10,10,0,0,1-.1,1.58h1.34v-2.78h4.12a4.537,4.537,0,0,1-1.06,3.02c-1,1.14-2.26,1.78-4.7,2.36a4.186,4.186,0,0,1,.82,1.14c2.62-.92,3.86-1.62,4.82-2.7a5.871,5.871,0,0,0,1.36-3.82h2.48V-9c0,1.02.44,1.2,3.12,1.2,3.4,0,3.72-.2,3.9-2.42a4.164,4.164,0,0,1-1.2-.44c-.08,1.72-.1,1.74-2.68,1.74A9.115,9.115,0,0,1-56.5-9c-.26-.06-.34-.16-.34-.46v-3.72h4.76v2.08h1.34a7.685,7.685,0,0,1-.1-1.4v-.54a8.988,8.988,0,0,1,.08-1.38,16.87,16.87,0,0,1-2.02.1h-5.78v-.96a6.052,6.052,0,0,1,.14-1.44h-1.56a6.4,6.4,0,0,1,.14,1.44Zm.04,9.78V-.62h-5.66a15.968,15.968,0,0,1-2.22-.12V.68A14.812,14.812,0,0,1-65.46.54H-52.5a14.519,14.519,0,0,1,2.16.14V-.74a15.211,15.211,0,0,1-2.16.12h-6V-4.54h4.34a14.414,14.414,0,0,1,2.02.12V-5.8a14.745,14.745,0,0,1-2.08.12h-9.72a9.681,9.681,0,0,1-1.92-.12v1.38a10.367,10.367,0,0,1,1.98-.12Zm16.32-5.22h3.66c.8,0,1.48.02,2.02.06-.04-.5-.06-1.06-.06-1.86v-2.48c0-.74.02-1.34.06-1.9a17.549,17.549,0,0,1-2.04.08H-42.7a18.513,18.513,0,0,1-2.1-.08c.06.64.08,1.22.08,2.2V-.82a14.949,14.949,0,0,1-.12,2.24h1.48a14.409,14.409,0,0,1-.12-2.24Zm0-5.12H-39v1.6h-4.48Zm0,2.54H-39v1.62h-4.48Zm14.86-1.4a18.924,18.924,0,0,1,.1-2.2,18.513,18.513,0,0,1-2.1.08h-3.3a17.33,17.33,0,0,1-2.04-.08c.04.6.06,1.2.06,1.9v2.48c0,.74-.02,1.34-.06,1.86.54-.04,1.18-.06,2.02-.06h4.1V-.6c0,.48-.16.58-.98.58a21.75,21.75,0,0,1-2.2-.2,4.59,4.59,0,0,1,.36,1.28c.5.04,1.58.08,2,.08,1.62,0,2.04-.34,2.04-1.66Zm-6.14-1.14h4.92v1.6h-4.92Zm0,2.54h4.92v1.62h-4.92Zm1.78,6.04c0-.8.02-1.32.06-1.88a17.718,17.718,0,0,1-1.98.08h-3.66a17.948,17.948,0,0,1-1.98-.08c.04.58.06,1.16.06,1.88v4.44a12.336,12.336,0,0,1-.1,1.88h1.24v-1.4h4.38c.82,0,1.48.02,2.04.06-.04-.52-.06-1.06-.06-1.82Zm-6.36-.8h5.22v1.78h-5.22Zm0,2.78h5.22v1.94h-5.22ZM-12.28-9.8v2.5H-15.1a13.045,13.045,0,0,1-1.72-.1v1.34a13.045,13.045,0,0,1,1.72-.1h2.82v5.7c0,.34-.2.46-.76.46a14.831,14.831,0,0,1-2.04-.18,3.835,3.835,0,0,1,.4,1.32c.6.06,1.3.08,1.76.08,1.42,0,1.9-.38,1.9-1.54V-6.16h3.74a12.631,12.631,0,0,1,1.9.12V-7.42a12.447,12.447,0,0,1-1.9.12h-3.74V-9.8h2.08a11.635,11.635,0,0,1,1.52.08v-1.26a10.7,10.7,0,0,1-1.52.08h-5.02a10.774,10.774,0,0,1-1.56-.08,16.1,16.1,0,0,0,3.96-4.38A17.577,17.577,0,0,0-5.36-9.7a10.216,10.216,0,0,1,.76-1.2,14.21,14.21,0,0,1-6.3-5.6h-1.4a13.088,13.088,0,0,1-5.68,5.58,3.308,3.308,0,0,1,.8,1.08,16.011,16.011,0,0,0,1.66-1.14v1.26a12.16,12.16,0,0,1,1.54-.08ZM-22.34-.72a16.105,16.105,0,0,1-.12,2.14h1.44c-.06-.62-.1-1.34-.1-2.12V-14.88H-18a24.142,24.142,0,0,1-2.28,4.68,6.155,6.155,0,0,1,1.82,4.64c0,.9-.28,1.22-1.04,1.22a8.965,8.965,0,0,1-1.18-.08,3.562,3.562,0,0,1,.24,1.2c.44.02.46.02.68.02a4.812,4.812,0,0,0,1.42-.18c.72-.24,1.06-.96,1.06-2.24a7.765,7.765,0,0,0-.4-2.48,6.748,6.748,0,0,0-1.28-2.2,32.481,32.481,0,0,0,2.18-4.42c.08-.16.12-.28.16-.34a1.7,1.7,0,0,0,.14-.32l-.7-.68a6.388,6.388,0,0,1-1.28.08H-21.1a10.638,10.638,0,0,1-1.3-.06c.04.4.06.96.06,1.52ZM-9.3-4.74A15.672,15.672,0,0,0-5.88.36,5.584,5.584,0,0,1-4.92-.7,11.117,11.117,0,0,1-8.24-5.22Zm-6.06-.52a10.525,10.525,0,0,1-1.38,2.78A9.1,9.1,0,0,1-18.6-.58a4.054,4.054,0,0,1,.94.92,11.9,11.9,0,0,0,3.42-5.12ZM4.56-15.14H1.38a13.641,13.641,0,0,1-2.02-.12v1.34a13.83,13.83,0,0,1,2.02-.12H4.56v.32a5.613,5.613,0,0,1-.1,1.14h1.4a6.309,6.309,0,0,1-.08-1.16v-.3h4.56v.32a6.5,6.5,0,0,1-.08,1.14h1.4a5.684,5.684,0,0,1-.1-1.16v-.3h3.4a14.326,14.326,0,0,1,2.04.12v-1.34a14.132,14.132,0,0,1-2.04.12h-3.4v-.42a6.5,6.5,0,0,1,.08-1.14H10.26a6.8,6.8,0,0,1,.08,1.14v.42H5.78v-.42a6.5,6.5,0,0,1,.08-1.14H4.48a6.647,6.647,0,0,1,.08,1.14ZM8.52-8.72a23.373,23.373,0,0,0,4.06-.72l-.86-.96a23.732,23.732,0,0,1-7.58.98H3.42a3.04,3.04,0,0,1,.44,1c1.62-.04,2.32-.08,3.56-.2V-7.1H4.4a10.09,10.09,0,0,1-1.78-.1V-6a10.4,10.4,0,0,1,1.76-.1H6.96a11.913,11.913,0,0,1-4.6,3.36,2.844,2.844,0,0,1,.78.96A11.963,11.963,0,0,0,7.5-5.44c-.06.64-.08,1.18-.08,1.8v.9a7.9,7.9,0,0,1-.1,1.5h1.3a7.528,7.528,0,0,1-.1-1.5v-.9c0-.54-.02-1.16-.08-1.8a14.324,14.324,0,0,0,4.7,3.62,4.062,4.062,0,0,1,.72-1.08A11.7,11.7,0,0,1,9.02-6.1H11.9a10.688,10.688,0,0,1,1.76.1V-7.2a10.348,10.348,0,0,1-1.8.1H8.52ZM1.82,1.54V.38H14.54V1.54H15.9a16.419,16.419,0,0,1-.12-2.38V-9.66a20.5,20.5,0,0,1,.12-2.42,18.916,18.916,0,0,1-2.36.1H2.8a18.372,18.372,0,0,1-2.34-.1A21.985,21.985,0,0,1,.58-9.66V-.88A17.867,17.867,0,0,1,.46,1.54Zm0-12.42H14.54V-.72H1.82ZM25-14.16a21.032,21.032,0,0,1,4.92,2.64l.82-1.34a29.573,29.573,0,0,0-4.96-2.52ZM23.42-9.38a22.206,22.206,0,0,1,5.1,2.74l.78-1.34a30.509,30.509,0,0,0-5.08-2.62ZM24.1.2a4.694,4.694,0,0,1,.78-.22c.4-.08.76-.16,1.08-.22a22.845,22.845,0,0,0,5.06-1.72,15.677,15.677,0,0,0,7.7-8.62,6.03,6.03,0,0,1-1.24-1.06,14.893,14.893,0,0,1-2.4,4.48,13.173,13.173,0,0,1-6,4.46A17.3,17.3,0,0,1,23.7-1.46ZM59.96-1.08a49.739,49.739,0,0,0-6.66-6,24.185,24.185,0,0,0,3.3-5.6,3.733,3.733,0,0,1,.56-.98l-.84-.86a3.729,3.729,0,0,1-1.28.16l-7.14.08h-.52a9.4,9.4,0,0,1-1.58-.1l.04,1.62a13.457,13.457,0,0,1,2.06-.16l6.68-.1a3.4,3.4,0,0,0,.48-.02.424.424,0,0,1-.06.14c-.04.1-.06.12-.1.24a21.677,21.677,0,0,1-7.14,9.02,16.1,16.1,0,0,1-4.06,2.3,4.451,4.451,0,0,1,.98,1.32,25.755,25.755,0,0,0,3.92-2.4A21.71,21.71,0,0,0,52.42-6,37.2,37.2,0,0,1,58.82.18ZM80.2-8.68a18.257,18.257,0,0,1,2.3.1v-1.48a14.409,14.409,0,0,1-2.32.12H68.48a14.409,14.409,0,0,1-2.32-.12v1.48a18.257,18.257,0,0,1,2.3-.1h5.42a11.446,11.446,0,0,1-.8,4.14c-.82,1.82-2.44,3.1-5.06,3.94A3.5,3.5,0,0,1,68.96.7a11.761,11.761,0,0,0,3.52-1.98,7.87,7.87,0,0,0,2.7-5.28,18.652,18.652,0,0,0,.22-2.12ZM68.18-13.5a16.086,16.086,0,0,1,2.28-.1h7.82a16.086,16.086,0,0,1,2.28.1v-1.52a11.053,11.053,0,0,1-2.3.14H70.48a11.053,11.053,0,0,1-2.3-.14Zm25.76-2.4a37.95,37.95,0,0,1-1.58,5.76,76.278,76.278,0,0,1-3.02,7.92c-.46.04-1.56.1-1.7.1-.1,0-.1,0-.56-.02l.2,1.66a13.908,13.908,0,0,1,1.7-.22,123.546,123.546,0,0,0,12.3-1.66,27.148,27.148,0,0,1,1.18,2.7l1.4-.76a51.805,51.805,0,0,0-4.98-9.04l-1.24.68a38.905,38.905,0,0,1,3.08,5.18c-2.36.46-7.06,1.08-9.72,1.26a108.356,108.356,0,0,0,4.16-11.7,7.906,7.906,0,0,1,.54-1.44Z" transform="translate(894 8347)" fill="#2b2b2b"/><g transform="translate(398 8323)"><path d="M2536.412,1211.9h-21.6a5.02,5.02,0,0,1-5.02-5.02v-21.6a5.02,5.02,0,0,1,5.02-5.019h21.6a5.021,5.021,0,0,1,5.023,5.019v21.6A5.021,5.021,0,0,1,2536.412,1211.9Zm-12.968-5.277h1.686l-4.76-21.089H2518.5l-4.7,21.089h1.627l1.176-5.424h5.664Zm-6.507-6.9,2.5-11.632,2.5,11.632Zm20.486-1.449H2535.8v3.587c0,2.471-.875,3.5-3.225,3.5s-3.223-1.024-3.223-3.5v-11.571c0-2.47.874-3.495,3.223-3.495s3.225,1.024,3.225,3.495v3.073h1.624v-3.614c0-2.892-1.624-4.458-4.817-4.458h-.062c-3.193,0-4.821,1.565-4.821,4.458v12.653c0,3.042,1.628,4.457,4.821,4.457h.062c3.194,0,4.817-1.446,4.817-4.457Z" transform="translate(-2384.369 -1180.258)" fill="#1a1311"/><path d="M2492.034,1183.418a2.639,2.639,0,0,1,.818-1.936,2.681,2.681,0,0,1,1.959-.816,2.709,2.709,0,0,1,1.977.822,2.649,2.649,0,0,1,.813,1.96,2.712,2.712,0,0,1-.823,1.977,2.65,2.65,0,0,1-1.96.812,2.789,2.789,0,0,1-2.785-2.819Z" transform="translate(-2427.461 -1179.266)" fill="#1a1311"/><g transform="translate(0 0.857)"><path d="M2491.4,1184.335a13.032,13.032,0,0,0-4.989-2.919,22.413,22.413,0,0,0-6.989-.894l-6.158-.013-.075,29.343,6.082.014a22.787,22.787,0,0,0,6.9-.8,14.279,14.279,0,0,0,9.745-13.829A14.042,14.042,0,0,0,2491.4,1184.335Zm-3.237,18.653a9.988,9.988,0,0,1-3.577,2.1,16.719,16.719,0,0,1-4.961.617l-2-.007.055-21.017,1.994,0q5.663.014,8.566,2.7a10.2,10.2,0,0,1,3.211,7.835A10.04,10.04,0,0,1,2488.159,1202.988Z" transform="translate(-2473.187 -1180.508)" fill="#1a1311"/><path d="M2494.667,1195.721a10.839,10.839,0,0,1-2.347,2.806,4.353,4.353,0,0,1-2.641.754,4.512,4.512,0,0,1-3.361-1.34,5.618,5.618,0,0,1-1.474-3.632l13.263.035.024-1.008a10.235,10.235,0,0,0-2.34-7.171,9.262,9.262,0,0,0-12.958.045,10.265,10.265,0,0,0-2.454,7.1,10.007,10.007,0,0,0,2.491,7.116,8.73,8.73,0,0,0,6.647,2.676,11.072,11.072,0,0,0,2.68-.3,7.986,7.986,0,0,0,2.3-.953,9.287,9.287,0,0,0,2-1.669,14.393,14.393,0,0,0,1.774-2.436Zm-8.919-6.332a4.4,4.4,0,0,1,.963-1.073,4.253,4.253,0,0,1,1.248-.678,4.451,4.451,0,0,1,1.463-.236,4.1,4.1,0,0,1,4.307,3.433l-8.589-.021A5.024,5.024,0,0,1,2485.748,1189.39Z" transform="translate(-2455.737 -1173.142)" fill="#1a1311"/><path d="M2490.6,1183.713l4.763,10.407,4.8-10.383,4.808.012-9.664,19.759-9.49-19.807Z" transform="translate(-2442.566 -1172.762)" fill="#1a1311"/><rect width="18.51" height="4.276" transform="matrix(0.003, -1, 1, 0.003, 65.151, 29.503)" fill="#1a1311"/><path d="M2494.741,1184.068l4.276.01,0,1.656a8.175,8.175,0,0,1,2.093-1.686,4.791,4.791,0,0,1,2.207-.469,6.918,6.918,0,0,1,3.532,1.11l-1.967,3.909a4.107,4.107,0,0,0-2.374-.88q-3.5-.005-3.509,5.276l-.023,9.6-4.276-.01Z" transform="translate(-2420.999 -1173.059)" fill="#1a1311"/><path d="M2503.224,1183.745l-.023,10.622q-.017,4.6,3.614,4.609t3.642-4.592l.028-10.622,4.277.01-.028,10.718a11.852,11.852,0,0,1-.562,3.837,6.456,6.456,0,0,1-1.848,2.6,8.986,8.986,0,0,1-11-.028,6.576,6.576,0,0,1-1.875-2.611,10.53,10.53,0,0,1-.521-3.837l.028-10.721Z" transform="translate(-2410.737 -1172.688)" fill="#1a1311"/><path d="M2516.215,1187.28l-3.539,1.874c-.554-1.144-1.244-1.713-2.066-1.717a1.412,1.412,0,0,0-1.006.387,1.3,1.3,0,0,0-.422,1q0,1.064,2.464,2.113a14.694,14.694,0,0,1,4.573,2.714,4.6,4.6,0,0,1,1.169,3.327,5.813,5.813,0,0,1-1.988,4.478,7.084,7.084,0,0,1-11.221-2.857l3.653-1.683a7.761,7.761,0,0,0,1.155,1.693,2.631,2.631,0,0,0,1.861.727q2.162.01,2.169-1.971,0-1.14-1.666-2.131c-.432-.216-.86-.428-1.292-.63s-.866-.415-1.309-.631a7.968,7.968,0,0,1-2.618-1.832,4.494,4.494,0,0,1-.963-2.985,5.275,5.275,0,0,1,1.666-3.988,5.8,5.8,0,0,1,4.108-1.566Q2514.494,1183.61,2516.215,1187.28Z" transform="translate(-2397.993 -1173.006)" fill="#1a1311"/></g></g><g transform="translate(632.36 8323)"><path d="M2508.016,1468.206a3.1,3.1,0,0,1,1.452.889l3.362-5.831a3.735,3.735,0,0,1-1.478-.842Z" transform="translate(-2400.182 -1450.438)" fill="#1a1311"/><path d="M2520.824,1458.552a15.372,15.372,0,1,0,15.373,15.372A15.373,15.373,0,0,0,2520.824,1458.552Zm10.007,15.158a2.55,2.55,0,0,1-.632-.086l-2.012,3.439a3.129,3.129,0,1,1-4.324,0l-3.353-5.727a3.724,3.724,0,0,1-.691.167l-4.2,7.276a3.21,3.21,0,0,1,.055.539,3.129,3.129,0,1,1-3.963-3l4.1-7.109a3.716,3.716,0,0,1-.279-1.406,3.756,3.756,0,1,1,6.235,2.8l3.36,5.737a2.863,2.863,0,0,1,1.8,0l2.015-3.446a2.581,2.581,0,0,1-.719-1.786,2.607,2.607,0,1,1,2.607,2.607Z" transform="translate(-2405.556 -1458.552)" fill="#1a1311"/><rect width="3.864" height="26.432" transform="translate(26.234 2.105)" fill="#1a1311"/><path d="M2492.85,1462.19a8.914,8.914,0,1,0,8.951,8.913A8.838,8.838,0,0,0,2492.85,1462.19Zm0,14.264a5.351,5.351,0,1,1,5.245-5.35A5.3,5.3,0,0,1,2492.85,1476.454Z" transform="translate(-2450.724 -1450.927)" fill="#1a1311"/><path d="M2496.5,1462.647a7.293,7.293,0,0,0-1.892,1.523l0-1.5-3.864-.009-.044,16.725,3.865.009.022-8.672q.013-4.774,3.172-4.765a3.691,3.691,0,0,1,2.144.8l1.776-3.532a6.252,6.252,0,0,0-3.188-1.007A4.353,4.353,0,0,0,2496.5,1462.647Z" transform="translate(-2436.474 -1450.864)" fill="#1a1311"/><path d="M2505.355,1472q-.01,4.156-3.291,4.148t-3.271-4.164l.025-9.6-3.864-.009-.025,9.684a9.627,9.627,0,0,0,.471,3.471,5.937,5.937,0,0,0,1.7,2.356,8.118,8.118,0,0,0,9.942.024,5.808,5.808,0,0,0,1.673-2.347,10.771,10.771,0,0,0,.506-3.468l.025-9.684-3.864-.013Z" transform="translate(-2427.61 -1450.541)" fill="#1a1311"/><path d="M2506.933,1468.872c-1.487-.635-2.229-1.27-2.229-1.914a1.182,1.182,0,0,1,.381-.9,1.277,1.277,0,0,1,.91-.35q1.12,0,1.87,1.548l3.2-1.69a5.053,5.053,0,0,0-4.764-3.325,5.238,5.238,0,0,0-3.716,1.415,4.771,4.771,0,0,0-1.5,3.6,4.062,4.062,0,0,0,.869,2.7,7.23,7.23,0,0,0,2.367,1.654c.4.2.792.387,1.182.569s.778.375,1.165.57c1.006.6,1.51,1.241,1.508,1.929q-.006,1.783-1.963,1.78a2.4,2.4,0,0,1-1.682-.656,7.339,7.339,0,0,1-1.043-1.533l-3.3,1.521a6.4,6.4,0,0,0,10.143,2.585,5.267,5.267,0,0,0,1.8-4.05,4.183,4.183,0,0,0-1.056-3.006A13.311,13.311,0,0,0,2506.933,1468.872Z" transform="translate(-2416.598 -1450.815)" fill="#1a1311"/><path d="M2495.551,1459.232h-4.966l-13.414,14.18v-14.18h-3.983v26.514h3.983v-7.683l4.7-4.834,9.5,12.516h4.825l-11.621-15.2Z" transform="translate(-2473.187 -1457.127)" fill="#1a1311"/></g><g transform="translate(-4668.789 3472.712) rotate(-45)"><line x2="16" transform="translate(272.5 7161.5)" fill="none" stroke="#2b2b2b" stroke-width="2"/><path d="M0,0V16" transform="translate(280.5 7153.5)" fill="none" stroke="#2b2b2b" stroke-width="2"/></g></g></svg>