<svg xmlns="http://www.w3.org/2000/svg" width="313.243" height="88.274" viewBox="0 0 313.243 88.274">
  <defs>
    <style>
      .cls-1, .cls-4 {
        fill: none;
      }

      .cls-1 {
        stroke: #707070;
      }

      .cls-2 {
        fill: #2b2b2b;
      }

      .cls-3 {
        fill: #1a1311;
      }

      .cls-4 {
        stroke: #2b2b2b;
        stroke-width: 2px;
      }
    </style>
  </defs>
  <g id="Group_8791" data-name="Group 8791" transform="translate(-5666.5 -6245.226)">
    <path id="Path_30657" data-name="Path 30657" class="cls-1" d="M337.757,7263.873h-6v86h6" transform="translate(5335.243 -1016.873)"/>
    <path id="Path_30658" data-name="Path 30658" class="cls-1" d="M6,0H0V86H6" transform="translate(5979.243 6331.726) rotate(180)"/>
    <path id="Path_30701" data-name="Path 30701" class="cls-2" d="M-50.752-9.308h-3.484a10.966,10.966,0,0,1-1.313-.065,6.063,6.063,0,0,1,.052.9v.689a6.5,6.5,0,0,1-.065,1.027h.871V-8.567h2.678A2.949,2.949,0,0,1-52.7-6.6,5.258,5.258,0,0,1-55.757-5.07a2.721,2.721,0,0,1,.533.741,6.838,6.838,0,0,0,3.133-1.755,3.816,3.816,0,0,0,.884-2.483h1.612V-5.85c0,.663.286.78,2.028.78,2.21,0,2.418-.13,2.535-1.573a2.707,2.707,0,0,1-.78-.286c-.052,1.118-.065,1.131-1.742,1.131a5.925,5.925,0,0,1-1.027-.052c-.169-.039-.221-.1-.221-.3V-8.567h3.094v1.352h.871a5,5,0,0,1-.065-.91v-.351a5.842,5.842,0,0,1,.052-.9,10.966,10.966,0,0,1-1.313.065H-49.92v-.624a3.934,3.934,0,0,1,.091-.936h-1.014a4.157,4.157,0,0,1,.091.936Zm.026,6.357V-.4H-54.4a10.379,10.379,0,0,1-1.443-.078V.442A9.628,9.628,0,0,1-54.4.351h8.424a9.437,9.437,0,0,1,1.4.091V-.481a9.887,9.887,0,0,1-1.4.078h-3.9V-2.951h2.821a9.369,9.369,0,0,1,1.313.078v-.9a9.584,9.584,0,0,1-1.352.078h-6.318a6.292,6.292,0,0,1-1.248-.078v.9a6.738,6.738,0,0,1,1.287-.078Zm10.608-3.393h2.379c.52,0,.962.013,1.313.039-.026-.325-.039-.689-.039-1.209V-9.126c0-.481.013-.871.039-1.235a11.406,11.406,0,0,1-1.326.052h-1.859a12.033,12.033,0,0,1-1.365-.052c.039.416.052.793.052,1.43v8.4A9.716,9.716,0,0,1-41,.923h.962a9.365,9.365,0,0,1-.078-1.456Zm0-3.328h2.912v1.04h-2.912Zm0,1.651h2.912v1.053h-2.912Zm9.659-.91a12.3,12.3,0,0,1,.065-1.43,12.033,12.033,0,0,1-1.365.052H-33.9a11.264,11.264,0,0,1-1.326-.052c.026.39.039.78.039,1.235v1.612c0,.481-.013.871-.039,1.209.351-.026.767-.039,1.313-.039h2.665V-.39c0,.312-.1.377-.637.377a14.137,14.137,0,0,1-1.43-.13,2.983,2.983,0,0,1,.234.832c.325.026,1.027.052,1.3.052,1.053,0,1.326-.221,1.326-1.079Zm-3.991-.741h3.2v1.04h-3.2Zm0,1.651h3.2v1.053h-3.2Zm1.157,3.926c0-.52.013-.858.039-1.222a11.516,11.516,0,0,1-1.287.052H-36.92a11.666,11.666,0,0,1-1.287-.052c.026.377.039.754.039,1.222v2.886A8.018,8.018,0,0,1-38.233.013h.806V-.9h2.847c.533,0,.962.013,1.326.039-.026-.338-.039-.689-.039-1.183Zm-4.134-.52h3.393v1.157h-3.393Zm0,1.807h3.393v1.261h-3.393ZM-19.838-6.37v1.625h-1.833a8.479,8.479,0,0,1-1.118-.065v.871A8.479,8.479,0,0,1-21.671-4h1.833V-.3c0,.221-.13.3-.494.3a9.64,9.64,0,0,1-1.326-.117,2.493,2.493,0,0,1,.26.858c.39.039.845.052,1.144.052.923,0,1.235-.247,1.235-1V-4h2.431a8.21,8.21,0,0,1,1.235.078v-.9a8.091,8.091,0,0,1-1.235.078h-2.431V-6.37h1.352a7.563,7.563,0,0,1,.988.052v-.819a6.951,6.951,0,0,1-.988.052H-20.93a7,7,0,0,1-1.014-.052A10.465,10.465,0,0,0-19.37-9.984a11.425,11.425,0,0,0,4.03,3.679,6.64,6.64,0,0,1,.494-.78,9.237,9.237,0,0,1-4.095-3.64h-.91A8.507,8.507,0,0,1-23.543-7.1a2.15,2.15,0,0,1,.52.7,10.407,10.407,0,0,0,1.079-.741v.819a7.9,7.9,0,0,1,1-.052Zm-6.539,5.9A10.468,10.468,0,0,1-26.455.923h.936c-.039-.4-.065-.871-.065-1.378V-9.672h2.028A15.692,15.692,0,0,1-25.038-6.63a4,4,0,0,1,1.183,3.016c0,.585-.182.793-.676.793a5.827,5.827,0,0,1-.767-.052,2.315,2.315,0,0,1,.156.78c.286.013.3.013.442.013a3.128,3.128,0,0,0,.923-.117c.468-.156.689-.624.689-1.456a5.047,5.047,0,0,0-.26-1.612,4.386,4.386,0,0,0-.832-1.43,21.113,21.113,0,0,0,1.417-2.873c.052-.1.078-.182.1-.221A1.107,1.107,0,0,0-22.568-10l-.455-.442a4.152,4.152,0,0,1-.832.052h-1.716a6.915,6.915,0,0,1-.845-.039c.026.26.039.624.039.988ZM-17.9-3.081A10.187,10.187,0,0,0-15.678.234a3.629,3.629,0,0,1,.624-.689,7.226,7.226,0,0,1-2.158-2.938Zm-3.939-.338a6.841,6.841,0,0,1-.9,1.807A5.912,5.912,0,0,1-23.946-.377a2.635,2.635,0,0,1,.611.6,7.738,7.738,0,0,0,2.223-3.328ZM-8.892-9.841h-2.067a8.867,8.867,0,0,1-1.313-.078v.871a8.989,8.989,0,0,1,1.313-.078h2.067v.208a3.649,3.649,0,0,1-.065.741h.91A4.1,4.1,0,0,1-8.1-8.931v-.2h2.964v.208a4.224,4.224,0,0,1-.052.741h.91a3.7,3.7,0,0,1-.065-.754v-.2h2.21a9.312,9.312,0,0,1,1.326.078v-.871a9.185,9.185,0,0,1-1.326.078h-2.21v-.273a4.224,4.224,0,0,1,.052-.741h-.9a4.42,4.42,0,0,1,.052.741v.273H-8.1v-.273a4.224,4.224,0,0,1,.052-.741h-.9a4.321,4.321,0,0,1,.052.741Zm2.574,4.173a15.193,15.193,0,0,0,2.639-.468l-.559-.624a15.426,15.426,0,0,1-4.927.637h-.468a1.976,1.976,0,0,1,.286.65c1.053-.026,1.508-.052,2.314-.13v.988H-9a6.558,6.558,0,0,1-1.157-.065v.78a6.758,6.758,0,0,1,1.144-.065h1.677a7.744,7.744,0,0,1-2.99,2.184,1.849,1.849,0,0,1,.507.624A7.776,7.776,0,0,0-6.981-3.536c-.039.416-.052.767-.052,1.17v.585A5.137,5.137,0,0,1-7.1-.806h.845a4.893,4.893,0,0,1-.065-.975v-.585c0-.351-.013-.754-.052-1.17A9.311,9.311,0,0,0-3.315-1.183a2.641,2.641,0,0,1,.468-.7,7.6,7.6,0,0,1-3.146-2.08h1.872A6.947,6.947,0,0,1-2.977-3.9v-.78a6.726,6.726,0,0,1-1.17.065H-6.318ZM-10.673,1V.247H-2.4V1h.884A10.672,10.672,0,0,1-1.6-.546V-6.279a13.323,13.323,0,0,1,.078-1.573,12.3,12.3,0,0,1-1.534.065h-6.981a11.942,11.942,0,0,1-1.521-.065,14.29,14.29,0,0,1,.078,1.573V-.572A11.614,11.614,0,0,1-11.557,1Zm0-8.073H-2.4v6.6h-8.268ZM4.394-9.2a13.671,13.671,0,0,1,3.2,1.716l.533-.871A19.223,19.223,0,0,0,4.9-10ZM3.367-6.1A14.434,14.434,0,0,1,6.682-4.316l.507-.871a19.831,19.831,0,0,0-3.3-1.7ZM3.809.13a3.051,3.051,0,0,1,.507-.143c.26-.052.494-.1.7-.143A14.849,14.849,0,0,0,8.307-1.274a10.19,10.19,0,0,0,5-5.6,3.92,3.92,0,0,1-.806-.689,9.68,9.68,0,0,1-1.56,2.912,8.562,8.562,0,0,1-3.9,2.9,11.242,11.242,0,0,1-3.5.806ZM27.118-.7a32.33,32.33,0,0,0-4.329-3.9,15.72,15.72,0,0,0,2.145-3.64,2.426,2.426,0,0,1,.364-.637l-.546-.559a2.424,2.424,0,0,1-.832.1l-4.641.052h-.338a6.109,6.109,0,0,1-1.027-.065l.026,1.053a8.747,8.747,0,0,1,1.339-.1l4.342-.065a2.208,2.208,0,0,0,.312-.013.275.275,0,0,1-.039.091c-.026.065-.039.078-.065.156a14.09,14.09,0,0,1-4.641,5.863A10.465,10.465,0,0,1,16.549-.871a2.893,2.893,0,0,1,.637.858,16.741,16.741,0,0,0,2.548-1.56A14.112,14.112,0,0,0,22.217-3.9,24.179,24.179,0,0,1,26.377.117Zm13.156-4.94a11.867,11.867,0,0,1,1.495.065v-.962a9.366,9.366,0,0,1-1.508.078H32.656a9.366,9.366,0,0,1-1.508-.078v.962a11.867,11.867,0,0,1,1.5-.065h3.523a7.44,7.44,0,0,1-.52,2.691A4.932,4.932,0,0,1,32.357-.39a2.273,2.273,0,0,1,.611.845A7.644,7.644,0,0,0,35.256-.832a5.115,5.115,0,0,0,1.755-3.432,12.125,12.125,0,0,0,.143-1.378ZM32.461-8.775a10.456,10.456,0,0,1,1.482-.065h5.083a10.456,10.456,0,0,1,1.482.065v-.988a7.185,7.185,0,0,1-1.495.091H33.956a7.185,7.185,0,0,1-1.5-.091ZM49.2-10.335a24.668,24.668,0,0,1-1.027,3.744,49.579,49.579,0,0,1-1.963,5.148c-.3.026-1.014.065-1.1.065-.065,0-.065,0-.364-.013l.13,1.079a9.04,9.04,0,0,1,1.1-.143,80.3,80.3,0,0,0,7.995-1.079A17.646,17.646,0,0,1,54.743.221l.91-.494a33.674,33.674,0,0,0-3.237-5.876l-.806.442a25.289,25.289,0,0,1,2,3.367c-1.534.3-4.589.7-6.318.819A70.432,70.432,0,0,0,50-9.126a5.139,5.139,0,0,1,.351-.936Z" transform="translate(5824 6321)"/>
    <path id="Path_30661" data-name="Path 30661" class="cls-2" d="M6.08-4.82H-6.08V-3.7H6.08Zm0-3.54H-6.08v1.12H6.08Z" transform="translate(5830.36 6297) rotate(-90)"/>
    <g id="Group_8728" data-name="Group 8728" transform="translate(5629 -136)">
      <g id="Group_8726" data-name="Group 8726" transform="translate(1)">
        <g id="Group_8725" data-name="Group 8725" transform="translate(83 6398)">
          <path id="Path_29463" data-name="Path 29463" class="cls-3" d="M2525,1198.33H2512.66a2.867,2.867,0,0,1-2.867-2.867v-12.339a2.867,2.867,0,0,1,2.867-2.867H2525a2.868,2.868,0,0,1,2.869,2.867v12.339A2.868,2.868,0,0,1,2525,1198.33Zm-7.407-3.014h.962l-2.718-12.045h-1.067l-2.685,12.045h.929l.672-3.1h3.235Zm-3.717-3.939,1.426-6.644,1.429,6.644Zm11.7-.828h-.927v2.049c0,1.411-.5,2-1.842,2s-1.841-.585-1.841-2v-6.609c0-1.411.5-2,1.841-2s1.842.585,1.842,2v1.755h.927v-2.064c0-1.652-.927-2.546-2.751-2.546h-.035c-1.823,0-2.754.894-2.754,2.546v7.227c0,1.737.93,2.546,2.754,2.546h.035c1.824,0,2.751-.826,2.751-2.546Z" transform="translate(-2438.157 -1180.258)"/>
          <path id="Path_29464" data-name="Path 29464" class="cls-3" d="M2492.034,1182.239a1.507,1.507,0,0,1,.467-1.106,1.532,1.532,0,0,1,1.119-.466,1.547,1.547,0,0,1,1.129.47,1.513,1.513,0,0,1,.464,1.119,1.55,1.55,0,0,1-.47,1.129,1.514,1.514,0,0,1-1.119.464,1.593,1.593,0,0,1-1.591-1.61Z" transform="translate(-2455.153 -1179.867)"/>
          <g id="Group_4937" data-name="Group 4937" transform="translate(0 0.489)">
            <path id="Path_29465" data-name="Path 29465" class="cls-3" d="M2483.587,1182.694a7.441,7.441,0,0,0-2.849-1.667,12.8,12.8,0,0,0-3.991-.511l-3.517-.008-.043,16.759,3.473.008a13.015,13.015,0,0,0,3.942-.456,8.155,8.155,0,0,0,5.565-7.9A8.02,8.02,0,0,0,2483.587,1182.694Zm-1.849,10.654a5.7,5.7,0,0,1-2.043,1.2,9.547,9.547,0,0,1-2.834.352l-1.141,0,.031-12,1.139,0a6.993,6.993,0,0,1,4.893,1.544,5.826,5.826,0,0,1,1.833,4.475A5.733,5.733,0,0,1,2481.738,1193.347Z" transform="translate(-2473.187 -1180.508)"/>
            <path id="Path_29466" data-name="Path 29466" class="cls-3" d="M2488.539,1190.5a6.2,6.2,0,0,1-1.341,1.6,2.486,2.486,0,0,1-1.509.431,2.577,2.577,0,0,1-1.92-.765,3.208,3.208,0,0,1-.842-2.074l7.575.02.014-.575a5.846,5.846,0,0,0-1.336-4.1,5.29,5.29,0,0,0-7.4.026,5.862,5.862,0,0,0-1.4,4.055,5.714,5.714,0,0,0,1.423,4.065,4.986,4.986,0,0,0,3.8,1.528,6.321,6.321,0,0,0,1.531-.17,4.557,4.557,0,0,0,1.314-.544,5.3,5.3,0,0,0,1.142-.953,8.218,8.218,0,0,0,1.013-1.391Zm-5.094-3.616a2.511,2.511,0,0,1,.55-.613,2.426,2.426,0,0,1,.712-.387,2.544,2.544,0,0,1,.836-.135,2.341,2.341,0,0,1,2.46,1.961l-4.906-.012A2.875,2.875,0,0,1,2483.445,1186.883Z" transform="translate(-2466.304 -1177.603)"/>
            <path id="Path_29467" data-name="Path 29467" class="cls-3" d="M2488.542,1183.708l2.72,5.944,2.739-5.931,2.746.007-5.52,11.285-5.42-11.313Z" transform="translate(-2461.11 -1177.453)"/>
            <rect id="Rectangle_2461" data-name="Rectangle 2461" class="cls-3" width="10.572" height="2.442" transform="matrix(0.003, -1, 1, 0.003, 37.211, 16.851)"/>
            <path id="Path_29468" data-name="Path 29468" class="cls-3" d="M2494.722,1183.858l2.442.006,0,.946a4.663,4.663,0,0,1,1.2-.963,2.735,2.735,0,0,1,1.26-.268,3.952,3.952,0,0,1,2.018.634l-1.124,2.233a2.345,2.345,0,0,0-1.356-.5q-2,0-2,3.014l-.013,5.481-2.442-.006Z" transform="translate(-2452.604 -1177.57)"/>
            <path id="Path_29469" data-name="Path 29469" class="cls-3" d="M2501.38,1183.739l-.013,6.067q-.01,2.627,2.064,2.632t2.08-2.622l.016-6.067,2.442.006-.016,6.121a6.766,6.766,0,0,1-.321,2.192,3.689,3.689,0,0,1-1.055,1.486,5.133,5.133,0,0,1-6.285-.016,3.756,3.756,0,0,1-1.071-1.491,6.015,6.015,0,0,1-.3-2.192l.016-6.123Z" transform="translate(-2448.556 -1177.424)"/>
            <path id="Path_29470" data-name="Path 29470" class="cls-3" d="M2511.052,1185.7l-2.021,1.071c-.317-.654-.71-.979-1.18-.981a.807.807,0,0,0-.575.221.742.742,0,0,0-.241.57q0,.608,1.407,1.207a8.391,8.391,0,0,1,2.612,1.55,2.628,2.628,0,0,1,.668,1.9,3.321,3.321,0,0,1-1.135,2.558,4.046,4.046,0,0,1-6.409-1.632l2.086-.961a4.443,4.443,0,0,0,.659.967,1.5,1.5,0,0,0,1.063.415q1.235.005,1.239-1.125,0-.651-.951-1.217c-.246-.123-.491-.245-.738-.36s-.495-.237-.747-.361a4.549,4.549,0,0,1-1.5-1.046,2.567,2.567,0,0,1-.55-1.7,3.012,3.012,0,0,1,.951-2.278,3.31,3.31,0,0,1,2.346-.894A3.2,3.2,0,0,1,2511.052,1185.7Z" transform="translate(-2443.53 -1177.549)"/>
          </g>
        </g>
        <g id="Group_8724" data-name="Group 8724" transform="translate(216.855 6398)">
          <path id="Path_29471" data-name="Path 29471" class="cls-3" d="M2508.016,1465.726a1.768,1.768,0,0,1,.829.508l1.92-3.33a2.131,2.131,0,0,1-.844-.481Z" transform="translate(-2446.427 -1455.578)"/>
          <path id="Path_29472" data-name="Path 29472" class="cls-3" d="M2514.231,1458.552a8.78,8.78,0,1,0,8.78,8.779A8.78,8.78,0,0,0,2514.231,1458.552Zm5.715,8.658a1.465,1.465,0,0,1-.361-.049l-1.149,1.964a1.787,1.787,0,1,1-2.47,0l-1.915-3.271a2.131,2.131,0,0,1-.395.1l-2.4,4.156a1.813,1.813,0,0,1,.031.308,1.787,1.787,0,1,1-2.263-1.714l2.339-4.06a2.123,2.123,0,0,1-.159-.8,2.145,2.145,0,0,1,4.29,0,2.123,2.123,0,0,1-.729,1.6l1.919,3.277a1.635,1.635,0,0,1,1.03,0l1.151-1.968a1.473,1.473,0,0,1-.41-1.02,1.489,1.489,0,1,1,1.489,1.489Z" transform="translate(-2448.396 -1458.552)"/>
          <rect id="Rectangle_2462" data-name="Rectangle 2462" class="cls-3" width="2.207" height="15.097" transform="translate(14.984 1.202)"/>
          <path id="Path_29473" data-name="Path 29473" class="cls-3" d="M2489.013,1462.19a5.091,5.091,0,1,0,5.112,5.091A5.048,5.048,0,0,0,2489.013,1462.19Zm0,8.147a3.056,3.056,0,1,1,3-3.056A3.028,3.028,0,0,1,2489.013,1470.337Z" transform="translate(-2464.953 -1455.757)"/>
          <path id="Path_29474" data-name="Path 29474" class="cls-3" d="M2494.012,1462.464a4.165,4.165,0,0,0-1.081.87l0-.854-2.207,0-.025,9.552,2.207.005.013-4.953q.007-2.727,1.812-2.722a2.108,2.108,0,0,1,1.224.454l1.015-2.018a3.571,3.571,0,0,0-1.821-.575A2.487,2.487,0,0,0,2494.012,1462.464Z" transform="translate(-2459.729 -1455.734)"/>
          <path id="Path_29475" data-name="Path 29475" class="cls-3" d="M2500.885,1467.872q-.005,2.374-1.88,2.369t-1.868-2.378l.014-5.484-2.207,0-.014,5.531a5.492,5.492,0,0,0,.269,1.982,3.39,3.39,0,0,0,.969,1.346,4.636,4.636,0,0,0,5.678.014,3.318,3.318,0,0,0,.955-1.34,6.143,6.143,0,0,0,.289-1.981l.015-5.531-2.207-.007Z" transform="translate(-2456.48 -1455.616)"/>
          <path id="Path_29476" data-name="Path 29476" class="cls-3" d="M2504.039,1466.029c-.849-.363-1.273-.725-1.273-1.093a.674.674,0,0,1,.217-.513.73.73,0,0,1,.52-.2c.426,0,.781.3,1.068.884l1.826-.965a2.886,2.886,0,0,0-2.721-1.9,2.991,2.991,0,0,0-2.122.808,2.725,2.725,0,0,0-.858,2.057,2.32,2.32,0,0,0,.5,1.542,4.127,4.127,0,0,0,1.352.944c.228.111.452.221.675.325s.445.214.665.326c.574.343.862.709.861,1.1q0,1.018-1.121,1.016a1.368,1.368,0,0,1-.961-.375,4.186,4.186,0,0,1-.6-.875l-1.885.868a3.657,3.657,0,0,0,5.793,1.476,3.009,3.009,0,0,0,1.026-2.313,2.39,2.39,0,0,0-.6-1.717A7.6,7.6,0,0,0,2504.039,1466.029Z" transform="translate(-2452.444 -1455.716)"/>
          <path id="Path_29477" data-name="Path 29477" class="cls-3" d="M2485.96,1459.232h-2.837l-7.662,8.1v-8.1h-2.275v15.144h2.275v-4.388l2.687-2.761,5.425,7.149h2.756l-6.637-8.683Z" transform="translate(-2473.187 -1458.03)"/>
        </g>
      </g>
      <g id="Group_8727" data-name="Group 8727" transform="translate(-5066.789 1542.712) rotate(-45)">
        <line id="Line_755" data-name="Line 755" class="cls-4" x2="16" transform="translate(272.5 7161.5)"/>
        <line id="Line_756" data-name="Line 756" class="cls-4" y2="16" transform="translate(280.5 7153.5)"/>
      </g>
    </g>
  </g>
</svg>
