<svg xmlns="http://www.w3.org/2000/svg" width="169.97" height="40" viewBox="0 0 169.97 40">
  <defs>
    <style>
      .cls-1 {
        fill: #1a1311;
      }
    </style>
  </defs>
  <g id="Group_8785" data-name="Group 8785" transform="translate(-932 -1523)">
    <path id="Path_29471" data-name="Path 29471" class="cls-1" d="M2508.016,1469.948a4.025,4.025,0,0,1,1.888,1.156l4.375-7.586a4.863,4.863,0,0,1-1.922-1.1Z" transform="translate(-1435.719 76.17)"/>
    <path id="Path_29472" data-name="Path 29472" class="cls-1" d="M2525.452,1458.552a20,20,0,1,0,20,20A20,20,0,0,0,2525.452,1458.552Zm13.019,19.722a3.318,3.318,0,0,1-.823-.112l-2.618,4.475a4.072,4.072,0,1,1-5.626,0l-4.363-7.451a4.858,4.858,0,0,1-.9.217l-5.461,9.466a4.156,4.156,0,0,1,.072.7,4.071,4.071,0,1,1-5.156-3.9l5.33-9.249a4.834,4.834,0,0,1-.362-1.829,4.886,4.886,0,0,1,9.772,0,4.836,4.836,0,0,1-1.66,3.637l4.371,7.464a3.727,3.727,0,0,1,2.345,0l2.622-4.483a3.383,3.383,0,1,1,2.458,1.067Z" transform="translate(-1443.483 64.448)"/>
    <path id="Path_30757" data-name="Path 30757" class="cls-1" d="M0,0H5.027V34.389H0Z" transform="translate(966.132 1525.739)"/>
    <path id="Path_29473" data-name="Path 29473" class="cls-1" d="M2495.544,1462.19a11.6,11.6,0,1,0,11.646,11.6A11.5,11.5,0,0,0,2495.544,1462.19Zm0,18.558a6.962,6.962,0,1,1,6.823-6.961A6.9,6.9,0,0,1,2495.544,1480.748Z" transform="translate(-1508.736 75.464)"/>
    <path id="Path_29474" data-name="Path 29474" class="cls-1" d="M2498.243,1462.776a9.494,9.494,0,0,0-2.461,1.982l.005-1.946-5.027-.011-.058,21.76,5.028.012.029-11.283q.016-6.211,4.127-6.2a4.8,4.8,0,0,1,2.789,1.035l2.311-4.6a8.132,8.132,0,0,0-4.148-1.31A5.666,5.666,0,0,0,2498.243,1462.776Z" transform="translate(-1488.148 75.555)"/>
    <path id="Path_29475" data-name="Path 29475" class="cls-1" d="M2508.494,1474.9q-.013,5.407-4.282,5.4t-4.255-5.417l.033-12.492-5.027-.011-.032,12.6a12.517,12.517,0,0,0,.613,4.516,7.72,7.72,0,0,0,2.207,3.066,10.562,10.562,0,0,0,12.935.032,7.556,7.556,0,0,0,2.176-3.053,14,14,0,0,0,.659-4.512l.033-12.6-5.027-.017Z" transform="translate(-1475.343 76.021)"/>
    <path id="Path_29476" data-name="Path 29476" class="cls-1" d="M2508.965,1470.868c-1.935-.827-2.9-1.652-2.9-2.49a1.539,1.539,0,0,1,.5-1.169,1.661,1.661,0,0,1,1.183-.455q1.456,0,2.433,2.014l4.16-2.2q-2.023-4.321-6.2-4.327a6.814,6.814,0,0,0-4.834,1.841,6.205,6.205,0,0,0-1.953,4.685,5.284,5.284,0,0,0,1.131,3.512,9.407,9.407,0,0,0,3.079,2.151c.519.254,1.03.5,1.538.741s1.012.488,1.515.742c1.309.781,1.965,1.615,1.961,2.51q-.007,2.32-2.553,2.316a3.117,3.117,0,0,1-2.189-.854,9.568,9.568,0,0,1-1.357-1.994l-4.294,1.978q2.266,5.347,7.738,5.361a7.92,7.92,0,0,0,5.458-2,6.853,6.853,0,0,0,2.337-5.269,5.443,5.443,0,0,0-1.374-3.911A17.318,17.318,0,0,0,2508.965,1470.868Z" transform="translate(-1459.435 75.625)"/>
    <path id="Path_29477" data-name="Path 29477" class="cls-1" d="M2502.284,1459.232h-6.461l-17.453,18.449v-18.449h-5.183v34.5h5.183v-10l6.12-6.289,12.357,16.284h6.278l-15.119-19.779Z" transform="translate(-1541.187 66.507)"/>
  </g>
</svg>
