<svg xmlns="http://www.w3.org/2000/svg" width="198.554" height="40" viewBox="0 0 198.554 40">
  <defs>
    <style>
      .cls-1 {
        fill: #1a1311;
      }
    </style>
  </defs>
  <g id="Group_8786" data-name="Group 8786" transform="translate(-286 -1523)">
    <path id="Path_29463" data-name="Path 29463" class="cls-1" d="M2543.443,1220.258h-27.3a6.347,6.347,0,0,1-6.346-6.346V1186.6a6.346,6.346,0,0,1,6.346-6.345h27.3a6.347,6.347,0,0,1,6.351,6.345v27.309A6.348,6.348,0,0,1,2543.443,1220.258Zm-16.394-6.671h2.131l-6.017-26.659H2520.8l-5.942,26.659h2.057l1.487-6.856h7.16Zm-8.226-8.719,3.157-14.7,3.162,14.7Zm25.9-1.832h-2.052v4.535c0,3.123-1.106,4.418-4.077,4.418s-4.075-1.295-4.075-4.418v-14.627c0-3.123,1.1-4.418,4.075-4.418s4.077,1.295,4.077,4.418v3.885h2.052v-4.569c0-3.656-2.052-5.635-6.09-5.635h-.078c-4.036,0-6.095,1.979-6.095,5.635v16c0,3.846,2.059,5.635,6.095,5.635h.078c4.038,0,6.09-1.828,6.09-5.635Z" transform="translate(-2065.24 342.742)"/>
    <path id="Path_29464" data-name="Path 29464" class="cls-1" d="M2492.034,1184.145a3.337,3.337,0,0,1,1.035-2.447,3.389,3.389,0,0,1,2.477-1.031,3.425,3.425,0,0,1,2.5,1.04,3.348,3.348,0,0,1,1.027,2.478,3.428,3.428,0,0,1-1.04,2.5,3.351,3.351,0,0,1-2.478,1.026,3.526,3.526,0,0,1-3.521-3.564Z" transform="translate(-2124.405 344.104)"/>
    <path id="Path_29465" data-name="Path 29465" class="cls-1" d="M2496.207,1185.346a16.474,16.474,0,0,0-6.306-3.69,28.336,28.336,0,0,0-8.834-1.13l-7.784-.017-.1,37.094,7.688.017a28.8,28.8,0,0,0,8.724-1.01,18.05,18.05,0,0,0,12.318-17.481Q2501.935,1190.6,2496.207,1185.346Zm-4.092,23.58a12.626,12.626,0,0,1-4.521,2.656,21.134,21.134,0,0,1-6.272.78l-2.525-.009.069-26.569,2.521.005q7.159.018,10.829,3.417a12.9,12.9,0,0,1,4.059,9.905A12.692,12.692,0,0,1,2492.114,1208.926Z" transform="translate(-2187.187 343.575)"/>
    <path id="Path_29466" data-name="Path 29466" class="cls-1" d="M2498.441,1198.938a13.7,13.7,0,0,1-2.967,3.547,5.5,5.5,0,0,1-3.339.953,5.7,5.7,0,0,1-4.249-1.694,7.1,7.1,0,0,1-1.863-4.591l16.766.044.031-1.274q.013-5.789-2.958-9.065a11.708,11.708,0,0,0-16.381.056,12.976,12.976,0,0,0-3.1,8.975,12.651,12.651,0,0,0,3.149,9,11.036,11.036,0,0,0,8.4,3.383,13.993,13.993,0,0,0,3.388-.377,10.1,10.1,0,0,0,2.91-1.2,11.746,11.746,0,0,0,2.526-2.109A18.2,18.2,0,0,0,2503,1201.5Zm-11.275-8a5.568,5.568,0,0,1,1.217-1.356,5.378,5.378,0,0,1,1.577-.857,5.626,5.626,0,0,1,1.849-.3q4.327.012,5.444,4.34l-10.858-.026A6.349,6.349,0,0,1,2487.167,1190.934Z" transform="translate(-2163.228 353.688)"/>
    <path id="Path_29467" data-name="Path 29467" class="cls-1" d="M2491.86,1183.716l6.021,13.156,6.062-13.126,6.078.016L2497.8,1208.74l-12-25.039Z" transform="translate(-2145.144 354.211)"/>
    <path id="Path_30758" data-name="Path 30758" class="cls-1" d="M0,0H23.4V5.405H0Z" transform="matrix(0.003, -1, 1, 0.003, 368.36, 1561.379)"/>
    <path id="Path_29468" data-name="Path 29468" class="cls-1" d="M2494.752,1184.2l5.405.012,0,2.093a10.338,10.338,0,0,1,2.646-2.132,6.055,6.055,0,0,1,2.79-.593,8.747,8.747,0,0,1,4.465,1.4l-2.486,4.942a5.19,5.19,0,0,0-3-1.113q-4.418-.007-4.436,6.67l-.03,12.132-5.405-.013Z" transform="translate(-2115.533 353.802)"/>
    <path id="Path_29469" data-name="Path 29469" class="cls-1" d="M2504.36,1183.748l-.029,13.427q-.021,5.815,4.569,5.826t4.6-5.8l.035-13.427,5.406.013-.035,13.549a14.989,14.989,0,0,1-.71,4.851,8.163,8.163,0,0,1-2.335,3.288,11.36,11.36,0,0,1-13.912-.035,8.313,8.313,0,0,1-2.37-3.3,13.307,13.307,0,0,1-.658-4.851l.035-13.552Z" transform="translate(-2101.444 354.312)"/>
    <path id="Path_29470" data-name="Path 29470" class="cls-1" d="M2519.394,1188.252l-4.474,2.369c-.7-1.447-1.572-2.166-2.612-2.17a1.785,1.785,0,0,0-1.272.49,1.642,1.642,0,0,0-.534,1.261q-.005,1.345,3.114,2.672a18.576,18.576,0,0,1,5.781,3.431,5.822,5.822,0,0,1,1.479,4.206,7.349,7.349,0,0,1-2.513,5.661,8.5,8.5,0,0,1-5.864,2.148q-5.887-.013-8.322-5.76l4.618-2.127a9.806,9.806,0,0,0,1.459,2.14,3.325,3.325,0,0,0,2.353.919q2.733.012,2.742-2.491.006-1.441-2.106-2.694c-.545-.273-1.087-.541-1.633-.8s-1.1-.525-1.654-.8a10.074,10.074,0,0,1-3.309-2.316,5.682,5.682,0,0,1-1.217-3.773,6.669,6.669,0,0,1,2.105-5.042,7.326,7.326,0,0,1,5.193-1.979Q2517.219,1183.613,2519.394,1188.252Z" transform="translate(-2083.945 353.875)"/>
  </g>
</svg>
