<svg xmlns="http://www.w3.org/2000/svg" width="760.5" height="203" viewBox="0 0 760.5 203">
  <defs>
    <style>
      .cls-1 {
        fill: #fff;
      }

      .cls-2, .cls-6, .cls-7 {
        fill: none;
      }

      .cls-3 {
        fill: #9f9f9f;
      }

      .cls-4 {
        fill: #1f86ce;
      }

      .cls-10, .cls-5 {
        fill: #2b2b2b;
      }

      .cls-6 {
        stroke: #d9d6d4;
      }

      .cls-7 {
        stroke: #2b2b2b;
        stroke-width: 2px;
      }

      .cls-10, .cls-8, .cls-9 {
        stroke: none;
      }

      .cls-9 {
        fill: #d9d6d4;
      }
    </style>
  </defs>
  <g id="Group_8781" data-name="Group 8781" transform="translate(-320 -13747)">
    <path id="Path_30733" data-name="Path 30733" class="cls-1" d="M0,0H60V50H0Z" transform="translate(573 13848)"/>
    <path id="Path_30734" data-name="Path 30734" class="cls-1" d="M0,0H60V50H0Z" transform="translate(573 13899)"/>
    <path id="Path_30722" data-name="Path 30722" class="cls-1" d="M0,0H60V50H0Z" transform="translate(827 13848)"/>
    <path id="Path_30723" data-name="Path 30723" class="cls-1" d="M0,0H60V52H0Z" transform="translate(827 13898)"/>
    <g id="Path_30721" data-name="Path 30721" class="cls-2" transform="translate(320.5 13747)">
      <path class="cls-8" d="M0,0H760V203H0Z"/>
      <path class="cls-9" d="M 1 1 L 1 202 L 759 202 L 759 1 L 1 1 M 0 0 L 760 0 L 760 203 L 0 203 L 0 0 Z"/>
    </g>
    <path id="Path_30739" data-name="Path 30739" class="cls-3" d="M0,0H253V101H0Z" transform="translate(320.5 13747)"/>
    <path id="Path_30730" data-name="Path 30730" class="cls-4" d="M0,0H254V101H0Z" transform="translate(573.5 13747)"/>
    <path id="Path_30741" data-name="Path 30741" class="cls-1" d="M8.784-5.728a25.541,25.541,0,0,0,5.04-3.5c.752-.688.752-.688.976-.88l-.928-.848a11.274,11.274,0,0,1-2.288,2.224,21.735,21.735,0,0,1-2.8,1.84v-4.528a12.484,12.484,0,0,1,.1-1.728H7.632a15.161,15.161,0,0,1,.1,1.728V-.816c0,1.248.416,1.44,3.088,1.44C13.216.624,14,.48,14.4-.048a7.3,7.3,0,0,0,.752-3.136,3.652,3.652,0,0,1-1.056-.5,7.048,7.048,0,0,1-.544,2.928c-.24.288-.848.384-2.672.384-1.856,0-2.1-.08-2.1-.64ZM3.392-.8A18.981,18.981,0,0,1,3.28,1.184H4.528c-.064-.656-.1-1.312-.1-1.936V-9.136c.592-1.328,1.136-2.608,1.28-2.976.272-.736.272-.736.336-.9l-1.184-.336a7.119,7.119,0,0,1-.544,1.92A14.975,14.975,0,0,1,.7-6.032a5.815,5.815,0,0,1,.688.928A12.882,12.882,0,0,0,3.424-7.792c-.032.848-.032,1.056-.032,1.952Zm16.752-9.92a14.329,14.329,0,0,1-1.824-.08,10.355,10.355,0,0,1,.064,1.328v1.184a8.385,8.385,0,0,1-.08,1.12H19.36V-9.856h11.3v2.688h1.056a8.787,8.787,0,0,1-.08-1.12V-9.472A10.355,10.355,0,0,1,31.7-10.8a18.193,18.193,0,0,1-1.84.064H28.608a14.908,14.908,0,0,0,1.536-2.144l-1.008-.432a9.541,9.541,0,0,1-1.648,2.576h-1.76a13.712,13.712,0,0,0-1.216-2.576l-.992.272a9.478,9.478,0,0,1,1.168,2.3H22.352A15.244,15.244,0,0,0,20.72-13.1l-.96.3a10.7,10.7,0,0,1,1.5,2.08ZM25.584-3.5H30.32a12.137,12.137,0,0,1,1.7.1v-1.1a11.731,11.731,0,0,1-1.68.1H25.584v-.5A18.214,18.214,0,0,0,29.232-7.28c.352-.3.352-.3.56-.464l-.608-.64A6.912,6.912,0,0,1,28-8.32H22.224a14.488,14.488,0,0,1-1.552-.08v1.04a14.318,14.318,0,0,1,1.52-.08h5.856a13.438,13.438,0,0,1-2.864,1.808h-.672c.032.336.048.624.048.944v.272H19.744a11.955,11.955,0,0,1-1.664-.1v1.1a12.206,12.206,0,0,1,1.68-.1h4.8V-.288c0,.336-.112.384-.848.384a16.681,16.681,0,0,1-2.1-.176A4.8,4.8,0,0,1,21.952.944c.56.064,1.392.1,1.84.1,1.488,0,1.792-.192,1.792-1.184Zm11.264-7.328h-.464a8.958,8.958,0,0,1-.96-.048,11.939,11.939,0,0,1,.064,1.52v8.112A14.282,14.282,0,0,1,35.408.7H36.48V-.7H39.6V.32h1.056a13.816,13.816,0,0,1-.08-1.648V-9.472c0-.576.016-.992.048-1.408-.064,0-.528.016-1.408.048h-1.04c.3-.7.512-1.3.816-2.208l-1.136-.208a11.279,11.279,0,0,1-.688,2.416Zm-.368.88H39.6v3.568H36.48Zm0,4.448H39.6v3.9H36.48ZM47.84-9.9c-.016,2.352-.032,3.456-.112,4.736a18.191,18.191,0,0,1-.592,4.416c-.192.512-.416.656-1.008.656a11.994,11.994,0,0,1-2.272-.272A2.963,2.963,0,0,1,44.128.768c1.024.08,1.456.112,2.048.112A1.649,1.649,0,0,0,47.952-.144c.576-1.28.784-3.424.928-9.76a6.32,6.32,0,0,1,.064-1.008,10.308,10.308,0,0,1-1.408.064H43.664c.24-.624.384-.992.608-1.632a5.611,5.611,0,0,1,.224-.608l-1.1-.208a7.106,7.106,0,0,1-.416,1.552,11.618,11.618,0,0,1-2.352,4.032,3.267,3.267,0,0,1,.768.72A15.217,15.217,0,0,0,43.232-9.9ZM45.9-3.872a18.537,18.537,0,0,0-2.528-3.984l-.816.5a16.81,16.81,0,0,1,2.432,4.048Zm8.688-5.136v3.584a13.6,13.6,0,0,1-2.736.9l.352,1.12a4.091,4.091,0,0,1,.384-.176c.3-.128.3-.128.4-.16C53.248-3.856,53.6-4,54-4.16l.592-.24V-.432a9.777,9.777,0,0,1-.112,1.68h1.2a11.394,11.394,0,0,1-.112-1.68V-4.848c.768-.368.848-.416,1.488-.768v.992a10.88,10.88,0,0,1,1.552-.1h4.7V-.384c0,.368-.112.432-.7.432a11.689,11.689,0,0,1-1.84-.208,3.288,3.288,0,0,1,.24,1.088c.608.032,1.184.064,1.632.064C63.92.992,64.3.72,64.3-.176V-4.72h.416a10.88,10.88,0,0,1,1.552.1V-5.712a9.7,9.7,0,0,1-1.552.1H64.3V-7.472h.4a11.045,11.045,0,0,1,1.584.1V-8.464a11,11,0,0,1-1.632.1H61.9V-10.5h2.208a13.635,13.635,0,0,1,1.52.08v-1.056a9.531,9.531,0,0,1-1.52.1H61.9v-.656a7.791,7.791,0,0,1,.1-1.3H60.832a8.071,8.071,0,0,1,.1,1.3v.656h-1.76a9.531,9.531,0,0,1-1.52-.1v1.056a13.418,13.418,0,0,1,1.52-.08h1.76v2.128H58.672a10.709,10.709,0,0,1-1.632-.1v1.088a11,11,0,0,1,1.632-.1h4.64v1.856h-4.64A9.173,9.173,0,0,1,57.2-5.7l.064-.032-.016-.96c-.752.4-1.024.528-1.68.832V-9.008h.384a11.322,11.322,0,0,1,1.36.08V-10a8.089,8.089,0,0,1-1.392.1h-.352v-2.112a6.53,6.53,0,0,1,.112-1.328h-1.2a6.744,6.744,0,0,1,.112,1.328V-9.9H53.456c.1-.656.16-1.1.192-1.5.032-.272.032-.32.064-.512l-1.024-.16c.016.192.016.3.016.432a11.207,11.207,0,0,1-.224,2.016A10.192,10.192,0,0,1,51.7-7.04a4.159,4.159,0,0,1,.88.448,11.483,11.483,0,0,0,.7-2.416Zm3.552,5.424A13.351,13.351,0,0,1,60.368-.9l.848-.624a16.915,16.915,0,0,0-2.288-2.608Zm19.584-5.3v3.328h-1.84a9.981,9.981,0,0,1-1.552-.1V-4.56a11.461,11.461,0,0,1,1.632-.1h1.76V-.448H74.88a12.741,12.741,0,0,1-1.744-.1V.592A11.548,11.548,0,0,1,74.88.48h6.576A11.548,11.548,0,0,1,83.2.592V-.544a12.741,12.741,0,0,1-1.744.1h-2.72V-4.656H80.9a11.305,11.305,0,0,1,1.632.1V-5.648a10.618,10.618,0,0,1-1.616.1H78.736V-8.88h2.5a14.374,14.374,0,0,1,1.632.1v-1.1a9.708,9.708,0,0,1-1.648.1h-2.48v-1.92a9.982,9.982,0,0,1,.112-1.616H77.616a10.392,10.392,0,0,1,.112,1.616v1.92H75.664c.112-.432.192-.72.272-1.12a6.153,6.153,0,0,1,.256-1.056l-1.1-.224a7.475,7.475,0,0,1-.144,1.248,11.071,11.071,0,0,1-1.9,4.56,6.247,6.247,0,0,1,.9.5,12.028,12.028,0,0,0,1.44-2.992ZM69.52-5.712a17.635,17.635,0,0,0,.8-4.384l-.848-.144a13.911,13.911,0,0,1-.784,4.192ZM72,1.248a11.707,11.707,0,0,1-.112-1.776V-11.744A10.116,10.116,0,0,1,72-13.36H70.752a10.533,10.533,0,0,1,.112,1.616V-.592a13.217,13.217,0,0,1-.112,1.84ZM73.776-8.16a12.766,12.766,0,0,0-.736-2.448l-.736.288a8.245,8.245,0,0,1,.672,2.464Zm20.208-2.448a4.6,4.6,0,0,1,1.856.4,4.218,4.218,0,0,1,2.544,4.016,4.83,4.83,0,0,1-2.832,4.48A9.591,9.591,0,0,1,92.88-.96,2.542,2.542,0,0,1,93.44.112a12.378,12.378,0,0,0,2.432-.736,5.826,5.826,0,0,0,3.664-5.52,5.356,5.356,0,0,0-1.552-3.9,6.194,6.194,0,0,0-4.4-1.584A6.683,6.683,0,0,0,88.416-9.5a6.656,6.656,0,0,0-1.68,4.416c0,2.24,1.136,3.9,2.656,3.9,1.152,0,2.1-.96,3.024-3.072A23.984,23.984,0,0,0,93.984-10.608Zm-1.152.016a21.976,21.976,0,0,1-1.456,5.92c-.688,1.568-1.328,2.32-2,2.32-.864,0-1.536-1.184-1.536-2.72A5.533,5.533,0,0,1,90.448-9.84,5.053,5.053,0,0,1,92.832-10.592ZM105.984-7.2h2.672a8.2,8.2,0,0,1,1.44.1V-8.256a6.7,6.7,0,0,1-1.44.1h-2.672v-3.12a10.53,10.53,0,0,1,.1-1.6h-1.248a11.288,11.288,0,0,1,.1,1.6V-.592a9.937,9.937,0,0,1-2,.448L103.28.992a7.284,7.284,0,0,1,.832-.272,53.714,53.714,0,0,0,5.968-2.176l-.016-.976a34.645,34.645,0,0,1-4.08,1.5Zm5.968,1.264a22.417,22.417,0,0,0,4.576-3.216c.208-.176.336-.288.592-.512l-.816-.864a13.3,13.3,0,0,1-4.352,3.488v-4.24a11.13,11.13,0,0,1,.1-1.6h-1.232a9.563,9.563,0,0,1,.1,1.6V-.512c0,1.056.464,1.264,2.832,1.264,1.872,0,2.528-.128,2.864-.56.384-.48.544-1.312.688-3.312a3.189,3.189,0,0,1-1.008-.464c-.032,1.808-.144,2.7-.4,3.024-.192.256-.64.32-2.128.32-1.552,0-1.808-.064-1.808-.5ZM131.616-7.1a9.507,9.507,0,0,1-1.328,3.44A9.268,9.268,0,0,1,128.88-6.9l-1.008.368c.112.24.144.32.352.832a15.871,15.871,0,0,0,1.488,2.848A10.575,10.575,0,0,1,125.648.288a2.526,2.526,0,0,1,.672.864,12.68,12.68,0,0,0,3.968-3.232,12.932,12.932,0,0,0,1.728,1.792,11.712,11.712,0,0,0,2.128,1.456,3.457,3.457,0,0,1,.608-.96,8.886,8.886,0,0,1-2.16-1.312,11.963,11.963,0,0,1-1.744-1.744,14.763,14.763,0,0,0,1.776-3.888Zm-7.728,5.648h1.36a7.951,7.951,0,0,1,1.344.08V-2.384a7.614,7.614,0,0,1-1.344.08h-1.36V-3.792h.96a10.076,10.076,0,0,1,1.456.064c-.032-.368-.048-.848-.048-1.584V-7.936c0-.736.016-1.184.048-1.5a9.327,9.327,0,0,1-1.392.064h-1.024v-1.376h1.264a8.018,8.018,0,0,1,1.376.08V-11.68a7.906,7.906,0,0,1-1.376.08h-1.264v-.288A7.971,7.971,0,0,1,124-13.3h-1.1a8.487,8.487,0,0,1,.112,1.408v.288h-1.392a7.886,7.886,0,0,1-1.392-.08v1.008a8.576,8.576,0,0,1,1.392-.08h1.392v1.376H122.1a14.784,14.784,0,0,1-1.488-.064,12.56,12.56,0,0,1,.064,1.536v2.592a13.289,13.289,0,0,1-.064,1.584,13.2,13.2,0,0,1,1.552-.064h.848V-2.3h-1.456a7.886,7.886,0,0,1-1.392-.08v1.008a8.458,8.458,0,0,1,1.392-.08h1.456V-.24a8.852,8.852,0,0,1-.112,1.472H124a8.469,8.469,0,0,1-.112-1.44Zm0-3.12v-1.68h1.5v1.68Zm0-2.448V-8.592h1.5v1.568Zm-.88-1.568v1.568h-1.472V-8.592Zm0,2.336v1.68h-1.472v-1.68Zm6.832-5.136H128.4a10.385,10.385,0,0,1-1.6-.1v1.1a11.13,11.13,0,0,1,1.6-.1h4.448a15.948,15.948,0,0,1,1.6.08v-1.072a14.542,14.542,0,0,1-1.6.08h-2v-.672a6.7,6.7,0,0,1,.1-1.248h-1.2a7.135,7.135,0,0,1,.1,1.264Zm-1.056,1.36a7.55,7.55,0,0,1-2.368,3.3A3.356,3.356,0,0,1,127.1-6a10.428,10.428,0,0,0,2.544-3.616Zm2.32.432a11.7,11.7,0,0,0,2.848,3.52,5.035,5.035,0,0,1,.656-.816,9.23,9.23,0,0,1-2.688-3.168Z" transform="translate(379 13803)"/>
    <path id="Path_30735" data-name="Path 30735" class="cls-1" d="M5.68-11.68v2.512H3.84a16.1,16.1,0,0,1-1.888-.08,10.906,10.906,0,0,1,.08,1.584V-5.1a10.906,10.906,0,0,1-.08,1.584C2.48-3.568,3.12-3.6,3.84-3.6H5.68V-.432H2.544A10.641,10.641,0,0,1,.768-.544V.624A11.956,11.956,0,0,1,2.592.512H13.456a11.872,11.872,0,0,1,1.808.112V-.544a10.307,10.307,0,0,1-1.76.112h-3.28V-3.6H12.16c.72,0,1.36.032,1.888.08a10.511,10.511,0,0,1-.08-1.584v-2.56a10.511,10.511,0,0,1,.08-1.584,16.353,16.353,0,0,1-1.92.08h-1.9V-11.68H13.3a13.165,13.165,0,0,1,1.76.1V-12.7a13.1,13.1,0,0,1-1.776.1H2.768a12.934,12.934,0,0,1-1.776-.1v1.12a13.525,13.525,0,0,1,1.792-.1Zm.992,0h2.56v2.512H6.672Zm0,8.08h2.56V-.432H6.672Zm3.552-.88V-8.272h2.752V-4.48Zm-.992,0H6.672V-8.272h2.56Zm-3.552,0H3.04V-8.272H5.68Zm14.1-4.448H19.1a7.876,7.876,0,0,1-1.264-.08v1.056a7.473,7.473,0,0,1,1.232-.08h.7v5.2a12.823,12.823,0,0,1-2.112.736l.288,1.088c.192-.1.4-.192.656-.3,1.5-.656,2.464-1.088,3.68-1.7l-.048-.96c-.688.352-.864.432-1.472.72V-8.032h.24a11.244,11.244,0,0,1,1.152.064V-8.992a7.667,7.667,0,0,1-1.184.064h-.208v-2.464a12.934,12.934,0,0,1,.1-1.776H19.68a13.165,13.165,0,0,1,.1,1.76Zm10.512-1.808a15.389,15.389,0,0,1,1.664.08v-1.056a11.185,11.185,0,0,1-1.664.1h-5.52c.128-.24.208-.432.4-.848a4.757,4.757,0,0,1,.288-.656l-1.04-.352a5.438,5.438,0,0,1-.576,1.664,7.848,7.848,0,0,1-1.808,2.432,2.372,2.372,0,0,1,.7.672,10.436,10.436,0,0,0,1.552-2.032ZM31.152-.272v-2.64a13.9,13.9,0,0,1,.064-1.7,14.248,14.248,0,0,1-1.648.048h-5.2a14.1,14.1,0,0,1-1.648-.048A15.275,15.275,0,0,1,22.784-2.9V-.272h-.5a7.023,7.023,0,0,1-1.12-.064V.656A12.311,12.311,0,0,1,22.64.576h8.208a13.857,13.857,0,0,1,1.52.08V-.336a6.071,6.071,0,0,1-.992.064ZM23.7-3.712h1.6v3.44H23.7Zm2.464,0h1.568v3.44H26.16Zm2.432,0h1.632v3.44H28.592Zm.88-2.1c.544,0,.784.016,1.168.048a8.656,8.656,0,0,1-.048-1.008V-8.4a8.944,8.944,0,0,1,.048-.992,12.509,12.509,0,0,1-1.264.048h-4.64c-.544,0-.928-.016-1.248-.048a9.365,9.365,0,0,1,.048.992v1.648a9.365,9.365,0,0,1-.048.992c.384-.032.688-.048,1.248-.048ZM24.48-8.5h5.152V-6.64H24.48ZM35.424-2.384a6.092,6.092,0,0,1,.944-.08c1.664-.048,3.84-.128,5.024-.192v2.3A6.962,6.962,0,0,1,41.3,1.1h1.232a7.26,7.26,0,0,1-.112-1.456V-2.72c2.176-.128,2.176-.128,4.672-.368.4.448.64.72,1.216,1.456l.8-.624a28.039,28.039,0,0,0-3.184-3.12l-.752.528c.592.5.768.656,1.2,1.04-3.056.24-3.056.24-4.736.3a25.4,25.4,0,0,0,2.832-2.144c.112-.112.3-.272.576-.5l-.88-.624a5.723,5.723,0,0,1-.736.832A17,17,0,0,1,41.44-4.3c-.592-.416-.7-.5-1.3-.88a17.342,17.342,0,0,0,1.888-1.84h5.5a12.028,12.028,0,0,1,1.648.1V-7.952a7.62,7.62,0,0,1-1.584.1H42.416v-1.3h3.936a10.516,10.516,0,0,1,1.456.08v-.992a10.1,10.1,0,0,1-1.456.08H42.4v-1.184h4.464a10,10,0,0,1,1.584.08V-12.1A11.243,11.243,0,0,1,46.8-12H42.4v-.08a5.72,5.72,0,0,1,.112-1.3H41.344a6.456,6.456,0,0,1,.1,1.3V-12H37.392a11.334,11.334,0,0,1-1.664-.1v1.008a10.234,10.234,0,0,1,1.6-.08H41.44v1.184H37.76a10.568,10.568,0,0,1-1.488-.08v.992a10.994,10.994,0,0,1,1.488-.08h3.68v1.3H36.56a9.053,9.053,0,0,1-1.6-.1v1.024a11.866,11.866,0,0,1,1.648-.1h4.224a7.705,7.705,0,0,1-1.408,1.376c-.576-.368-.8-.5-1.5-.9l-.64.7a24.552,24.552,0,0,1,3.376,2.08c-.208.128-.288.176-.512.32-.656.016-2.864.048-3.728.048a9.049,9.049,0,0,1-1.2-.08Zm3.552.24A7.416,7.416,0,0,1,37.408-.8,8.6,8.6,0,0,1,35.376.208a3.162,3.162,0,0,1,.8.8A10.668,10.668,0,0,0,39.84-1.616Zm5.136.352A14.742,14.742,0,0,0,48,1.024,3.763,3.763,0,0,1,48.72.16,9.874,9.874,0,0,1,46.64-.928a9.5,9.5,0,0,1-1.7-1.392ZM62.624-7.584c0,.752.224.88,1.616.88,1.856,0,2.016-.144,2.176-1.952a2,2,0,0,1-.8-.336,3.146,3.146,0,0,1-.192,1.3c-.112.16-.4.208-1.12.208-.7,0-.8-.032-.8-.32v-2.32c.512-.064.512-.064,1.5-.256.224.336.32.464.608.912l.8-.528a18.849,18.849,0,0,0-2.624-2.88l-.688.448a11.075,11.075,0,0,1,1.376,1.376,30.161,30.161,0,0,1-3.808.448A27.028,27.028,0,0,0,62.048-13.2l-.992-.352A12.431,12.431,0,0,1,59.7-10.56H59.28a7.1,7.1,0,0,1-.816-.032l.112.992c.416-.064.416-.064,1.872-.176a3.343,3.343,0,0,1-2.272,3.12,2.994,2.994,0,0,1,.592.768A4.541,4.541,0,0,0,60.9-8.048a5.239,5.239,0,0,0,.448-1.808c.576-.064.8-.1,1.28-.144ZM61.5-5.408c.3-.5.416-.688.752-1.344l-.96-.3a5.4,5.4,0,0,1-.656,1.472,7.952,7.952,0,0,1-2.4,2.576,2.665,2.665,0,0,1,.624.72,11.088,11.088,0,0,0,1.5-1.5,9.565,9.565,0,0,0,1.52,2.08A10.6,10.6,0,0,1,57.7.272a3.073,3.073,0,0,1,.576.88A12.369,12.369,0,0,0,62.528-1.12,11.281,11.281,0,0,0,66.352,1.1,4.848,4.848,0,0,1,66.832.1a8.865,8.865,0,0,1-3.616-1.808,12.029,12.029,0,0,0,2.032-2.56,6.876,6.876,0,0,1,.416-.624l-.56-.592a5.97,5.97,0,0,1-1.072.08Zm2.912.8a10.118,10.118,0,0,1-1.856,2.32A8.708,8.708,0,0,1,60.88-4.48c.048-.064.064-.08.1-.128ZM54.144-11.952v1.888h-.56a8.584,8.584,0,0,1-1.264-.064c.048.528.064,1.04.064,1.728V-.512a14.062,14.062,0,0,1-.1,1.824h.96V.1H56.8c.4,0,1.072.016,1.312.032L58.1-.464l-.016-.848v-7.12a14.89,14.89,0,0,1,.048-1.68,12.152,12.152,0,0,1-1.248.048h-.528v-1.9h.7a10.177,10.177,0,0,1,1.472.1V-12.9a9.8,9.8,0,0,1-1.488.1H53.52a10.27,10.27,0,0,1-1.552-.1v1.04a11.368,11.368,0,0,1,1.552-.1Zm.736-.016h.752v1.9H54.88ZM53.232-4.736a3.65,3.65,0,0,1,.528.624c.816-1.216,1.12-2.56,1.12-5.024v-.176h.752V-6.16c0,.464.032.592.176.7a1.525,1.525,0,0,0,.928.176c.08,0,.176,0,.5-.016v2.032h-4Zm0-4.576h.912v.16c0,2.3-.24,3.424-.912,4.32Zm3.12,0h.88v3.264h-.56c-.288,0-.32-.032-.32-.336ZM53.232-2.5h4v1.76h-4Zm28.112-8.192a13.292,13.292,0,0,1-3.376,3.68,10.022,10.022,0,0,1-1.344-3.424v-1.1a8.533,8.533,0,0,1,.128-1.6H75.488A10.533,10.533,0,0,1,75.6-11.52V-.592c0,.384-.1.464-.544.464a11.743,11.743,0,0,1-2.144-.224,3.184,3.184,0,0,1,.256,1.1A19.366,19.366,0,0,0,75.2.864c1.136,0,1.456-.272,1.456-1.28V-5.152c0-.848-.032-1.728-.128-3.12a10.5,10.5,0,0,0,.848,2.032,14.117,14.117,0,0,0,1.808,2.656,13.654,13.654,0,0,0,3.44,2.928,3.65,3.65,0,0,1,.848-1.008,11.609,11.609,0,0,1-3.12-2.24,14.661,14.661,0,0,1-1.888-2.288c.912-.72.912-.72,1.36-1.12.592-.544,1.68-1.648,2.064-2.1a4.949,4.949,0,0,1,.448-.5ZM74.16-9.328a10.13,10.13,0,0,1-1.52.064H70.928a9.552,9.552,0,0,1-1.552-.08v1.168a9.259,9.259,0,0,1,1.52-.1h2.64a11.7,11.7,0,0,1-2.112,4.288,10.56,10.56,0,0,1-2.656,2.5,3.606,3.606,0,0,1,.9.8,13.681,13.681,0,0,0,4.768-7.056c.192-.608.208-.672.336-.992Z" transform="translate(658 13803)"/>
    <path id="Path_30736" data-name="Path 30736" class="cls-5" d="M10.855-5.317a8.989,8.989,0,0,1,1.313.078v-.923a8.4,8.4,0,0,1-1.313.078H5.473L6.162-7.54c.117-.26.117-.26.208-.442L5.434-8.19a8.371,8.371,0,0,1-.871,2.106H2.249A7.044,7.044,0,0,1,.936-6.162v.923a9.241,9.241,0,0,1,1.313-.078h1.9A16.656,16.656,0,0,1,2.457-2.86,26.684,26.684,0,0,1,5.993-1.781a8.1,8.1,0,0,1-1.43.806A14.745,14.745,0,0,1,.91.078,2.889,2.889,0,0,1,1.391.9,14.879,14.879,0,0,0,3.172.442,15.67,15.67,0,0,0,5.551-.546a7.1,7.1,0,0,0,1.313-.9A26.532,26.532,0,0,1,11.258.819l.624-.741A36.29,36.29,0,0,0,7.475-2.015a7.948,7.948,0,0,0,1.911-3.3Zm-2.366,0a6.277,6.277,0,0,1-.871,1.846,6.607,6.607,0,0,1-.962,1.144,27.354,27.354,0,0,0-2.9-.923A19.869,19.869,0,0,0,5.07-5.317ZM5.941-9.373H2.47a11.62,11.62,0,0,1-1.391-.065,7.881,7.881,0,0,1,.065.988v.741a6.813,6.813,0,0,1-.065.91H1.95v-1.82h9.087V-6.8h.871a5.083,5.083,0,0,1-.065-.91V-8.45a5.725,5.725,0,0,1,.065-.988,11.845,11.845,0,0,1-1.4.065H6.786V-9.7a6.228,6.228,0,0,1,.078-1.079h-1A6.664,6.664,0,0,1,5.941-9.7ZM19.994-.715a4.369,4.369,0,0,1-1.4-.793,3.976,3.976,0,0,1-1.027-1.43c.091-.312.286-1.066.351-1.378l.156-.676-.91-.182v.13a8.222,8.222,0,0,1-.793,2.964A6.92,6.92,0,0,1,14.612.234a2.412,2.412,0,0,1,.676.611,8.793,8.793,0,0,0,1.976-2.951C17.953-.728,19.227.052,21.255.338a17.621,17.621,0,0,0,2.847.1c.351,0,.442,0,1.573-.026a2.408,2.408,0,0,1,.286-.91c-1.092.091-1.989.13-3.042.13A11.653,11.653,0,0,1,20.8-.507V-3.393h2.509a6.943,6.943,0,0,1,1.248.078V-4.2a7.813,7.813,0,0,1-1.248.078H20.8V-6.24h2.275a8.484,8.484,0,0,1,1.287.078v-.9a8.366,8.366,0,0,1-1.287.078H17.693a8.366,8.366,0,0,1-1.287-.078v.9a8.849,8.849,0,0,1,1.287-.078h2.3ZM19.8-9.3H16.276c-.52,0-.9-.013-1.313-.052a5.879,5.879,0,0,1,.052.884v.819a6.213,6.213,0,0,1-.052.923h.858v-1.82H24.9v1.82h.845a6.213,6.213,0,0,1-.052-.923v-.819a5.879,5.879,0,0,1,.052-.884c-.416.039-.793.052-1.3.052h-3.8v-.637a3.407,3.407,0,0,1,.091-.806H19.721a4.473,4.473,0,0,1,.078.819Z" transform="translate(633 13878)"/>
    <path id="Path_30737" data-name="Path 30737" class="cls-5" d="M7.111-6.526a7.788,7.788,0,0,1-.1,1.079H6.448a7.322,7.322,0,0,1-1.222-.065v.806A8.561,8.561,0,0,1,6.5-4.771h.377A7.979,7.979,0,0,1,3.9.117,2.227,2.227,0,0,1,4.446.7a8.974,8.974,0,0,0,2.5-3.289,5.855,5.855,0,0,0,1.482,1.6A8.676,8.676,0,0,1,5.629.312a1.9,1.9,0,0,1,.455.65A9.868,9.868,0,0,0,9.022-.546,13,13,0,0,0,12.064.884a3.493,3.493,0,0,1,.442-.741,10.943,10.943,0,0,1-2.9-1.17,7.831,7.831,0,0,0,1.573-1.9,2.727,2.727,0,0,1,.26-.416l-.416-.481a6.672,6.672,0,0,1-1.079.052H7.371a8.7,8.7,0,0,0,.26-1h3.237a9.7,9.7,0,0,1,1.326.078v-.832a6.4,6.4,0,0,1-1.326.078H7.761c.052-.351.065-.494.117-1.079H10.92a9.406,9.406,0,0,1,1.144.052V-7.28A5.249,5.249,0,0,1,10.92-7.2H10.4a20.412,20.412,0,0,0,1.261-2.054l-.806-.3A9.01,9.01,0,0,1,9.568-7.2H6.487a6.635,6.635,0,0,1-1.17-.065v.793a9.312,9.312,0,0,1,1.131-.052ZM10.426-3.12A6.128,6.128,0,0,1,8.983-1.43,6.483,6.483,0,0,1,7.345-3.12ZM.65-4.316c.156-.026.806-.091,1.937-.208V-.442a9.138,9.138,0,0,1-.078,1.456h.9A8.041,8.041,0,0,1,3.328-.442V-4.6c.533-.065.546-.065,1.027-.143.091.351.1.416.182.819l.637-.221a11.391,11.391,0,0,0-.845-2.444l-.6.2a7.924,7.924,0,0,1,.442,1.053c-.546.065-.637.078-1.807.156a33,33,0,0,0,2.08-3.12c.195-.325.26-.416.4-.624l-.741-.442A11.678,11.678,0,0,1,2.769-6.929a10.419,10.419,0,0,0-.728-.91c.468-.7.715-1.144,1.014-1.69a4.523,4.523,0,0,1,.533-.949l-.832-.39a9.086,9.086,0,0,1-1.2,2.483c-.182-.208-.26-.3-.52-.572L.6-8.372A17.5,17.5,0,0,1,2.366-6.305c-.338.507-.377.546-.832,1.17H1.183a6.143,6.143,0,0,1-.637-.039Zm.52.6A10.8,10.8,0,0,1,.546-.182l.689.351a14.8,14.8,0,0,0,.676-3.744ZM3.822-3.6a11.275,11.275,0,0,1,.663,2.314l.65-.221a13.019,13.019,0,0,0-.7-2.288Zm7.514-7.15a19.221,19.221,0,0,1-5.772.7h-.39a2.361,2.361,0,0,1,.312.728,32.39,32.39,0,0,0,4.342-.351c1.157-.182,1.443-.234,2.158-.39ZM7.124-7.644a6.319,6.319,0,0,0-.858-1.443l-.637.3a5.762,5.762,0,0,1,.845,1.43Zm2-.039A7.227,7.227,0,0,0,8.294-9.23L7.644-9A6.743,6.743,0,0,1,8.463-7.41Zm7.28-1.95a13.059,13.059,0,0,1,.936,2.47c-.208.065-.338.091-.663.208a14.266,14.266,0,0,1-1.911.611l.338.923a12.39,12.39,0,0,1,1.781-.715,5.619,5.619,0,0,0,.7-.234A46.231,46.231,0,0,1,19.227.65L20.28.416a4.126,4.126,0,0,1-.169-.559C19.565-2.587,19.1-4.42,18.434-6.63a15.328,15.328,0,0,1,4.238-.923c1.313,0,2.08.585,2.08,1.573a1.576,1.576,0,0,1-.624,1.326,2.633,2.633,0,0,1-1.56.507,4.418,4.418,0,0,1-2.184-.6A5.789,5.789,0,0,1,20.462-4a1.869,1.869,0,0,1-.013.234,5.505,5.505,0,0,0,2.2.481A2.779,2.779,0,0,0,25.7-5.967c0-1.456-1.118-2.392-2.86-2.392a6.547,6.547,0,0,0-.975.078c-.013-.156-.013-.4-.013-.416a12.266,12.266,0,0,1,.065-1.755h-.975a18.018,18.018,0,0,1,.052,2.3,23.055,23.055,0,0,0-2.795.728c-.182-.585-.312-.949-.572-1.716a5.225,5.225,0,0,1-.247-.793Zm12.519,3.38a7.439,7.439,0,0,1,.754-.169c.117-.026.741-.13,1.859-.3A21.461,21.461,0,0,1,30.108-2.6,12.467,12.467,0,0,1,28.756-.247l.884.52c.4-.728.676-1.248.845-1.56A24.526,24.526,0,0,0,32.448-6.8a7.464,7.464,0,0,1,.936-.065c1.209,0,1.6.442,1.6,1.82a10.063,10.063,0,0,1-.546,3.614q-.254.624-.741.624a4.859,4.859,0,0,1-1.937-.6,2.517,2.517,0,0,1,.039.52,2.828,2.828,0,0,1-.026.455,4.891,4.891,0,0,0,1.963.507,1.358,1.358,0,0,0,1.274-.611,8.96,8.96,0,0,0,.871-4.472A2.624,2.624,0,0,0,35.243-7.1a2.484,2.484,0,0,0-1.872-.546A7.576,7.576,0,0,0,32.6-7.6c.117-.624.208-1.105.273-1.482a7.992,7.992,0,0,1,.247-1.248l-1.04-.117v.169a15.889,15.889,0,0,1-.39,2.756c-1.053.169-2.405.325-2.873.338ZM36.6-7.969A10.641,10.641,0,0,1,39.247-3.3l.832-.481a11.755,11.755,0,0,0-2.717-4.6Z" transform="translate(633 13929)"/>
    <path id="Path_30742" data-name="Path 30742" class="cls-5" d="M7.137-4.654a20.752,20.752,0,0,0,4.1-2.847c.611-.559.611-.559.793-.715L11.271-8.9A9.16,9.16,0,0,1,9.412-7.1,17.66,17.66,0,0,1,7.137-5.6V-9.282a10.144,10.144,0,0,1,.078-1.4H6.2a12.318,12.318,0,0,1,.078,1.4V-.663c0,1.014.338,1.17,2.509,1.17,1.95,0,2.587-.117,2.912-.546a5.93,5.93,0,0,0,.611-2.548,2.967,2.967,0,0,1-.858-.4,5.726,5.726,0,0,1-.442,2.379c-.195.234-.689.312-2.171.312-1.508,0-1.7-.065-1.7-.52Zm-4.381,4A15.422,15.422,0,0,1,2.665.962H3.679C3.627.429,3.6-.1,3.6-.611V-7.423c.481-1.079.923-2.119,1.04-2.418.221-.6.221-.6.273-.728l-.962-.273a5.784,5.784,0,0,1-.442,1.56A12.167,12.167,0,0,1,.572-4.9a4.725,4.725,0,0,1,.559.754A10.467,10.467,0,0,0,2.782-6.331c-.026.689-.026.858-.026,1.586ZM16.367-8.71a11.642,11.642,0,0,1-1.482-.065A8.414,8.414,0,0,1,14.937-7.7v.962a6.813,6.813,0,0,1-.065.91h.858V-8.008h9.178v2.184h.858a7.14,7.14,0,0,1-.065-.91V-7.7a8.414,8.414,0,0,1,.052-1.079,14.782,14.782,0,0,1-1.495.052H23.244a12.113,12.113,0,0,0,1.248-1.742l-.819-.351a7.752,7.752,0,0,1-1.339,2.093H20.9a11.14,11.14,0,0,0-.988-2.093l-.806.221a7.7,7.7,0,0,1,.949,1.872h-1.9a12.385,12.385,0,0,0-1.326-1.924l-.78.247a8.693,8.693,0,0,1,1.222,1.69Zm4.42,5.863h3.848a9.862,9.862,0,0,1,1.378.078v-.9a9.532,9.532,0,0,1-1.365.078H20.787v-.4a14.8,14.8,0,0,0,2.964-1.924c.286-.247.286-.247.455-.377l-.494-.52a5.616,5.616,0,0,1-.962.052H18.057A11.771,11.771,0,0,1,16.8-6.825v.845a11.633,11.633,0,0,1,1.235-.065h4.758a10.918,10.918,0,0,1-2.327,1.469h-.546c.026.273.039.507.039.767v.221H16.042a9.713,9.713,0,0,1-1.352-.078v.9a9.918,9.918,0,0,1,1.365-.078h3.9V-.234c0,.273-.091.312-.689.312a13.553,13.553,0,0,1-1.7-.143,3.9,3.9,0,0,1,.273.832c.455.052,1.131.078,1.495.078,1.209,0,1.456-.156,1.456-.962ZM29.939-8.8h-.377a7.278,7.278,0,0,1-.78-.039A9.7,9.7,0,0,1,28.834-7.6v6.591A11.6,11.6,0,0,1,28.769.572h.871V-.572h2.535V.26h.858a11.224,11.224,0,0,1-.065-1.339V-7.7c0-.468.013-.806.039-1.144-.052,0-.429.013-1.144.039h-.845c.247-.572.416-1.053.663-1.794l-.923-.169A9.164,9.164,0,0,1,30.2-8.8Zm-.3.715h2.535v2.9H29.64Zm0,3.614h2.535V-1.3H29.64Zm9.23-3.575c-.013,1.911-.026,2.808-.091,3.848A14.78,14.78,0,0,1,38.3-.611c-.156.416-.338.533-.819.533A9.745,9.745,0,0,1,35.633-.3a2.408,2.408,0,0,1,.221.923c.832.065,1.183.091,1.664.091a1.34,1.34,0,0,0,1.443-.832c.468-1.04.637-2.782.754-7.93a5.134,5.134,0,0,1,.052-.819,8.375,8.375,0,0,1-1.144.052H35.477c.195-.507.312-.806.494-1.326a4.559,4.559,0,0,1,.182-.494l-.9-.169a5.773,5.773,0,0,1-.338,1.261,9.439,9.439,0,0,1-1.911,3.276,2.654,2.654,0,0,1,.624.585,12.364,12.364,0,0,0,1.495-2.366ZM37.3-3.146a15.061,15.061,0,0,0-2.054-3.237l-.663.4a13.658,13.658,0,0,1,1.976,3.289ZM52.351-5.317a8.989,8.989,0,0,1,1.313.078v-.923a8.4,8.4,0,0,1-1.313.078H46.969l.689-1.456c.117-.26.117-.26.208-.442L46.93-8.19a8.371,8.371,0,0,1-.871,2.106H43.745a7.044,7.044,0,0,1-1.313-.078v.923a9.241,9.241,0,0,1,1.313-.078h1.9a16.656,16.656,0,0,1-1.69,2.457,26.684,26.684,0,0,1,3.536,1.079,8.1,8.1,0,0,1-1.43.806A14.745,14.745,0,0,1,42.406.078,2.889,2.889,0,0,1,42.887.9,14.879,14.879,0,0,0,44.668.442a15.67,15.67,0,0,0,2.379-.988,7.1,7.1,0,0,0,1.313-.9A26.532,26.532,0,0,1,52.754.819l.624-.741a36.29,36.29,0,0,0-4.407-2.093,7.948,7.948,0,0,0,1.911-3.3Zm-2.366,0a6.277,6.277,0,0,1-.871,1.846,6.607,6.607,0,0,1-.962,1.144,27.354,27.354,0,0,0-2.9-.923,19.87,19.87,0,0,0,1.313-2.067ZM47.437-9.373H43.966a11.62,11.62,0,0,1-1.391-.065,7.88,7.88,0,0,1,.065.988v.741a6.813,6.813,0,0,1-.065.91h.871v-1.82h9.087V-6.8H53.4a5.083,5.083,0,0,1-.065-.91V-8.45a5.725,5.725,0,0,1,.065-.988,11.845,11.845,0,0,1-1.4.065H48.282V-9.7a6.228,6.228,0,0,1,.078-1.079h-1A6.664,6.664,0,0,1,47.437-9.7ZM61.49-.715a4.369,4.369,0,0,1-1.4-.793,3.976,3.976,0,0,1-1.027-1.43c.091-.312.286-1.066.351-1.378l.156-.676-.91-.182v.13a8.222,8.222,0,0,1-.793,2.964A6.92,6.92,0,0,1,56.108.234a2.412,2.412,0,0,1,.676.611A8.793,8.793,0,0,0,58.76-2.106C59.449-.728,60.723.052,62.751.338a17.621,17.621,0,0,0,2.847.1c.351,0,.442,0,1.573-.026a2.408,2.408,0,0,1,.286-.91c-1.092.091-1.989.13-3.042.13A11.653,11.653,0,0,1,62.3-.507V-3.393h2.509a6.943,6.943,0,0,1,1.248.078V-4.2a7.813,7.813,0,0,1-1.248.078H62.3V-6.24h2.275a8.484,8.484,0,0,1,1.287.078v-.9a8.366,8.366,0,0,1-1.287.078H59.189A8.366,8.366,0,0,1,57.9-7.059v.9a8.849,8.849,0,0,1,1.287-.078h2.3ZM61.295-9.3H57.772c-.52,0-.9-.013-1.313-.052a5.879,5.879,0,0,1,.052.884v.819a6.213,6.213,0,0,1-.052.923h.858v-1.82h9.074v1.82h.845a6.213,6.213,0,0,1-.052-.923v-.819a5.878,5.878,0,0,1,.052-.884c-.416.039-.793.052-1.3.052h-3.8v-.637a3.407,3.407,0,0,1,.091-.806H61.217a4.473,4.473,0,0,1,.078.819Zm15.691,2.08v2.7h-1.5a8.11,8.11,0,0,1-1.261-.078V-3.7a9.312,9.312,0,0,1,1.326-.078h1.43V-.364H74.672a10.352,10.352,0,0,1-1.417-.078V.481A9.383,9.383,0,0,1,74.672.39h5.343a9.383,9.383,0,0,1,1.417.091V-.442a10.352,10.352,0,0,1-1.417.078h-2.21V-3.783H79.56a9.185,9.185,0,0,1,1.326.078v-.884a8.628,8.628,0,0,1-1.313.078H77.805v-2.7h2.028a11.679,11.679,0,0,1,1.326.078v-.9a7.887,7.887,0,0,1-1.339.078H77.805v-1.56a8.111,8.111,0,0,1,.091-1.313h-1a8.443,8.443,0,0,1,.091,1.313v1.56H75.309c.091-.351.156-.585.221-.91a5,5,0,0,1,.208-.858l-.9-.182a6.074,6.074,0,0,1-.117,1.014,9,9,0,0,1-1.547,3.705,5.075,5.075,0,0,1,.728.4,9.772,9.772,0,0,0,1.17-2.431ZM70.317-4.641a14.328,14.328,0,0,0,.65-3.562l-.689-.117a11.3,11.3,0,0,1-.637,3.406Zm2.015,5.655a9.513,9.513,0,0,1-.091-1.443V-9.542a8.22,8.22,0,0,1,.091-1.313H71.318a8.558,8.558,0,0,1,.091,1.313V-.481a10.739,10.739,0,0,1-.091,1.5ZM73.775-6.63a10.372,10.372,0,0,0-.6-1.989l-.6.234a6.7,6.7,0,0,1,.546,2Z" transform="translate(340 13878)"/>
    <path id="Path_30743" data-name="Path 30743" class="cls-5" d="M3.38-.6A12.769,12.769,0,0,1,3.3.884h.962A11.643,11.643,0,0,1,4.2-.6V-1.989H9.685V-.4c0,.325-.091.39-.611.39a10.9,10.9,0,0,1-1.638-.13,2.884,2.884,0,0,1,.195.832C8.19.728,8.71.741,9.087.741A1.929,1.929,0,0,0,10.153.572.921.921,0,0,0,10.5-.26V-5.473c0-.676.013-1.131.052-1.521a9.793,9.793,0,0,1-1.391.065H4.42A10.232,10.232,0,0,0,5.3-8.4h5.551a11.036,11.036,0,0,1,1.417.078v-.936a10.756,10.756,0,0,1-1.417.078H5.668c.143-.325.208-.52.325-.832a6.95,6.95,0,0,1,.26-.715L5.3-10.842a6.232,6.232,0,0,1-.481,1.664H2.21A10.91,10.91,0,0,1,.767-9.256v.936A11.33,11.33,0,0,1,2.21-8.4H4.459A10.055,10.055,0,0,1,2.99-6.279,11.726,11.726,0,0,1,.429-4.069,1.908,1.908,0,0,1,1-3.406,13.925,13.925,0,0,0,3.38-5.59Zm6.305-3.51v1.417H4.2V-4.108Zm0-.7H4.2V-6.188H9.685Zm12.181,1.3a7.468,7.468,0,0,0,.793,2.2A9.04,9.04,0,0,1,19.292.26a1.963,1.963,0,0,1,.52.663A10.186,10.186,0,0,0,23.036-.715C23.777.351,24.479.9,25.116.9c.611,0,.871-.481,1.17-2.119a2.628,2.628,0,0,1-.663-.455,5.923,5.923,0,0,1-.234,1.313c-.117.338-.195.442-.351.442-.338,0-.871-.468-1.43-1.261a15.429,15.429,0,0,0,1.508-1.586l-.663-.455a4.668,4.668,0,0,1-1.209,1.456,6.139,6.139,0,0,1-.65-1.742h2.171a8.2,8.2,0,0,1,1.378.078v-.845a6.842,6.842,0,0,1-1.378.078h-2.3A33.345,33.345,0,0,1,22.1-9.438a7,7,0,0,1,.065-1.274h-.91a5.1,5.1,0,0,1,.065.819,33.717,33.717,0,0,0,.195,4.069A14.872,14.872,0,0,0,21.736-4.2H18.772a7.2,7.2,0,0,1-1.17-.065v.819a7.7,7.7,0,0,1,1.17-.065h.143A4.45,4.45,0,0,1,17.043.273a1.975,1.975,0,0,1,.624.559,5.358,5.358,0,0,0,1.781-2.938A5.8,5.8,0,0,0,20.865-.871a2.74,2.74,0,0,1,.429-.624A5.132,5.132,0,0,1,19.6-2.886c.026-.26.026-.286.052-.624Zm.741-1.846a2.01,2.01,0,0,1,.221-.039c1.4-.182,2.262-.3,2.561-.364.091.234.143.377.26.767l.6-.234a11.127,11.127,0,0,0-.949-2l-.533.208a4.383,4.383,0,0,1,.39.728,14.192,14.192,0,0,1-1.586.182c.637-.715,1-1.183,2.184-2.769l-.6-.468a13.252,13.252,0,0,1-1,1.56c-.247-.312-.364-.455-.624-.741a14.79,14.79,0,0,0,1.183-1.794l-.676-.364a7.226,7.226,0,0,1-.949,1.716c-.143-.143-.195-.195-.4-.39l-.429.546a7.475,7.475,0,0,1,1.495,1.573c-.416.533-.52.663-.962,1.17a.488.488,0,0,1-.13.013,1.2,1.2,0,0,1-.195-.013ZM19.4-10.738a6.71,6.71,0,0,1-.988,1.872c-.143-.13-.26-.247-.364-.351l-.468.52A8.552,8.552,0,0,1,19.11-7.072c-.338.494-.572.793-1.04,1.365a1.5,1.5,0,0,1-.221.013.812.812,0,0,1-.156-.013l.156.741a3.564,3.564,0,0,1,.364-.065c1.248-.2,1.937-.325,2.483-.442.065.234.091.312.156.572l.585-.247a8.148,8.148,0,0,0-.845-1.859l-.52.195a4.851,4.851,0,0,1,.429.806c-.416.078-.988.156-1.625.234a23.469,23.469,0,0,0,2.015-2.86l-.624-.442a10.667,10.667,0,0,1-.78,1.43,6.379,6.379,0,0,0-.624-.754,11.875,11.875,0,0,0,1.222-2ZM15.847-8.177h-.559a5.134,5.134,0,0,1-.9-.052v.819a5.631,5.631,0,0,1,.9-.052h.455a11.06,11.06,0,0,1-1.69,4.29,2.74,2.74,0,0,1,.468.754A11.22,11.22,0,0,0,15.99-6.487c-.078.988-.13,2-.13,2.509V-.429a10.92,10.92,0,0,1-.078,1.508h.91a10.538,10.538,0,0,1-.065-1.508V-4.693c0-.455-.026-1.014-.052-1.911a4.5,4.5,0,0,0,.7,1.391,4.421,4.421,0,0,1,.364-.676,5.065,5.065,0,0,1-.962-1.573h.312a5.6,5.6,0,0,1,.832.052v-.819a4.75,4.75,0,0,1-.845.052h-.351V-9.464a10.957,10.957,0,0,1,.052-1.339h-.9a7.965,7.965,0,0,1,.065,1.352ZM23.413-5.07a4.714,4.714,0,0,1,.975.858l.468-.442a4.484,4.484,0,0,0-.988-.793Zm14.053-2.9a12.813,12.813,0,0,1-1.378,4.017A10.489,10.489,0,0,1,32.357.026a2.214,2.214,0,0,1,.663.637,11.4,11.4,0,0,0,2.522-2.34A12.709,12.709,0,0,0,37.57-5.408a16.532,16.532,0,0,0,.663-2.561h.572a47.8,47.8,0,0,1-.429,6.708c-.156.923-.351,1.17-.91,1.17a6.952,6.952,0,0,1-1.7-.26A2.929,2.929,0,0,1,36,.559,10.273,10.273,0,0,0,37.466.7c1.274,0,1.6-.455,1.846-2.6.143-1.222.247-3.042.3-5.005A13.426,13.426,0,0,1,39.7-8.736a7.282,7.282,0,0,1-1.1.052h-4c.169-.4.273-.676.39-1,.26-.728.26-.728.351-.936l-.91-.2a7.964,7.964,0,0,1-.637,2.028,7.914,7.914,0,0,1-1.6,2.418,2.3,2.3,0,0,1,.663.52,10.511,10.511,0,0,0,1.4-2.119h1.17a8.523,8.523,0,0,1-.962,2.418A7.258,7.258,0,0,1,32.1-3.042a2.367,2.367,0,0,1,.611.637A9.019,9.019,0,0,0,35.087-5.1a10.857,10.857,0,0,0,1.118-2.873ZM30.5-7.423v3.185a10.655,10.655,0,0,1-2.21.611l.26.923c.117-.052.767-.3,1.95-.728V-.377A8.569,8.569,0,0,1,30.407.988h.975A11.677,11.677,0,0,1,31.3-.377V-3.744c.6-.247.806-.338,1.469-.65v-.78c-.663.312-.884.4-1.469.637v-2.9h.6a5.142,5.142,0,0,1,.806.052v-.845a3.2,3.2,0,0,1-.806.065h-.6V-9.789a5.306,5.306,0,0,1,.078-1.079h-.975A5.392,5.392,0,0,1,30.5-9.789v1.625h-.936c.039-.286.052-.468.1-.858.039-.364.052-.468.078-.689l-.832-.13a3.053,3.053,0,0,1,.013.338,9.062,9.062,0,0,1-.819,3.757,2.977,2.977,0,0,1,.715.4,10.244,10.244,0,0,0,.611-2.08ZM45.526-10.2a4.349,4.349,0,0,1,.221.819,26.481,26.481,0,0,0,.949,3.64,8.1,8.1,0,0,0-1.7,1.053,2.812,2.812,0,0,0-1.157,2.21A2.158,2.158,0,0,0,45.448-.351,8.844,8.844,0,0,0,48.334,0a26.078,26.078,0,0,0,2.873-.169,6.738,6.738,0,0,1,.962-.078l-.1-1.079a12.907,12.907,0,0,1-3.718.442C45.8-.884,44.8-1.339,44.8-2.522c0-1.079.962-1.937,3.185-2.821A29.9,29.9,0,0,1,51.9-6.6l-.39-.988a7.03,7.03,0,0,1-.832.338c-2.015.7-2.379.845-3.146,1.157a22.611,22.611,0,0,1-.975-4.3Zm17,1.586a3.741,3.741,0,0,1,1.508.325A3.427,3.427,0,0,1,66.1-5.031a3.924,3.924,0,0,1-2.3,3.64,7.793,7.793,0,0,1-2.171.611,2.066,2.066,0,0,1,.455.871,10.057,10.057,0,0,0,1.976-.6,4.734,4.734,0,0,0,2.977-4.485A4.352,4.352,0,0,0,65.78-8.164,5.033,5.033,0,0,0,62.2-9.451a5.43,5.43,0,0,0-4.2,1.729,5.408,5.408,0,0,0-1.365,3.588c0,1.82.923,3.172,2.158,3.172.936,0,1.7-.78,2.457-2.5A19.487,19.487,0,0,0,62.53-8.619Zm-.936.013A17.856,17.856,0,0,1,60.411-3.8c-.559,1.274-1.079,1.885-1.625,1.885-.7,0-1.248-.962-1.248-2.21a4.5,4.5,0,0,1,2.119-3.874A4.106,4.106,0,0,1,61.594-8.606ZM73.476-6.162a8.282,8.282,0,0,0,1,2.236,9.5,9.5,0,0,0,1.56,1.885A12.83,12.83,0,0,1,71.929.182a2.236,2.236,0,0,1,.585.767A13.432,13.432,0,0,0,76.648-1.5,12.858,12.858,0,0,0,80.99.9a3.438,3.438,0,0,1,.559-.832,13.012,13.012,0,0,1-4.29-2.132,11.9,11.9,0,0,0,2.522-3.679,4.526,4.526,0,0,1,.364-.7l-.507-.546a6.96,6.96,0,0,1-1.209.065H72.475c.013-.377.013-.559.013-.91V-9.3h7.189a10.263,10.263,0,0,1,1.456.065v-.936a9.138,9.138,0,0,1-1.456.078H73.112a12.846,12.846,0,0,1-1.521-.065c.039.39.065.975.065,1.781a26.588,26.588,0,0,1-.416,5.486A7.93,7.93,0,0,1,69.849.273a2.139,2.139,0,0,1,.689.637C71.8-.949,72.319-2.86,72.462-6.162Zm5.577,0a9.469,9.469,0,0,1-1.4,2.457,9.255,9.255,0,0,1-1.014,1.118,8.2,8.2,0,0,1-1.573-1.872,7.308,7.308,0,0,1-.741-1.7ZM89.336-9.438H85.9A9.949,9.949,0,0,1,84.591-9.5a14,14,0,0,1,.065,1.755c0,4.693-.234,6.2-1.209,7.865a3.421,3.421,0,0,1,.728.6,8.258,8.258,0,0,0,1.014-2.951A38.108,38.108,0,0,0,85.5-8.684h8.372a10,10,0,0,1,1.4.065v-.9a8.929,8.929,0,0,1-1.4.078H90.181v-.676a2.9,2.9,0,0,1,.078-.832h-1a4.169,4.169,0,0,1,.078.819Zm-2.938,9a12.912,12.912,0,0,0,1.144-4.5l-.819-.221A9.833,9.833,0,0,1,85.618-.91Zm2.093-5.85a6.363,6.363,0,0,1,.078,1.17V-.156c0,.767.312.9,2.145.9,1.261,0,1.768-.091,2.041-.4S93.2-.78,93.288-2.4a3,3,0,0,1-.832-.325V-2.4A7.452,7.452,0,0,1,92.235-.39c-.13.273-.455.351-1.573.351a4.28,4.28,0,0,1-1.053-.078c-.169-.065-.208-.13-.208-.338V-5.109a6.43,6.43,0,0,1,.078-1.183Zm3.887.143A16.439,16.439,0,0,0,89.219-8.2l-.546.572a11.417,11.417,0,0,1,3.133,2.145ZM95.394-1a18.8,18.8,0,0,0-1.586-4.264l-.754.325a13.828,13.828,0,0,1,1.495,4.3Z" transform="translate(340 13929)"/>
    <path id="Path_30724" data-name="Path 30724" class="cls-5" d="M6.539-9.126A10.41,10.41,0,0,1,4.472-6.24,15.525,15.525,0,0,1,.455-3.211a2.942,2.942,0,0,1,.6.767A17.907,17.907,0,0,0,3.861-4.485,13.251,13.251,0,0,0,5.85-6.591c-.013.52-.026.962-.026,1.482V-.468a11.944,11.944,0,0,1-.091,1.4H6.8a9.32,9.32,0,0,1-.091-1.4v-7.2A10.974,10.974,0,0,0,7.54-9.126H10.8a11.107,11.107,0,0,1,1.4.078V-10a10.092,10.092,0,0,1-1.417.078H2.145A10.681,10.681,0,0,1,.741-10v.949a11.935,11.935,0,0,1,1.417-.078Zm.832,2.678a14.566,14.566,0,0,0,4.641,3.9,3.015,3.015,0,0,1,.6-.806,12.551,12.551,0,0,1-2.6-1.612,12.241,12.241,0,0,1-2-2.015ZM24.687-5.317A8.989,8.989,0,0,1,26-5.239v-.923a8.4,8.4,0,0,1-1.313.078H19.305l.689-1.456c.117-.26.117-.26.208-.442l-.936-.208A8.371,8.371,0,0,1,18.4-6.084H16.081a7.044,7.044,0,0,1-1.313-.078v.923a9.241,9.241,0,0,1,1.313-.078h1.9a16.656,16.656,0,0,1-1.69,2.457,26.684,26.684,0,0,1,3.536,1.079,8.1,8.1,0,0,1-1.43.806A14.745,14.745,0,0,1,14.742.078,2.889,2.889,0,0,1,15.223.9,14.879,14.879,0,0,0,17,.442a15.67,15.67,0,0,0,2.379-.988,7.1,7.1,0,0,0,1.313-.9A26.532,26.532,0,0,1,25.09.819l.624-.741a36.29,36.29,0,0,0-4.407-2.093,7.948,7.948,0,0,0,1.911-3.3Zm-2.366,0a6.277,6.277,0,0,1-.871,1.846,6.607,6.607,0,0,1-.962,1.144,27.354,27.354,0,0,0-2.9-.923A19.87,19.87,0,0,0,18.9-5.317ZM19.773-9.373H16.3a11.62,11.62,0,0,1-1.391-.065,7.881,7.881,0,0,1,.065.988v.741a6.813,6.813,0,0,1-.065.91h.871v-1.82h9.087V-6.8h.871a5.083,5.083,0,0,1-.065-.91V-8.45a5.725,5.725,0,0,1,.065-.988,11.845,11.845,0,0,1-1.4.065H20.618V-9.7a6.228,6.228,0,0,1,.078-1.079h-1A6.664,6.664,0,0,1,19.773-9.7ZM33.826-.715a4.369,4.369,0,0,1-1.4-.793A3.976,3.976,0,0,1,31.4-2.938c.091-.312.286-1.066.351-1.378l.156-.676-.91-.182v.13A8.222,8.222,0,0,1,30.2-2.08,6.92,6.92,0,0,1,28.444.234a2.412,2.412,0,0,1,.676.611A8.793,8.793,0,0,0,31.1-2.106C31.785-.728,33.059.052,35.087.338a17.621,17.621,0,0,0,2.847.1c.351,0,.442,0,1.573-.026a2.408,2.408,0,0,1,.286-.91c-1.092.091-1.989.13-3.042.13a11.653,11.653,0,0,1-2.119-.143V-3.393h2.509a6.943,6.943,0,0,1,1.248.078V-4.2a7.813,7.813,0,0,1-1.248.078H34.632V-6.24h2.275a8.484,8.484,0,0,1,1.287.078v-.9a8.366,8.366,0,0,1-1.287.078H31.525a8.366,8.366,0,0,1-1.287-.078v.9a8.849,8.849,0,0,1,1.287-.078h2.3ZM33.631-9.3H30.108c-.52,0-.9-.013-1.313-.052a5.879,5.879,0,0,1,.052.884v.819a6.213,6.213,0,0,1-.052.923h.858v-1.82h9.074v1.82h.845a6.213,6.213,0,0,1-.052-.923v-.819a5.879,5.879,0,0,1,.052-.884c-.416.039-.793.052-1.3.052h-3.8v-.637a3.407,3.407,0,0,1,.091-.806H33.553a4.473,4.473,0,0,1,.078.819Z" transform="translate(887 13878)"/>
    <path id="Path_30725" data-name="Path 30725" class="cls-5" d="M5.98-4.9v1.625H2.249A9.284,9.284,0,0,1,.884-3.354v.923a9.918,9.918,0,0,1,1.365-.078H5.98V-.468A9.471,9.471,0,0,1,5.9,1.04h1A8.311,8.311,0,0,1,6.812-.468V-2.509H10.79a9.787,9.787,0,0,1,1.365.078v-.923a9.284,9.284,0,0,1-1.365.078H6.812V-4.9H9.334a12.184,12.184,0,0,1,1.469.065,6.806,6.806,0,0,1-.078-1.222v-3a7.115,7.115,0,0,1,.078-1.248,12.814,12.814,0,0,1-1.534.065H3.692a11.827,11.827,0,0,1-1.456-.065,7.5,7.5,0,0,1,.078,1.287v2.886a7.845,7.845,0,0,1-.078,1.3A12.184,12.184,0,0,1,3.7-4.9ZM3.12-9.49h6.8v1.534H3.12Zm0,2.262h6.8v1.6H3.12ZM15.6-9.217a7.033,7.033,0,0,1,.039.767c.065,3.2.247,4.862.7,6.1S17.459-.377,18.187-.377c.923,0,1.521-.871,2.158-3.146a4.156,4.156,0,0,1-.767-.741A9.353,9.353,0,0,1,18.9-2.041c-.195.429-.416.65-.65.65-.494,0-1.027-.9-1.313-2.223A22.262,22.262,0,0,1,16.6-7.657,9.423,9.423,0,0,1,16.692-9.2Zm6.578,1.1a11.481,11.481,0,0,1,2.7,6.409l.923-.377a12.448,12.448,0,0,0-.975-3.471,11.284,11.284,0,0,0-1.859-2.964Z" transform="translate(887 13929)"/>
    <path id="Path_30731" data-name="Path 30731" class="cls-5" d="M7.824-10.752c.16-.4.272-.736.48-1.312.16-.464.224-.656.32-.9L7.44-13.216a9.6,9.6,0,0,1-.832,2.784A10.855,10.855,0,0,1,4.384-7.12a2.726,2.726,0,0,1,.848.7A14.259,14.259,0,0,0,7.424-9.84h6.1a7.169,7.169,0,0,1-.9,1.584,8.289,8.289,0,0,1-1.456,1.584,3.354,3.354,0,0,1,.9.592,14.277,14.277,0,0,0,2.4-3.424c.272-.544.272-.544.368-.72l-.608-.624a10.1,10.1,0,0,1-1.6.1Zm-6.688-.912a13.55,13.55,0,0,1,2.8,2.624l.8-.768a20.284,20.284,0,0,0-2.8-2.544ZM4.912-5.712A15.4,15.4,0,0,1,2.1-3.264a6.2,6.2,0,0,1-1.424.848l.7,1.072a4.688,4.688,0,0,1,.56-.432,32.979,32.979,0,0,0,3.52-3.008Zm3.6-3.216a5.4,5.4,0,0,1,.064.976A8.68,8.68,0,0,1,5.9-1.408,8.533,8.533,0,0,1,3.2.16a3.427,3.427,0,0,1,.688.88A8.721,8.721,0,0,0,5.648.1,8.622,8.622,0,0,0,7.728-1.92,8.135,8.135,0,0,0,9.152-5.5a7.674,7.674,0,0,0,1.936,3.952,11.061,11.061,0,0,0,3.488,2.576A4.151,4.151,0,0,1,15.264.016,9.339,9.339,0,0,1,13.3-.992a8.886,8.886,0,0,1-2.064-1.936A8.25,8.25,0,0,1,9.616-8.08a3.685,3.685,0,0,1,.064-.848ZM22.7-11.68v2.512h-1.84a16.1,16.1,0,0,1-1.888-.08,10.906,10.906,0,0,1,.08,1.584V-5.1a10.906,10.906,0,0,1-.08,1.584c.528-.048,1.168-.08,1.888-.08H22.7V-.432H19.568a10.641,10.641,0,0,1-1.776-.112V.624A11.956,11.956,0,0,1,19.616.512H30.48a11.872,11.872,0,0,1,1.808.112V-.544a10.307,10.307,0,0,1-1.76.112h-3.28V-3.6h1.936c.72,0,1.36.032,1.888.08a10.511,10.511,0,0,1-.08-1.584v-2.56a10.511,10.511,0,0,1,.08-1.584,16.353,16.353,0,0,1-1.92.08h-1.9V-11.68H30.32a13.165,13.165,0,0,1,1.76.1V-12.7a13.1,13.1,0,0,1-1.776.1H19.792a12.934,12.934,0,0,1-1.776-.1v1.12a13.525,13.525,0,0,1,1.792-.1Zm.992,0h2.56v2.512H23.7Zm0,8.08h2.56V-.432H23.7Zm3.552-.88V-8.272H30V-4.48Zm-.992,0H23.7V-8.272h2.56Zm-3.552,0h-2.64V-8.272H22.7ZM36.8-8.928h-.672a7.876,7.876,0,0,1-1.264-.08v1.056a7.473,7.473,0,0,1,1.232-.08h.7v5.2a12.823,12.823,0,0,1-2.112.736l.288,1.088c.192-.1.4-.192.656-.3,1.5-.656,2.464-1.088,3.68-1.7l-.048-.96c-.688.352-.864.432-1.472.72V-8.032h.24a11.244,11.244,0,0,1,1.152.064V-8.992A7.667,7.667,0,0,1,38-8.928h-.208v-2.464a12.934,12.934,0,0,1,.1-1.776H36.7a13.164,13.164,0,0,1,.1,1.76Zm10.512-1.808a15.389,15.389,0,0,1,1.664.08v-1.056a11.185,11.185,0,0,1-1.664.1h-5.52c.128-.24.208-.432.4-.848a4.757,4.757,0,0,1,.288-.656l-1.04-.352a5.438,5.438,0,0,1-.576,1.664,7.848,7.848,0,0,1-1.808,2.432,2.372,2.372,0,0,1,.7.672,10.436,10.436,0,0,0,1.552-2.032ZM48.176-.272v-2.64a13.9,13.9,0,0,1,.064-1.7,14.248,14.248,0,0,1-1.648.048h-5.2a14.1,14.1,0,0,1-1.648-.048A15.274,15.274,0,0,1,39.808-2.9V-.272h-.5a7.023,7.023,0,0,1-1.12-.064V.656a12.311,12.311,0,0,1,1.472-.08h8.208a13.857,13.857,0,0,1,1.52.08V-.336a6.071,6.071,0,0,1-.992.064ZM40.72-3.712h1.6v3.44h-1.6Zm2.464,0h1.568v3.44H43.184Zm2.432,0h1.632v3.44H45.616Zm.88-2.1c.544,0,.784.016,1.168.048a8.655,8.655,0,0,1-.048-1.008V-8.4a8.944,8.944,0,0,1,.048-.992,12.509,12.509,0,0,1-1.264.048H41.76c-.544,0-.928-.016-1.248-.048a9.365,9.365,0,0,1,.048.992v1.648a9.365,9.365,0,0,1-.048.992c.384-.032.688-.048,1.248-.048ZM41.5-8.5h5.152V-6.64H41.5ZM52.448-2.384a6.092,6.092,0,0,1,.944-.08c1.664-.048,3.84-.128,5.024-.192v2.3a6.962,6.962,0,0,1-.1,1.456h1.232A7.26,7.26,0,0,1,59.44-.352V-2.72c2.176-.128,2.176-.128,4.672-.368.4.448.64.72,1.216,1.456l.8-.624a28.04,28.04,0,0,0-3.184-3.12l-.752.528c.592.5.768.656,1.2,1.04-3.056.24-3.056.24-4.736.3a25.4,25.4,0,0,0,2.832-2.144c.112-.112.3-.272.576-.5l-.88-.624a5.723,5.723,0,0,1-.736.832A17,17,0,0,1,58.464-4.3c-.592-.416-.7-.5-1.3-.88a17.342,17.342,0,0,0,1.888-1.84h5.5a12.029,12.029,0,0,1,1.648.1V-7.952a7.62,7.62,0,0,1-1.584.1H59.44v-1.3h3.936a10.516,10.516,0,0,1,1.456.08v-.992a10.1,10.1,0,0,1-1.456.08H59.424v-1.184h4.464a10,10,0,0,1,1.584.08V-12.1a11.243,11.243,0,0,1-1.648.1h-4.4v-.08a5.72,5.72,0,0,1,.112-1.3H58.368a6.456,6.456,0,0,1,.1,1.3V-12H54.416a11.334,11.334,0,0,1-1.664-.1v1.008a10.234,10.234,0,0,1,1.6-.08h4.112v1.184h-3.68a10.568,10.568,0,0,1-1.488-.08v.992a10.994,10.994,0,0,1,1.488-.08h3.68v1.3h-4.88a9.053,9.053,0,0,1-1.6-.1v1.024a11.866,11.866,0,0,1,1.648-.1h4.224a7.705,7.705,0,0,1-1.408,1.376c-.576-.368-.8-.5-1.5-.9l-.64.7A24.552,24.552,0,0,1,57.68-3.76c-.208.128-.288.176-.512.32-.656.016-2.864.048-3.728.048a9.049,9.049,0,0,1-1.2-.08ZM56-2.144A7.416,7.416,0,0,1,54.432-.8,8.6,8.6,0,0,1,52.4.208a3.162,3.162,0,0,1,.8.8,10.668,10.668,0,0,0,3.664-2.624Zm5.136.352a14.741,14.741,0,0,0,3.888,2.816,3.763,3.763,0,0,1,.72-.864,9.874,9.874,0,0,1-2.08-1.088,9.5,9.5,0,0,1-1.7-1.392ZM79.648-7.584c0,.752.224.88,1.616.88,1.856,0,2.016-.144,2.176-1.952a2,2,0,0,1-.8-.336,3.146,3.146,0,0,1-.192,1.3c-.112.16-.4.208-1.12.208-.7,0-.8-.032-.8-.32v-2.32c.512-.064.512-.064,1.5-.256.224.336.32.464.608.912l.8-.528a18.849,18.849,0,0,0-2.624-2.88l-.688.448A11.075,11.075,0,0,1,81.5-11.056a30.161,30.161,0,0,1-3.808.448A27.029,27.029,0,0,0,79.072-13.2l-.992-.352a12.432,12.432,0,0,1-1.36,2.992H76.3a7.1,7.1,0,0,1-.816-.032L75.6-9.6c.416-.064.416-.064,1.872-.176A3.343,3.343,0,0,1,75.2-6.656a2.994,2.994,0,0,1,.592.768,4.541,4.541,0,0,0,2.128-2.16,5.238,5.238,0,0,0,.448-1.808c.576-.064.8-.1,1.28-.144Zm-1.12,2.176c.3-.5.416-.688.752-1.344l-.96-.3a5.4,5.4,0,0,1-.656,1.472,7.952,7.952,0,0,1-2.4,2.576,2.665,2.665,0,0,1,.624.72,11.088,11.088,0,0,0,1.5-1.5,9.565,9.565,0,0,0,1.52,2.08A10.6,10.6,0,0,1,74.72.272a3.073,3.073,0,0,1,.576.88A12.369,12.369,0,0,0,79.552-1.12,11.281,11.281,0,0,0,83.376,1.1,4.848,4.848,0,0,1,83.856.1,8.865,8.865,0,0,1,80.24-1.712a12.029,12.029,0,0,0,2.032-2.56,6.876,6.876,0,0,1,.416-.624l-.56-.592a5.97,5.97,0,0,1-1.072.08Zm2.912.8a10.118,10.118,0,0,1-1.856,2.32A8.708,8.708,0,0,1,77.9-4.48c.048-.064.064-.08.1-.128ZM71.168-11.952v1.888h-.56a8.584,8.584,0,0,1-1.264-.064c.048.528.064,1.04.064,1.728V-.512a14.063,14.063,0,0,1-.1,1.824h.96V.1h3.552c.4,0,1.072.016,1.312.032L75.12-.464,75.1-1.312v-7.12a14.891,14.891,0,0,1,.048-1.68,12.152,12.152,0,0,1-1.248.048h-.528v-1.9h.7a10.177,10.177,0,0,1,1.472.1V-12.9a9.8,9.8,0,0,1-1.488.1h-3.52a10.27,10.27,0,0,1-1.552-.1v1.04a11.367,11.367,0,0,1,1.552-.1Zm.736-.016h.752v1.9H71.9ZM70.256-4.736a3.65,3.65,0,0,1,.528.624c.816-1.216,1.12-2.56,1.12-5.024v-.176h.752V-6.16c0,.464.032.592.176.7a1.525,1.525,0,0,0,.928.176c.08,0,.176,0,.5-.016v2.032h-4Zm0-4.576h.912v.16c0,2.3-.24,3.424-.912,4.32Zm3.12,0h.88v3.264H73.7c-.288,0-.32-.032-.32-.336ZM70.256-2.5h4v1.76h-4Zm16.083-8.981h1.836l5.8,9.3v-9.3h1.477V0H93.706L87.823-9.289V0H86.339Zm13.469,9.25a1.158,1.158,0,0,0,.445.961,1.651,1.651,0,0,0,1.055.352,3.207,3.207,0,0,0,1.438-.344,1.935,1.935,0,0,0,1.172-1.867V-4.258a2.406,2.406,0,0,1-.664.273,5.659,5.659,0,0,1-.8.156l-.852.109a3.257,3.257,0,0,0-1.148.32A1.248,1.248,0,0,0,99.808-2.227Zm3.406-2.844a.764.764,0,0,0,.648-.406,1.236,1.236,0,0,0,.094-.539,1.142,1.142,0,0,0-.512-1.043,2.745,2.745,0,0,0-1.465-.324,1.861,1.861,0,0,0-1.562.594,1.953,1.953,0,0,0-.336.977H98.769a2.416,2.416,0,0,1,1-2.152,4.122,4.122,0,0,1,2.238-.605,4.554,4.554,0,0,1,2.4.563,1.908,1.908,0,0,1,.914,1.75v4.82a.617.617,0,0,0,.09.352.433.433,0,0,0,.379.133q.094,0,.211-.012t.25-.035V.039a3.916,3.916,0,0,1-.5.117,3.654,3.654,0,0,1-.469.023,1.157,1.157,0,0,1-1.055-.516,1.99,1.99,0,0,1-.242-.773,3.578,3.578,0,0,1-1.234.977,3.818,3.818,0,0,1-1.773.414,2.637,2.637,0,0,1-1.9-.707,2.349,2.349,0,0,1-.738-1.77A2.279,2.279,0,0,1,99.066-4a3.457,3.457,0,0,1,1.906-.789Z" transform="translate(900 13803)"/>
    <path id="Path_30740" data-name="Path 30740" class="cls-6" d="M0,0V203" transform="translate(573 13747)"/>
    <path id="Path_30732" data-name="Path 30732" class="cls-6" d="M0,0V203" transform="translate(827 13747)"/>
    <g id="Path_30738" data-name="Path 30738" class="cls-2" transform="translate(595 13865)">
      <path class="cls-8" d="M8,0A8,8,0,1,1,0,8,8,8,0,0,1,8,0Z"/>
      <path class="cls-10" d="M 8 2 C 4.691590309143066 2 2 4.691590309143066 2 8 C 2 11.30841064453125 4.691590309143066 14 8 14 C 11.30841064453125 14 14 11.30841064453125 14 8 C 14 4.691590309143066 11.30841064453125 2 8 2 M 8 0 C 12.41827964782715 0 16 3.581720352172852 16 8 C 16 12.41827964782715 12.41827964782715 16 8 16 C 3.581720352172852 16 0 12.41827964782715 0 8 C 0 3.581720352172852 3.581720352172852 0 8 0 Z"/>
    </g>
    <g id="Path_30726" data-name="Path 30726" class="cls-2" transform="translate(849 13916)">
      <path class="cls-8" d="M8,0A8,8,0,1,1,0,8,8,8,0,0,1,8,0Z"/>
      <path class="cls-10" d="M 8 2 C 4.691590309143066 2 2 4.691590309143066 2 8 C 2 11.30841064453125 4.691590309143066 14 8 14 C 11.30841064453125 14 14 11.30841064453125 14 8 C 14 4.691590309143066 11.30841064453125 2 8 2 M 8 0 C 12.41827964782715 0 16 3.581720352172852 16 8 C 16 12.41827964782715 12.41827964782715 16 8 16 C 3.581720352172852 16 0 12.41827964782715 0 8 C 0 3.581720352172852 3.581720352172852 0 8 0 Z"/>
    </g>
    <g id="Path_30727" data-name="Path 30727" class="cls-2" transform="translate(848 13865)">
      <path class="cls-8" d="M9,0l9,16H0Z"/>
      <path class="cls-10" d="M 9 4.079453468322754 L 3.419692039489746 14 L 14.58030700683594 14 L 9 4.079453468322754 M 9 0 L 18 16 L 0 16 L 9 0 Z"/>
    </g>
    <path id="Path_30728" data-name="Path 30728" class="cls-6" d="M0,0H760" transform="translate(320 13848)"/>
    <path id="Path_30729" data-name="Path 30729" class="cls-6" d="M0,0H760" transform="translate(320 13898)"/>
    <g id="Group_8688" data-name="Group 8688" transform="translate(-4658.975 9057.713) rotate(-45)">
      <line id="Line_755" data-name="Line 755" class="cls-7" x2="16" transform="translate(272.5 7161.5)"/>
      <line id="Line_756" data-name="Line 756" class="cls-7" y2="16" transform="translate(280.5 7153.5)"/>
    </g>
  </g>
</svg>
