<svg xmlns="http://www.w3.org/2000/svg" width="760.5" height="221" viewBox="0 0 760.5 221">
  <defs>
    <style>
      .cls-1 {
        fill: #e1f2fb;
      }

      .cls-2 {
        fill: #fff;
      }

      .cls-3, .cls-7, .cls-8 {
        fill: none;
      }

      .cls-4 {
        fill: #9f9f9f;
      }

      .cls-5 {
        fill: #1f86ce;
      }

      .cls-11, .cls-6 {
        fill: #2b2b2b;
      }

      .cls-7 {
        stroke: #d9d6d4;
      }

      .cls-8 {
        stroke: #2b2b2b;
        stroke-width: 2px;
      }

      .cls-10, .cls-11, .cls-9 {
        stroke: none;
      }

      .cls-10 {
        fill: #d9d6d4;
      }
    </style>
  </defs>
  <g id="Group_8780" data-name="Group 8780" transform="translate(-320 -13466)">
    <path id="Path_30651" data-name="Path 30651" class="cls-1" d="M0,0H189.5V120H0Z" transform="translate(510.5 13567)"/>
    <path id="Path_30698" data-name="Path 30698" class="cls-2" d="M0,0H60V50H0Z" transform="translate(700 13567)"/>
    <path id="Path_30707" data-name="Path 30707" class="cls-2" d="M0,0H60V70H0Z" transform="translate(700 13617)"/>
    <path id="Path_30709" data-name="Path 30709" class="cls-2" d="M0,0H60V50H0Z" transform="translate(890 13567)"/>
    <path id="Path_30710" data-name="Path 30710" class="cls-2" d="M0,0H60V70H0Z" transform="translate(890 13617)"/>
    <g id="Path_30692" data-name="Path 30692" class="cls-3" transform="translate(320.5 13466)">
      <path class="cls-9" d="M0,0H760V221H0Z"/>
      <path class="cls-10" d="M 1 1 L 1 220 L 759 220 L 759 1 L 1 1 M 0 0 L 760 0 L 760 221 L 0 221 L 0 0 Z"/>
    </g>
    <path id="Path_30693" data-name="Path 30693" class="cls-4" d="M0,0H190V101H0Z" transform="translate(320.5 13466)"/>
    <path id="Path_30694" data-name="Path 30694" class="cls-5" d="M0,0H190V101H0Z" transform="translate(510.5 13466)"/>
    <path id="Path_30695" data-name="Path 30695" class="cls-2" d="M3.52-9.008v3.584a13.6,13.6,0,0,1-2.736.9l.352,1.12a4.091,4.091,0,0,1,.384-.176c.3-.128.3-.128.4-.16.256-.112.608-.256,1.008-.416L3.52-4.4V-.432a9.776,9.776,0,0,1-.112,1.68h1.2A11.4,11.4,0,0,1,4.5-.432V-4.848c.768-.368.848-.416,1.488-.768v.992a10.88,10.88,0,0,1,1.552-.1h4.7V-.384c0,.368-.112.432-.7.432A11.689,11.689,0,0,1,9.7-.16,3.288,3.288,0,0,1,9.936.928c.608.032,1.184.064,1.632.064,1.28,0,1.664-.272,1.664-1.168V-4.72h.416a10.88,10.88,0,0,1,1.552.1V-5.712a9.7,9.7,0,0,1-1.552.1h-.416V-7.472h.4a11.045,11.045,0,0,1,1.584.1V-8.464a11,11,0,0,1-1.632.1H10.832V-10.5H13.04a13.635,13.635,0,0,1,1.52.08v-1.056a9.531,9.531,0,0,1-1.52.1H10.832v-.656a7.792,7.792,0,0,1,.1-1.3H9.76a8.071,8.071,0,0,1,.1,1.3v.656H8.1a9.531,9.531,0,0,1-1.52-.1v1.056A13.418,13.418,0,0,1,8.1-10.5h1.76v2.128H7.6a10.709,10.709,0,0,1-1.632-.1v1.088a11,11,0,0,1,1.632-.1h4.64v1.856H7.6A9.173,9.173,0,0,1,6.128-5.7l.064-.032-.016-.96c-.752.4-1.024.528-1.68.832V-9.008H4.88a11.322,11.322,0,0,1,1.36.08V-10a8.089,8.089,0,0,1-1.392.1H4.5v-2.112a6.531,6.531,0,0,1,.112-1.328h-1.2a6.744,6.744,0,0,1,.112,1.328V-9.9H2.384c.1-.656.16-1.1.192-1.5.032-.272.032-.32.064-.512l-1.024-.16c.016.192.016.3.016.432a11.207,11.207,0,0,1-.224,2.016A10.192,10.192,0,0,1,.624-7.04a4.159,4.159,0,0,1,.88.448,11.483,11.483,0,0,0,.7-2.416ZM7.072-3.584A13.351,13.351,0,0,1,9.3-.9l.848-.624A16.915,16.915,0,0,0,7.856-4.128Zm25.392-7.088a6.384,6.384,0,0,1-1.392.1H29.024a16.326,16.326,0,0,0,.5-1.824c.064-.3.1-.416.16-.672l-1.072-.192v.1a13.256,13.256,0,0,1-.72,3.216,9.167,9.167,0,0,1-1.3,2.56,1.54,1.54,0,0,1,.72.592,5.614,5.614,0,0,0,.48-.768,14.919,14.919,0,0,0,1.1,4.24A9.879,9.879,0,0,1,25.552.256a2.73,2.73,0,0,1,.688.784,12.1,12.1,0,0,0,3.152-3.408A14.556,14.556,0,0,0,32,.944a4.109,4.109,0,0,1,.72-.9,11.207,11.207,0,0,1-2.8-3.376,14.611,14.611,0,0,0,1.072-3.28,18.066,18.066,0,0,0,.384-3.072,7.6,7.6,0,0,1,1.088.08Zm-2.032.992A15.887,15.887,0,0,1,29.408-4.4,15.734,15.734,0,0,1,28.4-8.848c.176-.416.208-.512.32-.832ZM23.888-8.9h-1.28v-2.048a7.573,7.573,0,0,1,.048-1.072H21.7a6.712,6.712,0,0,1,.064,1.088v2.1a6.325,6.325,0,0,1-.048.8c.352-.016.688-.032.992-.032h3.184c.416,0,.592,0,1.04.032a6.679,6.679,0,0,1-.048-.9v-2a6.228,6.228,0,0,1,.064-1.088h-.96a8.057,8.057,0,0,1,.048,1.072V-8.9h-1.28v-3.04a6.93,6.93,0,0,1,.064-1.1h-.992a7.023,7.023,0,0,1,.064,1.12ZM23.68-5.92v1.584H22.656a6.531,6.531,0,0,1-1.28-.08v.976A9.769,9.769,0,0,1,22.64-3.5h1.04v1.936a16.024,16.024,0,0,1-2.768.4L21.1-.112c.3-.08.56-.128,1.136-.24,1.6-.32,2.944-.64,4.752-1.152l-.016-.848c-1.264.352-1.68.448-2.4.592V-3.5h.816c.528,0,.912.016,1.28.048V-4.4a9.116,9.116,0,0,1-1.28.064h-.816V-5.92h1.216a8.456,8.456,0,0,1,1.2.064v-.976a9.079,9.079,0,0,1-1.3.064H22.448a6.649,6.649,0,0,1-1.264-.08V-5.84a6.922,6.922,0,0,1,1.3-.08Zm-3.072-7.392a9.122,9.122,0,0,1-3.04,3.488,2.737,2.737,0,0,1,.64.816,16.111,16.111,0,0,0,2.7-2.864,9.105,9.105,0,0,1,.624-.848ZM19.2-.64a13.81,13.81,0,0,1-.1,1.888H20.24a11.051,11.051,0,0,1-.1-1.872V-7.088a11.9,11.9,0,0,0,1.04-1.552,4.462,4.462,0,0,1,.3-.5l-.912-.528a9.839,9.839,0,0,1-3.264,4.208,2.216,2.216,0,0,1,.544.816A7.915,7.915,0,0,0,19.248-6.1c-.032.784-.048,1.216-.048,1.808Zm23.712-9.968a4.6,4.6,0,0,1,1.856.4,4.218,4.218,0,0,1,2.544,4.016,4.83,4.83,0,0,1-2.832,4.48,9.591,9.591,0,0,1-2.672.752,2.542,2.542,0,0,1,.56,1.072A12.378,12.378,0,0,0,44.8-.624a5.826,5.826,0,0,0,3.664-5.52,5.356,5.356,0,0,0-1.552-3.9,6.194,6.194,0,0,0-4.4-1.584A6.683,6.683,0,0,0,37.344-9.5a6.656,6.656,0,0,0-1.68,4.416c0,2.24,1.136,3.9,2.656,3.9,1.152,0,2.1-.96,3.024-3.072A23.984,23.984,0,0,0,42.912-10.608Zm-1.152.016A21.976,21.976,0,0,1,40.3-4.672c-.688,1.568-1.328,2.32-2,2.32-.864,0-1.536-1.184-1.536-2.72A5.533,5.533,0,0,1,39.376-9.84,5.053,5.053,0,0,1,41.76-10.592ZM54.912-7.2h2.672a8.2,8.2,0,0,1,1.44.1V-8.256a6.7,6.7,0,0,1-1.44.1H54.912v-3.12a10.53,10.53,0,0,1,.1-1.6H53.76a11.287,11.287,0,0,1,.1,1.6V-.592a9.937,9.937,0,0,1-2,.448L52.208.992A7.284,7.284,0,0,1,53.04.72a53.714,53.714,0,0,0,5.968-2.176l-.016-.976a34.645,34.645,0,0,1-4.08,1.5ZM60.88-5.936a22.417,22.417,0,0,0,4.576-3.216c.208-.176.336-.288.592-.512l-.816-.864A13.3,13.3,0,0,1,60.88-7.04v-4.24a11.131,11.131,0,0,1,.1-1.6H59.744a9.564,9.564,0,0,1,.1,1.6V-.512C59.84.544,60.3.752,62.672.752c1.872,0,2.528-.128,2.864-.56.384-.48.544-1.312.688-3.312a3.189,3.189,0,0,1-1.008-.464c-.032,1.808-.144,2.7-.4,3.024-.192.256-.64.32-2.128.32-1.552,0-1.808-.064-1.808-.5ZM80.544-7.1a9.507,9.507,0,0,1-1.328,3.44A9.268,9.268,0,0,1,77.808-6.9L76.8-6.528c.112.24.144.32.352.832A15.872,15.872,0,0,0,78.64-2.848,10.575,10.575,0,0,1,74.576.288a2.526,2.526,0,0,1,.672.864A12.68,12.68,0,0,0,79.216-2.08,12.93,12.93,0,0,0,80.944-.288a11.711,11.711,0,0,0,2.128,1.456,3.457,3.457,0,0,1,.608-.96A8.886,8.886,0,0,1,81.52-1.1a11.963,11.963,0,0,1-1.744-1.744,14.764,14.764,0,0,0,1.776-3.888ZM72.816-1.456h1.36a7.952,7.952,0,0,1,1.344.08V-2.384a7.614,7.614,0,0,1-1.344.08h-1.36V-3.792h.96a10.076,10.076,0,0,1,1.456.064c-.032-.368-.048-.848-.048-1.584V-7.936c0-.736.016-1.184.048-1.5a9.327,9.327,0,0,1-1.392.064H72.816v-1.376H74.08a8.018,8.018,0,0,1,1.376.08V-11.68a7.906,7.906,0,0,1-1.376.08H72.816v-.288a7.971,7.971,0,0,1,.112-1.408h-1.1a8.487,8.487,0,0,1,.112,1.408v.288H70.544a7.886,7.886,0,0,1-1.392-.08v1.008a8.576,8.576,0,0,1,1.392-.08h1.392v1.376h-.912a14.784,14.784,0,0,1-1.488-.064A12.56,12.56,0,0,1,69.6-7.9v2.592a13.289,13.289,0,0,1-.064,1.584,13.2,13.2,0,0,1,1.552-.064h.848V-2.3H70.48a7.886,7.886,0,0,1-1.392-.08v1.008a8.458,8.458,0,0,1,1.392-.08h1.456V-.24a8.852,8.852,0,0,1-.112,1.472h1.1a8.469,8.469,0,0,1-.112-1.44Zm0-3.12v-1.68h1.5v1.68Zm0-2.448V-8.592h1.5v1.568Zm-.88-1.568v1.568H70.464V-8.592Zm0,2.336v1.68H70.464v-1.68Zm6.832-5.136h-1.44a10.385,10.385,0,0,1-1.6-.1v1.1a11.131,11.131,0,0,1,1.6-.1h4.448a15.948,15.948,0,0,1,1.6.08v-1.072a14.542,14.542,0,0,1-1.6.08h-2v-.672a6.7,6.7,0,0,1,.1-1.248h-1.2a7.134,7.134,0,0,1,.1,1.264Zm-1.056,1.36a7.55,7.55,0,0,1-2.368,3.3A3.356,3.356,0,0,1,76.032-6a10.428,10.428,0,0,0,2.544-3.616Zm2.32.432A11.7,11.7,0,0,0,82.88-6.08a5.034,5.034,0,0,1,.656-.816,9.23,9.23,0,0,1-2.688-3.168Z" transform="translate(373 13522)"/>
    <path id="Path_30696" data-name="Path 30696" class="cls-2" d="M5.68-11.68v2.512H3.84a16.1,16.1,0,0,1-1.888-.08,10.906,10.906,0,0,1,.08,1.584V-5.1a10.906,10.906,0,0,1-.08,1.584C2.48-3.568,3.12-3.6,3.84-3.6H5.68V-.432H2.544A10.641,10.641,0,0,1,.768-.544V.624A11.956,11.956,0,0,1,2.592.512H13.456a11.872,11.872,0,0,1,1.808.112V-.544a10.307,10.307,0,0,1-1.76.112h-3.28V-3.6H12.16c.72,0,1.36.032,1.888.08a10.511,10.511,0,0,1-.08-1.584v-2.56a10.511,10.511,0,0,1,.08-1.584,16.353,16.353,0,0,1-1.92.08h-1.9V-11.68H13.3a13.165,13.165,0,0,1,1.76.1V-12.7a13.1,13.1,0,0,1-1.776.1H2.768a12.934,12.934,0,0,1-1.776-.1v1.12a13.525,13.525,0,0,1,1.792-.1Zm.992,0h2.56v2.512H6.672Zm0,8.08h2.56V-.432H6.672Zm3.552-.88V-8.272h2.752V-4.48Zm-.992,0H6.672V-8.272h2.56Zm-3.552,0H3.04V-8.272H5.68Zm14.1-4.448H19.1a7.876,7.876,0,0,1-1.264-.08v1.056a7.473,7.473,0,0,1,1.232-.08h.7v5.2a12.823,12.823,0,0,1-2.112.736l.288,1.088c.192-.1.4-.192.656-.3,1.5-.656,2.464-1.088,3.68-1.7l-.048-.96c-.688.352-.864.432-1.472.72V-8.032h.24a11.244,11.244,0,0,1,1.152.064V-8.992a7.667,7.667,0,0,1-1.184.064h-.208v-2.464a12.934,12.934,0,0,1,.1-1.776H19.68a13.165,13.165,0,0,1,.1,1.76Zm10.512-1.808a15.389,15.389,0,0,1,1.664.08v-1.056a11.185,11.185,0,0,1-1.664.1h-5.52c.128-.24.208-.432.4-.848a4.757,4.757,0,0,1,.288-.656l-1.04-.352a5.438,5.438,0,0,1-.576,1.664,7.848,7.848,0,0,1-1.808,2.432,2.372,2.372,0,0,1,.7.672,10.436,10.436,0,0,0,1.552-2.032ZM31.152-.272v-2.64a13.9,13.9,0,0,1,.064-1.7,14.248,14.248,0,0,1-1.648.048h-5.2a14.1,14.1,0,0,1-1.648-.048A15.275,15.275,0,0,1,22.784-2.9V-.272h-.5a7.023,7.023,0,0,1-1.12-.064V.656A12.311,12.311,0,0,1,22.64.576h8.208a13.857,13.857,0,0,1,1.52.08V-.336a6.071,6.071,0,0,1-.992.064ZM23.7-3.712h1.6v3.44H23.7Zm2.464,0h1.568v3.44H26.16Zm2.432,0h1.632v3.44H28.592Zm.88-2.1c.544,0,.784.016,1.168.048a8.656,8.656,0,0,1-.048-1.008V-8.4a8.944,8.944,0,0,1,.048-.992,12.509,12.509,0,0,1-1.264.048h-4.64c-.544,0-.928-.016-1.248-.048a9.365,9.365,0,0,1,.048.992v1.648a9.365,9.365,0,0,1-.048.992c.384-.032.688-.048,1.248-.048ZM24.48-8.5h5.152V-6.64H24.48ZM35.424-2.384a6.092,6.092,0,0,1,.944-.08c1.664-.048,3.84-.128,5.024-.192v2.3A6.962,6.962,0,0,1,41.3,1.1h1.232a7.26,7.26,0,0,1-.112-1.456V-2.72c2.176-.128,2.176-.128,4.672-.368.4.448.64.72,1.216,1.456l.8-.624a28.039,28.039,0,0,0-3.184-3.12l-.752.528c.592.5.768.656,1.2,1.04-3.056.24-3.056.24-4.736.3a25.4,25.4,0,0,0,2.832-2.144c.112-.112.3-.272.576-.5l-.88-.624a5.723,5.723,0,0,1-.736.832A17,17,0,0,1,41.44-4.3c-.592-.416-.7-.5-1.3-.88a17.342,17.342,0,0,0,1.888-1.84h5.5a12.028,12.028,0,0,1,1.648.1V-7.952a7.62,7.62,0,0,1-1.584.1H42.416v-1.3h3.936a10.516,10.516,0,0,1,1.456.08v-.992a10.1,10.1,0,0,1-1.456.08H42.4v-1.184h4.464a10,10,0,0,1,1.584.08V-12.1A11.243,11.243,0,0,1,46.8-12H42.4v-.08a5.72,5.72,0,0,1,.112-1.3H41.344a6.456,6.456,0,0,1,.1,1.3V-12H37.392a11.334,11.334,0,0,1-1.664-.1v1.008a10.234,10.234,0,0,1,1.6-.08H41.44v1.184H37.76a10.568,10.568,0,0,1-1.488-.08v.992a10.994,10.994,0,0,1,1.488-.08h3.68v1.3H36.56a9.053,9.053,0,0,1-1.6-.1v1.024a11.866,11.866,0,0,1,1.648-.1h4.224a7.705,7.705,0,0,1-1.408,1.376c-.576-.368-.8-.5-1.5-.9l-.64.7a24.552,24.552,0,0,1,3.376,2.08c-.208.128-.288.176-.512.32-.656.016-2.864.048-3.728.048a9.049,9.049,0,0,1-1.2-.08Zm3.552.24A7.416,7.416,0,0,1,37.408-.8,8.6,8.6,0,0,1,35.376.208a3.162,3.162,0,0,1,.8.8A10.668,10.668,0,0,0,39.84-1.616Zm5.136.352A14.742,14.742,0,0,0,48,1.024,3.763,3.763,0,0,1,48.72.16,9.874,9.874,0,0,1,46.64-.928a9.5,9.5,0,0,1-1.7-1.392ZM62.624-7.584c0,.752.224.88,1.616.88,1.856,0,2.016-.144,2.176-1.952a2,2,0,0,1-.8-.336,3.146,3.146,0,0,1-.192,1.3c-.112.16-.4.208-1.12.208-.7,0-.8-.032-.8-.32v-2.32c.512-.064.512-.064,1.5-.256.224.336.32.464.608.912l.8-.528a18.849,18.849,0,0,0-2.624-2.88l-.688.448a11.075,11.075,0,0,1,1.376,1.376,30.161,30.161,0,0,1-3.808.448A27.028,27.028,0,0,0,62.048-13.2l-.992-.352A12.431,12.431,0,0,1,59.7-10.56H59.28a7.1,7.1,0,0,1-.816-.032l.112.992c.416-.064.416-.064,1.872-.176a3.343,3.343,0,0,1-2.272,3.12,2.994,2.994,0,0,1,.592.768A4.541,4.541,0,0,0,60.9-8.048a5.239,5.239,0,0,0,.448-1.808c.576-.064.8-.1,1.28-.144ZM61.5-5.408c.3-.5.416-.688.752-1.344l-.96-.3a5.4,5.4,0,0,1-.656,1.472,7.952,7.952,0,0,1-2.4,2.576,2.665,2.665,0,0,1,.624.72,11.088,11.088,0,0,0,1.5-1.5,9.565,9.565,0,0,0,1.52,2.08A10.6,10.6,0,0,1,57.7.272a3.073,3.073,0,0,1,.576.88A12.369,12.369,0,0,0,62.528-1.12,11.281,11.281,0,0,0,66.352,1.1,4.848,4.848,0,0,1,66.832.1a8.865,8.865,0,0,1-3.616-1.808,12.029,12.029,0,0,0,2.032-2.56,6.876,6.876,0,0,1,.416-.624l-.56-.592a5.97,5.97,0,0,1-1.072.08Zm2.912.8a10.118,10.118,0,0,1-1.856,2.32A8.708,8.708,0,0,1,60.88-4.48c.048-.064.064-.08.1-.128ZM54.144-11.952v1.888h-.56a8.584,8.584,0,0,1-1.264-.064c.048.528.064,1.04.064,1.728V-.512a14.062,14.062,0,0,1-.1,1.824h.96V.1H56.8c.4,0,1.072.016,1.312.032L58.1-.464l-.016-.848v-7.12a14.89,14.89,0,0,1,.048-1.68,12.152,12.152,0,0,1-1.248.048h-.528v-1.9h.7a10.177,10.177,0,0,1,1.472.1V-12.9a9.8,9.8,0,0,1-1.488.1H53.52a10.27,10.27,0,0,1-1.552-.1v1.04a11.368,11.368,0,0,1,1.552-.1Zm.736-.016h.752v1.9H54.88ZM53.232-4.736a3.65,3.65,0,0,1,.528.624c.816-1.216,1.12-2.56,1.12-5.024v-.176h.752V-6.16c0,.464.032.592.176.7a1.525,1.525,0,0,0,.928.176c.08,0,.176,0,.5-.016v2.032h-4Zm0-4.576h.912v.16c0,2.3-.24,3.424-.912,4.32Zm3.12,0h.88v3.264h-.56c-.288,0-.32-.032-.32-.336ZM53.232-2.5h4v1.76h-4Zm28.112-8.192a13.292,13.292,0,0,1-3.376,3.68,10.022,10.022,0,0,1-1.344-3.424v-1.1a8.533,8.533,0,0,1,.128-1.6H75.488A10.533,10.533,0,0,1,75.6-11.52V-.592c0,.384-.1.464-.544.464a11.743,11.743,0,0,1-2.144-.224,3.184,3.184,0,0,1,.256,1.1A19.366,19.366,0,0,0,75.2.864c1.136,0,1.456-.272,1.456-1.28V-5.152c0-.848-.032-1.728-.128-3.12a10.5,10.5,0,0,0,.848,2.032,14.117,14.117,0,0,0,1.808,2.656,13.654,13.654,0,0,0,3.44,2.928,3.65,3.65,0,0,1,.848-1.008,11.609,11.609,0,0,1-3.12-2.24,14.661,14.661,0,0,1-1.888-2.288c.912-.72.912-.72,1.36-1.12.592-.544,1.68-1.648,2.064-2.1a4.949,4.949,0,0,1,.448-.5ZM74.16-9.328a10.13,10.13,0,0,1-1.52.064H70.928a9.552,9.552,0,0,1-1.552-.08v1.168a9.259,9.259,0,0,1,1.52-.1h2.64a11.7,11.7,0,0,1-2.112,4.288,10.56,10.56,0,0,1-2.656,2.5,3.606,3.606,0,0,1,.9.8,13.681,13.681,0,0,0,4.768-7.056c.192-.608.208-.672.336-.992Z" transform="translate(563 13522)"/>
    <path id="Path_30699" data-name="Path 30699" class="cls-6" d="M7.824-10.752c.16-.4.272-.736.48-1.312.16-.464.224-.656.32-.9L7.44-13.216a9.6,9.6,0,0,1-.832,2.784A10.855,10.855,0,0,1,4.384-7.12a2.726,2.726,0,0,1,.848.7A14.259,14.259,0,0,0,7.424-9.84h6.1a7.169,7.169,0,0,1-.9,1.584,8.289,8.289,0,0,1-1.456,1.584,3.354,3.354,0,0,1,.9.592,14.277,14.277,0,0,0,2.4-3.424c.272-.544.272-.544.368-.72l-.608-.624a10.1,10.1,0,0,1-1.6.1Zm-6.688-.912a13.55,13.55,0,0,1,2.8,2.624l.8-.768a20.284,20.284,0,0,0-2.8-2.544ZM4.912-5.712A15.4,15.4,0,0,1,2.1-3.264a6.2,6.2,0,0,1-1.424.848l.7,1.072a4.688,4.688,0,0,1,.56-.432,32.979,32.979,0,0,0,3.52-3.008Zm3.6-3.216a5.4,5.4,0,0,1,.064.976A8.68,8.68,0,0,1,5.9-1.408,8.533,8.533,0,0,1,3.2.16a3.427,3.427,0,0,1,.688.88A8.721,8.721,0,0,0,5.648.1,8.622,8.622,0,0,0,7.728-1.92,8.135,8.135,0,0,0,9.152-5.5a7.674,7.674,0,0,0,1.936,3.952,11.061,11.061,0,0,0,3.488,2.576A4.151,4.151,0,0,1,15.264.016,9.339,9.339,0,0,1,13.3-.992a8.886,8.886,0,0,1-2.064-1.936A8.25,8.25,0,0,1,9.616-8.08a3.685,3.685,0,0,1,.064-.848ZM22.7-11.68v2.512h-1.84a16.1,16.1,0,0,1-1.888-.08,10.906,10.906,0,0,1,.08,1.584V-5.1a10.906,10.906,0,0,1-.08,1.584c.528-.048,1.168-.08,1.888-.08H22.7V-.432H19.568a10.641,10.641,0,0,1-1.776-.112V.624A11.956,11.956,0,0,1,19.616.512H30.48a11.872,11.872,0,0,1,1.808.112V-.544a10.307,10.307,0,0,1-1.76.112h-3.28V-3.6h1.936c.72,0,1.36.032,1.888.08a10.511,10.511,0,0,1-.08-1.584v-2.56a10.511,10.511,0,0,1,.08-1.584,16.353,16.353,0,0,1-1.92.08h-1.9V-11.68H30.32a13.165,13.165,0,0,1,1.76.1V-12.7a13.1,13.1,0,0,1-1.776.1H19.792a12.934,12.934,0,0,1-1.776-.1v1.12a13.525,13.525,0,0,1,1.792-.1Zm.992,0h2.56v2.512H23.7Zm0,8.08h2.56V-.432H23.7Zm3.552-.88V-8.272H30V-4.48Zm-.992,0H23.7V-8.272h2.56Zm-3.552,0h-2.64V-8.272H22.7ZM36.8-8.928h-.672a7.876,7.876,0,0,1-1.264-.08v1.056a7.473,7.473,0,0,1,1.232-.08h.7v5.2a12.823,12.823,0,0,1-2.112.736l.288,1.088c.192-.1.4-.192.656-.3,1.5-.656,2.464-1.088,3.68-1.7l-.048-.96c-.688.352-.864.432-1.472.72V-8.032h.24a11.244,11.244,0,0,1,1.152.064V-8.992A7.667,7.667,0,0,1,38-8.928h-.208v-2.464a12.934,12.934,0,0,1,.1-1.776H36.7a13.164,13.164,0,0,1,.1,1.76Zm10.512-1.808a15.389,15.389,0,0,1,1.664.08v-1.056a11.185,11.185,0,0,1-1.664.1h-5.52c.128-.24.208-.432.4-.848a4.757,4.757,0,0,1,.288-.656l-1.04-.352a5.438,5.438,0,0,1-.576,1.664,7.848,7.848,0,0,1-1.808,2.432,2.372,2.372,0,0,1,.7.672,10.436,10.436,0,0,0,1.552-2.032ZM48.176-.272v-2.64a13.9,13.9,0,0,1,.064-1.7,14.248,14.248,0,0,1-1.648.048h-5.2a14.1,14.1,0,0,1-1.648-.048A15.274,15.274,0,0,1,39.808-2.9V-.272h-.5a7.023,7.023,0,0,1-1.12-.064V.656a12.311,12.311,0,0,1,1.472-.08h8.208a13.857,13.857,0,0,1,1.52.08V-.336a6.071,6.071,0,0,1-.992.064ZM40.72-3.712h1.6v3.44h-1.6Zm2.464,0h1.568v3.44H43.184Zm2.432,0h1.632v3.44H45.616Zm.88-2.1c.544,0,.784.016,1.168.048a8.655,8.655,0,0,1-.048-1.008V-8.4a8.944,8.944,0,0,1,.048-.992,12.509,12.509,0,0,1-1.264.048H41.76c-.544,0-.928-.016-1.248-.048a9.365,9.365,0,0,1,.048.992v1.648a9.365,9.365,0,0,1-.048.992c.384-.032.688-.048,1.248-.048ZM41.5-8.5h5.152V-6.64H41.5ZM52.448-2.384a6.092,6.092,0,0,1,.944-.08c1.664-.048,3.84-.128,5.024-.192v2.3a6.962,6.962,0,0,1-.1,1.456h1.232A7.26,7.26,0,0,1,59.44-.352V-2.72c2.176-.128,2.176-.128,4.672-.368.4.448.64.72,1.216,1.456l.8-.624a28.04,28.04,0,0,0-3.184-3.12l-.752.528c.592.5.768.656,1.2,1.04-3.056.24-3.056.24-4.736.3a25.4,25.4,0,0,0,2.832-2.144c.112-.112.3-.272.576-.5l-.88-.624a5.723,5.723,0,0,1-.736.832A17,17,0,0,1,58.464-4.3c-.592-.416-.7-.5-1.3-.88a17.342,17.342,0,0,0,1.888-1.84h5.5a12.029,12.029,0,0,1,1.648.1V-7.952a7.62,7.62,0,0,1-1.584.1H59.44v-1.3h3.936a10.516,10.516,0,0,1,1.456.08v-.992a10.1,10.1,0,0,1-1.456.08H59.424v-1.184h4.464a10,10,0,0,1,1.584.08V-12.1a11.243,11.243,0,0,1-1.648.1h-4.4v-.08a5.72,5.72,0,0,1,.112-1.3H58.368a6.456,6.456,0,0,1,.1,1.3V-12H54.416a11.334,11.334,0,0,1-1.664-.1v1.008a10.234,10.234,0,0,1,1.6-.08h4.112v1.184h-3.68a10.568,10.568,0,0,1-1.488-.08v.992a10.994,10.994,0,0,1,1.488-.08h3.68v1.3h-4.88a9.053,9.053,0,0,1-1.6-.1v1.024a11.866,11.866,0,0,1,1.648-.1h4.224a7.705,7.705,0,0,1-1.408,1.376c-.576-.368-.8-.5-1.5-.9l-.64.7A24.552,24.552,0,0,1,57.68-3.76c-.208.128-.288.176-.512.32-.656.016-2.864.048-3.728.048a9.049,9.049,0,0,1-1.2-.08ZM56-2.144A7.416,7.416,0,0,1,54.432-.8,8.6,8.6,0,0,1,52.4.208a3.162,3.162,0,0,1,.8.8,10.668,10.668,0,0,0,3.664-2.624Zm5.136.352a14.741,14.741,0,0,0,3.888,2.816,3.763,3.763,0,0,1,.72-.864,9.874,9.874,0,0,1-2.08-1.088,9.5,9.5,0,0,1-1.7-1.392ZM79.648-7.584c0,.752.224.88,1.616.88,1.856,0,2.016-.144,2.176-1.952a2,2,0,0,1-.8-.336,3.146,3.146,0,0,1-.192,1.3c-.112.16-.4.208-1.12.208-.7,0-.8-.032-.8-.32v-2.32c.512-.064.512-.064,1.5-.256.224.336.32.464.608.912l.8-.528a18.849,18.849,0,0,0-2.624-2.88l-.688.448A11.075,11.075,0,0,1,81.5-11.056a30.161,30.161,0,0,1-3.808.448A27.029,27.029,0,0,0,79.072-13.2l-.992-.352a12.432,12.432,0,0,1-1.36,2.992H76.3a7.1,7.1,0,0,1-.816-.032L75.6-9.6c.416-.064.416-.064,1.872-.176A3.343,3.343,0,0,1,75.2-6.656a2.994,2.994,0,0,1,.592.768,4.541,4.541,0,0,0,2.128-2.16,5.238,5.238,0,0,0,.448-1.808c.576-.064.8-.1,1.28-.144Zm-1.12,2.176c.3-.5.416-.688.752-1.344l-.96-.3a5.4,5.4,0,0,1-.656,1.472,7.952,7.952,0,0,1-2.4,2.576,2.665,2.665,0,0,1,.624.72,11.088,11.088,0,0,0,1.5-1.5,9.565,9.565,0,0,0,1.52,2.08A10.6,10.6,0,0,1,74.72.272a3.073,3.073,0,0,1,.576.88A12.369,12.369,0,0,0,79.552-1.12,11.281,11.281,0,0,0,83.376,1.1,4.848,4.848,0,0,1,83.856.1,8.865,8.865,0,0,1,80.24-1.712a12.029,12.029,0,0,0,2.032-2.56,6.876,6.876,0,0,1,.416-.624l-.56-.592a5.97,5.97,0,0,1-1.072.08Zm2.912.8a10.118,10.118,0,0,1-1.856,2.32A8.708,8.708,0,0,1,77.9-4.48c.048-.064.064-.08.1-.128ZM71.168-11.952v1.888h-.56a8.584,8.584,0,0,1-1.264-.064c.048.528.064,1.04.064,1.728V-.512a14.063,14.063,0,0,1-.1,1.824h.96V.1h3.552c.4,0,1.072.016,1.312.032L75.12-.464,75.1-1.312v-7.12a14.891,14.891,0,0,1,.048-1.68,12.152,12.152,0,0,1-1.248.048h-.528v-1.9h.7a10.177,10.177,0,0,1,1.472.1V-12.9a9.8,9.8,0,0,1-1.488.1h-3.52a10.27,10.27,0,0,1-1.552-.1v1.04a11.367,11.367,0,0,1,1.552-.1Zm.736-.016h.752v1.9H71.9ZM70.256-4.736a3.65,3.65,0,0,1,.528.624c.816-1.216,1.12-2.56,1.12-5.024v-.176h.752V-6.16c0,.464.032.592.176.7a1.525,1.525,0,0,0,.928.176c.08,0,.176,0,.5-.016v2.032h-4Zm0-4.576h.912v.16c0,2.3-.24,3.424-.912,4.32Zm3.12,0h.88v3.264H73.7c-.288,0-.32-.032-.32-.336ZM70.256-2.5h4v1.76h-4Zm16.083-8.981h1.836l5.8,9.3v-9.3h1.477V0H93.706L87.823-9.289V0H86.339Zm13.469,9.25a1.158,1.158,0,0,0,.445.961,1.651,1.651,0,0,0,1.055.352,3.207,3.207,0,0,0,1.438-.344,1.935,1.935,0,0,0,1.172-1.867V-4.258a2.406,2.406,0,0,1-.664.273,5.659,5.659,0,0,1-.8.156l-.852.109a3.257,3.257,0,0,0-1.148.32A1.248,1.248,0,0,0,99.808-2.227Zm3.406-2.844a.764.764,0,0,0,.648-.406,1.236,1.236,0,0,0,.094-.539,1.142,1.142,0,0,0-.512-1.043,2.745,2.745,0,0,0-1.465-.324,1.861,1.861,0,0,0-1.562.594,1.953,1.953,0,0,0-.336.977H98.769a2.416,2.416,0,0,1,1-2.152,4.122,4.122,0,0,1,2.238-.605,4.554,4.554,0,0,1,2.4.563,1.908,1.908,0,0,1,.914,1.75v4.82a.617.617,0,0,0,.09.352.433.433,0,0,0,.379.133q.094,0,.211-.012t.25-.035V.039a3.916,3.916,0,0,1-.5.117,3.654,3.654,0,0,1-.469.023,1.157,1.157,0,0,1-1.055-.516,1.99,1.99,0,0,1-.242-.773,3.578,3.578,0,0,1-1.234.977,3.818,3.818,0,0,1-1.773.414,2.637,2.637,0,0,1-1.9-.707,2.349,2.349,0,0,1-.738-1.77A2.279,2.279,0,0,1,99.066-4a3.457,3.457,0,0,1,1.906-.789Z" transform="translate(741 13522)"/>
    <path id="Path_30700" data-name="Path 30700" class="cls-6" d="M9.581-9.945A12.271,12.271,0,0,1,8.216-6.617a12.468,12.468,0,0,1-6.409,5.6A3.072,3.072,0,0,1,2.47-.1a15.051,15.051,0,0,0,4.9-3.6,16.365,16.365,0,0,0,2.964-5.122,5.4,5.4,0,0,1,.325-.754ZM23.816-1.066v.923H24.8c-.026-.273-.039-.611-.039-1V-8.177A7.05,7.05,0,0,1,24.8-9.191a6.765,6.765,0,0,1-1.014.039H16.861a9.364,9.364,0,0,1-1.014-.039A6.668,6.668,0,0,1,15.9-8.177v7.059a6.754,6.754,0,0,1-.052.975h1v-.923Zm0-.845H16.848V-8.294h6.968Zm6.37-8.229A7.239,7.239,0,0,1,30-9.1a21.506,21.506,0,0,0-.585,5.148,18.632,18.632,0,0,0,.338,3.679c.039.247.052.312.078.52l.936-.078v-.2A11.332,11.332,0,0,1,31.824-3.6L31.2-3.9a12.078,12.078,0,0,0-.845,2.535c-.052-.689-.078-1.456-.078-2.47a19.218,19.218,0,0,1,.39-4.069,18.472,18.472,0,0,1,.546-2.08Zm2.678,2.457a17.316,17.316,0,0,0,2.08.13,21.946,21.946,0,0,0,2.795-.169q.858-.117.9-.117l-.065-.923a13.949,13.949,0,0,1-3.484.351,8.829,8.829,0,0,1-2.21-.195Zm.949,2.535A3.591,3.591,0,0,0,32.682-2.73a1.837,1.837,0,0,0,.39,1.2,3.613,3.613,0,0,0,2.977.988,13.412,13.412,0,0,0,2.665-.26c.26-.039.286-.052.455-.065l-.13-1a8.556,8.556,0,0,1-2.99.455c-1.677,0-2.5-.468-2.5-1.43a3.02,3.02,0,0,1,.975-1.911ZM50.921-7.956c0-.234.013-.26.013-.4.039-1.937.039-1.937.065-2.262.013-.039.013-.117.026-.2H50.05a7.369,7.369,0,0,1,.078,1.326c0,.494-.013.988-.026,1.534h-.377a7.17,7.17,0,0,1-1.248-.078v.884a6.311,6.311,0,0,1,1.248-.065h.338a13.123,13.123,0,0,1-1.014,4.732A7.068,7.068,0,0,1,46.722.273a2.174,2.174,0,0,1,.65.637A7.963,7.963,0,0,0,48.815-.546a9.512,9.512,0,0,0,1.768-4.186,19.1,19.1,0,0,0,.3-2.483h1.833a42.486,42.486,0,0,1-.3,5.33c-.234,1.638-.325,1.833-.845,1.833a7.186,7.186,0,0,1-1.456-.182,2.528,2.528,0,0,1,.143.858,10.58,10.58,0,0,0,1.352.1c.923,0,1.2-.234,1.43-1.274a36.848,36.848,0,0,0,.494-5.876,12.114,12.114,0,0,1,.078-1.586,7.541,7.541,0,0,1-1.157.052ZM43.745-4.68a19.564,19.564,0,0,1,1.56,1.638A8.964,8.964,0,0,1,43.888-1.2,9.008,9.008,0,0,1,42.055.221a2.289,2.289,0,0,1,.6.663A10.6,10.6,0,0,0,45.825-2.4c.455.585.663.884,1.209,1.7l.6-.637c-.676-.91-.936-1.248-1.391-1.807a16.951,16.951,0,0,0,.9-2.223l-.793-.364a7.292,7.292,0,0,1-.663,1.963c-.429-.481-.676-.728-1.378-1.4Zm1.326-4.368h-1.43a6.352,6.352,0,0,1-1.274-.078v.9a6.679,6.679,0,0,1,1.261-.078h3.549a8.481,8.481,0,0,1,1.222.052v-.858a7.65,7.65,0,0,1-1.274.065H45.864v-.819a6.386,6.386,0,0,1,.078-1.066h-.949a6.277,6.277,0,0,1,.078,1.066Zm-1.04,1.2a6.417,6.417,0,0,1-.676,1.4,7.471,7.471,0,0,1-1.2,1.378,3.478,3.478,0,0,1,.65.559,9.35,9.35,0,0,0,1.963-3.016Zm2.275.338a12.647,12.647,0,0,0,1.846,2.691,2.3,2.3,0,0,1,.611-.559,9.141,9.141,0,0,1-1.794-2.47ZM61.321-5.291v1.183H57.369A6.806,6.806,0,0,1,56.082-4.2v.91a9.1,9.1,0,0,1,1.287-.078h3.38a8.285,8.285,0,0,1-2.106,1.885,11.817,11.817,0,0,1-2.7,1.313A3.087,3.087,0,0,1,56.472.6a11.843,11.843,0,0,0,4.875-3.549c-.013.39-.026.741-.026,1V-.442A8.109,8.109,0,0,1,61.23.975H62.2a6.781,6.781,0,0,1-.091-1.417V-1.963c0-.247-.013-.377-.039-1.027a9.763,9.763,0,0,0,1.989,1.872A13.23,13.23,0,0,0,67.3.52,3.3,3.3,0,0,1,67.769-.3,11.613,11.613,0,0,1,64.48-1.755a9.1,9.1,0,0,1-1.859-1.612h3.64a10.183,10.183,0,0,1,1.339.078V-4.2a7.816,7.816,0,0,1-1.339.091H62.114V-5.291H64.7a8.7,8.7,0,0,1,1.534.078,9.709,9.709,0,0,1-.052-1.43V-8.879a9.709,9.709,0,0,1,.052-1.43,8.35,8.35,0,0,1-1.521.078H58.942a7.939,7.939,0,0,1-1.482-.078,9.756,9.756,0,0,1,.065,1.417v2.249a9.631,9.631,0,0,1-.065,1.43,8.87,8.87,0,0,1,1.547-.078Zm0-4.225v1.4h-2.99v-1.4Zm.793,0h3.25v1.4h-3.25Zm-.793,2.093v1.43h-2.99v-1.43Zm.793,0h3.25v1.43h-3.25Zm8.84-.533a1.347,1.347,0,0,1,.208-.013,2.112,2.112,0,0,1,.234.013c1.04.039,1.625.065,1.755.065h.52c-.065.949-.065,1.014-.078,1.963a4.431,4.431,0,0,0-3.016,3.874A1.775,1.775,0,0,0,72.254-.078a4.262,4.262,0,0,0,2.9-1.573,11.707,11.707,0,0,0,2.47-3.9c1.4.364,2.145,1.144,2.145,2.262a2.866,2.866,0,0,1-2.236,2.6,6.054,6.054,0,0,1-1.95.351A2.68,2.68,0,0,1,76,.533,7.157,7.157,0,0,0,78.65-.208a3.335,3.335,0,0,0,2.041-3c0-1.521-1-2.626-2.795-3.042.221-.611.364-.962.4-1.04l-.9-.273A4.881,4.881,0,0,1,77.09-6.4c-.325-.026-.481-.039-.754-.039a6.869,6.869,0,0,0-1.924.26c.013-.637.013-.637.091-1.742a36.417,36.417,0,0,0,4.6-.52c.247-.039.286-.039.455-.065l-.052-.91a19.976,19.976,0,0,1-4.953.728,8.644,8.644,0,0,1,.273-1.82l-1.014-.065a1.38,1.38,0,0,1,.013.2c0,.091-.026.6-.039.741-.052.663-.052.663-.065.975-.234.013-.286.013-.325.013a9.1,9.1,0,0,1-2.431-.208Zm2.639,2.847a18.386,18.386,0,0,0,.26,3.523,2.347,2.347,0,0,1-1.5.663c-.559,0-.936-.468-.936-1.183a3.071,3.071,0,0,1,.793-1.937A4.646,4.646,0,0,1,73.593-5.109Zm.962,2.977v-.143a.859.859,0,0,0-.013-.182A21.864,21.864,0,0,1,74.4-5.434a5.848,5.848,0,0,1,1.807-.3c.143,0,.208,0,.624.026a11.742,11.742,0,0,1-1.989,3.25,1.409,1.409,0,0,0-.247.338Zm11.895-8.4a2.606,2.606,0,0,1-.039.416,32.861,32.861,0,0,0-.442,4.8v.3l.026,1.352.013.234v.143l.936-.039c-.013-.195-.013-.26-.013-.312a6.784,6.784,0,0,1,.7-2.9C88.374-8.06,89.206-8.8,90.194-8.8c1.248,0,1.976,1.209,1.976,3.3a4.477,4.477,0,0,1-2.236,4.316,6.869,6.869,0,0,1-2.639.819,2.683,2.683,0,0,1,.52.884,9.84,9.84,0,0,0,2.314-.767,5.364,5.364,0,0,0,3-5.109,5.34,5.34,0,0,0-.78-3.159,2.447,2.447,0,0,0-2.08-1.157,3.1,3.1,0,0,0-2.6,1.677,5.8,5.8,0,0,0-.793,1.937c-.065.273-.065.273-.091.377l-.052-.013c.039-.663.221-2.08.429-3.393a7.37,7.37,0,0,1,.3-1.339Z" transform="translate(760 13597)"/>
    <path id="Path_30711" data-name="Path 30711" class="cls-6" d="M8.268-8.645V-9.5a8.725,8.725,0,0,1,.078-1.287H7.4A7.914,7.914,0,0,1,7.475-9.5v.858H5.746c.208-.52.26-.637.377-.988a4.722,4.722,0,0,1,.182-.52l-.845-.221a6.416,6.416,0,0,1-.624,1.937A6.54,6.54,0,0,1,3.523-6.565a2.892,2.892,0,0,1,.65.546A10.02,10.02,0,0,0,5.408-7.9H7.475v2.3H4.966a8.041,8.041,0,0,1-1.248-.078v.9a8.906,8.906,0,0,1,1.274-.078H6.11a6.221,6.221,0,0,1-.78,3.081A4.393,4.393,0,0,1,2.834.052,2.938,2.938,0,0,1,3.445.78a6,6,0,0,0,1.651-1A5.279,5.279,0,0,0,6.643-2.7a9.633,9.633,0,0,0,.286-2.158H8.476V-.117c0,.663.338.832,1.742.832,1.937,0,2.119-.208,2.262-2.574a2.62,2.62,0,0,1-.793-.325A5.111,5.111,0,0,1,11.44-.273C11.3-.1,11-.052,10.2-.052c-.767,0-.923-.052-.923-.325V-4.862h1.859a7.192,7.192,0,0,1,1.17.078v-.9a7.367,7.367,0,0,1-1.183.078H8.268V-7.9h2.106c.481,0,.923.026,1.326.065v-.884a7.812,7.812,0,0,1-1.326.078ZM1.092-10.088A9.754,9.754,0,0,1,3.185-8.294L3.7-8.97a11.353,11.353,0,0,0-2.067-1.7Zm-.6,3.172A9.956,9.956,0,0,1,2.743-5.109l.494-.715a12.337,12.337,0,0,0-2.249-1.7ZM2.613-3.783A11.063,11.063,0,0,1,.585.039l.754.676c.143-.26.247-.442.286-.52A19.314,19.314,0,0,0,3.289-3.289ZM15.6-9.217a7.033,7.033,0,0,1,.039.767c.065,3.2.247,4.862.7,6.1S17.459-.377,18.187-.377c.923,0,1.521-.871,2.158-3.146a4.156,4.156,0,0,1-.767-.741A9.353,9.353,0,0,1,18.9-2.041c-.195.429-.416.65-.65.65-.494,0-1.027-.9-1.313-2.223A22.262,22.262,0,0,1,16.6-7.657,9.423,9.423,0,0,1,16.692-9.2Zm6.578,1.1a11.481,11.481,0,0,1,2.7,6.409l.923-.377a12.448,12.448,0,0,0-.975-3.471,11.284,11.284,0,0,0-1.859-2.964ZM35.867-9.529v-.156a6.346,6.346,0,0,1,.078-1.1h-.962a6.777,6.777,0,0,1,.078,1.1v.156h-2.21a7.4,7.4,0,0,1-1.235-.065v.845a10.072,10.072,0,0,1,1.235-.065h1.508A10.845,10.845,0,0,1,33.02-6.669c-.338.013-.442.013-.663.013-.325,0-.793-.026-.962-.039l.117.884c.3-.039.546-.065.819-.078,2.665-.117,3.263-.156,5.915-.442a10.3,10.3,0,0,1,.832,1.066l.689-.494a17.187,17.187,0,0,0-2.548-2.587l-.624.4a13.781,13.781,0,0,1,1.053.949,29.791,29.791,0,0,1-3.692.286,14.034,14.034,0,0,0,1.3-2.106h3.263a10.234,10.234,0,0,1,1.261.065v-.845a8.145,8.145,0,0,1-1.274.065Zm-7.072-.6a8.858,8.858,0,0,1,2.028,1.911l.546-.65A11.964,11.964,0,0,0,29.341-10.7Zm-.611,3.172a9.3,9.3,0,0,1,2.249,1.794l.494-.7a11.4,11.4,0,0,0-2.249-1.7Zm2.2,3.107A10.428,10.428,0,0,1,28.353-.013l.767.676c.078-.13.117-.208.169-.3A20.18,20.18,0,0,0,31.07-3.341ZM35.646.338a9.525,9.525,0,0,1-.065-1.2V-3.991a7.222,7.222,0,0,1,.065-1.1H34.7a6.45,6.45,0,0,1,.078,1.1v3.12A7.959,7.959,0,0,1,34.7.338Zm2.327-4.316a7.65,7.65,0,0,1,.065-1.274H37.1a7.943,7.943,0,0,1,.065,1.274V-.247c0,.715.247.871,1.326.871,1.521,0,1.664-.182,1.794-2.236a2.318,2.318,0,0,1-.754-.338,5.752,5.752,0,0,1-.169,1.612c-.078.182-.26.234-.832.234-.507,0-.559-.039-.559-.39ZM32.487-5.252a6.065,6.065,0,0,1,.078,1.014,5.293,5.293,0,0,1-.754,3.055A4.233,4.233,0,0,1,30.29.169a2.057,2.057,0,0,1,.676.624,4.873,4.873,0,0,0,1.456-1.4,6,6,0,0,0,.936-3.5,6.9,6.9,0,0,1,.078-1.144Zm16.2-3.406c-.884.026-1.9.052-3.146.1-2.093.078-2.093.078-2.47.078-.2,0-.286,0-.52-.013l.039.949c.871-.143,3.5-.273,6.11-.325v.676c0,.156.013.286.013.338,0,.481,0,.533.013.715a2,2,0,0,0-1.508-.585,2.163,2.163,0,0,0-2.3,2.145,2.015,2.015,0,0,0,2.132,2.054,2.032,2.032,0,0,0,1.638-.7,1.821,1.821,0,0,0,.351-.637A3.367,3.367,0,0,1,47.58-1.118a6.663,6.663,0,0,1-2.106.975,2.854,2.854,0,0,1,.572.819A8.269,8.269,0,0,0,48.1-.377,4.184,4.184,0,0,0,49.842-3.77,3.725,3.725,0,0,0,49.53-5.3V-7.878c1.053-.026,1.2-.026,1.391-.026a23.105,23.105,0,0,1,2.483.065v-.923c-.429.052-1.43.078-3.887.091v-.143a10.762,10.762,0,0,1,.065-1.625h-.975a4.381,4.381,0,0,1,.052.754Zm-.039,3.8a1.457,1.457,0,0,1-1.521,1.534,1.256,1.256,0,0,1-1.339-1.287A1.376,1.376,0,0,1,47.229-5.98a1.663,1.663,0,0,1,.871.208A.941.941,0,0,1,48.646-4.862Zm11.44,3.055A13.964,13.964,0,0,0,61.893-3.5a19.8,19.8,0,0,0,3.536-5.174c.247-.52.286-.6.429-.858l-.936-.39a12.984,12.984,0,0,1-2.236,4.212,16.8,16.8,0,0,1-2.6,2.873V-6.812a6.888,6.888,0,0,1,.091-1.222H59.163A9.052,9.052,0,0,1,59.254-6.8V-2.21a15.246,15.246,0,0,1-3.38,2.028,2.263,2.263,0,0,1,.637.728A18.324,18.324,0,0,0,59.254-1.2v.754c0,.91.507,1.118,2.717,1.118a5.663,5.663,0,0,0,2.5-.3c.507-.286.715-1.014.884-3.055A2.692,2.692,0,0,1,64.493-3a10.866,10.866,0,0,1-.143,1.794c-.117.689-.234.871-.572.975a6.993,6.993,0,0,1-1.7.143c-1.625,0-1.989-.1-1.989-.546ZM59.2-10.244A14.657,14.657,0,0,1,63.05-8.138l.533-.741a18.07,18.07,0,0,0-3.874-2.015ZM57.278-6.721a13.263,13.263,0,0,1-.6,2.587,9.641,9.641,0,0,1-.871,2.015l.793.468a17.6,17.6,0,0,0,1.521-4.836Zm7.735.507a11.2,11.2,0,0,1,1.066,1.95,18.4,18.4,0,0,1,1,2.808l.819-.481a20.863,20.863,0,0,0-2.158-4.68Zm6.513,2.262a9.517,9.517,0,0,1-1.443-.078v.858a11.1,11.1,0,0,1,1.443-.065h1.781a12.949,12.949,0,0,1-1.43,1.482c1.3.273,2.223.494,3.237.793A11.585,11.585,0,0,1,70.005.117a2.986,2.986,0,0,1,.377.806A12.09,12.09,0,0,0,76.1-.663a31.262,31.262,0,0,1,4.29,1.742l.585-.715a43.255,43.255,0,0,0-4.16-1.547,5.607,5.607,0,0,0,1.56-2.054h1.43a11.447,11.447,0,0,1,1.456.065V-4.03a9.481,9.481,0,0,1-1.456.078H74.776c.286-.429.364-.533.728-1.17h3.354a13.217,13.217,0,0,1,1.5.052A8.375,8.375,0,0,1,80.3-6.214v-.923a9.561,9.561,0,0,1,.052-1.183,12.949,12.949,0,0,1-1.417.065H77.389V-9.516H79.82a10.4,10.4,0,0,1,1.443.065v-.858a9.764,9.764,0,0,1-1.482.078h-8.2a9.681,9.681,0,0,1-1.469-.078v.858a10.168,10.168,0,0,1,1.443-.065h2.275v1.261H72.345a13.216,13.216,0,0,1-1.4-.065,9.972,9.972,0,0,1,.052,1.183V-6.2a8.911,8.911,0,0,1-.052,1.131,13.671,13.671,0,0,1,1.5-.052h2.158a6.852,6.852,0,0,1-.728,1.17Zm5.928.715A4.193,4.193,0,0,1,75.92-1.443c-.988-.3-1.443-.416-2.652-.689a11.525,11.525,0,0,0,.988-1.105ZM74.568-9.516h2.08v1.261h-2.08Zm-.741,1.924v1.807H71.786V-7.592Zm.741,0h2.08v1.807h-2.08Zm2.821,0h2.119v1.807H77.389Zm7.4-.364a1.347,1.347,0,0,1,.208-.013,2.112,2.112,0,0,1,.234.013c1.04.039,1.625.065,1.755.065h.52c-.065.949-.065,1.014-.078,1.963a4.431,4.431,0,0,0-3.016,3.874A1.775,1.775,0,0,0,86.086-.078a4.262,4.262,0,0,0,2.9-1.573,11.707,11.707,0,0,0,2.47-3.9c1.4.364,2.145,1.144,2.145,2.262a2.866,2.866,0,0,1-2.236,2.6,6.054,6.054,0,0,1-1.95.351,2.68,2.68,0,0,1,.416.871,7.157,7.157,0,0,0,2.652-.741,3.335,3.335,0,0,0,2.041-3c0-1.521-1-2.626-2.795-3.042.221-.611.364-.962.4-1.04l-.9-.273a4.881,4.881,0,0,1-.312,1.17c-.325-.026-.481-.039-.754-.039a6.869,6.869,0,0,0-1.924.26c.013-.637.013-.637.091-1.742a36.417,36.417,0,0,0,4.6-.52c.247-.039.286-.039.455-.065l-.052-.91a19.976,19.976,0,0,1-4.953.728,8.644,8.644,0,0,1,.273-1.82l-1.014-.065a1.38,1.38,0,0,1,.013.2c0,.091-.026.6-.039.741-.052.663-.052.663-.065.975-.234.013-.286.013-.325.013A9.1,9.1,0,0,1,84.8-8.853Zm2.639,2.847a18.386,18.386,0,0,0,.26,3.523,2.347,2.347,0,0,1-1.5.663c-.559,0-.936-.468-.936-1.183a3.071,3.071,0,0,1,.793-1.937A4.646,4.646,0,0,1,87.425-5.109Zm.962,2.977v-.143a.858.858,0,0,0-.013-.182,21.865,21.865,0,0,1-.143-2.977,5.848,5.848,0,0,1,1.807-.3c.143,0,.208,0,.624.026a11.742,11.742,0,0,1-1.989,3.25,1.41,1.41,0,0,0-.247.338Zm11.9-8.4a2.606,2.606,0,0,1-.039.416,32.861,32.861,0,0,0-.442,4.8v.3l.026,1.352.013.234v.143l.936-.039c-.013-.195-.013-.26-.013-.312a6.784,6.784,0,0,1,.7-2.9c.741-1.521,1.573-2.262,2.561-2.262C105.274-8.8,106-7.592,106-5.5a4.477,4.477,0,0,1-2.236,4.316,6.869,6.869,0,0,1-2.639.819,2.683,2.683,0,0,1,.52.884,9.84,9.84,0,0,0,2.314-.767,5.364,5.364,0,0,0,3-5.109,5.34,5.34,0,0,0-.78-3.159,2.447,2.447,0,0,0-2.08-1.157,3.1,3.1,0,0,0-2.6,1.677,5.8,5.8,0,0,0-.793,1.937c-.065.273-.065.273-.091.377l-.052-.013c.039-.663.221-2.08.429-3.393a7.37,7.37,0,0,1,.3-1.339Z" transform="translate(760 13657)"/>
    <path id="Path_30701" data-name="Path 30701" class="cls-6" d="M9.581-9.945A12.271,12.271,0,0,1,8.216-6.617a12.468,12.468,0,0,1-6.409,5.6A3.072,3.072,0,0,1,2.47-.1a15.051,15.051,0,0,0,4.9-3.6,16.365,16.365,0,0,0,2.964-5.122,5.4,5.4,0,0,1,.325-.754ZM23.816-1.066v.923H24.8c-.026-.273-.039-.611-.039-1V-8.177A7.05,7.05,0,0,1,24.8-9.191a6.765,6.765,0,0,1-1.014.039H16.861a9.364,9.364,0,0,1-1.014-.039A6.668,6.668,0,0,1,15.9-8.177v7.059a6.754,6.754,0,0,1-.052.975h1v-.923Zm0-.845H16.848V-8.294h6.968Zm6.37-8.229A7.239,7.239,0,0,1,30-9.1a21.506,21.506,0,0,0-.585,5.148,18.632,18.632,0,0,0,.338,3.679c.039.247.052.312.078.52l.936-.078v-.2A11.332,11.332,0,0,1,31.824-3.6L31.2-3.9a12.078,12.078,0,0,0-.845,2.535c-.052-.689-.078-1.456-.078-2.47a19.218,19.218,0,0,1,.39-4.069,18.472,18.472,0,0,1,.546-2.08Zm2.678,2.457a17.316,17.316,0,0,0,2.08.13,21.946,21.946,0,0,0,2.795-.169q.858-.117.9-.117l-.065-.923a13.949,13.949,0,0,1-3.484.351,8.829,8.829,0,0,1-2.21-.195Zm.949,2.535A3.591,3.591,0,0,0,32.682-2.73a1.837,1.837,0,0,0,.39,1.2,3.613,3.613,0,0,0,2.977.988,13.412,13.412,0,0,0,2.665-.26c.26-.039.286-.052.455-.065l-.13-1a8.556,8.556,0,0,1-2.99.455c-1.677,0-2.5-.468-2.5-1.43a3.02,3.02,0,0,1,.975-1.911ZM50.921-7.956c0-.234.013-.26.013-.4.039-1.937.039-1.937.065-2.262.013-.039.013-.117.026-.2H50.05a7.369,7.369,0,0,1,.078,1.326c0,.494-.013.988-.026,1.534h-.377a7.17,7.17,0,0,1-1.248-.078v.884a6.311,6.311,0,0,1,1.248-.065h.338a13.123,13.123,0,0,1-1.014,4.732A7.068,7.068,0,0,1,46.722.273a2.174,2.174,0,0,1,.65.637A7.963,7.963,0,0,0,48.815-.546a9.512,9.512,0,0,0,1.768-4.186,19.1,19.1,0,0,0,.3-2.483h1.833a42.486,42.486,0,0,1-.3,5.33c-.234,1.638-.325,1.833-.845,1.833a7.186,7.186,0,0,1-1.456-.182,2.528,2.528,0,0,1,.143.858,10.58,10.58,0,0,0,1.352.1c.923,0,1.2-.234,1.43-1.274a36.848,36.848,0,0,0,.494-5.876,12.114,12.114,0,0,1,.078-1.586,7.541,7.541,0,0,1-1.157.052ZM43.745-4.68a19.564,19.564,0,0,1,1.56,1.638A8.964,8.964,0,0,1,43.888-1.2,9.008,9.008,0,0,1,42.055.221a2.289,2.289,0,0,1,.6.663A10.6,10.6,0,0,0,45.825-2.4c.455.585.663.884,1.209,1.7l.6-.637c-.676-.91-.936-1.248-1.391-1.807a16.951,16.951,0,0,0,.9-2.223l-.793-.364a7.292,7.292,0,0,1-.663,1.963c-.429-.481-.676-.728-1.378-1.4Zm1.326-4.368h-1.43a6.352,6.352,0,0,1-1.274-.078v.9a6.679,6.679,0,0,1,1.261-.078h3.549a8.481,8.481,0,0,1,1.222.052v-.858a7.65,7.65,0,0,1-1.274.065H45.864v-.819a6.386,6.386,0,0,1,.078-1.066h-.949a6.277,6.277,0,0,1,.078,1.066Zm-1.04,1.2a6.417,6.417,0,0,1-.676,1.4,7.471,7.471,0,0,1-1.2,1.378,3.478,3.478,0,0,1,.65.559,9.35,9.35,0,0,0,1.963-3.016Zm2.275.338a12.647,12.647,0,0,0,1.846,2.691,2.3,2.3,0,0,1,.611-.559,9.141,9.141,0,0,1-1.794-2.47ZM61.321-5.291v1.183H57.369A6.806,6.806,0,0,1,56.082-4.2v.91a9.1,9.1,0,0,1,1.287-.078h3.38a8.285,8.285,0,0,1-2.106,1.885,11.817,11.817,0,0,1-2.7,1.313A3.087,3.087,0,0,1,56.472.6a11.843,11.843,0,0,0,4.875-3.549c-.013.39-.026.741-.026,1V-.442A8.109,8.109,0,0,1,61.23.975H62.2a6.781,6.781,0,0,1-.091-1.417V-1.963c0-.247-.013-.377-.039-1.027a9.763,9.763,0,0,0,1.989,1.872A13.23,13.23,0,0,0,67.3.52,3.3,3.3,0,0,1,67.769-.3,11.613,11.613,0,0,1,64.48-1.755a9.1,9.1,0,0,1-1.859-1.612h3.64a10.183,10.183,0,0,1,1.339.078V-4.2a7.816,7.816,0,0,1-1.339.091H62.114V-5.291H64.7a8.7,8.7,0,0,1,1.534.078,9.709,9.709,0,0,1-.052-1.43V-8.879a9.709,9.709,0,0,1,.052-1.43,8.35,8.35,0,0,1-1.521.078H58.942a7.939,7.939,0,0,1-1.482-.078,9.756,9.756,0,0,1,.065,1.417v2.249a9.631,9.631,0,0,1-.065,1.43,8.87,8.87,0,0,1,1.547-.078Zm0-4.225v1.4h-2.99v-1.4Zm.793,0h3.25v1.4h-3.25Zm-.793,2.093v1.43h-2.99v-1.43Zm.793,0h3.25v1.43h-3.25Zm8.84-.533a1.347,1.347,0,0,1,.208-.013,2.112,2.112,0,0,1,.234.013c1.04.039,1.625.065,1.755.065h.52c-.065.949-.065,1.014-.078,1.963a4.431,4.431,0,0,0-3.016,3.874A1.775,1.775,0,0,0,72.254-.078a4.262,4.262,0,0,0,2.9-1.573,11.707,11.707,0,0,0,2.47-3.9c1.4.364,2.145,1.144,2.145,2.262a2.866,2.866,0,0,1-2.236,2.6,6.054,6.054,0,0,1-1.95.351A2.68,2.68,0,0,1,76,.533,7.157,7.157,0,0,0,78.65-.208a3.335,3.335,0,0,0,2.041-3c0-1.521-1-2.626-2.795-3.042.221-.611.364-.962.4-1.04l-.9-.273A4.881,4.881,0,0,1,77.09-6.4c-.325-.026-.481-.039-.754-.039a6.869,6.869,0,0,0-1.924.26c.013-.637.013-.637.091-1.742a36.417,36.417,0,0,0,4.6-.52c.247-.039.286-.039.455-.065l-.052-.91a19.976,19.976,0,0,1-4.953.728,8.644,8.644,0,0,1,.273-1.82l-1.014-.065a1.38,1.38,0,0,1,.013.2c0,.091-.026.6-.039.741-.052.663-.052.663-.065.975-.234.013-.286.013-.325.013a9.1,9.1,0,0,1-2.431-.208Zm2.639,2.847a18.386,18.386,0,0,0,.26,3.523,2.347,2.347,0,0,1-1.5.663c-.559,0-.936-.468-.936-1.183a3.071,3.071,0,0,1,.793-1.937A4.646,4.646,0,0,1,73.593-5.109Zm.962,2.977v-.143a.859.859,0,0,0-.013-.182A21.864,21.864,0,0,1,74.4-5.434a5.848,5.848,0,0,1,1.807-.3c.143,0,.208,0,.624.026a11.742,11.742,0,0,1-1.989,3.25,1.409,1.409,0,0,0-.247.338Zm11.895-8.4a2.606,2.606,0,0,1-.039.416,32.861,32.861,0,0,0-.442,4.8v.3l.026,1.352.013.234v.143l.936-.039c-.013-.195-.013-.26-.013-.312a6.784,6.784,0,0,1,.7-2.9C88.374-8.06,89.206-8.8,90.194-8.8c1.248,0,1.976,1.209,1.976,3.3a4.477,4.477,0,0,1-2.236,4.316,6.869,6.869,0,0,1-2.639.819,2.683,2.683,0,0,1,.52.884,9.84,9.84,0,0,0,2.314-.767,5.364,5.364,0,0,0,3-5.109,5.34,5.34,0,0,0-.78-3.159,2.447,2.447,0,0,0-2.08-1.157,3.1,3.1,0,0,0-2.6,1.677,5.8,5.8,0,0,0-.793,1.937c-.065.273-.065.273-.091.377l-.052-.013c.039-.663.221-2.08.429-3.393a7.37,7.37,0,0,1,.3-1.339Z" transform="translate(570 13597)"/>
    <path id="Path_30712" data-name="Path 30712" class="cls-6" d="M10.764-8.684a10.8,10.8,0,0,1-2.743,2.99A8.143,8.143,0,0,1,6.929-8.476v-.9a6.933,6.933,0,0,1,.1-1.3H6.006A8.559,8.559,0,0,1,6.1-9.36V-.481c0,.312-.078.377-.442.377A9.541,9.541,0,0,1,3.913-.286a2.587,2.587,0,0,1,.208.9A15.735,15.735,0,0,0,5.772.7C6.695.7,6.955.481,6.955-.338V-4.186c0-.689-.026-1.4-.1-2.535A8.528,8.528,0,0,0,7.54-5.07,11.47,11.47,0,0,0,9.009-2.912,11.094,11.094,0,0,0,11.8-.533a2.966,2.966,0,0,1,.689-.819,9.433,9.433,0,0,1-2.535-1.82A11.912,11.912,0,0,1,8.424-5.031c.741-.585.741-.585,1.1-.91.481-.442,1.365-1.339,1.677-1.7a4.021,4.021,0,0,1,.364-.4ZM4.927-7.579a8.23,8.23,0,0,1-1.235.052H2.3A7.761,7.761,0,0,1,1.04-7.592v.949a7.523,7.523,0,0,1,1.235-.078H4.42A9.506,9.506,0,0,1,2.7-3.237,8.58,8.58,0,0,1,.546-1.209a2.93,2.93,0,0,1,.728.65A11.116,11.116,0,0,0,5.148-6.292c.156-.494.169-.546.273-.806ZM16.354-10.14a7.239,7.239,0,0,1-.182,1.04,21.506,21.506,0,0,0-.585,5.148,18.632,18.632,0,0,0,.338,3.679c.039.247.052.312.078.52l.936-.078v-.2A11.332,11.332,0,0,1,17.992-3.6l-.624-.3a12.078,12.078,0,0,0-.845,2.535c-.052-.689-.078-1.456-.078-2.47a19.218,19.218,0,0,1,.39-4.069,18.472,18.472,0,0,1,.546-2.08Zm2.678,2.457a17.315,17.315,0,0,0,2.08.13,21.946,21.946,0,0,0,2.8-.169q.858-.117.9-.117l-.065-.923a13.949,13.949,0,0,1-3.484.351,8.829,8.829,0,0,1-2.21-.195Zm.949,2.535A3.591,3.591,0,0,0,18.85-2.73a1.837,1.837,0,0,0,.39,1.2,3.613,3.613,0,0,0,2.977.988,13.412,13.412,0,0,0,2.665-.26c.26-.039.286-.052.455-.065l-.13-1a8.556,8.556,0,0,1-2.99.455c-1.677,0-2.5-.468-2.5-1.43A3.02,3.02,0,0,1,20.7-4.758Zm11.973-5.4A13.375,13.375,0,0,1,31.512-8.1c-.247,0-.676.013-.936.013a8.215,8.215,0,0,1-1.547-.1l-.013.9h.169c.039,0,.143,0,.286.013.2,0,.637.013.858.013.2,0,.637-.013.962-.026a19.465,19.465,0,0,1-1.352,3.354,11.477,11.477,0,0,1-1.248,2.028l.884.52c.065-.1.143-.26.26-.442.494-.858.611-1.079.923-1.7a24.22,24.22,0,0,0,1.443-3.8A15.694,15.694,0,0,0,34.333-7.6c.312-.052.312-.052.455-.078l-.039-.9a10.818,10.818,0,0,1-2.327.429c.182-.663.26-.975.351-1.417a4.072,4.072,0,0,1,.208-.832Zm7.657,3.588a17.918,17.918,0,0,0-3.432-1.716l-.481.728a14.1,14.1,0,0,1,3.445,1.768ZM39.637-1.2A1.315,1.315,0,0,1,39.4-1.4a9.338,9.338,0,0,0-2.548-1.573,15.508,15.508,0,0,1-.143-1.976,3.99,3.99,0,0,1,.169-1.209L36-6.253a5.264,5.264,0,0,0-.13,1.261c0,.325.026.936.091,1.781a4.29,4.29,0,0,0-1.313-.195,3.8,3.8,0,0,0-1.534.286A1.844,1.844,0,0,0,31.9-1.469c0,1.157.975,1.885,2.535,1.885,1.586,0,2.47-.741,2.47-2.08a2.7,2.7,0,0,0-.026-.416A7.436,7.436,0,0,1,39.156-.312ZM36.023-2.379s.026.4.026.559c0,.975-.507,1.417-1.625,1.417-1.027,0-1.651-.4-1.651-1.066,0-.715.7-1.17,1.807-1.17A3.858,3.858,0,0,1,36.023-2.379Zm8.931-8.151a2.606,2.606,0,0,1-.039.416,32.861,32.861,0,0,0-.442,4.8v.3L44.5-3.666l.013.234v.143l.936-.039c-.013-.195-.013-.26-.013-.312a6.785,6.785,0,0,1,.7-2.9C46.878-8.06,47.71-8.8,48.7-8.8c1.248,0,1.976,1.209,1.976,3.3a4.477,4.477,0,0,1-2.236,4.316A6.869,6.869,0,0,1,45.8-.364a2.683,2.683,0,0,1,.52.884,9.84,9.84,0,0,0,2.314-.767,5.364,5.364,0,0,0,3-5.109,5.34,5.34,0,0,0-.78-3.159,2.447,2.447,0,0,0-2.08-1.157,3.1,3.1,0,0,0-2.6,1.677,5.8,5.8,0,0,0-.793,1.937c-.065.273-.065.273-.091.377l-.052-.013c.039-.663.221-2.08.429-3.393a7.369,7.369,0,0,1,.3-1.339ZM2,15.242a9.733,9.733,0,0,1,1.417,1.417,9.959,9.959,0,0,1-1.261,2.093,8.519,8.519,0,0,1-1.573,1.56,2.453,2.453,0,0,1,.6.663,10.226,10.226,0,0,0,2.509-3.146A13.142,13.142,0,0,0,5.07,13.136a7.617,7.617,0,0,1,.117-.78,6.993,6.993,0,0,1-1.079.052H2.847A13.8,13.8,0,0,0,3.2,10.6H4.563a7.729,7.729,0,0,1,1.157.065V9.821a11.212,11.212,0,0,1-1.287.065H2.093A9.612,9.612,0,0,1,.858,9.821v.845A6.872,6.872,0,0,1,1.989,10.6h.429a9.553,9.553,0,0,1-.377,1.872A7.064,7.064,0,0,1,.364,15.528a2.258,2.258,0,0,1,.572.637,8.756,8.756,0,0,0,1.7-3.068H4.3a14.349,14.349,0,0,1-.6,2.769,12.6,12.6,0,0,0-1.313-1.222Zm8.788,1.1a4.779,4.779,0,0,1-1.365,1.391,8.5,8.5,0,0,1-.546-1.729l2.249-.234a7.556,7.556,0,0,1,1.027-.078h.221l-.078-.832a6.926,6.926,0,0,1-1.2.195l-2.366.247c-.078-.455-.117-.715-.221-1.4l1.9-.182a10.053,10.053,0,0,1,1.092-.065h.156l-.078-.806a5.991,5.991,0,0,1-1.235.182l-1.911.195c-.052-.429-.065-.637-.117-1.287l2.2-.208c.546-.052.871-.078,1.053-.078a1.062,1.062,0,0,1,.182.013l-.065-.819a6.488,6.488,0,0,1-1.209.2l-2.21.208c-.026-.507-.065-1.235-.065-1.43a3.011,3.011,0,0,1,.052-.6H7.293a5.836,5.836,0,0,1,.091.611c.026.416.078,1.235.091,1.5l-.962.091a8.6,8.6,0,0,1-.936.052,2.239,2.239,0,0,1-.26-.013l.078.819a8.14,8.14,0,0,1,1.2-.182l.949-.078c.039.533.052.624.13,1.274l-.962.091a7.246,7.246,0,0,1-.832.052H5.629l.065.806a7.362,7.362,0,0,1,1.066-.169l.988-.091c.078.572.13.923.221,1.4l-1.521.156c-.455.039-.7.052-.936.052h-.3l.091.858a9.734,9.734,0,0,1,1.183-.195l1.625-.169a8.18,8.18,0,0,0,.676,2.106,12.456,12.456,0,0,1-4.394,1.872,3,3,0,0,1,.494.767,14.777,14.777,0,0,0,4.251-1.95c.728,1.222,1.534,1.911,2.262,1.911a.915.915,0,0,0,.78-.6,6.062,6.062,0,0,0,.442-1.924,3.434,3.434,0,0,1-.715-.455c-.1,1.4-.312,2.119-.611,2.119-.377,0-1-.611-1.521-1.508a11.449,11.449,0,0,0,1.248-1.157,6.078,6.078,0,0,1,.455-.442ZM8.762,9.756a6.976,6.976,0,0,1,1.781,1.1l.507-.585a11.394,11.394,0,0,0-1.768-1.04Zm7.475,1.1a17.759,17.759,0,0,0,2.99-.78c.143-.052.247-.091.3-.1a2.612,2.612,0,0,0,.416-.143l-.637-.689a1.965,1.965,0,0,1-.546.286,14.286,14.286,0,0,1-3.38.832,4.93,4.93,0,0,1,.078.845l.117,2.938a4.9,4.9,0,0,1-1.027.182l.247.858c.26-.091.273-.091.364-.13a27.526,27.526,0,0,0,4.03-1.417,7.152,7.152,0,0,1,.286.663l.7-.351a10.227,10.227,0,0,0-1.612-2.483l-.65.325a7.933,7.933,0,0,1,.949,1.248,25.152,25.152,0,0,1-2.522.9Zm5.733-.169a4.389,4.389,0,0,1-.442,2.093,4.066,4.066,0,0,1-1.885,1.742,2.975,2.975,0,0,1,.546.637,5.437,5.437,0,0,0,1.885-1.716,4.8,4.8,0,0,0,.689-2.756h2.119a12.67,12.67,0,0,1-.377,3.055c-.078.234-.221.312-.546.312a5.7,5.7,0,0,1-1.443-.208,3.009,3.009,0,0,1,.143.806,11.935,11.935,0,0,0,1.352.1c.767,0,1.1-.195,1.261-.728a12.823,12.823,0,0,0,.39-2.782,9.233,9.233,0,0,1,.091-1.313c-.26.026-.6.039-1.079.039h-3.2a6.533,6.533,0,0,1-1.183-.065v.845a5.515,5.515,0,0,1,1.079-.065Zm-4.823,4.719a8.781,8.781,0,0,1-1.131-.052,10.033,10.033,0,0,1,.052,1.209v3.094a8.782,8.782,0,0,1-.078,1.222h.858V20.26h7.124v.624h.871a8.52,8.52,0,0,1-.078-1.222V16.581a9.213,9.213,0,0,1,.052-1.222,9.661,9.661,0,0,1-1.2.052Zm-.3.663h3.094v1.352H16.848Zm3.861,0h3.276v1.352H20.709Zm-3.861,2h3.094v1.508H16.848Zm3.861,0h3.276v1.508H20.709ZM35.49,12.785v2.7H33.995a8.11,8.11,0,0,1-1.261-.078V16.3a9.312,9.312,0,0,1,1.326-.078h1.43v3.419H33.176a10.352,10.352,0,0,1-1.417-.078v.923a9.383,9.383,0,0,1,1.417-.091h5.343a9.383,9.383,0,0,1,1.417.091v-.923a10.352,10.352,0,0,1-1.417.078h-2.21V16.217h1.755a9.185,9.185,0,0,1,1.326.078v-.884a8.628,8.628,0,0,1-1.313.078H36.309v-2.7h2.028a11.679,11.679,0,0,1,1.326.078v-.9a7.887,7.887,0,0,1-1.339.078H36.309v-1.56A8.111,8.111,0,0,1,36.4,9.171h-1a8.444,8.444,0,0,1,.091,1.313v1.56H33.813c.091-.351.156-.585.221-.91a5,5,0,0,1,.208-.858l-.9-.182a6.074,6.074,0,0,1-.117,1.014,9,9,0,0,1-1.547,3.7,5.075,5.075,0,0,1,.728.4,9.772,9.772,0,0,0,1.17-2.431Zm-6.669,2.574a14.328,14.328,0,0,0,.65-3.562l-.689-.117a11.3,11.3,0,0,1-.637,3.406Zm2.015,5.655a9.512,9.512,0,0,1-.091-1.443V10.458a8.22,8.22,0,0,1,.091-1.313H29.822a8.558,8.558,0,0,1,.091,1.313v9.061a10.739,10.739,0,0,1-.091,1.5Zm1.443-7.644a10.373,10.373,0,0,0-.6-1.989l-.6.234a6.7,6.7,0,0,1,.546,2ZM45.786,9.457a13.375,13.375,0,0,1-.442,2.444c-.247,0-.676.013-.936.013a8.215,8.215,0,0,1-1.547-.1l-.013.9h.169c.039,0,.143,0,.286.013.195,0,.637.013.858.013.195,0,.637-.013.962-.026a19.465,19.465,0,0,1-1.352,3.354,11.477,11.477,0,0,1-1.248,2.028l.884.52c.065-.1.143-.26.26-.442.494-.858.611-1.079.923-1.7a24.22,24.22,0,0,0,1.443-3.8,15.694,15.694,0,0,0,2.132-.273c.312-.052.312-.052.455-.078l-.039-.9a10.818,10.818,0,0,1-2.327.429c.182-.663.26-.975.351-1.417a4.072,4.072,0,0,1,.208-.832Zm7.657,3.588a17.918,17.918,0,0,0-3.432-1.716l-.481.728a14.1,14.1,0,0,1,3.445,1.768Zm.026,5.759a1.316,1.316,0,0,1-.234-.208,9.338,9.338,0,0,0-2.548-1.573,15.508,15.508,0,0,1-.143-1.976,3.99,3.99,0,0,1,.169-1.209l-.884-.091a5.264,5.264,0,0,0-.13,1.261c0,.325.026.936.091,1.781a4.29,4.29,0,0,0-1.313-.195,3.8,3.8,0,0,0-1.534.286,1.844,1.844,0,0,0-1.209,1.651c0,1.157.975,1.885,2.535,1.885,1.586,0,2.47-.741,2.47-2.08a2.7,2.7,0,0,0-.026-.416,7.436,7.436,0,0,1,2.275,1.768Zm-3.614-1.183s.026.4.026.559c0,.975-.507,1.417-1.625,1.417-1.027,0-1.651-.4-1.651-1.066,0-.715.7-1.17,1.807-1.17A3.858,3.858,0,0,1,49.855,17.621ZM58.344,9.86a4,4,0,0,1,.052.689c0,.208,0,.455-.013.845-.1,4.1-.117,4.42-.117,5.291a3.621,3.621,0,0,0,.715,2.665,3.083,3.083,0,0,0,2.444.91,4.552,4.552,0,0,0,3.666-1.625,7.908,7.908,0,0,0,1.443-2.951,3.677,3.677,0,0,1-.936-.624,7.723,7.723,0,0,1-.637,2.041,3.733,3.733,0,0,1-3.484,2.262,2.454,2.454,0,0,1-1.625-.507,2.046,2.046,0,0,1-.611-1.56c-.013-.3-.026-.624-.026-.78,0-.585.039-2.353.091-3.913a20.043,20.043,0,0,1,.169-2.743Z" transform="translate(570 13647)"/>
    <path id="Path_30702" data-name="Path 30702" class="cls-6" d="M7.787-6.37v1.625H5.954A8.479,8.479,0,0,1,4.836-4.81v.871A8.479,8.479,0,0,1,5.954-4H7.787V-.3c0,.221-.13.3-.494.3A9.64,9.64,0,0,1,5.967-.117a2.493,2.493,0,0,1,.26.858c.39.039.845.052,1.144.052.923,0,1.235-.247,1.235-1V-4h2.431a8.21,8.21,0,0,1,1.235.078v-.9a8.091,8.091,0,0,1-1.235.078H8.606V-6.37H9.958a7.563,7.563,0,0,1,.988.052v-.819a6.952,6.952,0,0,1-.988.052H6.695a7,7,0,0,1-1.014-.052A10.465,10.465,0,0,0,8.255-9.984a11.425,11.425,0,0,0,4.03,3.679,6.64,6.64,0,0,1,.494-.78,9.237,9.237,0,0,1-4.095-3.64h-.91A8.507,8.507,0,0,1,4.082-7.1a2.15,2.15,0,0,1,.52.7,10.407,10.407,0,0,0,1.079-.741v.819a7.9,7.9,0,0,1,1-.052ZM1.248-.468A10.468,10.468,0,0,1,1.17.923h.936C2.067.52,2.041.052,2.041-.455V-9.672H4.069A15.692,15.692,0,0,1,2.587-6.63,4,4,0,0,1,3.77-3.614c0,.585-.182.793-.676.793a5.827,5.827,0,0,1-.767-.052,2.315,2.315,0,0,1,.156.78c.286.013.3.013.442.013A3.128,3.128,0,0,0,3.848-2.2c.468-.156.689-.624.689-1.456a5.047,5.047,0,0,0-.26-1.612,4.386,4.386,0,0,0-.832-1.43A21.113,21.113,0,0,0,4.862-9.568c.052-.1.078-.182.1-.221A1.107,1.107,0,0,0,5.057-10L4.6-10.439a4.152,4.152,0,0,1-.832.052H2.054a6.915,6.915,0,0,1-.845-.039c.026.26.039.624.039.988ZM9.724-3.081A10.187,10.187,0,0,0,11.947.234a3.629,3.629,0,0,1,.624-.689,7.226,7.226,0,0,1-2.158-2.938ZM5.785-3.419a6.841,6.841,0,0,1-.9,1.807A5.912,5.912,0,0,1,3.679-.377a2.635,2.635,0,0,1,.611.6A7.738,7.738,0,0,0,6.513-3.107Zm12.22-6.422H15.938a8.867,8.867,0,0,1-1.313-.078v.871a8.989,8.989,0,0,1,1.313-.078h2.067v.208a3.649,3.649,0,0,1-.065.741h.91a4.1,4.1,0,0,1-.052-.754v-.2h2.964v.208a4.224,4.224,0,0,1-.052.741h.91a3.7,3.7,0,0,1-.065-.754v-.2h2.21a9.312,9.312,0,0,1,1.326.078v-.871a9.185,9.185,0,0,1-1.326.078h-2.21v-.273a4.224,4.224,0,0,1,.052-.741h-.9a4.419,4.419,0,0,1,.052.741v.273H18.8v-.273a4.224,4.224,0,0,1,.052-.741h-.9a4.32,4.32,0,0,1,.052.741Zm2.574,4.173a15.193,15.193,0,0,0,2.639-.468l-.559-.624a15.426,15.426,0,0,1-4.927.637h-.468a1.976,1.976,0,0,1,.286.65c1.053-.026,1.508-.052,2.314-.13v.988H17.9a6.558,6.558,0,0,1-1.157-.065v.78a6.758,6.758,0,0,1,1.144-.065h1.677a7.744,7.744,0,0,1-2.99,2.184,1.849,1.849,0,0,1,.507.624,7.776,7.776,0,0,0,2.834-2.379c-.039.416-.052.767-.052,1.17v.585a5.137,5.137,0,0,1-.065.975h.845a4.893,4.893,0,0,1-.065-.975v-.585c0-.351-.013-.754-.052-1.17a9.311,9.311,0,0,0,3.055,2.353,2.641,2.641,0,0,1,.468-.7A7.6,7.6,0,0,1,20.9-3.965h1.872A6.947,6.947,0,0,1,23.92-3.9v-.78a6.726,6.726,0,0,1-1.17.065H20.579ZM16.224,1V.247h8.268V1h.884A10.672,10.672,0,0,1,25.3-.546V-6.279a13.323,13.323,0,0,1,.078-1.573,12.3,12.3,0,0,1-1.534.065H16.861a11.942,11.942,0,0,1-1.521-.065,14.29,14.29,0,0,1,.078,1.573V-.572A11.614,11.614,0,0,1,15.34,1Zm0-8.073h8.268v6.6H16.224Zm20.865-.884c0-.234.013-.26.013-.4.039-1.937.039-1.937.065-2.262.013-.039.013-.117.026-.2h-.975A7.369,7.369,0,0,1,36.3-9.49c0,.494-.013.988-.026,1.534h-.377a7.17,7.17,0,0,1-1.248-.078v.884a6.311,6.311,0,0,1,1.248-.065h.338a13.123,13.123,0,0,1-1.014,4.732A7.068,7.068,0,0,1,32.89.273a2.174,2.174,0,0,1,.65.637A7.963,7.963,0,0,0,34.983-.546a9.512,9.512,0,0,0,1.768-4.186,19.1,19.1,0,0,0,.3-2.483h1.833a42.486,42.486,0,0,1-.3,5.33c-.234,1.638-.325,1.833-.845,1.833a7.186,7.186,0,0,1-1.456-.182,2.528,2.528,0,0,1,.143.858,10.58,10.58,0,0,0,1.352.1c.923,0,1.2-.234,1.43-1.274A36.848,36.848,0,0,0,39.7-6.422a12.115,12.115,0,0,1,.078-1.586,7.541,7.541,0,0,1-1.157.052ZM29.913-4.68a19.564,19.564,0,0,1,1.56,1.638A8.964,8.964,0,0,1,30.056-1.2,9.008,9.008,0,0,1,28.223.221a2.289,2.289,0,0,1,.6.663A10.6,10.6,0,0,0,31.993-2.4c.455.585.663.884,1.209,1.7l.6-.637c-.676-.91-.936-1.248-1.391-1.807a16.951,16.951,0,0,0,.9-2.223l-.793-.364A7.292,7.292,0,0,1,31.85-3.77c-.429-.481-.676-.728-1.378-1.4Zm1.326-4.368h-1.43a6.352,6.352,0,0,1-1.274-.078v.9A6.679,6.679,0,0,1,29.8-8.307h3.549a8.481,8.481,0,0,1,1.222.052v-.858a7.65,7.65,0,0,1-1.274.065H32.032v-.819a6.385,6.385,0,0,1,.078-1.066h-.949a6.277,6.277,0,0,1,.078,1.066Zm-1.04,1.2a6.417,6.417,0,0,1-.676,1.4,7.471,7.471,0,0,1-1.2,1.378,3.479,3.479,0,0,1,.65.559A9.35,9.35,0,0,0,30.94-7.527Zm2.275.338A12.647,12.647,0,0,0,34.32-4.823a2.3,2.3,0,0,1,.611-.559,9.141,9.141,0,0,1-1.794-2.47ZM47.489-5.291v1.183H43.537A6.806,6.806,0,0,1,42.25-4.2v.91a9.1,9.1,0,0,1,1.287-.078h3.38a8.285,8.285,0,0,1-2.106,1.885,11.817,11.817,0,0,1-2.7,1.313A3.087,3.087,0,0,1,42.64.6a11.843,11.843,0,0,0,4.875-3.549c-.013.39-.026.741-.026,1V-.442A8.109,8.109,0,0,1,47.4.975h.975a6.781,6.781,0,0,1-.091-1.417V-1.963c0-.247-.013-.377-.039-1.027a9.763,9.763,0,0,0,1.989,1.872A13.229,13.229,0,0,0,53.469.52,3.3,3.3,0,0,1,53.937-.3a11.613,11.613,0,0,1-3.289-1.456,9.1,9.1,0,0,1-1.859-1.612h3.64a10.183,10.183,0,0,1,1.339.078V-4.2a7.816,7.816,0,0,1-1.339.091H48.282V-5.291h2.587a8.7,8.7,0,0,1,1.534.078,9.709,9.709,0,0,1-.052-1.43V-8.879a9.709,9.709,0,0,1,.052-1.43,8.35,8.35,0,0,1-1.521.078H45.11a7.939,7.939,0,0,1-1.482-.078,9.756,9.756,0,0,1,.065,1.417v2.249a9.631,9.631,0,0,1-.065,1.43,8.87,8.87,0,0,1,1.547-.078Zm0-4.225v1.4H44.5v-1.4Zm.793,0h3.25v1.4h-3.25Zm-.793,2.093v1.43H44.5v-1.43Zm.793,0h3.25v1.43h-3.25Z" transform="translate(340 13597)"/>
    <path id="Path_30713" data-name="Path 30713" class="cls-6" d="M2-4.758A9.733,9.733,0,0,1,3.419-3.341,9.959,9.959,0,0,1,2.158-1.248,8.519,8.519,0,0,1,.585.312a2.453,2.453,0,0,1,.6.663A10.226,10.226,0,0,0,3.692-2.171,13.142,13.142,0,0,0,5.07-6.864a7.617,7.617,0,0,1,.117-.78,6.993,6.993,0,0,1-1.079.052H2.847A13.8,13.8,0,0,0,3.2-9.4H4.563a7.729,7.729,0,0,1,1.157.065v-.845a11.212,11.212,0,0,1-1.287.065H2.093a9.612,9.612,0,0,1-1.235-.065v.845A6.872,6.872,0,0,1,1.989-9.4h.429a9.553,9.553,0,0,1-.377,1.872A7.064,7.064,0,0,1,.364-4.472a2.258,2.258,0,0,1,.572.637A8.756,8.756,0,0,0,2.639-6.9H4.3a14.349,14.349,0,0,1-.6,2.769A12.6,12.6,0,0,0,2.392-5.356ZM10.79-3.653A4.779,4.779,0,0,1,9.425-2.262a8.5,8.5,0,0,1-.546-1.729l2.249-.234A7.556,7.556,0,0,1,12.155-4.3h.221L12.3-5.135a6.926,6.926,0,0,1-1.2.2l-2.366.247c-.078-.455-.117-.715-.221-1.4l1.9-.182a10.053,10.053,0,0,1,1.092-.065h.156l-.078-.806a5.991,5.991,0,0,1-1.235.182l-1.911.2C8.385-7.2,8.372-7.41,8.32-8.06l2.2-.208c.546-.052.871-.078,1.053-.078a1.062,1.062,0,0,1,.182.013l-.065-.819a6.488,6.488,0,0,1-1.209.2l-2.21.208c-.026-.507-.065-1.235-.065-1.43a3.011,3.011,0,0,1,.052-.6H7.293a5.836,5.836,0,0,1,.091.611c.026.416.078,1.235.091,1.5l-.962.091a8.6,8.6,0,0,1-.936.052,2.239,2.239,0,0,1-.26-.013l.078.819a8.14,8.14,0,0,1,1.2-.182l.949-.078c.039.533.052.624.13,1.274l-.962.091a7.246,7.246,0,0,1-.832.052H5.629l.065.806A7.362,7.362,0,0,1,6.76-5.928l.988-.091c.078.572.13.923.221,1.4l-1.521.156c-.455.039-.7.052-.936.052h-.3l.091.858a9.734,9.734,0,0,1,1.183-.195l1.625-.169a8.18,8.18,0,0,0,.676,2.106A12.456,12.456,0,0,1,4.394.065a3,3,0,0,1,.494.767,14.777,14.777,0,0,0,4.251-1.95C9.867.1,10.673.793,11.4.793a.915.915,0,0,0,.78-.6,6.062,6.062,0,0,0,.442-1.924,3.434,3.434,0,0,1-.715-.455C11.8-.78,11.6-.065,11.3-.065c-.377,0-1-.611-1.521-1.508A11.449,11.449,0,0,0,11.024-2.73a6.077,6.077,0,0,1,.455-.442ZM8.762-10.244a6.976,6.976,0,0,1,1.781,1.1l.507-.585a11.394,11.394,0,0,0-1.768-1.04Zm7.475,1.1a17.759,17.759,0,0,0,2.99-.78c.143-.052.247-.091.3-.1a2.612,2.612,0,0,0,.416-.143l-.637-.689a1.965,1.965,0,0,1-.546.286,14.286,14.286,0,0,1-3.38.832,4.93,4.93,0,0,1,.078.845l.117,2.938a4.9,4.9,0,0,1-1.027.182l.247.858c.26-.091.273-.091.364-.13a27.526,27.526,0,0,0,4.03-1.417,7.152,7.152,0,0,1,.286.663l.7-.351a10.227,10.227,0,0,0-1.612-2.483l-.65.325a7.933,7.933,0,0,1,.949,1.248,25.152,25.152,0,0,1-2.522.9Zm5.733-.169a4.389,4.389,0,0,1-.442,2.093,4.066,4.066,0,0,1-1.885,1.742,2.975,2.975,0,0,1,.546.637,5.437,5.437,0,0,0,1.885-1.716,4.8,4.8,0,0,0,.689-2.756h2.119A12.67,12.67,0,0,1,24.5-6.253c-.078.234-.221.312-.546.312a5.7,5.7,0,0,1-1.443-.208,3.009,3.009,0,0,1,.143.806,11.935,11.935,0,0,0,1.352.1c.767,0,1.1-.2,1.261-.728a12.823,12.823,0,0,0,.39-2.782,9.233,9.233,0,0,1,.091-1.313c-.26.026-.6.039-1.079.039h-3.2a6.533,6.533,0,0,1-1.183-.065v.845a5.515,5.515,0,0,1,1.079-.065ZM17.147-4.589a8.781,8.781,0,0,1-1.131-.052,10.033,10.033,0,0,1,.052,1.209V-.338A8.782,8.782,0,0,1,15.99.884h.858V.26h7.124V.884h.871a8.52,8.52,0,0,1-.078-1.222V-3.419a9.213,9.213,0,0,1,.052-1.222,9.661,9.661,0,0,1-1.2.052Zm-.3.663h3.094v1.352H16.848Zm3.861,0h3.276v1.352H20.709Zm-3.861,2h3.094V-.416H16.848Zm3.861,0h3.276V-.416H20.709ZM35.49-7.215v2.7H33.995a8.11,8.11,0,0,1-1.261-.078V-3.7a9.312,9.312,0,0,1,1.326-.078h1.43V-.364H33.176a10.352,10.352,0,0,1-1.417-.078V.481A9.383,9.383,0,0,1,33.176.39h5.343a9.383,9.383,0,0,1,1.417.091V-.442a10.352,10.352,0,0,1-1.417.078h-2.21V-3.783h1.755A9.186,9.186,0,0,1,39.39-3.7v-.884a8.628,8.628,0,0,1-1.313.078H36.309v-2.7h2.028a11.679,11.679,0,0,1,1.326.078v-.9a7.887,7.887,0,0,1-1.339.078H36.309v-1.56a8.111,8.111,0,0,1,.091-1.313h-1a8.444,8.444,0,0,1,.091,1.313v1.56H33.813c.091-.351.156-.585.221-.91a5,5,0,0,1,.208-.858l-.9-.182a6.074,6.074,0,0,1-.117,1.014,9,9,0,0,1-1.547,3.705,5.075,5.075,0,0,1,.728.4,9.772,9.772,0,0,0,1.17-2.431ZM28.821-4.641a14.328,14.328,0,0,0,.65-3.562l-.689-.117a11.3,11.3,0,0,1-.637,3.406Zm2.015,5.655a9.512,9.512,0,0,1-.091-1.443V-9.542a8.22,8.22,0,0,1,.091-1.313H29.822a8.558,8.558,0,0,1,.091,1.313V-.481a10.739,10.739,0,0,1-.091,1.5ZM32.279-6.63a10.373,10.373,0,0,0-.6-1.989l-.6.234a6.7,6.7,0,0,1,.546,2Z" transform="translate(340 13657)"/>
    <path id="Path_30719" data-name="Path 30719" class="cls-6" d="M9.581-9.945A12.271,12.271,0,0,1,8.216-6.617a12.468,12.468,0,0,1-6.409,5.6A3.072,3.072,0,0,1,2.47-.1a15.051,15.051,0,0,0,4.9-3.6,16.365,16.365,0,0,0,2.964-5.122,5.4,5.4,0,0,1,.325-.754ZM23.816-1.066v.923H24.8c-.026-.273-.039-.611-.039-1V-8.177A7.05,7.05,0,0,1,24.8-9.191a6.765,6.765,0,0,1-1.014.039H16.861a9.364,9.364,0,0,1-1.014-.039A6.668,6.668,0,0,1,15.9-8.177v7.059a6.754,6.754,0,0,1-.052.975h1v-.923Zm0-.845H16.848V-8.294h6.968Zm6.37-8.229A7.239,7.239,0,0,1,30-9.1a21.506,21.506,0,0,0-.585,5.148,18.632,18.632,0,0,0,.338,3.679c.039.247.052.312.078.52l.936-.078v-.2A11.332,11.332,0,0,1,31.824-3.6L31.2-3.9a12.078,12.078,0,0,0-.845,2.535c-.052-.689-.078-1.456-.078-2.47a19.218,19.218,0,0,1,.39-4.069,18.472,18.472,0,0,1,.546-2.08Zm2.678,2.457a17.316,17.316,0,0,0,2.08.13,21.946,21.946,0,0,0,2.795-.169q.858-.117.9-.117l-.065-.923a13.949,13.949,0,0,1-3.484.351,8.829,8.829,0,0,1-2.21-.195Zm.949,2.535A3.591,3.591,0,0,0,32.682-2.73a1.837,1.837,0,0,0,.39,1.2,3.613,3.613,0,0,0,2.977.988,13.412,13.412,0,0,0,2.665-.26c.26-.039.286-.052.455-.065l-.13-1a8.556,8.556,0,0,1-2.99.455c-1.677,0-2.5-.468-2.5-1.43a3.02,3.02,0,0,1,.975-1.911ZM50.921-7.956c0-.234.013-.26.013-.4.039-1.937.039-1.937.065-2.262.013-.039.013-.117.026-.2H50.05a7.369,7.369,0,0,1,.078,1.326c0,.494-.013.988-.026,1.534h-.377a7.17,7.17,0,0,1-1.248-.078v.884a6.311,6.311,0,0,1,1.248-.065h.338a13.123,13.123,0,0,1-1.014,4.732A7.068,7.068,0,0,1,46.722.273a2.174,2.174,0,0,1,.65.637A7.963,7.963,0,0,0,48.815-.546a9.512,9.512,0,0,0,1.768-4.186,19.1,19.1,0,0,0,.3-2.483h1.833a42.486,42.486,0,0,1-.3,5.33c-.234,1.638-.325,1.833-.845,1.833a7.186,7.186,0,0,1-1.456-.182,2.528,2.528,0,0,1,.143.858,10.58,10.58,0,0,0,1.352.1c.923,0,1.2-.234,1.43-1.274a36.848,36.848,0,0,0,.494-5.876,12.114,12.114,0,0,1,.078-1.586,7.541,7.541,0,0,1-1.157.052ZM43.745-4.68a19.564,19.564,0,0,1,1.56,1.638A8.964,8.964,0,0,1,43.888-1.2,9.008,9.008,0,0,1,42.055.221a2.289,2.289,0,0,1,.6.663A10.6,10.6,0,0,0,45.825-2.4c.455.585.663.884,1.209,1.7l.6-.637c-.676-.91-.936-1.248-1.391-1.807a16.951,16.951,0,0,0,.9-2.223l-.793-.364a7.292,7.292,0,0,1-.663,1.963c-.429-.481-.676-.728-1.378-1.4Zm1.326-4.368h-1.43a6.352,6.352,0,0,1-1.274-.078v.9a6.679,6.679,0,0,1,1.261-.078h3.549a8.481,8.481,0,0,1,1.222.052v-.858a7.65,7.65,0,0,1-1.274.065H45.864v-.819a6.386,6.386,0,0,1,.078-1.066h-.949a6.277,6.277,0,0,1,.078,1.066Zm-1.04,1.2a6.417,6.417,0,0,1-.676,1.4,7.471,7.471,0,0,1-1.2,1.378,3.478,3.478,0,0,1,.65.559,9.35,9.35,0,0,0,1.963-3.016Zm2.275.338a12.647,12.647,0,0,0,1.846,2.691,2.3,2.3,0,0,1,.611-.559,9.141,9.141,0,0,1-1.794-2.47ZM61.321-5.291v1.183H57.369A6.806,6.806,0,0,1,56.082-4.2v.91a9.1,9.1,0,0,1,1.287-.078h3.38a8.285,8.285,0,0,1-2.106,1.885,11.817,11.817,0,0,1-2.7,1.313A3.087,3.087,0,0,1,56.472.6a11.843,11.843,0,0,0,4.875-3.549c-.013.39-.026.741-.026,1V-.442A8.109,8.109,0,0,1,61.23.975H62.2a6.781,6.781,0,0,1-.091-1.417V-1.963c0-.247-.013-.377-.039-1.027a9.763,9.763,0,0,0,1.989,1.872A13.23,13.23,0,0,0,67.3.52,3.3,3.3,0,0,1,67.769-.3,11.613,11.613,0,0,1,64.48-1.755a9.1,9.1,0,0,1-1.859-1.612h3.64a10.183,10.183,0,0,1,1.339.078V-4.2a7.816,7.816,0,0,1-1.339.091H62.114V-5.291H64.7a8.7,8.7,0,0,1,1.534.078,9.709,9.709,0,0,1-.052-1.43V-8.879a9.709,9.709,0,0,1,.052-1.43,8.35,8.35,0,0,1-1.521.078H58.942a7.939,7.939,0,0,1-1.482-.078,9.756,9.756,0,0,1,.065,1.417v2.249a9.631,9.631,0,0,1-.065,1.43,8.87,8.87,0,0,1,1.547-.078Zm0-4.225v1.4h-2.99v-1.4Zm.793,0h3.25v1.4h-3.25Zm-.793,2.093v1.43h-2.99v-1.43Zm.793,0h3.25v1.43h-3.25Zm11.336-3.12A13.375,13.375,0,0,1,73.008-8.1c-.247,0-.676.013-.936.013a8.215,8.215,0,0,1-1.547-.1l-.013.9h.169c.039,0,.143,0,.286.013.195,0,.637.013.858.013.195,0,.637-.013.962-.026a19.465,19.465,0,0,1-1.352,3.354,11.477,11.477,0,0,1-1.248,2.028l.884.52c.065-.1.143-.26.26-.442.494-.858.611-1.079.923-1.7a24.22,24.22,0,0,0,1.443-3.8A15.694,15.694,0,0,0,75.829-7.6c.312-.052.312-.052.455-.078l-.039-.9a10.818,10.818,0,0,1-2.327.429c.182-.663.26-.975.351-1.417a4.071,4.071,0,0,1,.208-.832Zm7.657,3.588a17.918,17.918,0,0,0-3.432-1.716l-.481.728a14.1,14.1,0,0,1,3.445,1.768ZM81.133-1.2A1.316,1.316,0,0,1,80.9-1.4a9.338,9.338,0,0,0-2.548-1.573,15.507,15.507,0,0,1-.143-1.976,3.99,3.99,0,0,1,.169-1.209l-.884-.091a5.264,5.264,0,0,0-.13,1.261c0,.325.026.936.091,1.781a4.29,4.29,0,0,0-1.313-.195,3.8,3.8,0,0,0-1.534.286A1.844,1.844,0,0,0,73.4-1.469c0,1.157.975,1.885,2.535,1.885,1.586,0,2.47-.741,2.47-2.08a2.7,2.7,0,0,0-.026-.416A7.436,7.436,0,0,1,80.652-.312ZM77.519-2.379s.026.4.026.559c0,.975-.507,1.417-1.625,1.417-1.027,0-1.651-.4-1.651-1.066,0-.715.7-1.17,1.807-1.17A3.858,3.858,0,0,1,77.519-2.379Zm8.489-7.761a4,4,0,0,1,.052.689c0,.208,0,.455-.013.845-.1,4.095-.117,4.42-.117,5.291A3.621,3.621,0,0,0,86.645-.65a3.083,3.083,0,0,0,2.444.91,4.552,4.552,0,0,0,3.666-1.625A7.908,7.908,0,0,0,94.2-4.316a3.677,3.677,0,0,1-.936-.624A7.723,7.723,0,0,1,92.625-2.9,3.733,3.733,0,0,1,89.141-.637a2.454,2.454,0,0,1-1.625-.507A2.046,2.046,0,0,1,86.9-2.7c-.013-.3-.026-.624-.026-.78,0-.585.039-2.353.091-3.913a20.043,20.043,0,0,1,.169-2.743Z" transform="translate(950 13597)"/>
    <path id="Path_30720" data-name="Path 30720" class="cls-6" d="M7.761-2.626v.988H5.148a6.361,6.361,0,0,1-1.261-.078v.871A8.746,8.746,0,0,1,5.2-.923H7.761v.559a9.56,9.56,0,0,1-.078,1.391h.9A7.764,7.764,0,0,1,8.5-.338V-.923h2.587a9.365,9.365,0,0,1,1.287.078v-.871a7.069,7.069,0,0,1-1.248.078H8.5v-.988h1.937a9.661,9.661,0,0,1,1.2.052c-.026-.3-.039-.637-.039-1.2V-5.681c0-.507.013-.858.039-1.17a8.208,8.208,0,0,1-1.17.052H8.5v-.9h1.573a8.2,8.2,0,0,1,1.066.052v-.78a6.949,6.949,0,0,1-1.04.052H8.5a4.231,4.231,0,0,1,.065-.962H7.7a5.5,5.5,0,0,1,.065.962H6.435a5.624,5.624,0,0,1-1.053-.065v.793A8.456,8.456,0,0,1,6.448-7.7H7.761v.9H5.928a9.4,9.4,0,0,1-1.2-.052,9.463,9.463,0,0,1,.052,1.17v1.937a9.2,9.2,0,0,1-.052,1.17,10.072,10.072,0,0,1,1.2-.052Zm0-3.523v1.092H5.538V-6.149Zm.741,0h2.34v1.092H8.5ZM7.761-4.42v1.144H5.538V-4.42Zm.741,0h2.34v1.144H8.5ZM2.184-8.19h-.6a4.484,4.484,0,0,1-.871-.065v.832a6.208,6.208,0,0,1,.858-.052h.611v2.951a7.523,7.523,0,0,1-1.625.468l.195.884a5.325,5.325,0,0,1,.7-.273c.247-.078.39-.13.728-.26V-.234c0,.221-.065.286-.325.286A7.229,7.229,0,0,1,.767-.039,2.671,2.671,0,0,1,.923.754c.325.026.468.026.793.026C2.756.78,2.99.624,2.99-.1V-4.017c.546-.247.728-.325,1.3-.6l-.013-.793c-.637.312-.845.4-1.287.585V-7.475h.26a5.315,5.315,0,0,1,.819.052v-.819a5.1,5.1,0,0,1-.819.052H2.99V-9.269a10.125,10.125,0,0,1,.078-1.443H2.106a10.332,10.332,0,0,1,.078,1.456Zm2.145-.689a4.262,4.262,0,0,1-.052.728h.845V-9.607H11.4v1.443h.845a4.479,4.479,0,0,1-.052-.754v-.624a5.41,5.41,0,0,1,.039-.832,12.2,12.2,0,0,1-1.417.052h-5.2c-.689,0-1.04-.013-1.326-.039a6.79,6.79,0,0,1,.039.806ZM16.3-3.653a8.366,8.366,0,0,1-1.287-.078v.884A8.974,8.974,0,0,1,16.3-2.925h1.924a3.381,3.381,0,0,1-1.508,2.21,6.153,6.153,0,0,1-1.989.923,2.944,2.944,0,0,1,.611.741,6.993,6.993,0,0,0,1.3-.6A5.939,5.939,0,0,0,18.122-.884a4.427,4.427,0,0,0,.923-2.041h2.171V-.247c0,.793.364.975,1.976.975,1.4,0,1.976-.1,2.249-.416A3.335,3.335,0,0,0,26.013-1.4a2.216,2.216,0,0,1-.832-.377,3.2,3.2,0,0,1-.338,1.469c-.182.208-.546.273-1.56.273a4.352,4.352,0,0,1-1-.078c-.208-.065-.26-.143-.26-.351V-2.925h2.314a9.043,9.043,0,0,1,1.3.078v-.884a8.438,8.438,0,0,1-1.3.078H22.022V-5.525h.221a9.128,9.128,0,0,1,1.1.052V-6.1a12.776,12.776,0,0,0,2.483,1.469,3.17,3.17,0,0,1,.507-.754,9.843,9.843,0,0,1-2.444-1.287,12.018,12.018,0,0,0,1.079-1.053l.624-.689-.715-.468a8.61,8.61,0,0,1-1.547,1.794c-.429-.364-.741-.65-1.1-1.014a12.612,12.612,0,0,0,1.339-1.4,2.077,2.077,0,0,1,.273-.3l-.715-.468a8,8,0,0,1-1.352,1.664,3.835,3.835,0,0,1-1-1.768,7.88,7.88,0,0,1-1.157.052h-2.47a5.477,5.477,0,0,1-.936-.065v.832a5.645,5.645,0,0,1,.845-.065h2.457a8.5,8.5,0,0,1-1.638,2.028,17.791,17.791,0,0,0-1.924-1.677l-.611.507a11.472,11.472,0,0,1,1.963,1.7,9.65,9.65,0,0,1-2.964,1.768,2.522,2.522,0,0,1,.52.676,10.865,10.865,0,0,0,2.522-1.5v.637a8.456,8.456,0,0,1,1.066-.052,13.521,13.521,0,0,1-.091,1.872Zm4.914-1.872v1.872H19.175a14.448,14.448,0,0,0,.091-1.872Zm-2.665-.7a9.719,9.719,0,0,1-.975-.039A11.774,11.774,0,0,0,20.332-9.5a9.888,9.888,0,0,0,2.795,3.237,8.439,8.439,0,0,1-.923.039ZM30.68-10.14a4,4,0,0,1,.052.689c0,.208,0,.455-.013.845-.1,4.095-.117,4.42-.117,5.291A3.621,3.621,0,0,0,31.317-.65a3.083,3.083,0,0,0,2.444.91,4.552,4.552,0,0,0,3.666-1.625A7.908,7.908,0,0,0,38.87-4.316a3.677,3.677,0,0,1-.936-.624A7.723,7.723,0,0,1,37.3-2.9,3.733,3.733,0,0,1,33.813-.637a2.454,2.454,0,0,1-1.625-.507,2.046,2.046,0,0,1-.611-1.56c-.013-.3-.026-.624-.026-.78,0-.585.039-2.353.091-3.913a20.043,20.043,0,0,1,.169-2.743ZM2,15.242a9.733,9.733,0,0,1,1.417,1.417,9.959,9.959,0,0,1-1.261,2.093,8.519,8.519,0,0,1-1.573,1.56,2.453,2.453,0,0,1,.6.663,10.226,10.226,0,0,0,2.509-3.146A13.142,13.142,0,0,0,5.07,13.136a7.617,7.617,0,0,1,.117-.78,6.993,6.993,0,0,1-1.079.052H2.847A13.8,13.8,0,0,0,3.2,10.6H4.563a7.729,7.729,0,0,1,1.157.065V9.821a11.212,11.212,0,0,1-1.287.065H2.093A9.612,9.612,0,0,1,.858,9.821v.845A6.872,6.872,0,0,1,1.989,10.6h.429a9.553,9.553,0,0,1-.377,1.872A7.064,7.064,0,0,1,.364,15.528a2.258,2.258,0,0,1,.572.637,8.756,8.756,0,0,0,1.7-3.068H4.3a14.349,14.349,0,0,1-.6,2.769,12.6,12.6,0,0,0-1.313-1.222Zm8.788,1.1a4.779,4.779,0,0,1-1.365,1.391,8.5,8.5,0,0,1-.546-1.729l2.249-.234a7.556,7.556,0,0,1,1.027-.078h.221l-.078-.832a6.926,6.926,0,0,1-1.2.195l-2.366.247c-.078-.455-.117-.715-.221-1.4l1.9-.182a10.053,10.053,0,0,1,1.092-.065h.156l-.078-.806a5.991,5.991,0,0,1-1.235.182l-1.911.195c-.052-.429-.065-.637-.117-1.287l2.2-.208c.546-.052.871-.078,1.053-.078a1.062,1.062,0,0,1,.182.013l-.065-.819a6.488,6.488,0,0,1-1.209.2l-2.21.208c-.026-.507-.065-1.235-.065-1.43a3.011,3.011,0,0,1,.052-.6H7.293a5.836,5.836,0,0,1,.091.611c.026.416.078,1.235.091,1.5l-.962.091a8.6,8.6,0,0,1-.936.052,2.239,2.239,0,0,1-.26-.013l.078.819a8.14,8.14,0,0,1,1.2-.182l.949-.078c.039.533.052.624.13,1.274l-.962.091a7.246,7.246,0,0,1-.832.052H5.629l.065.806a7.362,7.362,0,0,1,1.066-.169l.988-.091c.078.572.13.923.221,1.4l-1.521.156c-.455.039-.7.052-.936.052h-.3l.091.858a9.734,9.734,0,0,1,1.183-.195l1.625-.169a8.18,8.18,0,0,0,.676,2.106,12.456,12.456,0,0,1-4.394,1.872,3,3,0,0,1,.494.767,14.777,14.777,0,0,0,4.251-1.95c.728,1.222,1.534,1.911,2.262,1.911a.915.915,0,0,0,.78-.6,6.062,6.062,0,0,0,.442-1.924,3.434,3.434,0,0,1-.715-.455c-.1,1.4-.312,2.119-.611,2.119-.377,0-1-.611-1.521-1.508a11.449,11.449,0,0,0,1.248-1.157,6.078,6.078,0,0,1,.455-.442ZM8.762,9.756a6.976,6.976,0,0,1,1.781,1.1l.507-.585a11.394,11.394,0,0,0-1.768-1.04Zm7.475,1.1a17.759,17.759,0,0,0,2.99-.78c.143-.052.247-.091.3-.1a2.612,2.612,0,0,0,.416-.143l-.637-.689a1.965,1.965,0,0,1-.546.286,14.286,14.286,0,0,1-3.38.832,4.93,4.93,0,0,1,.078.845l.117,2.938a4.9,4.9,0,0,1-1.027.182l.247.858c.26-.091.273-.091.364-.13a27.526,27.526,0,0,0,4.03-1.417,7.152,7.152,0,0,1,.286.663l.7-.351a10.227,10.227,0,0,0-1.612-2.483l-.65.325a7.933,7.933,0,0,1,.949,1.248,25.152,25.152,0,0,1-2.522.9Zm5.733-.169a4.389,4.389,0,0,1-.442,2.093,4.066,4.066,0,0,1-1.885,1.742,2.975,2.975,0,0,1,.546.637,5.437,5.437,0,0,0,1.885-1.716,4.8,4.8,0,0,0,.689-2.756h2.119a12.67,12.67,0,0,1-.377,3.055c-.078.234-.221.312-.546.312a5.7,5.7,0,0,1-1.443-.208,3.009,3.009,0,0,1,.143.806,11.935,11.935,0,0,0,1.352.1c.767,0,1.1-.195,1.261-.728a12.823,12.823,0,0,0,.39-2.782,9.233,9.233,0,0,1,.091-1.313c-.26.026-.6.039-1.079.039h-3.2a6.533,6.533,0,0,1-1.183-.065v.845a5.515,5.515,0,0,1,1.079-.065Zm-4.823,4.719a8.781,8.781,0,0,1-1.131-.052,10.033,10.033,0,0,1,.052,1.209v3.094a8.782,8.782,0,0,1-.078,1.222h.858V20.26h7.124v.624h.871a8.52,8.52,0,0,1-.078-1.222V16.581a9.213,9.213,0,0,1,.052-1.222,9.661,9.661,0,0,1-1.2.052Zm-.3.663h3.094v1.352H16.848Zm3.861,0h3.276v1.352H20.709Zm-3.861,2h3.094v1.508H16.848Zm3.861,0h3.276v1.508H20.709ZM35.49,12.785v2.7H33.995a8.11,8.11,0,0,1-1.261-.078V16.3a9.312,9.312,0,0,1,1.326-.078h1.43v3.419H33.176a10.352,10.352,0,0,1-1.417-.078v.923a9.383,9.383,0,0,1,1.417-.091h5.343a9.383,9.383,0,0,1,1.417.091v-.923a10.352,10.352,0,0,1-1.417.078h-2.21V16.217h1.755a9.185,9.185,0,0,1,1.326.078v-.884a8.628,8.628,0,0,1-1.313.078H36.309v-2.7h2.028a11.679,11.679,0,0,1,1.326.078v-.9a7.887,7.887,0,0,1-1.339.078H36.309v-1.56A8.111,8.111,0,0,1,36.4,9.171h-1a8.444,8.444,0,0,1,.091,1.313v1.56H33.813c.091-.351.156-.585.221-.91a5,5,0,0,1,.208-.858l-.9-.182a6.074,6.074,0,0,1-.117,1.014,9,9,0,0,1-1.547,3.7,5.075,5.075,0,0,1,.728.4,9.772,9.772,0,0,0,1.17-2.431Zm-6.669,2.574a14.328,14.328,0,0,0,.65-3.562l-.689-.117a11.3,11.3,0,0,1-.637,3.406Zm2.015,5.655a9.512,9.512,0,0,1-.091-1.443V10.458a8.22,8.22,0,0,1,.091-1.313H29.822a8.558,8.558,0,0,1,.091,1.313v9.061a10.739,10.739,0,0,1-.091,1.5Zm1.443-7.644a10.373,10.373,0,0,0-.6-1.989l-.6.234a6.7,6.7,0,0,1,.546,2ZM45.786,9.457a13.375,13.375,0,0,1-.442,2.444c-.247,0-.676.013-.936.013a8.215,8.215,0,0,1-1.547-.1l-.013.9h.169c.039,0,.143,0,.286.013.195,0,.637.013.858.013.195,0,.637-.013.962-.026a19.465,19.465,0,0,1-1.352,3.354,11.477,11.477,0,0,1-1.248,2.028l.884.52c.065-.1.143-.26.26-.442.494-.858.611-1.079.923-1.7a24.22,24.22,0,0,0,1.443-3.8,15.694,15.694,0,0,0,2.132-.273c.312-.052.312-.052.455-.078l-.039-.9a10.818,10.818,0,0,1-2.327.429c.182-.663.26-.975.351-1.417a4.072,4.072,0,0,1,.208-.832Zm7.657,3.588a17.918,17.918,0,0,0-3.432-1.716l-.481.728a14.1,14.1,0,0,1,3.445,1.768Zm.026,5.759a1.316,1.316,0,0,1-.234-.208,9.338,9.338,0,0,0-2.548-1.573,15.508,15.508,0,0,1-.143-1.976,3.99,3.99,0,0,1,.169-1.209l-.884-.091a5.264,5.264,0,0,0-.13,1.261c0,.325.026.936.091,1.781a4.29,4.29,0,0,0-1.313-.195,3.8,3.8,0,0,0-1.534.286,1.844,1.844,0,0,0-1.209,1.651c0,1.157.975,1.885,2.535,1.885,1.586,0,2.47-.741,2.47-2.08a2.7,2.7,0,0,0-.026-.416,7.436,7.436,0,0,1,2.275,1.768Zm-3.614-1.183s.026.4.026.559c0,.975-.507,1.417-1.625,1.417-1.027,0-1.651-.4-1.651-1.066,0-.715.7-1.17,1.807-1.17A3.858,3.858,0,0,1,49.855,17.621ZM58.344,9.86a4,4,0,0,1,.052.689c0,.208,0,.455-.013.845-.1,4.1-.117,4.42-.117,5.291a3.621,3.621,0,0,0,.715,2.665,3.083,3.083,0,0,0,2.444.91,4.552,4.552,0,0,0,3.666-1.625,7.908,7.908,0,0,0,1.443-2.951,3.677,3.677,0,0,1-.936-.624,7.723,7.723,0,0,1-.637,2.041,3.733,3.733,0,0,1-3.484,2.262,2.454,2.454,0,0,1-1.625-.507,2.046,2.046,0,0,1-.611-1.56c-.013-.3-.026-.624-.026-.78,0-.585.039-2.353.091-3.913a20.043,20.043,0,0,1,.169-2.743Z" transform="translate(950 13647)"/>
    <path id="Path_30718" data-name="Path 30718" class="cls-6" d="M13.952-11.808c-.288.112-.288.112-1.36.112H4a11.727,11.727,0,0,1-1.9-.112v1.232a15.449,15.449,0,0,1,1.888-.08h9.088A8.488,8.488,0,0,1,11.28-8.272a6.927,6.927,0,0,1-2.528,1.52,3.143,3.143,0,0,1,.784.912,9.576,9.576,0,0,0,4.672-4.56,2.871,2.871,0,0,1,.384-.64ZM6.976-9.024a4.225,4.225,0,0,1,.064.864c0,3.12-.624,4.752-2.32,6.112A7.519,7.519,0,0,1,1.792-.576,3.129,3.129,0,0,1,2.528.5a8.716,8.716,0,0,0,4.1-2.768C7.712-3.648,8.16-5.232,8.208-7.9a5.8,5.8,0,0,1,.064-1.12Zm13.392-3.168a7.117,7.117,0,0,1,.064,1.136,21.828,21.828,0,0,1-.72,6.864,7.915,7.915,0,0,1-2.7,3.68,2.956,2.956,0,0,1,.96.864A9.781,9.781,0,0,0,20.736-3.6c.608-1.616.736-2.8.864-7.136a7.971,7.971,0,0,1,.1-1.376Zm3.984-.112a6.42,6.42,0,0,1,.064,1.424l-.1,9.36a2.7,2.7,0,0,1-.112,1.088l.64.736a2.665,2.665,0,0,1,.368-.176c.224-.08.224-.08.512-.192a10.547,10.547,0,0,0,2.288-1.168,9.091,9.091,0,0,0,3.216-4.112,4.474,4.474,0,0,1-.9-.928,7.912,7.912,0,0,1-1.888,3.2,7.4,7.4,0,0,1-2.976,1.856l.1-9.664a6.2,6.2,0,0,1,.1-1.408ZM45.072-1.152v.96h1.28a10.721,10.721,0,0,1-.08-1.456V-9.84c0-.576,0-.848.032-1.248-.4.016-.624.032-.832.032h-7.68a8.752,8.752,0,0,1-1.84-.112v1.28a13.414,13.414,0,0,1,1.84-.08h7.28V-2.24H37.456a7.823,7.823,0,0,1-1.744-.112v1.264a12.872,12.872,0,0,1,1.712-.064ZM51.5-5.488a17.479,17.479,0,0,1,1.984-.064h9.28a18.3,18.3,0,0,1,1.952.064v-1.3a12.619,12.619,0,0,1-1.936.08h-9.3A11.318,11.318,0,0,1,51.5-6.8Zm19.3-6.7a7.118,7.118,0,0,1,.064,1.136,21.828,21.828,0,0,1-.72,6.864,7.915,7.915,0,0,1-2.7,3.68,2.956,2.956,0,0,1,.96.864A9.781,9.781,0,0,0,71.168-3.6c.608-1.616.736-2.8.864-7.136a7.97,7.97,0,0,1,.1-1.376Zm3.984-.112a6.42,6.42,0,0,1,.064,1.424l-.1,9.36A2.7,2.7,0,0,1,74.64-.432L75.28.3a2.665,2.665,0,0,1,.368-.176c.224-.08.224-.08.512-.192a10.547,10.547,0,0,0,2.288-1.168,9.091,9.091,0,0,0,3.216-4.112,4.474,4.474,0,0,1-.9-.928,7.912,7.912,0,0,1-1.888,3.2A7.4,7.4,0,0,1,75.9-1.216L76-10.88a6.2,6.2,0,0,1,.1-1.408Z" transform="translate(943 13522)"/>
    <path id="Path_30697" data-name="Path 30697" class="cls-7" d="M0,0V221" transform="translate(510 13466)"/>
    <path id="Path_30703" data-name="Path 30703" class="cls-7" d="M0,0V221" transform="translate(700 13466)"/>
    <path id="Path_30714" data-name="Path 30714" class="cls-7" d="M0,0V221" transform="translate(890 13466)"/>
    <g id="Path_30704" data-name="Path 30704" class="cls-3" transform="translate(722 13584)">
      <path class="cls-9" d="M8,0A8,8,0,1,1,0,8,8,8,0,0,1,8,0Z"/>
      <path class="cls-11" d="M 8 2 C 4.691590309143066 2 2 4.691590309143066 2 8 C 2 11.30841064453125 4.691590309143066 14 8 14 C 11.30841064453125 14 14 11.30841064453125 14 8 C 14 4.691590309143066 11.30841064453125 2 8 2 M 8 0 C 12.41827964782715 0 16 3.581720352172852 16 8 C 16 12.41827964782715 12.41827964782715 16 8 16 C 3.581720352172852 16 0 12.41827964782715 0 8 C 0 3.581720352172852 3.581720352172852 0 8 0 Z"/>
    </g>
    <g id="Path_30705" data-name="Path 30705" class="cls-3" transform="translate(532 13584)">
      <path class="cls-9" d="M8,0A8,8,0,1,1,0,8,8,8,0,0,1,8,0Z"/>
      <path class="cls-11" d="M 8 2 C 4.691590309143066 2 2 4.691590309143066 2 8 C 2 11.30841064453125 4.691590309143066 14 8 14 C 11.30841064453125 14 14 11.30841064453125 14 8 C 14 4.691590309143066 11.30841064453125 2 8 2 M 8 0 C 12.41827964782715 0 16 3.581720352172852 16 8 C 16 12.41827964782715 12.41827964782715 16 8 16 C 3.581720352172852 16 0 12.41827964782715 0 8 C 0 3.581720352172852 3.581720352172852 0 8 0 Z"/>
    </g>
    <g id="Path_30715" data-name="Path 30715" class="cls-3" transform="translate(532 13644)">
      <path class="cls-9" d="M8,0A8,8,0,1,1,0,8,8,8,0,0,1,8,0Z"/>
      <path class="cls-11" d="M 8 2 C 4.691590309143066 2 2 4.691590309143066 2 8 C 2 11.30841064453125 4.691590309143066 14 8 14 C 11.30841064453125 14 14 11.30841064453125 14 8 C 14 4.691590309143066 11.30841064453125 2 8 2 M 8 0 C 12.41827964782715 0 16 3.581720352172852 16 8 C 16 12.41827964782715 12.41827964782715 16 8 16 C 3.581720352172852 16 0 12.41827964782715 0 8 C 0 3.581720352172852 3.581720352172852 0 8 0 Z"/>
    </g>
    <g id="Path_30716" data-name="Path 30716" class="cls-3" transform="translate(912 13644)">
      <path class="cls-9" d="M8,0A8,8,0,1,1,0,8,8,8,0,0,1,8,0Z"/>
      <path class="cls-11" d="M 8 2 C 4.691590309143066 2 2 4.691590309143066 2 8 C 2 11.30841064453125 4.691590309143066 14 8 14 C 11.30841064453125 14 14 11.30841064453125 14 8 C 14 4.691590309143066 11.30841064453125 2 8 2 M 8 0 C 12.41827964782715 0 16 3.581720352172852 16 8 C 16 12.41827964782715 12.41827964782715 16 8 16 C 3.581720352172852 16 0 12.41827964782715 0 8 C 0 3.581720352172852 3.581720352172852 0 8 0 Z"/>
    </g>
    <g id="Path_30717" data-name="Path 30717" class="cls-3" transform="translate(911 13584)">
      <path class="cls-9" d="M9,0l9,16H0Z"/>
      <path class="cls-11" d="M 9 4.079453468322754 L 3.419692039489746 14 L 14.58030700683594 14 L 9 4.079453468322754 M 9 0 L 18 16 L 0 16 L 9 0 Z"/>
    </g>
    <path id="Path_30706" data-name="Path 30706" class="cls-7" d="M0,0H760" transform="translate(320 13567)"/>
    <path id="Path_30708" data-name="Path 30708" class="cls-7" d="M0,0H760" transform="translate(320 13617)"/>
    <g id="Group_8687" data-name="Group 8687" transform="translate(-4531.975 8786.713) rotate(-45)">
      <line id="Line_755" data-name="Line 755" class="cls-8" x2="16" transform="translate(272.5 7161.5)"/>
      <line id="Line_756" data-name="Line 756" class="cls-8" y2="16" transform="translate(280.5 7153.5)"/>
    </g>
  </g>
</svg>
