<svg xmlns="http://www.w3.org/2000/svg" width="741.243" height="51.001" viewBox="0 0 741.243 51.001"><g transform="translate(-330.257 -11910)"><path d="M-269.7-6.4v-9.18h3.94v-1.24h-5.3V-6.4Zm14.311,4.74a5.371,5.371,0,0,0,1.621-.205,3.566,3.566,0,0,0,1.855-1.465,6,6,0,0,0,.83-2.227,8.493,8.493,0,0,0,.146-1.5,7,7,0,0,0-1.06-4.141,3.914,3.914,0,0,0-3.413-1.475h-3.447V-1.66Zm-5.42-12.686H-255a5.477,5.477,0,0,1,4.59,2.1,7.741,7.741,0,0,1,1.455,4.854,9.67,9.67,0,0,1-.859,4.131A5.3,5.3,0,0,1-255.017,0h-5.791Zm20.877,3.652a4.771,4.771,0,0,1,2.158.522,3.98,3.98,0,0,1,1.592,1.353,4.666,4.666,0,0,1,.7,1.846,12.075,12.075,0,0,1,.156,2.3h-7.666a4.473,4.473,0,0,0,.752,2.554,2.518,2.518,0,0,0,2.178.962,2.815,2.815,0,0,0,2.2-.908,3.062,3.062,0,0,0,.664-1.221h1.729A3.641,3.641,0,0,1-235.923-2a4.567,4.567,0,0,1-.864,1.157A4.1,4.1,0,0,1-238.77.215a6.022,6.022,0,0,1-1.436.156,4.4,4.4,0,0,1-3.311-1.421,5.529,5.529,0,0,1-1.357-3.979,6.011,6.011,0,0,1,1.367-4.092A4.51,4.51,0,0,1-239.932-10.693Zm2.8,4.629a4.554,4.554,0,0,0-.5-1.826,2.553,2.553,0,0,0-2.412-1.27,2.674,2.674,0,0,0-2.031.874,3.3,3.3,0,0,0-.869,2.222Zm7.224-4.395,2.793,8.516,2.92-8.516h1.924L-226.213,0h-1.875l-3.857-10.459Zm11.541.049h1.787V0h-1.787Zm0-3.936h1.787v1.992h-1.787Zm6.892,3.887h1.67v1.807A3.992,3.992,0,0,1-208.8-9.937a2.608,2.608,0,0,1,1.846-.757q.049,0,.166.01t.4.039v1.855a2.626,2.626,0,0,0-.288-.039q-.132-.01-.288-.01A2.508,2.508,0,0,0-209-7.983a2.983,2.983,0,0,0-.713,1.968V0h-1.758Zm10.769,0v6.943a2.928,2.928,0,0,0,.254,1.309,1.772,1.772,0,0,0,1.748.938,2.471,2.471,0,0,0,2.5-1.641,6.509,6.509,0,0,0,.361-2.412v-5.137h1.758V0h-1.66l.02-1.543a3.546,3.546,0,0,1-.85,1.006,3.739,3.739,0,0,1-2.441.82,3.149,3.149,0,0,1-3.047-1.494A4.45,4.45,0,0,1-202.5-3.35v-7.109Zm12.81,7.178a2.556,2.556,0,0,0,.439,1.348,2.762,2.762,0,0,0,2.3.85,3.4,3.4,0,0,0,1.719-.425,1.411,1.411,0,0,0,.742-1.313,1.123,1.123,0,0,0-.6-1.025,7.082,7.082,0,0,0-1.5-.5l-1.4-.352a6.812,6.812,0,0,1-1.973-.742,2.218,2.218,0,0,1-1.133-1.973,3.014,3.014,0,0,1,1.069-2.4,4.266,4.266,0,0,1,2.876-.918,3.992,3.992,0,0,1,3.408,1.387,3.009,3.009,0,0,1,.635,1.895h-1.66a2.034,2.034,0,0,0-.42-1.084,2.678,2.678,0,0,0-2.1-.693,2.51,2.51,0,0,0-1.509.381,1.194,1.194,0,0,0-.513,1.006,1.238,1.238,0,0,0,.674,1.094,4.049,4.049,0,0,0,1.152.43l1.162.283a8.985,8.985,0,0,1,2.539.889,2.353,2.353,0,0,1,1.025,2.119,3.229,3.229,0,0,1-1.06,2.412A4.51,4.51,0,0,1-185.236.4a4.33,4.33,0,0,1-3.306-1.06,4.007,4.007,0,0,1-1.04-2.622Zm25.816-2.6-2.178-6.338-2.314,6.338Zm-3.193-8.467h2.2L-157.868,0H-160l-1.455-4.3h-5.674L-168.678,0h-1.992Zm17.615-.391a5.879,5.879,0,0,1,4.229,1.436,5.07,5.07,0,0,1,1.67,3.262h-1.895a3.943,3.943,0,0,0-1.284-2.2,4.07,4.07,0,0,0-2.7-.811,4.33,4.33,0,0,0-3.423,1.489,6.789,6.789,0,0,0-1.3,4.565,6.631,6.631,0,0,0,1.177,4.087,4.112,4.112,0,0,0,3.511,1.567,3.709,3.709,0,0,0,3.271-1.65,6.277,6.277,0,0,0,.889-2.285h1.895a6.474,6.474,0,0,1-1.68,3.8A5.977,5.977,0,0,1-147.909.371a6.084,6.084,0,0,1-4.2-1.514q-2.236-2-2.236-6.182a7.9,7.9,0,0,1,1.68-5.205A6.135,6.135,0,0,1-147.655-14.736ZM-133.5-8.8V.38h-3.94V1.62h5.3V-8.8Zm28.6-4.46a5.756,5.756,0,0,1,2.32.5A5.272,5.272,0,0,1-99.4-7.74a6.037,6.037,0,0,1-3.54,5.6,11.989,11.989,0,0,1-3.34.94,3.178,3.178,0,0,1,.7,1.34,15.472,15.472,0,0,0,3.04-.92,7.282,7.282,0,0,0,4.58-6.9,6.7,6.7,0,0,0-1.94-4.88,7.742,7.742,0,0,0-5.5-1.98,8.354,8.354,0,0,0-6.46,2.66,8.32,8.32,0,0,0-2.1,5.52c0,2.8,1.42,4.88,3.32,4.88,1.44,0,2.62-1.2,3.78-3.84A29.981,29.981,0,0,0-104.9-13.26Zm-1.44.02a27.47,27.47,0,0,1-1.82,7.4c-.86,1.96-1.66,2.9-2.5,2.9-1.08,0-1.92-1.48-1.92-3.4a6.916,6.916,0,0,1,3.26-5.96A6.316,6.316,0,0,1-106.34-13.24Zm15.52,1a2.073,2.073,0,0,1,.32-.02,3.249,3.249,0,0,1,.36.02c1.6.06,2.5.1,2.7.1h.8c-.1,1.46-.1,1.56-.12,3.02-2.9,1.26-4.64,3.5-4.64,5.96,0,1.78,1.08,3.04,2.58,3.04,1.4,0,2.92-.82,4.46-2.42a18.011,18.011,0,0,0,3.8-6c2.16.56,3.3,1.76,3.3,3.48,0,1.78-1.26,3.24-3.44,4a9.315,9.315,0,0,1-3,.54A4.123,4.123,0,0,1-83.06.82,11.01,11.01,0,0,0-78.98-.32a5.13,5.13,0,0,0,3.14-4.62c0-2.34-1.54-4.04-4.3-4.68.34-.94.56-1.48.62-1.6l-1.38-.42a7.509,7.509,0,0,1-.48,1.8c-.5-.04-.74-.06-1.16-.06a10.568,10.568,0,0,0-2.96.4c.02-.98.02-.98.14-2.68a56.026,56.026,0,0,0,7.08-.8c.38-.06.44-.06.7-.1l-.08-1.4a30.733,30.733,0,0,1-7.62,1.12,13.3,13.3,0,0,1,.42-2.8l-1.56-.1a2.124,2.124,0,0,1,.02.3c0,.14-.04.92-.06,1.14-.08,1.02-.08,1.02-.1,1.5-.36.02-.44.02-.5.02a13.994,13.994,0,0,1-3.74-.32Zm4.06,4.38a28.286,28.286,0,0,0,.4,5.42,3.611,3.611,0,0,1-2.3,1.02c-.86,0-1.44-.72-1.44-1.82a4.725,4.725,0,0,1,1.22-2.98A7.148,7.148,0,0,1-86.76-7.86Zm1.48,4.58V-3.5a1.32,1.32,0,0,0-.02-.28,33.639,33.639,0,0,1-.22-4.58,9,9,0,0,1,2.78-.46c.22,0,.32,0,.96.04a18.064,18.064,0,0,1-3.06,5,2.168,2.168,0,0,0-.38.52ZM-66.36-13.4a9.853,9.853,0,0,1,1.08-.1c3.04-.1,5.44-.24,6.08-.36a.774.774,0,0,1,.18-.02l.04.04-.08.08-.08.08-.28.28c-1.38,1.36-4.54,4.14-6.68,5.84a22.281,22.281,0,0,1-2.8,2.04l.9,1.28a12.835,12.835,0,0,1,8.42-3.42c2.7,0,4.3,1.14,4.3,3.06,0,1.7-1.1,2.92-3.2,3.5a5.725,5.725,0,0,0-.92-1.92,4.028,4.028,0,0,0-3.3-1.64c-1.66,0-2.9,1-2.9,2.34,0,1.84,1.62,2.88,4.44,2.88,4.44,0,7.34-2.06,7.34-5.18,0-2.56-2.14-4.2-5.48-4.2a10.134,10.134,0,0,0-4.9,1.24l-.04-.06a51.32,51.32,0,0,0,6.58-5.68,3.691,3.691,0,0,1,1.02-.84l-.84-1.1a2.045,2.045,0,0,1-.96.22c-1.8.14-4.46.26-6.12.26a9.236,9.236,0,0,1-1.88-.12ZM-59.8-.74a7.2,7.2,0,0,1-1.46.14,5.11,5.11,0,0,1-2.24-.46,1.365,1.365,0,0,1-.8-1.22c0-.76.62-1.24,1.62-1.24C-61.24-3.52-60.24-2.56-59.8-.74Zm20.2-14.12h-4.98a24.788,24.788,0,0,1-2.48-.08,10.041,10.041,0,0,1,.08,1.34v1.06a9.345,9.345,0,0,1-.06,1.14l-.02.24h1.32v-2.58h14v2.58h1.32a8.711,8.711,0,0,1-.08-1.36v-1a9.057,9.057,0,0,1,.08-1.42c-.68.06-1.3.08-2.66.08H-38.3v-.52a7.17,7.17,0,0,1,.12-1.36h-1.54a7.812,7.812,0,0,1,.12,1.36Zm-1.72,4.18a18.779,18.779,0,0,1-1.64,2.84c-.96.02-1.44.04-2.08.04a12.266,12.266,0,0,1-1.24-.06l.2,1.28a4.656,4.656,0,0,1,.76-.08c3.72-.14,7.82-.38,11.38-.68a16.082,16.082,0,0,1,1.38,1.42l.96-.82a34.781,34.781,0,0,0-4.24-3.58l-.96.62a19.551,19.551,0,0,1,1.84,1.44c-2.74.2-4.42.3-6.64.36a19.64,19.64,0,0,0,1.62-2.78h5.14a15.913,15.913,0,0,1,2.28.1v-1.28a15.889,15.889,0,0,1-2.3.1h-7.76a15.4,15.4,0,0,1-2.28-.1v1.28a16.19,16.19,0,0,1,2.34-.1Zm3.04,6.26v-.3a9.58,9.58,0,0,1,.12-1.58h-1.5a9.936,9.936,0,0,1,.12,1.58v.3h-3.84a14.226,14.226,0,0,1-2.14-.1V-3.2a14.726,14.726,0,0,1,2.14-.1h3.84V-.48h-5.48a15.48,15.48,0,0,1-2.52-.14V.78A21.821,21.821,0,0,1-44.96.66h12.48A21.589,21.589,0,0,1-29.9.78V-.62a15.2,15.2,0,0,1-2.5.14h-5.88V-3.3h4.24a14.754,14.754,0,0,1,2.12.1V-4.52a14.417,14.417,0,0,1-2.12.1Zm28.56-8.1V-.74c0,.46-.14.52-1.08.52a14.578,14.578,0,0,1-2.74-.26A4.627,4.627,0,0,1-13.22.9c.82.06,1.62.1,2.28.1C-8.82,1-8.4.76-8.4-.5V-12.06a14.263,14.263,0,0,1,.08-1.76,15.871,15.871,0,0,1-2.02.1h-5.5c.02-.48.04-.76.06-1.66a5.73,5.73,0,0,1,.14-1.44H-17.2a6.766,6.766,0,0,1,.14,1.44c0,.74,0,.98-.04,1.66h-5.3a15.612,15.612,0,0,1-1.98-.1,14.978,14.978,0,0,1,.08,1.8V-.86a13.949,13.949,0,0,1-.14,2.22h1.56a14.63,14.63,0,0,1-.1-2.22V-12.52h5.76a9.4,9.4,0,0,1-1.96,5.2,10.376,10.376,0,0,1-3.46,2.68,3.794,3.794,0,0,1,.9,1.02,11.364,11.364,0,0,0,4.16-3.74,9.294,9.294,0,0,0,1.12-2.52,13.6,13.6,0,0,0,5.5,6.08,4.329,4.329,0,0,1,.88-1.16,13.419,13.419,0,0,1-3.96-3.16,12.023,12.023,0,0,1-2.02-3.54c.06-.34.08-.48.12-.86ZM7.1-13.26a5.756,5.756,0,0,1,2.32.5A5.272,5.272,0,0,1,12.6-7.74a6.037,6.037,0,0,1-3.54,5.6,11.989,11.989,0,0,1-3.34.94A3.178,3.178,0,0,1,6.42.14,15.472,15.472,0,0,0,9.46-.78a7.282,7.282,0,0,0,4.58-6.9,6.7,6.7,0,0,0-1.94-4.88,7.742,7.742,0,0,0-5.5-1.98A8.354,8.354,0,0,0,.14-11.88a8.32,8.32,0,0,0-2.1,5.52c0,2.8,1.42,4.88,3.32,4.88,1.44,0,2.62-1.2,3.78-3.84A29.98,29.98,0,0,0,7.1-13.26Zm-1.44.02a27.47,27.47,0,0,1-1.82,7.4c-.86,1.96-1.66,2.9-2.5,2.9C.26-2.94-.58-4.42-.58-6.34A6.916,6.916,0,0,1,2.68-12.3,6.316,6.316,0,0,1,5.66-13.24ZM35.9-4.62a1.14,1.14,0,0,1,.26.02,10.314,10.314,0,0,1-.06-1.22V-7.16a10.929,10.929,0,0,1,.06-1.24c-.48.04-.9.06-1.66.06H27.48c-.68,0-1.12-.02-1.6-.06a11.18,11.18,0,0,1,.06,1.24v1.32a10.684,10.684,0,0,1-.06,1.24,15.19,15.19,0,0,1,1.56-.06h2.48a16.332,16.332,0,0,1-1.98,1.88,16.167,16.167,0,0,1-4.6,2.4A3.932,3.932,0,0,1,24.2.68a20.97,20.97,0,0,0,3.2-1.8,12,12,0,0,0,2.76-2.5c-.04.52-.08,1.34-.08,1.9V-.26a11.622,11.622,0,0,1-.12,1.94h1.4a11.19,11.19,0,0,1-.12-1.92V-1.76c0-.7-.04-1.5-.08-1.96a8.828,8.828,0,0,0,2.22,2.46A14.524,14.524,0,0,0,37.3.98,5.119,5.119,0,0,1,38-.18a13.515,13.515,0,0,1-3.74-1.7A21.866,21.866,0,0,0,36.32-3.4c.3-.24.3-.24.38-.3a1.18,1.18,0,0,1,.26-.18Zm-1.22-.04c.42,0,.88.02,1.2.04a8.938,8.938,0,0,1-2.5,2.08A11.3,11.3,0,0,1,31.4-4.66ZM27.14-7.38h7.74v1.74H27.14Zm-5.52-7.08v4.72H21a6.742,6.742,0,0,1-1.36-.1v1.28A6.987,6.987,0,0,1,21-8.66h.62v5.2a10.58,10.58,0,0,1-2.52.68l.4,1.42c.28-.12.64-.28,1.06-.44,2.02-.74,2.76-1.04,4.64-1.9V-4.94a25.448,25.448,0,0,1-2.36,1.02V-8.66h.28a8.722,8.722,0,0,1,1.3.08V-9.84a6.242,6.242,0,0,1-1.3.1h-.28v-4.72h.32a8.53,8.53,0,0,1,1.52.1v-1.32a7.807,7.807,0,0,1-1.68.12H21.02a7.591,7.591,0,0,1-1.68-.12v1.32a8.81,8.81,0,0,1,1.6-.1Zm3.78,1.3a10.433,10.433,0,0,1-.06,1.36c.58-.04.94-.06,1.58-.06h8.36c.62,0,1.1.02,1.54.06a8.489,8.489,0,0,1-.08-1.32v-1.72a8.656,8.656,0,0,1,.08-1.32,11.578,11.578,0,0,1-1.6.08h-8.3a11.038,11.038,0,0,1-1.6-.08,8.278,8.278,0,0,1,.08,1.34Zm3.48.34H26.54V-15.1h2.34Zm3.26,0h-2.2V-15.1h2.2Zm3.48,0H33.2V-15.1h2.42ZM24.92-9.5a17.215,17.215,0,0,1,1.88-.1h8.78a17.014,17.014,0,0,1,1.84.1v-1.24a16.66,16.66,0,0,1-1.88.1H26.82a12.447,12.447,0,0,1-1.9-.12ZM50.78-3.6a3.4,3.4,0,0,1-.96,2.34C49-.42,47.84.04,45.6.4a3.25,3.25,0,0,1,.8,1.18A9.042,9.042,0,0,0,49.52.44a4.853,4.853,0,0,0,2.2-2.56A5.382,5.382,0,0,0,52-3.6h2.04V-.14c0,.52.14.8.46.96a4.954,4.954,0,0,0,2.26.28c1.64,0,2.16-.08,2.56-.38.46-.34.64-1,.76-2.7a3.815,3.815,0,0,1-1.18-.5,5.6,5.6,0,0,1-.28,2.12c-.16.24-.52.32-1.6.32-1.54,0-1.76-.06-1.76-.44V-3.6h1.58a13.853,13.853,0,0,1,1.64.08,9.671,9.671,0,0,1-.08-1.52V-8.1a10.189,10.189,0,0,1,.08-1.6,16.021,16.021,0,0,1-1.88.08H50.3a16.122,16.122,0,0,1-1.92-.08,10.774,10.774,0,0,1,.08,1.56v3.22a8.163,8.163,0,0,1-.08,1.4c.72-.06,1.12-.08,1.7-.08ZM49.6-8.58h7.62v1.42H49.6Zm0,2.42h7.62v1.58H49.6Zm-5.44-5.18h-.62a11.57,11.57,0,0,1-1.78-.1v1.32a12.162,12.162,0,0,1,1.74-.1h.66v6.24a12.145,12.145,0,0,1-2.58.86l.36,1.38c.24-.12.56-.26.82-.38,2.28-.92,3.34-1.4,4.92-2.2l-.1-1.22c-1,.52-1.36.68-2.2,1.06v-5.74h.26a11.764,11.764,0,0,1,1.6.08v-1.28a11.262,11.262,0,0,1-1.58.08h-.28v-2.92a16.046,16.046,0,0,1,.12-2.2H44.04a16.666,16.666,0,0,1,.12,2.2Zm9.82-3.58v-.54a6.213,6.213,0,0,1,.1-1.32H52.64a6.242,6.242,0,0,1,.1,1.3v.56H49.9a13.466,13.466,0,0,1-1.98-.1v1.2a15.56,15.56,0,0,1,1.82-.08h.18a10.292,10.292,0,0,1,.84,2.02H49.48a12.5,12.5,0,0,1-1.88-.1v1.24a17.073,17.073,0,0,1,1.9-.08h8.22a13.765,13.765,0,0,1,2,.1v-1.26a12.661,12.661,0,0,1-1.98.1H56a17.55,17.55,0,0,0,.98-2.02h.2a18.988,18.988,0,0,1,2.02.08v-1.2a13.9,13.9,0,0,1-2.02.1Zm-2.02,3.04a19.328,19.328,0,0,0-.8-2.02h4.58a12.37,12.37,0,0,1-.96,2.02Zm18.6,1.56h.08a.918.918,0,0,1,.2.02,2.978,2.978,0,0,1,.34.02,5.245,5.245,0,0,1,.64.04c.7.04,1.44.06,2.26.06.76,0,1.38-.02,2.28-.06.06,2.92.14,4.8.2,5.22a5.65,5.65,0,0,0-2.22-.4c-2.22,0-3.8,1.18-3.8,2.84C70.54-.84,72,.26,74.32.26c1.64,0,2.86-.62,3.34-1.68a3.448,3.448,0,0,0,.24-1.36,2.869,2.869,0,0,0-.04-.52,1.4,1.4,0,0,1,.18.12,1.284,1.284,0,0,0,.2.12A10.807,10.807,0,0,1,81.08-.98l.62-1.4c-.22-.14-.26-.18-.5-.34a14.477,14.477,0,0,0-3.34-1.96c-.16-2.66-.2-3.68-.22-5.66a19.12,19.12,0,0,0,2.12-.32c1.36-.28,1.36-.28,1.4-.28L81.1-12.3a13.631,13.631,0,0,1-3.46.74c-.02-.44-.02-.76-.02-.98a20.463,20.463,0,0,1,.14-3.14h-1.5a4.436,4.436,0,0,1,.06.82c0,1.52,0,1.52.02,3.4-.82.04-1.36.06-2.14.06a13.845,13.845,0,0,1-3.6-.32ZM76.58-3.8s.02.46.02.6a2.336,2.336,0,0,1-.38,1.56,2.756,2.756,0,0,1-2.04.7c-1.4,0-2.32-.64-2.32-1.62,0-1,1.02-1.66,2.58-1.66A5.166,5.166,0,0,1,76.58-3.8ZM67.02-15.7a9.213,9.213,0,0,1-.22,1.26,33.888,33.888,0,0,0-1.04,8.22,31.837,31.837,0,0,0,.56,5.94c.08.46.1.56.12.74L67.86.32a2.179,2.179,0,0,1-.04-.4,17.271,17.271,0,0,1,1.72-5.68l-.98-.46a2.757,2.757,0,0,1-.16.4A17.754,17.754,0,0,0,67.22-2.3l-.08-.02V-2.7c-.02-.36-.02-.4-.02-.56-.04-.92-.08-2.1-.08-2.8a28.5,28.5,0,0,1,1.54-9.38ZM86.54-3.04a19.961,19.961,0,0,1,3.94,4.36L91.6.26a20.379,20.379,0,0,0-4.02-4.24Zm38.18-5.14a13.83,13.83,0,0,1,2.02.12V-9.48a12.916,12.916,0,0,1-2.02.12h-8.28l1.06-2.24c.18-.4.18-.4.32-.68l-1.44-.32a12.879,12.879,0,0,1-1.34,3.24h-3.56a10.837,10.837,0,0,1-2.02-.12v1.42a14.216,14.216,0,0,1,2.02-.12h2.92a25.625,25.625,0,0,1-2.6,3.78,41.052,41.052,0,0,1,5.44,1.66,12.459,12.459,0,0,1-2.2,1.24A22.684,22.684,0,0,1,109.42.12a4.445,4.445,0,0,1,.74,1.26,22.891,22.891,0,0,0,2.74-.7,24.107,24.107,0,0,0,3.66-1.52,10.918,10.918,0,0,0,2.02-1.38,40.819,40.819,0,0,1,6.76,3.48L126.3.12a55.831,55.831,0,0,0-6.78-3.22,12.228,12.228,0,0,0,2.94-5.08Zm-3.64,0a9.657,9.657,0,0,1-1.34,2.84,10.164,10.164,0,0,1-1.48,1.76A42.084,42.084,0,0,0,113.8-5a30.568,30.568,0,0,0,2.02-3.18Zm-3.92-6.24h-5.34a17.877,17.877,0,0,1-2.14-.1,12.125,12.125,0,0,1,.1,1.52v1.14a10.482,10.482,0,0,1-.1,1.4h1.34v-2.8H125v2.8h1.34a7.82,7.82,0,0,1-.1-1.4V-13a8.807,8.807,0,0,1,.1-1.52,18.223,18.223,0,0,1-2.16.1h-5.72v-.5a9.582,9.582,0,0,1,.12-1.66h-1.54a10.253,10.253,0,0,1,.12,1.66ZM132.44-1.68a16.047,16.047,0,0,0,1.5-3.52,30.466,30.466,0,0,0,1.14-4.84l-1.34-.36a21.894,21.894,0,0,1-1.04,4.62,12.751,12.751,0,0,1-1.54,3.32Zm11.82-11.84a31.034,31.034,0,0,0-6.6-3.14l-.78,1.1a25.749,25.749,0,0,1,6.48,3.22Zm5.58,10.54a33.1,33.1,0,0,0-3.44-7.6l-1.18.62a23.148,23.148,0,0,1,1.84,3.54,30.323,30.323,0,0,1,1.48,4.18ZM138.18-10.5a10.9,10.9,0,0,1,.14-1.88H136.7a13.5,13.5,0,0,1,.14,1.9V-.9c0,1.48.56,1.72,4,1.72,3.1,0,3.82-.18,4.3-1.12.38-.74.56-1.84.76-4.32a5.425,5.425,0,0,1-1.36-.52,19.149,19.149,0,0,1-.28,3.3c-.14.72-.34,1.04-.74,1.16a9.269,9.269,0,0,1-2.56.24c-2.32,0-2.78-.12-2.78-.74Zm16.54-1.16a66.582,66.582,0,0,1,6.9-.66,40.932,40.932,0,0,0,4.4-.44,13.092,13.092,0,0,0-1.9,1.06c-2.38,1.62-3.74,3.82-3.74,6.14a4.842,4.842,0,0,0,2.22,4.08A10.088,10.088,0,0,0,166.92.06c.36.06.4.08.62.12l.26-1.62h-.2a10.251,10.251,0,0,1-3-.64,3.921,3.921,0,0,1-2.8-3.7,6.113,6.113,0,0,1,2.46-4.62,9.837,9.837,0,0,1,3.84-2,8.389,8.389,0,0,1,2.24-.28l-.12-1.48a13.508,13.508,0,0,1-2.38.22l-1.14.04c-.66.02-.92.04-3.38.18l-3.14.2c-2.46.14-2.58.16-3.7.24-.62.04-.86.06-1.14.06-.14,0-.34,0-.72-.02ZM167-9.74a14.065,14.065,0,0,1,2.04,3.18l1.02-.6a15.183,15.183,0,0,0-2.06-3.1Zm2.28-1.08a15.827,15.827,0,0,1,2.04,3.14l1-.56a16.208,16.208,0,0,0-2.06-3.12Zm22.64,2.64a13.83,13.83,0,0,1,2.02.12V-9.48a12.916,12.916,0,0,1-2.02.12h-8.28l1.06-2.24c.18-.4.18-.4.32-.68l-1.44-.32a12.879,12.879,0,0,1-1.34,3.24h-3.56a10.837,10.837,0,0,1-2.02-.12v1.42a14.216,14.216,0,0,1,2.02-.12h2.92A25.625,25.625,0,0,1,179-4.4a41.052,41.052,0,0,1,5.44,1.66,12.459,12.459,0,0,1-2.2,1.24A22.684,22.684,0,0,1,176.62.12a4.444,4.444,0,0,1,.74,1.26,22.892,22.892,0,0,0,2.74-.7,24.107,24.107,0,0,0,3.66-1.52,10.918,10.918,0,0,0,2.02-1.38,40.819,40.819,0,0,1,6.76,3.48L193.5.12a55.831,55.831,0,0,0-6.78-3.22,12.228,12.228,0,0,0,2.94-5.08Zm-3.64,0a9.657,9.657,0,0,1-1.34,2.84,10.165,10.165,0,0,1-1.48,1.76A42.084,42.084,0,0,0,181-5a30.569,30.569,0,0,0,2.02-3.18Zm-3.92-6.24h-5.34a17.877,17.877,0,0,1-2.14-.1,12.125,12.125,0,0,1,.1,1.52v1.14a10.482,10.482,0,0,1-.1,1.4h1.34v-2.8H192.2v2.8h1.34a7.82,7.82,0,0,1-.1-1.4V-13a8.807,8.807,0,0,1,.1-1.52,18.223,18.223,0,0,1-2.16.1h-5.72v-.5a9.582,9.582,0,0,1,.12-1.66h-1.54a10.252,10.252,0,0,1,.12,1.66Zm22.44,6.1v3.04h-3.34a11.438,11.438,0,0,1-1.86-.1v1.36a11.742,11.742,0,0,1,1.86-.1h3.34V-.54h-5.68a16.494,16.494,0,0,1-2.24-.12V.8A15.175,15.175,0,0,1,201.1.66h13.06a14.8,14.8,0,0,1,2.18.14V-.66a16.249,16.249,0,0,1-2.2.12H208.1V-4.12h3.72a11.466,11.466,0,0,1,1.84.1V-5.38a11.315,11.315,0,0,1-1.84.1H208.1V-8.32h3.24a11.619,11.619,0,0,1,1.84.1V-9.58a11.074,11.074,0,0,1-1.8.1H203.7a11.224,11.224,0,0,1-1.8-.1v1.36a11.9,11.9,0,0,1,1.86-.1Zm-.1-8.04a15.644,15.644,0,0,1-3.38,3.86,21.762,21.762,0,0,1-5.02,3.06,3.923,3.923,0,0,1,.88,1.2,24.918,24.918,0,0,0,5.14-3.4,16.422,16.422,0,0,0,3.2-3.6,17.494,17.494,0,0,0,3.66,3.84,28.361,28.361,0,0,0,5.08,3.22,5.362,5.362,0,0,1,.86-1.32,20.575,20.575,0,0,1-4.94-2.8,15.594,15.594,0,0,1-3.9-4.06Zm19.92.14a20.577,20.577,0,0,1-.68,3.76c-.38,0-1.04.02-1.44.02a12.638,12.638,0,0,1-2.38-.16l-.02,1.38h.26c.06,0,.22,0,.44.02.3,0,.98.02,1.32.02.3,0,.98-.02,1.48-.04a29.947,29.947,0,0,1-2.08,5.16,17.657,17.657,0,0,1-1.92,3.12l1.36.8c.1-.16.22-.4.4-.68.76-1.32.94-1.66,1.42-2.62A37.26,37.26,0,0,0,227-11.28a24.144,24.144,0,0,0,3.28-.42c.48-.08.48-.08.7-.12l-.06-1.38a16.643,16.643,0,0,1-3.58.66c.28-1.02.4-1.5.54-2.18A6.265,6.265,0,0,1,228.2-16ZM238.4-10.7a27.566,27.566,0,0,0-5.28-2.64l-.74,1.12a21.691,21.691,0,0,1,5.3,2.72Zm.04,8.86a2.024,2.024,0,0,1-.36-.32,14.366,14.366,0,0,0-3.92-2.42,23.859,23.859,0,0,1-.22-3.04,6.138,6.138,0,0,1,.26-1.86l-1.36-.14a8.1,8.1,0,0,0-.2,1.94c0,.5.04,1.44.14,2.74a6.6,6.6,0,0,0-2.02-.3,5.845,5.845,0,0,0-2.36.44,2.836,2.836,0,0,0-1.86,2.54c0,1.78,1.5,2.9,3.9,2.9,2.44,0,3.8-1.14,3.8-3.2a4.145,4.145,0,0,0-.04-.64,11.44,11.44,0,0,1,3.5,2.72Zm-5.56-1.82s.04.62.04.86c0,1.5-.78,2.18-2.5,2.18-1.58,0-2.54-.62-2.54-1.64,0-1.1,1.08-1.8,2.78-1.8A5.935,5.935,0,0,1,232.88-3.66Zm18.76-10.66h-5.36a16.87,16.87,0,0,1-2.02-.1,9.328,9.328,0,0,1,.08,1.38v1.06a10,10,0,0,1-.1,1.58h1.34v-2.78h4.12a4.537,4.537,0,0,1-1.06,3.02c-1,1.14-2.26,1.78-4.7,2.36a4.186,4.186,0,0,1,.82,1.14c2.62-.92,3.86-1.62,4.82-2.7a5.871,5.871,0,0,0,1.36-3.82h2.48V-9c0,1.02.44,1.2,3.12,1.2,3.4,0,3.72-.2,3.9-2.42a4.164,4.164,0,0,1-1.2-.44c-.08,1.72-.1,1.74-2.68,1.74A9.115,9.115,0,0,1,254.98-9c-.26-.06-.34-.16-.34-.46v-3.72h4.76v2.08h1.34a7.683,7.683,0,0,1-.1-1.4v-.54a8.989,8.989,0,0,1,.08-1.38,16.87,16.87,0,0,1-2.02.1h-5.78v-.96a6.052,6.052,0,0,1,.14-1.44H251.5a6.4,6.4,0,0,1,.14,1.44Zm.04,9.78V-.62h-5.66a15.968,15.968,0,0,1-2.22-.12V.68a14.812,14.812,0,0,1,2.22-.14h12.96a14.519,14.519,0,0,1,2.16.14V-.74a15.211,15.211,0,0,1-2.16.12h-6V-4.54h4.34a14.415,14.415,0,0,1,2.02.12V-5.8a14.746,14.746,0,0,1-2.08.12h-9.72a9.68,9.68,0,0,1-1.92-.12v1.38a10.367,10.367,0,0,1,1.98-.12ZM268-9.76h3.66c.8,0,1.48.02,2.02.06-.04-.5-.06-1.06-.06-1.86v-2.48c0-.74.02-1.34.06-1.9a17.548,17.548,0,0,1-2.04.08h-2.86a18.513,18.513,0,0,1-2.1-.08c.06.64.08,1.22.08,2.2V-.82a14.951,14.951,0,0,1-.12,2.24h1.48A14.411,14.411,0,0,1,268-.82Zm0-5.12h4.48v1.6H268Zm0,2.54h4.48v1.62H268Zm14.86-1.4a18.921,18.921,0,0,1,.1-2.2,18.513,18.513,0,0,1-2.1.08h-3.3a17.329,17.329,0,0,1-2.04-.08c.04.6.06,1.2.06,1.9v2.48c0,.74-.02,1.34-.06,1.86.54-.04,1.18-.06,2.02-.06h4.1V-.6c0,.48-.16.58-.98.58a21.749,21.749,0,0,1-2.2-.2,4.59,4.59,0,0,1,.36,1.28c.5.04,1.58.08,2,.08,1.62,0,2.04-.34,2.04-1.66Zm-6.14-1.14h4.92v1.6h-4.92Zm0,2.54h4.92v1.62h-4.92ZM278.5-6.3c0-.8.02-1.32.06-1.88a17.717,17.717,0,0,1-1.98.08h-3.66a17.948,17.948,0,0,1-1.98-.08c.04.58.06,1.16.06,1.88v4.44a12.334,12.334,0,0,1-.1,1.88h1.24v-1.4h4.38c.82,0,1.48.02,2.04.06-.04-.52-.06-1.06-.06-1.82Zm-6.36-.8h5.22v1.78h-5.22Zm0,2.78h5.22v1.94h-5.22Z" transform="translate(701 11944)" fill="#2b2b2b"/><path d="M337.757,7263.874h-6v50h6" transform="translate(-1 4646.626)" fill="none" stroke="#707070" stroke-width="1"/><path d="M337.757,7263.874h-6v50h6" transform="translate(1402.757 19224.375) rotate(180)" fill="none" stroke="#707070" stroke-width="1"/></g></svg>